G04 Layer: TopSilkLayer*
G04 EasyEDA v6.4.25, 2021-10-28T21:51:33--4:00*
G04 88f9fe5a47094e6790728aceff35a815,7db2125e4611476bb2993bf99425ef50,10*
G04 Gerber Generator version 0.2*
G04 Scale: 100 percent, Rotated: No, Reflected: No *
G04 Dimensions in inches *
G04 leading zeros omitted , absolute positions ,3 integer and 6 decimal *
%FSLAX36Y36*%
%MOIN*%

%ADD10C,0.0100*%
%ADD24C,0.0079*%
%ADD25C,0.0020*%
%ADD26C,0.0080*%
%ADD27C,0.0080*%
%ADD28C,0.0060*%

%LPD*%
D26*
X134600Y-4790000D02*
G01*
X94299Y-4790000D01*
X86300Y-4792700D01*
X80900Y-4798099D01*
X78200Y-4806100D01*
X78200Y-4811500D01*
X80900Y-4819499D01*
X86300Y-4824899D01*
X94299Y-4827600D01*
X134600Y-4827600D01*
X126500Y-4882900D02*
G01*
X131900Y-4877500D01*
X134600Y-4869499D01*
X134600Y-4858699D01*
X131900Y-4850700D01*
X126500Y-4845300D01*
X121199Y-4845300D01*
X115799Y-4848000D01*
X113099Y-4850700D01*
X110399Y-4855999D01*
X105100Y-4872100D01*
X102399Y-4877500D01*
X99699Y-4880200D01*
X94299Y-4882900D01*
X86300Y-4882900D01*
X80900Y-4877500D01*
X78200Y-4869499D01*
X78200Y-4858699D01*
X80900Y-4850700D01*
X86300Y-4845300D01*
X134600Y-4900599D02*
G01*
X78200Y-4900599D01*
X134600Y-4900599D02*
G01*
X134600Y-4924800D01*
X131900Y-4932800D01*
X129200Y-4935500D01*
X123899Y-4938200D01*
X118499Y-4938200D01*
X113099Y-4935500D01*
X110399Y-4932800D01*
X107699Y-4924800D01*
X107699Y-4900599D02*
G01*
X107699Y-4924800D01*
X105100Y-4932800D01*
X102399Y-4935500D01*
X96999Y-4938200D01*
X89000Y-4938200D01*
X83600Y-4935500D01*
X80900Y-4932800D01*
X78200Y-4924800D01*
X78200Y-4900599D01*
X134600Y-4997199D02*
G01*
X94299Y-4997199D01*
X86300Y-4999899D01*
X80900Y-5005300D01*
X78200Y-5013299D01*
X78200Y-5018699D01*
X80900Y-5026799D01*
X86300Y-5032100D01*
X94299Y-5034800D01*
X134600Y-5034800D01*
X126500Y-5090100D02*
G01*
X131900Y-5084699D01*
X134600Y-5076700D01*
X134600Y-5065900D01*
X131900Y-5057900D01*
X126500Y-5052500D01*
X121199Y-5052500D01*
X115799Y-5055200D01*
X113099Y-5057900D01*
X110399Y-5063299D01*
X105100Y-5079400D01*
X102399Y-5084699D01*
X99699Y-5087399D01*
X94299Y-5090100D01*
X86300Y-5090100D01*
X80900Y-5084699D01*
X78200Y-5076700D01*
X78200Y-5065900D01*
X80900Y-5057900D01*
X86300Y-5052500D01*
X134600Y-5107800D02*
G01*
X78200Y-5107800D01*
X134600Y-5107800D02*
G01*
X134600Y-5142700D01*
X107699Y-5107800D02*
G01*
X107699Y-5129299D01*
X78200Y-5107800D02*
G01*
X78200Y-5142700D01*
X339600Y-4785000D02*
G01*
X299299Y-4785000D01*
X291300Y-4787700D01*
X285900Y-4793099D01*
X283200Y-4801100D01*
X283200Y-4806500D01*
X285900Y-4814499D01*
X291300Y-4819899D01*
X299299Y-4822600D01*
X339600Y-4822600D01*
X339600Y-4840300D02*
G01*
X283200Y-4840300D01*
X339600Y-4840300D02*
G01*
X283200Y-4877900D01*
X339600Y-4877900D02*
G01*
X283200Y-4877900D01*
X339600Y-4895599D02*
G01*
X283200Y-4895599D01*
X339600Y-4895599D02*
G01*
X339600Y-4919800D01*
X336900Y-4927800D01*
X334200Y-4930500D01*
X328899Y-4933200D01*
X320799Y-4933200D01*
X315399Y-4930500D01*
X312699Y-4927800D01*
X310100Y-4919800D01*
X310100Y-4895599D01*
X339600Y-4950900D02*
G01*
X283200Y-4950900D01*
X283200Y-4950900D02*
G01*
X283200Y-4983099D01*
X339600Y-5000799D02*
G01*
X299299Y-5000799D01*
X291300Y-5003499D01*
X285900Y-5008899D01*
X283200Y-5016900D01*
X283200Y-5022300D01*
X285900Y-5030300D01*
X291300Y-5035700D01*
X299299Y-5038400D01*
X339600Y-5038400D01*
X326199Y-5096399D02*
G01*
X331500Y-5093699D01*
X336900Y-5088299D01*
X339600Y-5083000D01*
X339600Y-5072199D01*
X336900Y-5066900D01*
X331500Y-5061500D01*
X326199Y-5058800D01*
X318099Y-5056100D01*
X304699Y-5056100D01*
X296599Y-5058800D01*
X291300Y-5061500D01*
X285900Y-5066900D01*
X283200Y-5072199D01*
X283200Y-5083000D01*
X285900Y-5088299D01*
X291300Y-5093699D01*
X296599Y-5096399D01*
X304699Y-5096399D01*
X304699Y-5083000D02*
G01*
X304699Y-5096399D01*
X339600Y-5155400D02*
G01*
X283200Y-5155400D01*
X339600Y-5155400D02*
G01*
X339600Y-5179600D01*
X336900Y-5187600D01*
X334200Y-5190300D01*
X328899Y-5193000D01*
X320799Y-5193000D01*
X315399Y-5190300D01*
X312699Y-5187600D01*
X310100Y-5179600D01*
X310100Y-5155400D01*
X339600Y-5226799D02*
G01*
X336900Y-5221500D01*
X331500Y-5216100D01*
X326199Y-5213400D01*
X318099Y-5210700D01*
X304699Y-5210700D01*
X296599Y-5213400D01*
X291300Y-5216100D01*
X285900Y-5221500D01*
X283200Y-5226799D01*
X283200Y-5237600D01*
X285900Y-5242900D01*
X291300Y-5248299D01*
X296599Y-5250999D01*
X304699Y-5253699D01*
X318099Y-5253699D01*
X326199Y-5250999D01*
X331500Y-5248299D01*
X336900Y-5242900D01*
X339600Y-5237600D01*
X339600Y-5226799D01*
X339600Y-5271399D02*
G01*
X283200Y-5284800D01*
X339600Y-5298200D02*
G01*
X283200Y-5284800D01*
X339600Y-5298200D02*
G01*
X283200Y-5311700D01*
X339600Y-5325100D02*
G01*
X283200Y-5311700D01*
X339600Y-5342800D02*
G01*
X283200Y-5342800D01*
X339600Y-5342800D02*
G01*
X339600Y-5377700D01*
X312699Y-5342800D02*
G01*
X312699Y-5364299D01*
X283200Y-5342800D02*
G01*
X283200Y-5377700D01*
X339600Y-5395400D02*
G01*
X283200Y-5395400D01*
X339600Y-5395400D02*
G01*
X339600Y-5419600D01*
X336900Y-5427600D01*
X334200Y-5430300D01*
X328899Y-5433000D01*
X323499Y-5433000D01*
X318099Y-5430300D01*
X315399Y-5427600D01*
X312699Y-5419600D01*
X312699Y-5395400D01*
X312699Y-5414200D02*
G01*
X283200Y-5433000D01*
X339600Y-5450700D02*
G01*
X283200Y-5450700D01*
X339600Y-5450700D02*
G01*
X339600Y-5485599D01*
X312699Y-5450700D02*
G01*
X312699Y-5472199D01*
X283200Y-5450700D02*
G01*
X283200Y-5485599D01*
X339600Y-5503299D02*
G01*
X283200Y-5503299D01*
X339600Y-5503299D02*
G01*
X339600Y-5522100D01*
X336900Y-5530200D01*
X331500Y-5535500D01*
X326199Y-5538200D01*
X318099Y-5540900D01*
X304699Y-5540900D01*
X296599Y-5538200D01*
X291300Y-5535500D01*
X285900Y-5530200D01*
X283200Y-5522100D01*
X283200Y-5503299D01*
X479897Y-4821900D02*
G01*
X403598Y-4821900D01*
X479897Y-4821900D02*
G01*
X479897Y-4847399D01*
X476298Y-4858299D01*
X468998Y-4865500D01*
X461698Y-4869200D01*
X450797Y-4872800D01*
X432698Y-4872800D01*
X421698Y-4869200D01*
X414497Y-4865500D01*
X407197Y-4858299D01*
X403598Y-4847399D01*
X403598Y-4821900D01*
X479897Y-4925900D02*
G01*
X403598Y-4896799D01*
X479897Y-4925900D02*
G01*
X403598Y-4955000D01*
X428998Y-4907700D02*
G01*
X428998Y-4944099D01*
X479897Y-4979000D02*
G01*
X403598Y-4979000D01*
X479897Y-4979000D02*
G01*
X403598Y-5029899D01*
X479897Y-5029899D02*
G01*
X403598Y-5029899D01*
X461698Y-5108400D02*
G01*
X468998Y-5104800D01*
X476298Y-5097500D01*
X479897Y-5090300D01*
X479897Y-5075700D01*
X476298Y-5068400D01*
X468998Y-5061199D01*
X461698Y-5057500D01*
X450797Y-5053899D01*
X432698Y-5053899D01*
X421698Y-5057500D01*
X414497Y-5061199D01*
X407197Y-5068400D01*
X403598Y-5075700D01*
X403598Y-5090300D01*
X407197Y-5097500D01*
X414497Y-5104800D01*
X421698Y-5108400D01*
X432698Y-5108400D01*
X432698Y-5090300D02*
G01*
X432698Y-5108400D01*
X479897Y-5132399D02*
G01*
X403598Y-5132399D01*
X479897Y-5132399D02*
G01*
X479897Y-5179699D01*
X443598Y-5132399D02*
G01*
X443598Y-5161500D01*
X403598Y-5132399D02*
G01*
X403598Y-5179699D01*
X479897Y-5203699D02*
G01*
X403598Y-5203699D01*
X479897Y-5203699D02*
G01*
X479897Y-5236399D01*
X476298Y-5247399D01*
X472698Y-5250999D01*
X465398Y-5254600D01*
X458097Y-5254600D01*
X450797Y-5250999D01*
X447197Y-5247399D01*
X443598Y-5236399D01*
X443598Y-5203699D01*
X443598Y-5229200D02*
G01*
X403598Y-5254600D01*
X479897Y-5282300D02*
G01*
X428998Y-5282300D01*
X410797Y-5282300D02*
G01*
X407197Y-5278600D01*
X403598Y-5282300D01*
X407197Y-5285900D01*
X410797Y-5282300D01*
X479897Y-5313499D02*
G01*
X428998Y-5313499D01*
X410797Y-5313499D02*
G01*
X407197Y-5309899D01*
X403598Y-5313499D01*
X407197Y-5317199D01*
X410797Y-5313499D01*
X-309600Y-4846199D02*
G01*
X-253200Y-4846199D01*
X-309600Y-4865000D02*
G01*
X-309600Y-4827399D01*
X-309600Y-4809699D02*
G01*
X-269299Y-4809699D01*
X-261300Y-4806999D01*
X-255900Y-4801700D01*
X-253200Y-4793600D01*
X-253200Y-4788200D01*
X-255900Y-4780200D01*
X-261300Y-4774800D01*
X-269299Y-4772100D01*
X-309600Y-4772100D01*
X-309600Y-4754400D02*
G01*
X-253200Y-4754400D01*
X-309600Y-4754400D02*
G01*
X-309600Y-4730200D01*
X-306900Y-4722199D01*
X-304200Y-4719499D01*
X-298899Y-4716799D01*
X-293499Y-4716799D01*
X-288099Y-4719499D01*
X-285399Y-4722199D01*
X-282699Y-4730200D01*
X-282699Y-4754400D02*
G01*
X-282699Y-4730200D01*
X-280100Y-4722199D01*
X-277399Y-4719499D01*
X-271999Y-4716799D01*
X-264000Y-4716799D01*
X-258600Y-4719499D01*
X-255900Y-4722199D01*
X-253200Y-4730200D01*
X-253200Y-4754400D01*
X-309600Y-4699099D02*
G01*
X-253200Y-4699099D01*
X-309600Y-4699099D02*
G01*
X-309600Y-4664200D01*
X-282699Y-4699099D02*
G01*
X-282699Y-4677600D01*
X-253200Y-4699099D02*
G01*
X-253200Y-4664200D01*
X-309600Y-4630400D02*
G01*
X-306900Y-4638400D01*
X-298899Y-4643800D01*
X-285399Y-4646500D01*
X-277399Y-4646500D01*
X-264000Y-4643800D01*
X-255900Y-4638400D01*
X-253200Y-4630400D01*
X-253200Y-4625000D01*
X-255900Y-4616999D01*
X-264000Y-4611599D01*
X-277399Y-4608899D01*
X-285399Y-4608899D01*
X-298899Y-4611599D01*
X-306900Y-4616999D01*
X-309600Y-4625000D01*
X-309600Y-4630400D01*
X-298899Y-4591199D02*
G01*
X-301500Y-4585799D01*
X-309600Y-4577800D01*
X-253200Y-4577800D01*
X-309600Y-4554699D02*
G01*
X-309600Y-4525200D01*
X-288099Y-4541300D01*
X-288099Y-4533200D01*
X-285399Y-4527800D01*
X-282699Y-4525200D01*
X-274699Y-4522500D01*
X-269299Y-4522500D01*
X-261300Y-4525200D01*
X-255900Y-4530500D01*
X-253200Y-4538600D01*
X-253200Y-4546599D01*
X-255900Y-4554699D01*
X-258600Y-4557399D01*
X-264000Y-4560100D01*
X-234400Y-4504800D02*
G01*
X-234400Y-4456399D01*
X-296199Y-4398499D02*
G01*
X-301500Y-4401100D01*
X-306900Y-4406500D01*
X-309600Y-4411900D01*
X-309600Y-4422600D01*
X-306900Y-4428000D01*
X-301500Y-4433400D01*
X-296199Y-4435999D01*
X-288099Y-4438699D01*
X-274699Y-4438699D01*
X-266599Y-4435999D01*
X-261300Y-4433400D01*
X-255900Y-4428000D01*
X-253200Y-4422600D01*
X-253200Y-4411900D01*
X-255900Y-4406500D01*
X-261300Y-4401100D01*
X-266599Y-4398499D01*
X-296199Y-4340500D02*
G01*
X-301500Y-4343200D01*
X-306900Y-4348499D01*
X-309600Y-4353899D01*
X-309600Y-4364600D01*
X-306900Y-4370000D01*
X-301500Y-4375400D01*
X-296199Y-4378099D01*
X-288099Y-4380700D01*
X-274699Y-4380700D01*
X-266599Y-4378099D01*
X-261300Y-4375400D01*
X-255900Y-4370000D01*
X-253200Y-4364600D01*
X-253200Y-4353899D01*
X-255900Y-4348499D01*
X-261300Y-4343200D01*
X-266599Y-4340500D01*
X-296199Y-4320100D02*
G01*
X-298899Y-4320100D01*
X-304200Y-4317399D01*
X-306900Y-4314699D01*
X-309600Y-4309299D01*
X-309600Y-4298600D01*
X-306900Y-4293200D01*
X-304200Y-4290599D01*
X-298899Y-4287900D01*
X-293499Y-4287900D01*
X-288099Y-4290599D01*
X-280100Y-4295900D01*
X-253200Y-4322800D01*
X-253200Y-4285200D01*
X-301500Y-4235300D02*
G01*
X-306900Y-4237900D01*
X-309600Y-4245999D01*
X-309600Y-4251399D01*
X-306900Y-4259400D01*
X-298899Y-4264800D01*
X-285399Y-4267500D01*
X-271999Y-4267500D01*
X-261300Y-4264800D01*
X-255900Y-4259400D01*
X-253200Y-4251399D01*
X-253200Y-4248699D01*
X-255900Y-4240599D01*
X-261300Y-4235300D01*
X-269299Y-4232600D01*
X-271999Y-4232600D01*
X-280100Y-4235300D01*
X-285399Y-4240599D01*
X-288099Y-4248699D01*
X-288099Y-4251399D01*
X-285399Y-4259400D01*
X-280100Y-4264800D01*
X-271999Y-4267500D01*
X-309600Y-4182600D02*
G01*
X-309600Y-4209499D01*
X-285399Y-4212199D01*
X-288099Y-4209499D01*
X-290799Y-4201399D01*
X-290799Y-4193400D01*
X-288099Y-4185300D01*
X-282699Y-4180000D01*
X-274699Y-4177300D01*
X-269299Y-4177300D01*
X-261300Y-4180000D01*
X-255900Y-4185300D01*
X-253200Y-4193400D01*
X-253200Y-4201399D01*
X-255900Y-4209499D01*
X-258600Y-4212199D01*
X-264000Y-4214899D01*
X-296199Y-4156900D02*
G01*
X-298899Y-4156900D01*
X-304200Y-4154200D01*
X-306900Y-4151500D01*
X-309600Y-4146100D01*
X-309600Y-4135399D01*
X-306900Y-4130000D01*
X-304200Y-4127300D01*
X-298899Y-4124699D01*
X-293499Y-4124699D01*
X-288099Y-4127300D01*
X-280100Y-4132700D01*
X-253200Y-4159600D01*
X-253200Y-4121999D01*
X-309600Y-4104299D02*
G01*
X-253200Y-4104299D01*
X-309600Y-4104299D02*
G01*
X-309600Y-4080100D01*
X-306900Y-4072100D01*
X-304200Y-4069400D01*
X-298899Y-4066700D01*
X-290799Y-4066700D01*
X-285399Y-4069400D01*
X-282699Y-4072100D01*
X-280100Y-4080100D01*
X-280100Y-4104299D01*
X-296199Y-4046300D02*
G01*
X-298899Y-4046300D01*
X-304200Y-4043600D01*
X-306900Y-4040900D01*
X-309600Y-4035500D01*
X-309600Y-4024800D01*
X-306900Y-4019400D01*
X-304200Y-4016799D01*
X-298899Y-4014099D01*
X-293499Y-4014099D01*
X-288099Y-4016799D01*
X-280100Y-4022100D01*
X-253200Y-4049000D01*
X-253200Y-4011399D01*
X-234400Y-3993699D02*
G01*
X-234400Y-3945399D01*
X-309600Y-3927600D02*
G01*
X-253200Y-3927600D01*
X-309600Y-3927600D02*
G01*
X-309600Y-3903499D01*
X-306900Y-3895399D01*
X-304200Y-3892700D01*
X-298899Y-3890100D01*
X-290799Y-3890100D01*
X-285399Y-3892700D01*
X-282699Y-3895399D01*
X-280100Y-3903499D01*
X-280100Y-3927600D01*
X-309600Y-3856199D02*
G01*
X-306900Y-3861599D01*
X-301500Y-3866999D01*
X-296199Y-3869699D01*
X-288099Y-3872300D01*
X-274699Y-3872300D01*
X-266599Y-3869699D01*
X-261300Y-3866999D01*
X-255900Y-3861599D01*
X-253200Y-3856199D01*
X-253200Y-3845500D01*
X-255900Y-3840100D01*
X-261300Y-3834800D01*
X-266599Y-3832100D01*
X-274699Y-3829400D01*
X-288099Y-3829400D01*
X-296199Y-3832100D01*
X-301500Y-3834800D01*
X-306900Y-3840100D01*
X-309600Y-3845500D01*
X-309600Y-3856199D01*
X-309600Y-3811700D02*
G01*
X-253200Y-3811700D01*
X-309600Y-3811700D02*
G01*
X-309600Y-3776799D01*
X-282699Y-3811700D02*
G01*
X-282699Y-3790200D01*
X-253200Y-3811700D02*
G01*
X-253200Y-3776799D01*
X-234400Y-3759099D02*
G01*
X-234400Y-3710700D01*
X-309600Y-3693000D02*
G01*
X-253200Y-3671599D01*
X-309600Y-3650100D02*
G01*
X-253200Y-3671599D01*
X-296199Y-3629699D02*
G01*
X-298899Y-3629699D01*
X-304200Y-3626999D01*
X-306900Y-3624299D01*
X-309600Y-3618899D01*
X-309600Y-3608200D01*
X-306900Y-3602800D01*
X-304200Y-3600100D01*
X-298899Y-3597500D01*
X-293499Y-3597500D01*
X-288099Y-3600100D01*
X-280100Y-3605500D01*
X-253200Y-3632399D01*
X-253200Y-3594800D01*
X395000Y-4498499D02*
G01*
X416500Y-4498499D01*
X416500Y-4495000D01*
X414699Y-4491399D01*
X412899Y-4489600D01*
X409299Y-4487800D01*
X403899Y-4487800D01*
X400399Y-4489600D01*
X396799Y-4493200D01*
X395000Y-4498499D01*
X395000Y-4502100D01*
X396799Y-4507500D01*
X400399Y-4511100D01*
X403899Y-4512900D01*
X409299Y-4512900D01*
X412899Y-4511100D01*
X416500Y-4507500D01*
X428299Y-4475300D02*
G01*
X428299Y-4512900D01*
X428299Y-4475300D02*
G01*
X444400Y-4475300D01*
X449800Y-4477100D01*
X451500Y-4478899D01*
X453299Y-4482399D01*
X453299Y-4485999D01*
X451500Y-4489600D01*
X449800Y-4491399D01*
X444400Y-4493200D01*
X428299Y-4493200D01*
X440799Y-4493200D02*
G01*
X453299Y-4512900D01*
X465199Y-4475300D02*
G01*
X490199Y-4512900D01*
X490199Y-4475300D02*
G01*
X465199Y-4512900D01*
X395000Y-4408499D02*
G01*
X416500Y-4408499D01*
X416500Y-4405000D01*
X414699Y-4401399D01*
X412899Y-4399600D01*
X409299Y-4397800D01*
X403899Y-4397800D01*
X400399Y-4399600D01*
X396799Y-4403200D01*
X395000Y-4408499D01*
X395000Y-4412100D01*
X396799Y-4417500D01*
X400399Y-4421100D01*
X403899Y-4422900D01*
X409299Y-4422900D01*
X412899Y-4421100D01*
X416500Y-4417500D01*
X440799Y-4385300D02*
G01*
X440799Y-4422900D01*
X428299Y-4385300D02*
G01*
X453299Y-4385300D01*
X465199Y-4385300D02*
G01*
X490199Y-4422900D01*
X490199Y-4385300D02*
G01*
X465199Y-4422900D01*
X400000Y-4275300D02*
G01*
X400000Y-4312900D01*
X422500Y-4275300D02*
G01*
X419000Y-4277100D01*
X415399Y-4280599D01*
X413600Y-4284200D01*
X411799Y-4289600D01*
X411799Y-4298499D01*
X413600Y-4303899D01*
X415399Y-4307500D01*
X419000Y-4311100D01*
X422500Y-4312900D01*
X429699Y-4312900D01*
X433299Y-4311100D01*
X436900Y-4307500D01*
X438699Y-4303899D01*
X440399Y-4298499D01*
X440399Y-4289600D01*
X438699Y-4284200D01*
X436900Y-4280599D01*
X433299Y-4277100D01*
X429699Y-4275300D01*
X422500Y-4275300D01*
X463000Y-4275300D02*
G01*
X457600Y-4277100D01*
X454000Y-4282399D01*
X452300Y-4291399D01*
X452300Y-4296700D01*
X454000Y-4305700D01*
X457600Y-4311100D01*
X463000Y-4312900D01*
X466599Y-4312900D01*
X471900Y-4311100D01*
X475500Y-4305700D01*
X477300Y-4296700D01*
X477300Y-4291399D01*
X475500Y-4282399D01*
X471900Y-4277100D01*
X466599Y-4275300D01*
X463000Y-4275300D01*
X431799Y-4189200D02*
G01*
X430100Y-4185599D01*
X426500Y-4182100D01*
X422899Y-4180300D01*
X415700Y-4180300D01*
X412199Y-4182100D01*
X408600Y-4185599D01*
X406799Y-4189200D01*
X405000Y-4194600D01*
X405000Y-4203499D01*
X406799Y-4208899D01*
X408600Y-4212500D01*
X412199Y-4216100D01*
X415700Y-4217900D01*
X422899Y-4217900D01*
X426500Y-4216100D01*
X430100Y-4212500D01*
X431799Y-4208899D01*
X431799Y-4203499D01*
X422899Y-4203499D02*
G01*
X431799Y-4203499D01*
X443699Y-4180300D02*
G01*
X443699Y-4217900D01*
X443699Y-4180300D02*
G01*
X468699Y-4217900D01*
X468699Y-4180300D02*
G01*
X468699Y-4217900D01*
X480500Y-4180300D02*
G01*
X480500Y-4217900D01*
X480500Y-4180300D02*
G01*
X493000Y-4180300D01*
X498400Y-4182100D01*
X501999Y-4185599D01*
X503800Y-4189200D01*
X505599Y-4194600D01*
X505599Y-4203499D01*
X503800Y-4208899D01*
X501999Y-4212500D01*
X498400Y-4216100D01*
X493000Y-4217900D01*
X480500Y-4217900D01*
X436799Y-3929200D02*
G01*
X435100Y-3925599D01*
X431500Y-3922100D01*
X427899Y-3920300D01*
X420700Y-3920300D01*
X417199Y-3922100D01*
X413600Y-3925599D01*
X411799Y-3929200D01*
X410000Y-3934600D01*
X410000Y-3943499D01*
X411799Y-3948899D01*
X413600Y-3952500D01*
X417199Y-3956100D01*
X420700Y-3957899D01*
X427899Y-3957899D01*
X431500Y-3956100D01*
X435100Y-3952500D01*
X436799Y-3948899D01*
X436799Y-3943499D01*
X427899Y-3943499D02*
G01*
X436799Y-3943499D01*
X448699Y-3920300D02*
G01*
X448699Y-3957899D01*
X448699Y-3920300D02*
G01*
X473699Y-3957899D01*
X473699Y-3920300D02*
G01*
X473699Y-3957899D01*
X485500Y-3920300D02*
G01*
X485500Y-3957899D01*
X485500Y-3920300D02*
G01*
X498000Y-3920300D01*
X503400Y-3922100D01*
X506999Y-3925599D01*
X508800Y-3929200D01*
X510599Y-3934600D01*
X510599Y-3943499D01*
X508800Y-3948899D01*
X506999Y-3952500D01*
X503400Y-3956100D01*
X498000Y-3957899D01*
X485500Y-3957899D01*
X398600Y-4050300D02*
G01*
X418299Y-4050300D01*
X407500Y-4064600D01*
X412899Y-4064600D01*
X416500Y-4066399D01*
X418299Y-4068200D01*
X420100Y-4073499D01*
X420100Y-4077100D01*
X418299Y-4082500D01*
X414699Y-4086100D01*
X409299Y-4087899D01*
X403899Y-4087899D01*
X398600Y-4086100D01*
X396799Y-4084299D01*
X395000Y-4080700D01*
X433699Y-4078899D02*
G01*
X431900Y-4080700D01*
X433699Y-4082500D01*
X435399Y-4080700D01*
X433699Y-4078899D01*
X450799Y-4050300D02*
G01*
X470500Y-4050300D01*
X459800Y-4064600D01*
X465199Y-4064600D01*
X468699Y-4066399D01*
X470500Y-4068200D01*
X472300Y-4073499D01*
X472300Y-4077100D01*
X470500Y-4082500D01*
X466900Y-4086100D01*
X461599Y-4087899D01*
X456199Y-4087899D01*
X450799Y-4086100D01*
X449000Y-4084299D01*
X447300Y-4080700D01*
X484099Y-4062800D02*
G01*
X494899Y-4087899D01*
X505599Y-4062800D02*
G01*
X494899Y-4087899D01*
X1810799Y-3186799D02*
G01*
X1814399Y-3185100D01*
X1817899Y-3181500D01*
X1819700Y-3177899D01*
X1819700Y-3170700D01*
X1817899Y-3167199D01*
X1814399Y-3163600D01*
X1810799Y-3161799D01*
X1805399Y-3160000D01*
X1796499Y-3160000D01*
X1791099Y-3161799D01*
X1787500Y-3163600D01*
X1783900Y-3167199D01*
X1782100Y-3170700D01*
X1782100Y-3177899D01*
X1783900Y-3181500D01*
X1787500Y-3185100D01*
X1791099Y-3186799D01*
X1796499Y-3186799D01*
X1796499Y-3177899D02*
G01*
X1796499Y-3186799D01*
X1819700Y-3198699D02*
G01*
X1782100Y-3198699D01*
X1819700Y-3198699D02*
G01*
X1782100Y-3223699D01*
X1819700Y-3223699D02*
G01*
X1782100Y-3223699D01*
X1819700Y-3235500D02*
G01*
X1782100Y-3235500D01*
X1819700Y-3235500D02*
G01*
X1819700Y-3248000D01*
X1817899Y-3253400D01*
X1814399Y-3256999D01*
X1810799Y-3258800D01*
X1805399Y-3260599D01*
X1796499Y-3260599D01*
X1791099Y-3258800D01*
X1787500Y-3256999D01*
X1783900Y-3253400D01*
X1782100Y-3248000D01*
X1782100Y-3235500D01*
X2602200Y-3199699D02*
G01*
X2577100Y-3180000D01*
X2602200Y-3180000D02*
G01*
X2602200Y-3199699D01*
X2577100Y-3180000D02*
G01*
X2577100Y-3199699D01*
X2614700Y-3211500D02*
G01*
X2577100Y-3211500D01*
X2614700Y-3211500D02*
G01*
X2614700Y-3227600D01*
X2612899Y-3233000D01*
X2611099Y-3234800D01*
X2607600Y-3236500D01*
X2603999Y-3236500D01*
X2600399Y-3234800D01*
X2598599Y-3233000D01*
X2596800Y-3227600D01*
X2596800Y-3211500D01*
X2596800Y-3224000D02*
G01*
X2577100Y-3236500D01*
X2614700Y-3248400D02*
G01*
X2577100Y-3273400D01*
X2614700Y-3273400D02*
G01*
X2577100Y-3248400D01*
X2502200Y-3194699D02*
G01*
X2477100Y-3175000D01*
X2502200Y-3175000D02*
G01*
X2502200Y-3194699D01*
X2477100Y-3175000D02*
G01*
X2477100Y-3194699D01*
X2514700Y-3219000D02*
G01*
X2477100Y-3219000D01*
X2514700Y-3206500D02*
G01*
X2514700Y-3231500D01*
X2514700Y-3243400D02*
G01*
X2477100Y-3268400D01*
X2514700Y-3268400D02*
G01*
X2477100Y-3243400D01*
X2392200Y-3164699D02*
G01*
X2367100Y-3145000D01*
X2392200Y-3145000D02*
G01*
X2392200Y-3164699D01*
X2367100Y-3145000D02*
G01*
X2367100Y-3164699D01*
X2404700Y-3176500D02*
G01*
X2367100Y-3176500D01*
X2404700Y-3176500D02*
G01*
X2404700Y-3192600D01*
X2402899Y-3198000D01*
X2401099Y-3199800D01*
X2397600Y-3201500D01*
X2393999Y-3201500D01*
X2390399Y-3199800D01*
X2388599Y-3198000D01*
X2386800Y-3192600D01*
X2386800Y-3176500D01*
X2386800Y-3189000D02*
G01*
X2367100Y-3201500D01*
X2399399Y-3238400D02*
G01*
X2402899Y-3234800D01*
X2404700Y-3229499D01*
X2404700Y-3222300D01*
X2402899Y-3216900D01*
X2399399Y-3213400D01*
X2395799Y-3213400D01*
X2392200Y-3215200D01*
X2390399Y-3216900D01*
X2388599Y-3220500D01*
X2385000Y-3231300D01*
X2383299Y-3234800D01*
X2381499Y-3236599D01*
X2377899Y-3238400D01*
X2372500Y-3238400D01*
X2368900Y-3234800D01*
X2367100Y-3229499D01*
X2367100Y-3222300D01*
X2368900Y-3216900D01*
X2372500Y-3213400D01*
X2404700Y-3262800D02*
G01*
X2367100Y-3262800D01*
X2404700Y-3250200D02*
G01*
X2404700Y-3275300D01*
X2299700Y-3202500D02*
G01*
X2262100Y-3202500D01*
X2299700Y-3190000D02*
G01*
X2299700Y-3215100D01*
X2299700Y-3226900D02*
G01*
X2262100Y-3226900D01*
X2299700Y-3226900D02*
G01*
X2299700Y-3239400D01*
X2297899Y-3244800D01*
X2294399Y-3248299D01*
X2290799Y-3250100D01*
X2285399Y-3251900D01*
X2276499Y-3251900D01*
X2271099Y-3250100D01*
X2267500Y-3248299D01*
X2263900Y-3244800D01*
X2262100Y-3239400D01*
X2262100Y-3226900D01*
X2299700Y-3263699D02*
G01*
X2262100Y-3263699D01*
X2204700Y-3177500D02*
G01*
X2167100Y-3177500D01*
X2204700Y-3165000D02*
G01*
X2204700Y-3190100D01*
X2204700Y-3201900D02*
G01*
X2167100Y-3201900D01*
X2204700Y-3201900D02*
G01*
X2204700Y-3214400D01*
X2202899Y-3219800D01*
X2199399Y-3223299D01*
X2195799Y-3225100D01*
X2190399Y-3226900D01*
X2181499Y-3226900D01*
X2176099Y-3225100D01*
X2172500Y-3223299D01*
X2168900Y-3219800D01*
X2167100Y-3214400D01*
X2167100Y-3201900D01*
X2204700Y-3249499D02*
G01*
X2202899Y-3245900D01*
X2199399Y-3242300D01*
X2195799Y-3240500D01*
X2190399Y-3238699D01*
X2181499Y-3238699D01*
X2176099Y-3240500D01*
X2172500Y-3242300D01*
X2168900Y-3245900D01*
X2167100Y-3249499D01*
X2167100Y-3256599D01*
X2168900Y-3260200D01*
X2172500Y-3263800D01*
X2176099Y-3265599D01*
X2181499Y-3267399D01*
X2190399Y-3267399D01*
X2195799Y-3265599D01*
X2199399Y-3263800D01*
X2202899Y-3260200D01*
X2204700Y-3256599D01*
X2204700Y-3249499D01*
X2109700Y-3177500D02*
G01*
X2072100Y-3177500D01*
X2109700Y-3165000D02*
G01*
X2109700Y-3190100D01*
X2109700Y-3201900D02*
G01*
X2072100Y-3201900D01*
X2109700Y-3201900D02*
G01*
X2072100Y-3216199D01*
X2109700Y-3230500D02*
G01*
X2072100Y-3216199D01*
X2109700Y-3230500D02*
G01*
X2072100Y-3230500D01*
X2104399Y-3267399D02*
G01*
X2107899Y-3263800D01*
X2109700Y-3258400D01*
X2109700Y-3251300D01*
X2107899Y-3245900D01*
X2104399Y-3242300D01*
X2100799Y-3242300D01*
X2097200Y-3244099D01*
X2095399Y-3245900D01*
X2093599Y-3249499D01*
X2090000Y-3260200D01*
X2088299Y-3263800D01*
X2086499Y-3265599D01*
X2082899Y-3267399D01*
X2077500Y-3267399D01*
X2073900Y-3263800D01*
X2072100Y-3258400D01*
X2072100Y-3251300D01*
X2073900Y-3245900D01*
X2077500Y-3242300D01*
X2014700Y-3172500D02*
G01*
X1977100Y-3172500D01*
X2014700Y-3160000D02*
G01*
X2014700Y-3185100D01*
X2005799Y-3223699D02*
G01*
X2009399Y-3221900D01*
X2012899Y-3218299D01*
X2014700Y-3214800D01*
X2014700Y-3207600D01*
X2012899Y-3204000D01*
X2009399Y-3200399D01*
X2005799Y-3198699D01*
X2000399Y-3196900D01*
X1991499Y-3196900D01*
X1986099Y-3198699D01*
X1982500Y-3200399D01*
X1978900Y-3204000D01*
X1977100Y-3207600D01*
X1977100Y-3214800D01*
X1978900Y-3218299D01*
X1982500Y-3221900D01*
X1986099Y-3223699D01*
X2014700Y-3235500D02*
G01*
X1977100Y-3235500D01*
X2014700Y-3260599D02*
G01*
X1989700Y-3235500D01*
X1998599Y-3244499D02*
G01*
X1977100Y-3260599D01*
X1924700Y-3163600D02*
G01*
X1924700Y-3183299D01*
X1910399Y-3172500D01*
X1910399Y-3177899D01*
X1908599Y-3181500D01*
X1906800Y-3183299D01*
X1901499Y-3185100D01*
X1897899Y-3185100D01*
X1892500Y-3183299D01*
X1888900Y-3179699D01*
X1887100Y-3174299D01*
X1887100Y-3168899D01*
X1888900Y-3163600D01*
X1890699Y-3161799D01*
X1894300Y-3160000D01*
X1896099Y-3198699D02*
G01*
X1894300Y-3196900D01*
X1892500Y-3198699D01*
X1894300Y-3200399D01*
X1896099Y-3198699D01*
X1924700Y-3215799D02*
G01*
X1924700Y-3235500D01*
X1910399Y-3224800D01*
X1910399Y-3230200D01*
X1908599Y-3233699D01*
X1906800Y-3235500D01*
X1901499Y-3237300D01*
X1897899Y-3237300D01*
X1892500Y-3235500D01*
X1888900Y-3231900D01*
X1887100Y-3226599D01*
X1887100Y-3221199D01*
X1888900Y-3215799D01*
X1890699Y-3214000D01*
X1894300Y-3212300D01*
X1912200Y-3249099D02*
G01*
X1887100Y-3259899D01*
X1912200Y-3270599D02*
G01*
X1887100Y-3259899D01*
X229600Y-4785000D02*
G01*
X173200Y-4785000D01*
X229600Y-4785000D02*
G01*
X229600Y-4819899D01*
X202699Y-4785000D02*
G01*
X202699Y-4806500D01*
X173200Y-4785000D02*
G01*
X173200Y-4819899D01*
X229600Y-4856399D02*
G01*
X173200Y-4856399D01*
X229600Y-4837600D02*
G01*
X229600Y-4875200D01*
X229600Y-4892900D02*
G01*
X173200Y-4892900D01*
X229600Y-4930500D02*
G01*
X173200Y-4930500D01*
X202699Y-4892900D02*
G01*
X202699Y-4930500D01*
X229600Y-4948200D02*
G01*
X173200Y-4948200D01*
X229600Y-4948200D02*
G01*
X229600Y-4983099D01*
X202699Y-4948200D02*
G01*
X202699Y-4969699D01*
X173200Y-4948200D02*
G01*
X173200Y-4983099D01*
X229600Y-5000799D02*
G01*
X173200Y-5000799D01*
X229600Y-5000799D02*
G01*
X229600Y-5025000D01*
X226900Y-5033000D01*
X224200Y-5035700D01*
X218899Y-5038400D01*
X213499Y-5038400D01*
X208099Y-5035700D01*
X205399Y-5033000D01*
X202699Y-5025000D01*
X202699Y-5000799D01*
X202699Y-5019600D02*
G01*
X173200Y-5038400D01*
X229600Y-5056100D02*
G01*
X173200Y-5056100D01*
X229600Y-5056100D02*
G01*
X173200Y-5093699D01*
X229600Y-5093699D02*
G01*
X173200Y-5093699D01*
X229600Y-5111399D02*
G01*
X173200Y-5111399D01*
X229600Y-5111399D02*
G01*
X229600Y-5146300D01*
X202699Y-5111399D02*
G01*
X202699Y-5132900D01*
X173200Y-5111399D02*
G01*
X173200Y-5146300D01*
X229600Y-5182800D02*
G01*
X173200Y-5182800D01*
X229600Y-5164000D02*
G01*
X229600Y-5201599D01*
X229600Y-5260700D02*
G01*
X173200Y-5260700D01*
X229600Y-5260700D02*
G01*
X229600Y-5284800D01*
X226900Y-5292900D01*
X224200Y-5295599D01*
X218899Y-5298200D01*
X213499Y-5298200D01*
X208099Y-5295599D01*
X205399Y-5292900D01*
X202699Y-5284800D01*
X202699Y-5260700D02*
G01*
X202699Y-5284800D01*
X200100Y-5292900D01*
X197399Y-5295599D01*
X191999Y-5298200D01*
X184000Y-5298200D01*
X178600Y-5295599D01*
X175900Y-5292900D01*
X173200Y-5284800D01*
X173200Y-5260700D01*
X229600Y-5315999D02*
G01*
X173200Y-5315999D01*
X229600Y-5315999D02*
G01*
X229600Y-5350900D01*
X202699Y-5315999D02*
G01*
X202699Y-5337399D01*
X173200Y-5315999D02*
G01*
X173200Y-5350900D01*
X229600Y-5368600D02*
G01*
X173200Y-5368600D01*
X229600Y-5368600D02*
G01*
X229600Y-5403499D01*
X202699Y-5368600D02*
G01*
X202699Y-5390000D01*
X229600Y-5437300D02*
G01*
X226900Y-5431900D01*
X221500Y-5426599D01*
X216199Y-5423899D01*
X208099Y-5421199D01*
X194699Y-5421199D01*
X186599Y-5423899D01*
X181300Y-5426599D01*
X175900Y-5431900D01*
X173200Y-5437300D01*
X173200Y-5448000D01*
X175900Y-5453400D01*
X181300Y-5458800D01*
X186599Y-5461399D01*
X194699Y-5464099D01*
X208099Y-5464099D01*
X216199Y-5461399D01*
X221500Y-5458800D01*
X226900Y-5453400D01*
X229600Y-5448000D01*
X229600Y-5437300D01*
X229600Y-5481799D02*
G01*
X173200Y-5481799D01*
X229600Y-5481799D02*
G01*
X229600Y-5505999D01*
X226900Y-5514099D01*
X224200Y-5516700D01*
X218899Y-5519400D01*
X213499Y-5519400D01*
X208099Y-5516700D01*
X205399Y-5514099D01*
X202699Y-5505999D01*
X202699Y-5481799D01*
X202699Y-5500599D02*
G01*
X173200Y-5519400D01*
X229600Y-5537100D02*
G01*
X173200Y-5537100D01*
X229600Y-5537100D02*
G01*
X229600Y-5571999D01*
X202699Y-5537100D02*
G01*
X202699Y-5558600D01*
X173200Y-5537100D02*
G01*
X173200Y-5571999D01*
D28*
X1130000Y-2614600D02*
G01*
X1130000Y-2657500D01*
X1130000Y-2614600D02*
G01*
X1158599Y-2657500D01*
X1158599Y-2614600D02*
G01*
X1158599Y-2657500D01*
X1184399Y-2614600D02*
G01*
X1180299Y-2616599D01*
X1176199Y-2620700D01*
X1174200Y-2624800D01*
X1172100Y-2630999D01*
X1172100Y-2641199D01*
X1174200Y-2647300D01*
X1176199Y-2651399D01*
X1180299Y-2655500D01*
X1184399Y-2657500D01*
X1192600Y-2657500D01*
X1196700Y-2655500D01*
X1200799Y-2651399D01*
X1202799Y-2647300D01*
X1204899Y-2641199D01*
X1204899Y-2630999D01*
X1202799Y-2624800D01*
X1200799Y-2620700D01*
X1196700Y-2616599D01*
X1192600Y-2614600D01*
X1184399Y-2614600D01*
X632300Y-2955500D02*
G01*
X628200Y-2957500D01*
X624099Y-2961599D01*
X621999Y-2965700D01*
X620000Y-2971799D01*
X620000Y-2981999D01*
X621999Y-2988200D01*
X624099Y-2992300D01*
X628200Y-2996399D01*
X632300Y-2998400D01*
X640500Y-2998400D01*
X644499Y-2996399D01*
X648600Y-2992300D01*
X650700Y-2988200D01*
X652699Y-2981999D01*
X652699Y-2971799D01*
X650700Y-2965700D01*
X648600Y-2961599D01*
X644499Y-2957500D01*
X640500Y-2955500D01*
X632300Y-2955500D01*
X666199Y-2955500D02*
G01*
X666199Y-2998400D01*
X679699Y-2955500D02*
G01*
X681799Y-2957500D01*
X683800Y-2955500D01*
X681799Y-2953400D01*
X679699Y-2955500D01*
X681799Y-2969800D02*
G01*
X681799Y-2998400D01*
X697300Y-2969800D02*
G01*
X697300Y-2998400D01*
X697300Y-2978000D02*
G01*
X703499Y-2971799D01*
X707500Y-2969800D01*
X713699Y-2969800D01*
X717800Y-2971799D01*
X719800Y-2978000D01*
X719800Y-2998400D01*
X719800Y-2978000D02*
G01*
X725999Y-2971799D01*
X730000Y-2969800D01*
X736199Y-2969800D01*
X740300Y-2971799D01*
X742300Y-2978000D01*
X742300Y-2998400D01*
X755799Y-2981999D02*
G01*
X780399Y-2981999D01*
X780399Y-2978000D01*
X778299Y-2973899D01*
X776300Y-2971799D01*
X772200Y-2969800D01*
X766000Y-2969800D01*
X761999Y-2971799D01*
X757899Y-2975900D01*
X755799Y-2981999D01*
X755799Y-2986100D01*
X757899Y-2992300D01*
X761999Y-2996399D01*
X766000Y-2998400D01*
X772200Y-2998400D01*
X776300Y-2996399D01*
X780399Y-2992300D01*
X793900Y-2969800D02*
G01*
X816400Y-2998400D01*
X816400Y-2969800D02*
G01*
X793900Y-2998400D01*
X861400Y-2955500D02*
G01*
X861400Y-2998400D01*
X861400Y-2955500D02*
G01*
X888000Y-2955500D01*
X861400Y-2975900D02*
G01*
X877700Y-2975900D01*
X861400Y-2998400D02*
G01*
X888000Y-2998400D01*
X930100Y-2961599D02*
G01*
X926000Y-2957500D01*
X919899Y-2955500D01*
X911700Y-2955500D01*
X905500Y-2957500D01*
X901499Y-2961599D01*
X901499Y-2965700D01*
X903500Y-2969800D01*
X905500Y-2971799D01*
X909600Y-2973899D01*
X921899Y-2978000D01*
X926000Y-2980000D01*
X928000Y-2981999D01*
X930100Y-2986100D01*
X930100Y-2992300D01*
X926000Y-2996399D01*
X919899Y-2998400D01*
X911700Y-2998400D01*
X905500Y-2996399D01*
X901499Y-2992300D01*
X943599Y-2955500D02*
G01*
X943599Y-2998400D01*
X943599Y-2955500D02*
G01*
X961999Y-2955500D01*
X968100Y-2957500D01*
X970200Y-2959499D01*
X972200Y-2963600D01*
X972200Y-2969800D01*
X970200Y-2973899D01*
X968100Y-2975900D01*
X961999Y-2978000D01*
X943599Y-2978000D01*
X989799Y-2955500D02*
G01*
X1012299Y-2955500D01*
X1000000Y-2971799D01*
X1006199Y-2971799D01*
X1010299Y-2973899D01*
X1012299Y-2975900D01*
X1014399Y-2981999D01*
X1014399Y-2986100D01*
X1012299Y-2992300D01*
X1008199Y-2996399D01*
X1002100Y-2998400D01*
X996000Y-2998400D01*
X989799Y-2996399D01*
X987799Y-2994299D01*
X985699Y-2990200D01*
X1029899Y-2965700D02*
G01*
X1029899Y-2963600D01*
X1031999Y-2959499D01*
X1033999Y-2957500D01*
X1038100Y-2955500D01*
X1046300Y-2955500D01*
X1050399Y-2957500D01*
X1052399Y-2959499D01*
X1054499Y-2963600D01*
X1054499Y-2967700D01*
X1052399Y-2971799D01*
X1048299Y-2978000D01*
X1027899Y-2998400D01*
X1056499Y-2998400D01*
X1070000Y-2980000D02*
G01*
X1106800Y-2980000D01*
X1120299Y-2955500D02*
G01*
X1120299Y-2998400D01*
X1120299Y-2955500D02*
G01*
X1138699Y-2955500D01*
X1144899Y-2957500D01*
X1146899Y-2959499D01*
X1148999Y-2963600D01*
X1148999Y-2969800D01*
X1146899Y-2973899D01*
X1144899Y-2975900D01*
X1138699Y-2978000D01*
X1120299Y-2978000D01*
X1174700Y-2955500D02*
G01*
X1170600Y-2957500D01*
X1166499Y-2961599D01*
X1164499Y-2965700D01*
X1162500Y-2971799D01*
X1162500Y-2981999D01*
X1164499Y-2988200D01*
X1166499Y-2992300D01*
X1170600Y-2996399D01*
X1174700Y-2998400D01*
X1182899Y-2998400D01*
X1186999Y-2996399D01*
X1191099Y-2992300D01*
X1193100Y-2988200D01*
X1195200Y-2981999D01*
X1195200Y-2971799D01*
X1193100Y-2965700D01*
X1191099Y-2961599D01*
X1186999Y-2957500D01*
X1182899Y-2955500D01*
X1174700Y-2955500D01*
X1208699Y-2955500D02*
G01*
X1208699Y-2998400D01*
X1208699Y-2955500D02*
G01*
X1235299Y-2955500D01*
X1208699Y-2975900D02*
G01*
X1225000Y-2975900D01*
X1208699Y-2998400D02*
G01*
X1235299Y-2998400D01*
X2240000Y-3120399D02*
G01*
X2240000Y-3077500D01*
X2240000Y-3120399D02*
G01*
X2221599Y-3120399D01*
X2215500Y-3118400D01*
X2213400Y-3116300D01*
X2211400Y-3112199D01*
X2211400Y-3108099D01*
X2213400Y-3104000D01*
X2215500Y-3101999D01*
X2221599Y-3100000D01*
X2240000Y-3100000D01*
X2225699Y-3100000D02*
G01*
X2211400Y-3077500D01*
X2197899Y-3112199D02*
G01*
X2193800Y-3114299D01*
X2187600Y-3120399D01*
X2187600Y-3077500D01*
X2085000Y-4614600D02*
G01*
X2085000Y-4657500D01*
X2085000Y-4614600D02*
G01*
X2103400Y-4614600D01*
X2109499Y-4616599D01*
X2111599Y-4618699D01*
X2113599Y-4622800D01*
X2113599Y-4626900D01*
X2111599Y-4630999D01*
X2109499Y-4633000D01*
X2103400Y-4635000D01*
X2085000Y-4635000D01*
X2099300Y-4635000D02*
G01*
X2113599Y-4657500D01*
X2147600Y-4614600D02*
G01*
X2127100Y-4643200D01*
X2157799Y-4643200D01*
X2147600Y-4614600D02*
G01*
X2147600Y-4657500D01*
X2115000Y-4864600D02*
G01*
X2115000Y-4907500D01*
X2115000Y-4864600D02*
G01*
X2133400Y-4864600D01*
X2139499Y-4866599D01*
X2141599Y-4868699D01*
X2143599Y-4872800D01*
X2143599Y-4876900D01*
X2141599Y-4880999D01*
X2139499Y-4883000D01*
X2133400Y-4885000D01*
X2115000Y-4885000D02*
G01*
X2133400Y-4885000D01*
X2139499Y-4887100D01*
X2141599Y-4889099D01*
X2143599Y-4893200D01*
X2143599Y-4899400D01*
X2141599Y-4903499D01*
X2139499Y-4905500D01*
X2133400Y-4907500D01*
X2115000Y-4907500D01*
X2185799Y-4870700D02*
G01*
X2181700Y-4866599D01*
X2175500Y-4864600D01*
X2167399Y-4864600D01*
X2161199Y-4866599D01*
X2157100Y-4870700D01*
X2157100Y-4874800D01*
X2159200Y-4878899D01*
X2161199Y-4880999D01*
X2165299Y-4883000D01*
X2177600Y-4887100D01*
X2181700Y-4889099D01*
X2183699Y-4891199D01*
X2185799Y-4895300D01*
X2185799Y-4901399D01*
X2181700Y-4905500D01*
X2175500Y-4907500D01*
X2167399Y-4907500D01*
X2161199Y-4905500D01*
X2157100Y-4901399D01*
X2199300Y-4864600D02*
G01*
X2199300Y-4907500D01*
X2199300Y-4907500D02*
G01*
X2223800Y-4907500D01*
G36*
X1052440Y-5272200D02*
G01*
X1052440Y-6059600D01*
X1642980Y-6059600D01*
X1642980Y-5272200D01*
G37*
D10*
X580000Y-2910000D02*
G01*
X1682359Y-2910000D01*
X1682359Y-5862759D01*
X580000Y-5862759D01*
X580000Y-2910000D01*
X776850Y-2673780D02*
G01*
X1485510Y-2673780D01*
X1485510Y-2910000D01*
X776850Y-2910000D01*
X776850Y-2673780D01*
D24*
X2208149Y-2974250D02*
G01*
X2156180Y-2974250D01*
X2156180Y-3055749D01*
X2208149Y-3055749D01*
X2252719Y-2974250D02*
G01*
X2304690Y-2974250D01*
X2304690Y-3055749D01*
X2252719Y-3055749D01*
D10*
X1751499Y-3318800D02*
G01*
X1751499Y-3421199D01*
X2655000Y-3421199D01*
X2655000Y-3318800D01*
X1751499Y-3318800D01*
D25*
X2129684Y-4770156D02*
G01*
X2178897Y-4770156D01*
X2129684Y-4689843D02*
G01*
X2178897Y-4689843D01*
X2090315Y-4770156D02*
G01*
X2041102Y-4770156D01*
X2090315Y-4689843D02*
G01*
X2041102Y-4689843D01*
X2178899Y-4770156D02*
G01*
X2178897Y-4689843D01*
X2041102Y-4770156D02*
G01*
X2041102Y-4689843D01*
D26*
X355000Y-4545000D02*
G01*
X255000Y-4545000D01*
X255000Y-4145000D01*
X355000Y-4145000D01*
X355000Y-4220000D01*
D27*
X355000Y-4545000D02*
G01*
X355000Y-4220000D01*
D10*
X360000Y-3890000D02*
G01*
X360000Y-4090000D01*
X260000Y-4090000D01*
X260000Y-3890000D01*
X360000Y-3890000D01*
X3021530Y-3860090D02*
G01*
X3021530Y-4505430D01*
X1840320Y-4505430D01*
X1840320Y-3860090D01*
X3021530Y-3860090D01*
X2086260Y-4952912D02*
G01*
X2243739Y-4952912D01*
X2086260Y-5067087D02*
G01*
X2243739Y-5067087D01*
X2086260Y-4952912D02*
G01*
X2086260Y-4961529D01*
X2086260Y-5058470D02*
G01*
X2086260Y-5067087D01*
X2243739Y-4952912D02*
G01*
X2243739Y-4961529D01*
X2243739Y-5058470D02*
G01*
X2243739Y-5067087D01*
G75*
G01
X2198470Y-5010000D02*
G03X2198470Y-5010000I-33470J0D01*
M02*
