M48
INCH,LZ
;FILE_FORMAT=2:4
;TYPE=PLATED
;Layer: Drill PTH
;EasyEDA v6.4.25, 2021-10-28T21:51:33--4:00
;88f9fe5a47094e6790728aceff35a815,7db2125e4611476bb2993bf99425ef50,10
;Gerber Generator version 0.2
;Holesize 1 = 0.0120 inch
T01C0.0120
;Holesize 2 = 0.0360 inch
T02C0.0360
;Holesize 3 = 0.0430 inch
T03C0.0430
;Holesize 4 = 0.0470 inch
T04C0.0470
%
G05
G90
T01
X018950Y-029450
X024200Y-050100
X020200Y-040650
X021000Y-040650
X021900Y-039900
T02
X006310Y-040100
X006310Y-041100
X006310Y-042100
X006310Y-043100
X006310Y-044100
X006310Y-045100
X006310Y-046100
X006310Y-047100
X006310Y-048100
X006310Y-049100
X016310Y-049100
X016310Y-048100
X016310Y-047100
X016310Y-046100
X016310Y-045100
X016310Y-044100
X016310Y-043100
X016310Y-042100
X016310Y-041100
X016310Y-040100
X018050Y-033700
X019050Y-033700
X020050Y-033700
X021050Y-033700
X022050Y-033700
X023050Y-033700
X024050Y-033700
X025050Y-033700
X026050Y-033700
T03
X003050Y-041950
X003050Y-042950
X003050Y-043950
X003050Y-044950
T04
X003100Y-040400
X003100Y-039400
M30
