G04 Layer: TopLayer*
G04 EasyEDA v6.4.25, 2021-10-28T21:51:33--4:00*
G04 88f9fe5a47094e6790728aceff35a815,7db2125e4611476bb2993bf99425ef50,10*
G04 Gerber Generator version 0.2*
G04 Scale: 100 percent, Rotated: No, Reflected: No *
G04 Dimensions in inches *
G04 leading zeros omitted , absolute positions ,3 integer and 6 decimal *
%FSLAX36Y36*%
%MOIN*%

%ADD10C,0.0100*%
%ADD11C,0.0102*%
%ADD12C,0.0240*%
%ADD13R,0.0457X0.0579*%
%ADD14R,0.0394X0.0610*%
%ADD15R,0.0276X0.0906*%
%ADD17C,0.0600*%
%ADD19C,0.0630*%
%ADD20R,0.0669X0.0669*%
%ADD21C,0.0669*%
%ADD22C,0.0709*%
%ADD23R,0.0709X0.0709*%

%LPD*%
D10*
X2193860Y-3859989D02*
G01*
X2193860Y-3986140D01*
X2190000Y-3990000D01*
X2044799Y-4510000D02*
G01*
X2044799Y-4120200D01*
X2100000Y-4065000D01*
X1994809Y-4510000D02*
G01*
X1994809Y-4090189D01*
X2020000Y-4065000D01*
X2253580Y-5010000D02*
G01*
X2420000Y-5010000D01*
X2710160Y-4510000D02*
G01*
X2710160Y-4719839D01*
X2420000Y-5010000D01*
X2269989Y-3015000D02*
G01*
X2199989Y-2945000D01*
X1895000Y-2945000D01*
D11*
X1944799Y-4566799D02*
G01*
X2028199Y-4566799D01*
X2149399Y-4688000D01*
X1944799Y-4510000D02*
G01*
X1944799Y-4566799D01*
X2149399Y-4730000D02*
G01*
X2149399Y-4688000D01*
X2043900Y-3860000D02*
G01*
X2043900Y-3431100D01*
X2105000Y-3370000D01*
X1993900Y-3860000D02*
G01*
X1993900Y-3381100D01*
X2005000Y-3370000D01*
X2094799Y-3860000D02*
G01*
X2094799Y-3574899D01*
X2155699Y-3514099D01*
X2155699Y-3015000D01*
X2190000Y-3015000D02*
G01*
X2155699Y-3015000D01*
X2405000Y-3370000D02*
G01*
X2405000Y-3115700D01*
X2304300Y-3015000D01*
X2270000Y-3015000D02*
G01*
X2304300Y-3015000D01*
X2076400Y-5010000D02*
G01*
X2076400Y-4959099D01*
X2076400Y-4959099D02*
G01*
X2070600Y-4953299D01*
X2070600Y-4730000D01*
X2070600Y-4688000D02*
G01*
X1808999Y-4688000D01*
X1631000Y-4510000D01*
X2070600Y-4730000D02*
G01*
X2070600Y-4688000D01*
X2605000Y-3370000D02*
G01*
X2193900Y-3781100D01*
X2193900Y-3860000D01*
X2143900Y-3860000D02*
G01*
X2143900Y-3731100D01*
X2505000Y-3370000D01*
X305000Y-4495000D02*
G01*
X520000Y-4710000D01*
X630999Y-4710000D01*
X305000Y-4395000D02*
G01*
X420000Y-4510000D01*
X630999Y-4510000D01*
X305000Y-4295000D02*
G01*
X420000Y-4410000D01*
X630999Y-4410000D01*
X2253599Y-5010000D02*
G01*
X2291700Y-5010000D01*
X2710200Y-4510000D02*
G01*
X2710200Y-4566799D01*
X1893900Y-3860000D02*
G01*
X1893900Y-3803200D01*
X310000Y-3940000D02*
G01*
X356900Y-3940000D01*
X1805000Y-3714400D02*
G01*
X582600Y-3714400D01*
X356900Y-3940000D01*
X1893900Y-3803200D02*
G01*
X1805000Y-3714400D01*
X1805000Y-3714400D02*
G01*
X1805000Y-3370000D01*
X305000Y-4195000D02*
G01*
X615999Y-4195000D01*
X630999Y-4210000D01*
X310000Y-4040000D02*
G01*
X560999Y-4040000D01*
X630999Y-4110000D01*
X1905000Y-3370000D02*
G01*
X1943900Y-3408899D01*
X1943900Y-3860000D01*
X1943900Y-3916799D02*
G01*
X824200Y-3916799D01*
X630999Y-4110000D01*
X1943900Y-3860000D02*
G01*
X1943900Y-3916799D01*
D13*
G01*
X2270000Y-3015000D03*
G01*
X2190000Y-3015000D03*
D14*
G01*
X2070630Y-4730000D03*
G01*
X2149369Y-4730000D03*
G36*
X2783779Y-4555275D02*
G01*
X2783779Y-4464724D01*
X2756219Y-4464724D01*
X2756219Y-4555275D01*
G37*
G36*
X2723936Y-4555275D02*
G01*
X2723936Y-4464724D01*
X2696376Y-4464724D01*
X2696376Y-4555275D01*
G37*
G36*
X2558581Y-4555275D02*
G01*
X2558581Y-4464724D01*
X2531022Y-4464724D01*
X2531022Y-4555275D01*
G37*
G36*
X2508581Y-4555275D02*
G01*
X2508581Y-4464724D01*
X2481022Y-4464724D01*
X2481022Y-4555275D01*
G37*
G36*
X2458581Y-4555275D02*
G01*
X2458581Y-4464724D01*
X2431022Y-4464724D01*
X2431022Y-4555275D01*
G37*
G36*
X2408581Y-4555275D02*
G01*
X2408581Y-4464724D01*
X2381022Y-4464724D01*
X2381022Y-4555275D01*
G37*
D15*
G01*
X2544799Y-3860000D03*
G01*
X2495000Y-3860000D03*
G01*
X2444799Y-3860000D03*
G01*
X2394799Y-3860000D03*
G01*
X2344799Y-3860000D03*
G01*
X2294799Y-3860000D03*
G36*
X2358581Y-4555275D02*
G01*
X2358581Y-4464724D01*
X2331022Y-4464724D01*
X2331022Y-4555275D01*
G37*
G36*
X2308581Y-4555275D02*
G01*
X2308581Y-4464724D01*
X2281022Y-4464724D01*
X2281022Y-4555275D01*
G37*
G36*
X2258581Y-4555275D02*
G01*
X2258581Y-4464724D01*
X2231022Y-4464724D01*
X2231022Y-4555275D01*
G37*
G36*
X2181024Y-4555275D02*
G01*
X2181024Y-4464724D01*
X2208585Y-4464724D01*
X2208585Y-4555275D01*
G37*
G36*
X2081023Y-4555275D02*
G01*
X2081023Y-4464724D01*
X2108584Y-4464724D01*
X2108584Y-4555275D01*
G37*
G36*
X2131022Y-4555275D02*
G01*
X2131022Y-4464724D01*
X2158582Y-4464724D01*
X2158582Y-4555275D01*
G37*
G36*
X1931022Y-4555275D02*
G01*
X1931022Y-4464724D01*
X1958582Y-4464724D01*
X1958582Y-4555275D01*
G37*
G36*
X1881023Y-4555275D02*
G01*
X1881023Y-4464724D01*
X1908584Y-4464724D01*
X1908584Y-4555275D01*
G37*
G36*
X1981024Y-4555275D02*
G01*
X1981024Y-4464724D01*
X2008585Y-4464724D01*
X2008585Y-4555275D01*
G37*
G36*
X2058581Y-4555275D02*
G01*
X2058581Y-4464724D01*
X2031022Y-4464724D01*
X2031022Y-4555275D01*
G37*
G36*
X2081021Y-3814728D02*
G01*
X2081021Y-3905279D01*
X2108581Y-3905279D01*
X2108581Y-3814728D01*
G37*
G01*
X2143860Y-3859989D03*
G01*
X2243860Y-3859989D03*
G01*
X2193860Y-3859989D03*
G01*
X1993860Y-3859989D03*
G01*
X2043860Y-3859989D03*
G01*
X1943860Y-3859989D03*
G36*
X1880081Y-3814717D02*
G01*
X1880081Y-3905270D01*
X1907641Y-3905270D01*
X1907641Y-3814717D01*
G37*
G36*
X2049841Y-4970630D02*
G01*
X2102992Y-4970630D01*
X2102992Y-5049369D01*
X2049841Y-5049369D01*
G37*
G36*
X2227007Y-4970630D02*
G01*
X2280158Y-4970630D01*
X2280158Y-5049369D01*
X2227007Y-5049369D01*
G37*
D17*
G01*
X630999Y-4010000D03*
G01*
X630999Y-4110000D03*
G01*
X630999Y-4210000D03*
G01*
X630999Y-4310000D03*
G01*
X630999Y-4410000D03*
G01*
X630999Y-4510000D03*
G01*
X630999Y-4610000D03*
G01*
X630999Y-4710000D03*
G01*
X630999Y-4810000D03*
G01*
X630999Y-4910000D03*
G01*
X1631000Y-4910000D03*
G01*
X1631000Y-4810000D03*
G01*
X1631000Y-4710000D03*
G01*
X1631000Y-4610000D03*
G01*
X1631000Y-4510000D03*
G01*
X1631000Y-4410000D03*
G01*
X1631000Y-4310000D03*
G01*
X1631000Y-4210000D03*
G01*
X1631000Y-4110000D03*
G01*
X1631000Y-4010000D03*
G36*
X1773504Y-3338503D02*
G01*
X1836495Y-3338503D01*
X1836495Y-3401496D01*
X1773504Y-3401496D01*
G37*
D19*
G01*
X1905000Y-3370000D03*
G01*
X2005000Y-3370000D03*
G01*
X2105000Y-3370000D03*
G01*
X2205000Y-3370000D03*
G01*
X2305000Y-3370000D03*
G01*
X2405000Y-3370000D03*
G01*
X2505000Y-3370000D03*
G01*
X2605000Y-3370000D03*
D20*
G01*
X305000Y-4195000D03*
D21*
G01*
X305000Y-4295000D03*
G01*
X305000Y-4395000D03*
G01*
X305000Y-4495000D03*
D22*
G01*
X310000Y-4040000D03*
D23*
G01*
X310000Y-3940000D03*
D12*
G01*
X1895000Y-2945000D03*
G01*
X2420000Y-5010000D03*
G01*
X2020000Y-4065000D03*
G01*
X2100000Y-4065000D03*
G01*
X2190000Y-3990000D03*
M02*
