G04 Layer: BottomLayer*
G04 EasyEDA v6.4.25, 2021-10-28T21:51:33--4:00*
G04 88f9fe5a47094e6790728aceff35a815,7db2125e4611476bb2993bf99425ef50,10*
G04 Gerber Generator version 0.2*
G04 Scale: 100 percent, Rotated: No, Reflected: No *
G04 Dimensions in inches *
G04 leading zeros omitted , absolute positions ,3 integer and 6 decimal *
%FSLAX36Y36*%
%MOIN*%

%ADD10C,0.0100*%
%ADD11C,0.0102*%
%ADD12C,0.0240*%
%ADD17C,0.0600*%
%ADD19C,0.0630*%
%ADD20R,0.0669X0.0669*%
%ADD21C,0.0669*%
%ADD22C,0.0709*%
%ADD23R,0.0709X0.0709*%

%LPD*%
D10*
X2020000Y-4065000D02*
G01*
X2020000Y-3555000D01*
X2205000Y-3370000D01*
X2305000Y-3370000D02*
G01*
X2305000Y-3475000D01*
X2120000Y-3660000D01*
X2120000Y-4045000D01*
X2100000Y-4065000D01*
X1631000Y-4610000D02*
G01*
X2190000Y-4050999D01*
X2190000Y-3990000D01*
X305000Y-4195000D02*
G01*
X210000Y-4290000D01*
X210000Y-4750000D01*
X620000Y-5160000D01*
X2270000Y-5160000D01*
X2420000Y-5010000D01*
X2505000Y-3370000D02*
G01*
X2505000Y-3210000D01*
X2180000Y-2885000D01*
X1830000Y-2885000D01*
X1620000Y-3095000D01*
X1415000Y-3095000D01*
X705000Y-3805000D01*
X705000Y-4835999D01*
X630999Y-4910000D01*
X1631000Y-4410000D02*
G01*
X1673167Y-4410000D01*
X1725000Y-4358166D01*
X1725000Y-3115000D01*
X1895000Y-2945000D01*
D11*
X310000Y-3986900D02*
G01*
X286500Y-3986900D01*
X261799Y-4011700D01*
X261799Y-4106799D01*
X305000Y-4150000D01*
X310000Y-3940000D02*
G01*
X310000Y-3986900D01*
X305000Y-4195000D02*
G01*
X305000Y-4150000D01*
D17*
G01*
X630999Y-4010000D03*
G01*
X630999Y-4110000D03*
G01*
X630999Y-4210000D03*
G01*
X630999Y-4310000D03*
G01*
X630999Y-4410000D03*
G01*
X630999Y-4510000D03*
G01*
X630999Y-4610000D03*
G01*
X630999Y-4710000D03*
G01*
X630999Y-4810000D03*
G01*
X630999Y-4910000D03*
G01*
X1631000Y-4910000D03*
G01*
X1631000Y-4810000D03*
G01*
X1631000Y-4710000D03*
G01*
X1631000Y-4610000D03*
G01*
X1631000Y-4510000D03*
G01*
X1631000Y-4410000D03*
G01*
X1631000Y-4310000D03*
G01*
X1631000Y-4210000D03*
G01*
X1631000Y-4110000D03*
G01*
X1631000Y-4010000D03*
G36*
X1773504Y-3338503D02*
G01*
X1836495Y-3338503D01*
X1836495Y-3401496D01*
X1773504Y-3401496D01*
G37*
D19*
G01*
X1905000Y-3370000D03*
G01*
X2005000Y-3370000D03*
G01*
X2105000Y-3370000D03*
G01*
X2205000Y-3370000D03*
G01*
X2305000Y-3370000D03*
G01*
X2405000Y-3370000D03*
G01*
X2505000Y-3370000D03*
G01*
X2605000Y-3370000D03*
D20*
G01*
X305000Y-4195000D03*
D21*
G01*
X305000Y-4295000D03*
G01*
X305000Y-4395000D03*
G01*
X305000Y-4495000D03*
D22*
G01*
X310000Y-4040000D03*
D23*
G01*
X310000Y-3940000D03*
D12*
G01*
X1895000Y-2945000D03*
G01*
X2420000Y-5010000D03*
G01*
X2020000Y-4065000D03*
G01*
X2100000Y-4065000D03*
G01*
X2190000Y-3990000D03*
M02*
