G04 Layer: TopPasteMaskLayer*
G04 EasyEDA v6.4.25, 2021-10-28T21:51:33--4:00*
G04 88f9fe5a47094e6790728aceff35a815,7db2125e4611476bb2993bf99425ef50,10*
G04 Gerber Generator version 0.2*
G04 Scale: 100 percent, Rotated: No, Reflected: No *
G04 Dimensions in inches *
G04 leading zeros omitted , absolute positions ,3 integer and 6 decimal *
%FSLAX36Y36*%
%MOIN*%

%ADD13R,0.0457X0.0579*%
%ADD14R,0.0394X0.0610*%
%ADD15R,0.0276X0.0906*%

%LPD*%
D13*
G01*
X2270000Y-3015000D03*
G01*
X2190000Y-3015000D03*
D14*
G01*
X2070630Y-4730000D03*
G01*
X2149369Y-4730000D03*
G36*
X2783779Y-4555275D02*
G01*
X2783779Y-4464724D01*
X2756219Y-4464724D01*
X2756219Y-4555275D01*
G37*
G36*
X2723936Y-4555275D02*
G01*
X2723936Y-4464724D01*
X2696376Y-4464724D01*
X2696376Y-4555275D01*
G37*
G36*
X2558581Y-4555275D02*
G01*
X2558581Y-4464724D01*
X2531022Y-4464724D01*
X2531022Y-4555275D01*
G37*
G36*
X2508581Y-4555275D02*
G01*
X2508581Y-4464724D01*
X2481022Y-4464724D01*
X2481022Y-4555275D01*
G37*
G36*
X2458581Y-4555275D02*
G01*
X2458581Y-4464724D01*
X2431022Y-4464724D01*
X2431022Y-4555275D01*
G37*
G36*
X2408581Y-4555275D02*
G01*
X2408581Y-4464724D01*
X2381022Y-4464724D01*
X2381022Y-4555275D01*
G37*
D15*
G01*
X2544799Y-3860000D03*
G01*
X2495000Y-3860000D03*
G01*
X2444799Y-3860000D03*
G01*
X2394799Y-3860000D03*
G01*
X2344799Y-3860000D03*
G01*
X2294799Y-3860000D03*
G36*
X2358581Y-4555275D02*
G01*
X2358581Y-4464724D01*
X2331022Y-4464724D01*
X2331022Y-4555275D01*
G37*
G36*
X2308581Y-4555275D02*
G01*
X2308581Y-4464724D01*
X2281022Y-4464724D01*
X2281022Y-4555275D01*
G37*
G36*
X2258581Y-4555275D02*
G01*
X2258581Y-4464724D01*
X2231022Y-4464724D01*
X2231022Y-4555275D01*
G37*
G36*
X2181024Y-4555275D02*
G01*
X2181024Y-4464724D01*
X2208585Y-4464724D01*
X2208585Y-4555275D01*
G37*
G36*
X2081023Y-4555275D02*
G01*
X2081023Y-4464724D01*
X2108584Y-4464724D01*
X2108584Y-4555275D01*
G37*
G36*
X2131022Y-4555275D02*
G01*
X2131022Y-4464724D01*
X2158582Y-4464724D01*
X2158582Y-4555275D01*
G37*
G36*
X1931022Y-4555275D02*
G01*
X1931022Y-4464724D01*
X1958582Y-4464724D01*
X1958582Y-4555275D01*
G37*
G36*
X1881023Y-4555275D02*
G01*
X1881023Y-4464724D01*
X1908584Y-4464724D01*
X1908584Y-4555275D01*
G37*
G36*
X1981024Y-4555275D02*
G01*
X1981024Y-4464724D01*
X2008585Y-4464724D01*
X2008585Y-4555275D01*
G37*
G36*
X2058581Y-4555275D02*
G01*
X2058581Y-4464724D01*
X2031022Y-4464724D01*
X2031022Y-4555275D01*
G37*
G36*
X2081021Y-3814728D02*
G01*
X2081021Y-3905279D01*
X2108581Y-3905279D01*
X2108581Y-3814728D01*
G37*
G01*
X2143860Y-3859989D03*
G01*
X2243860Y-3859989D03*
G01*
X2193860Y-3859989D03*
G01*
X1993860Y-3859989D03*
G01*
X2043860Y-3859989D03*
G01*
X1943860Y-3859989D03*
G36*
X1880081Y-3814717D02*
G01*
X1880081Y-3905270D01*
X1907641Y-3905270D01*
X1907641Y-3814717D01*
G37*
G36*
X2049841Y-4970630D02*
G01*
X2102992Y-4970630D01*
X2102992Y-5049369D01*
X2049841Y-5049369D01*
G37*
G36*
X2227007Y-4970630D02*
G01*
X2280158Y-4970630D01*
X2280158Y-5049369D01*
X2227007Y-5049369D01*
G37*
M02*
