G04 Layer: TopSolderMaskLayer*
G04 EasyEDA v6.4.25, 2021-10-28T21:51:33--4:00*
G04 88f9fe5a47094e6790728aceff35a815,7db2125e4611476bb2993bf99425ef50,10*
G04 Gerber Generator version 0.2*
G04 Scale: 100 percent, Rotated: No, Reflected: No *
G04 Dimensions in inches *
G04 leading zeros omitted , absolute positions ,3 integer and 6 decimal *
%FSLAX36Y36*%
%MOIN*%

%ADD29C,0.0680*%
%ADD32C,0.0710*%
%ADD35C,0.0749*%
%ADD36C,0.0789*%

%LPD*%
D29*
G01*
X630999Y-4010000D03*
G01*
X630999Y-4110000D03*
G01*
X630999Y-4210000D03*
G01*
X630999Y-4310000D03*
G01*
X630999Y-4410000D03*
G01*
X630999Y-4510000D03*
G01*
X630999Y-4610000D03*
G01*
X630999Y-4710000D03*
G01*
X630999Y-4810000D03*
G01*
X630999Y-4910000D03*
G01*
X1631000Y-4910000D03*
G01*
X1631000Y-4810000D03*
G01*
X1631000Y-4710000D03*
G01*
X1631000Y-4610000D03*
G01*
X1631000Y-4510000D03*
G01*
X1631000Y-4410000D03*
G01*
X1631000Y-4310000D03*
G01*
X1631000Y-4210000D03*
G01*
X1631000Y-4110000D03*
G01*
X1631000Y-4010000D03*
G36*
X2243199Y-3047899D02*
G01*
X2243199Y-2982100D01*
X2296800Y-2982100D01*
X2296800Y-3047899D01*
G37*
G36*
X2163199Y-3047899D02*
G01*
X2163199Y-2982100D01*
X2216800Y-2982100D01*
X2216800Y-3047899D01*
G37*
G36*
X1769499Y-3405500D02*
G01*
X1769499Y-3334499D01*
X1840500Y-3334499D01*
X1840500Y-3405500D01*
G37*
D32*
G01*
X1905000Y-3370000D03*
G01*
X2005000Y-3370000D03*
G01*
X2105000Y-3370000D03*
G01*
X2205000Y-3370000D03*
G01*
X2305000Y-3370000D03*
G01*
X2405000Y-3370000D03*
G01*
X2505000Y-3370000D03*
G01*
X2605000Y-3370000D03*
G36*
X2046899Y-4764499D02*
G01*
X2046899Y-4695500D01*
X2094300Y-4695500D01*
X2094300Y-4764499D01*
G37*
G36*
X2125699Y-4764499D02*
G01*
X2125699Y-4695500D01*
X2173100Y-4695500D01*
X2173100Y-4764499D01*
G37*
G36*
X267500Y-4232500D02*
G01*
X267500Y-4157500D01*
X342500Y-4157500D01*
X342500Y-4232500D01*
G37*
D35*
G01*
X305000Y-4295000D03*
G01*
X305000Y-4395000D03*
G01*
X305000Y-4495000D03*
D36*
G01*
X310000Y-4040000D03*
G36*
X270599Y-3979400D02*
G01*
X270599Y-3900599D01*
X349400Y-3900599D01*
X349400Y-3979400D01*
G37*
G36*
X2752200Y-4559299D02*
G01*
X2752200Y-4460700D01*
X2787799Y-4460700D01*
X2787799Y-4559299D01*
G37*
G36*
X2692399Y-4559299D02*
G01*
X2692399Y-4460700D01*
X2727899Y-4460700D01*
X2727899Y-4559299D01*
G37*
G36*
X2526999Y-4559299D02*
G01*
X2526999Y-4460700D01*
X2562600Y-4460700D01*
X2562600Y-4559299D01*
G37*
G36*
X2476999Y-4559299D02*
G01*
X2476999Y-4460700D01*
X2512600Y-4460700D01*
X2512600Y-4559299D01*
G37*
G36*
X2426999Y-4559299D02*
G01*
X2426999Y-4460700D01*
X2462600Y-4460700D01*
X2462600Y-4559299D01*
G37*
G36*
X2376999Y-4559299D02*
G01*
X2376999Y-4460700D01*
X2412600Y-4460700D01*
X2412600Y-4559299D01*
G37*
G36*
X2526999Y-3909299D02*
G01*
X2526999Y-3810700D01*
X2562600Y-3810700D01*
X2562600Y-3909299D01*
G37*
G36*
X2477200Y-3909299D02*
G01*
X2477200Y-3810700D01*
X2512799Y-3810700D01*
X2512799Y-3909299D01*
G37*
G36*
X2426999Y-3909299D02*
G01*
X2426999Y-3810700D01*
X2462600Y-3810700D01*
X2462600Y-3909299D01*
G37*
G36*
X2376999Y-3909299D02*
G01*
X2376999Y-3810700D01*
X2412600Y-3810700D01*
X2412600Y-3909299D01*
G37*
G36*
X2326999Y-3909299D02*
G01*
X2326999Y-3810700D01*
X2362600Y-3810700D01*
X2362600Y-3909299D01*
G37*
G36*
X2276999Y-3909299D02*
G01*
X2276999Y-3810700D01*
X2312600Y-3810700D01*
X2312600Y-3909299D01*
G37*
G36*
X2326999Y-4559299D02*
G01*
X2326999Y-4460700D01*
X2362600Y-4460700D01*
X2362600Y-4559299D01*
G37*
G36*
X2276999Y-4559299D02*
G01*
X2276999Y-4460700D01*
X2312600Y-4460700D01*
X2312600Y-4559299D01*
G37*
G36*
X2226999Y-4559299D02*
G01*
X2226999Y-4460700D01*
X2262600Y-4460700D01*
X2262600Y-4559299D01*
G37*
G36*
X2176999Y-4559299D02*
G01*
X2176999Y-4460700D01*
X2212600Y-4460700D01*
X2212600Y-4559299D01*
G37*
G36*
X2076999Y-4559299D02*
G01*
X2076999Y-4460700D01*
X2112600Y-4460700D01*
X2112600Y-4559299D01*
G37*
G36*
X2126999Y-4559299D02*
G01*
X2126999Y-4460700D01*
X2162600Y-4460700D01*
X2162600Y-4559299D01*
G37*
G36*
X1926999Y-4559299D02*
G01*
X1926999Y-4460700D01*
X1962600Y-4460700D01*
X1962600Y-4559299D01*
G37*
G36*
X1876999Y-4559299D02*
G01*
X1876999Y-4460700D01*
X1912600Y-4460700D01*
X1912600Y-4559299D01*
G37*
G36*
X1976999Y-4559299D02*
G01*
X1976999Y-4460700D01*
X2012600Y-4460700D01*
X2012600Y-4559299D01*
G37*
G36*
X2026999Y-4559299D02*
G01*
X2026999Y-4460700D01*
X2062600Y-4460700D01*
X2062600Y-4559299D01*
G37*
G36*
X2076999Y-3909299D02*
G01*
X2076999Y-3810700D01*
X2112600Y-3810700D01*
X2112600Y-3909299D01*
G37*
G36*
X2126099Y-3909299D02*
G01*
X2126099Y-3810700D01*
X2161599Y-3810700D01*
X2161599Y-3909299D01*
G37*
G36*
X2226099Y-3909299D02*
G01*
X2226099Y-3810700D01*
X2261599Y-3810700D01*
X2261599Y-3909299D01*
G37*
G36*
X2176099Y-3909299D02*
G01*
X2176099Y-3810700D01*
X2211599Y-3810700D01*
X2211599Y-3909299D01*
G37*
G36*
X1976099Y-3909299D02*
G01*
X1976099Y-3810700D01*
X2011599Y-3810700D01*
X2011599Y-3909299D01*
G37*
G36*
X2026099Y-3909299D02*
G01*
X2026099Y-3810700D01*
X2061599Y-3810700D01*
X2061599Y-3909299D01*
G37*
G36*
X1926099Y-3909299D02*
G01*
X1926099Y-3810700D01*
X1961599Y-3810700D01*
X1961599Y-3909299D01*
G37*
G36*
X1876099Y-3909299D02*
G01*
X1876099Y-3810700D01*
X1911599Y-3810700D01*
X1911599Y-3909299D01*
G37*
G36*
X2045799Y-5053400D02*
G01*
X2045799Y-4966599D01*
X2106999Y-4966599D01*
X2106999Y-5053400D01*
G37*
G36*
X2223000Y-5053400D02*
G01*
X2223000Y-4966599D01*
X2284200Y-4966599D01*
X2284200Y-5053400D01*
G37*
M02*
