G04 Layer: BottomSolderMaskLayer*
G04 EasyEDA v6.4.25, 2021-10-28T21:51:33--4:00*
G04 88f9fe5a47094e6790728aceff35a815,7db2125e4611476bb2993bf99425ef50,10*
G04 Gerber Generator version 0.2*
G04 Scale: 100 percent, Rotated: No, Reflected: No *
G04 Dimensions in inches *
G04 leading zeros omitted , absolute positions ,3 integer and 6 decimal *
%FSLAX36Y36*%
%MOIN*%

%ADD29C,0.0680*%
%ADD32C,0.0710*%
%ADD35C,0.0749*%
%ADD36C,0.0789*%

%LPD*%
D29*
G01*
X630999Y-4010000D03*
G01*
X630999Y-4110000D03*
G01*
X630999Y-4210000D03*
G01*
X630999Y-4310000D03*
G01*
X630999Y-4410000D03*
G01*
X630999Y-4510000D03*
G01*
X630999Y-4610000D03*
G01*
X630999Y-4710000D03*
G01*
X630999Y-4810000D03*
G01*
X630999Y-4910000D03*
G01*
X1631000Y-4910000D03*
G01*
X1631000Y-4810000D03*
G01*
X1631000Y-4710000D03*
G01*
X1631000Y-4610000D03*
G01*
X1631000Y-4510000D03*
G01*
X1631000Y-4410000D03*
G01*
X1631000Y-4310000D03*
G01*
X1631000Y-4210000D03*
G01*
X1631000Y-4110000D03*
G01*
X1631000Y-4010000D03*
G36*
X1769499Y-3405500D02*
G01*
X1769499Y-3334499D01*
X1840500Y-3334499D01*
X1840500Y-3405500D01*
G37*
D32*
G01*
X1905000Y-3370000D03*
G01*
X2005000Y-3370000D03*
G01*
X2105000Y-3370000D03*
G01*
X2205000Y-3370000D03*
G01*
X2305000Y-3370000D03*
G01*
X2405000Y-3370000D03*
G01*
X2505000Y-3370000D03*
G01*
X2605000Y-3370000D03*
G36*
X267500Y-4232500D02*
G01*
X267500Y-4157500D01*
X342500Y-4157500D01*
X342500Y-4232500D01*
G37*
D35*
G01*
X305000Y-4295000D03*
G01*
X305000Y-4395000D03*
G01*
X305000Y-4495000D03*
D36*
G01*
X310000Y-4040000D03*
G36*
X270599Y-3979400D02*
G01*
X270599Y-3900599D01*
X349400Y-3900599D01*
X349400Y-3979400D01*
G37*
M02*
