G04 Layer: TopSolderMaskLayer*
G04 EasyEDA v6.4.17, 2021-03-16T21:25:48--4:00*
G04 0817081497994772ae9c6ae74964b192,7db2125e4611476bb2993bf99425ef50,10*
G04 Gerber Generator version 0.2*
G04 Scale: 100 percent, Rotated: No, Reflected: No *
G04 Dimensions in inches *
G04 leading zeros omitted , absolute positions ,3 integer and 6 decimal *
%FSLAX36Y36*%
%MOIN*%

%ADD37C,0.0592*%
%ADD38C,0.0190*%
%ADD39C,0.0789*%
%ADD43C,0.0552*%
%ADD44R,0.0395X0.1025*%
%ADD50C,0.0749*%
%ADD51C,0.0680*%

%LPD*%
D37*
X1777500Y-2820407D02*
G01*
X1777500Y-2784974D01*
X2062500Y-2820407D02*
G01*
X2062500Y-2784974D01*
D38*
X2064110Y-3945635D02*
G01*
X2064110Y-3921226D01*
X2044409Y-3945635D02*
G01*
X2044409Y-3921226D01*
X2024709Y-3945635D02*
G01*
X2024709Y-3921226D01*
X2005010Y-3945635D02*
G01*
X2005010Y-3921226D01*
X1985309Y-3945635D02*
G01*
X1985309Y-3921226D01*
X1965609Y-3945635D02*
G01*
X1965609Y-3921226D01*
X1945910Y-3945635D02*
G01*
X1945910Y-3921226D01*
X1918784Y-3894110D02*
G01*
X1894376Y-3894110D01*
X1918784Y-3874409D02*
G01*
X1894376Y-3874409D01*
X1918784Y-3854710D02*
G01*
X1894376Y-3854710D01*
X1918784Y-3835010D02*
G01*
X1894376Y-3835010D01*
X1918784Y-3815309D02*
G01*
X1894376Y-3815309D01*
X1918784Y-3795610D02*
G01*
X1894376Y-3795610D01*
X1918784Y-3775909D02*
G01*
X1894376Y-3775909D01*
X1945910Y-3748784D02*
G01*
X1945910Y-3724376D01*
X1965609Y-3748784D02*
G01*
X1965609Y-3724376D01*
X1985309Y-3748784D02*
G01*
X1985309Y-3724376D01*
X2005010Y-3748784D02*
G01*
X2005010Y-3724376D01*
X2024709Y-3748784D02*
G01*
X2024709Y-3724376D01*
X2044409Y-3748784D02*
G01*
X2044409Y-3724376D01*
X2064110Y-3748784D02*
G01*
X2064110Y-3724376D01*
X2115635Y-3775909D02*
G01*
X2091225Y-3775909D01*
X2115635Y-3795610D02*
G01*
X2091225Y-3795610D01*
X2115635Y-3815309D02*
G01*
X2091225Y-3815309D01*
X2115635Y-3835010D02*
G01*
X2091225Y-3835010D01*
X2115635Y-3854710D02*
G01*
X2091225Y-3854710D01*
X2115635Y-3874409D02*
G01*
X2091225Y-3874409D01*
X2115635Y-3894110D02*
G01*
X2091225Y-3894110D01*
D39*
G01*
X405000Y-4380000D03*
G01*
X405000Y-4280000D03*
G36*
X365599Y-4215000D02*
G01*
X365599Y-4145000D01*
X444400Y-4145000D01*
X444400Y-4215000D01*
G37*
G36*
X1858199Y-2982399D02*
G01*
X1858199Y-2897399D01*
X1880299Y-2897399D01*
X1880299Y-2982399D01*
G37*
G36*
X1883800Y-2982399D02*
G01*
X1883800Y-2897399D01*
X1905799Y-2897399D01*
X1905799Y-2982399D01*
G37*
G36*
X1909399Y-2982399D02*
G01*
X1909399Y-2897399D01*
X1931400Y-2897399D01*
X1931400Y-2982399D01*
G37*
G36*
X1935000Y-2982399D02*
G01*
X1935000Y-2897399D01*
X1956999Y-2897399D01*
X1956999Y-2982399D01*
G37*
G36*
X1960600Y-2982399D02*
G01*
X1960600Y-2897399D01*
X1982600Y-2897399D01*
X1982600Y-2982399D01*
G37*
G36*
X1821700Y-2797700D02*
G01*
X1821700Y-2742500D01*
X1892700Y-2742500D01*
X1892700Y-2797700D01*
G37*
G36*
X1950799Y-2798400D02*
G01*
X1950799Y-2743099D01*
X2021800Y-2743099D01*
X2021800Y-2798400D01*
G37*
D43*
G01*
X2015469Y-2908989D03*
G01*
X1824530Y-2908989D03*
G36*
X3177899Y-3783800D02*
G01*
X3177899Y-3681300D01*
X3217299Y-3681300D01*
X3217299Y-3783800D01*
G37*
G36*
X3130600Y-3783800D02*
G01*
X3130600Y-3681300D01*
X3170100Y-3681300D01*
X3170100Y-3783800D01*
G37*
G36*
X3083400Y-3783800D02*
G01*
X3083400Y-3681300D01*
X3122899Y-3681300D01*
X3122899Y-3783800D01*
G37*
G36*
X3036099Y-3783800D02*
G01*
X3036099Y-3681300D01*
X3075600Y-3681300D01*
X3075600Y-3783800D01*
G37*
G36*
X2988900Y-3783800D02*
G01*
X2988900Y-3681300D01*
X3028400Y-3681300D01*
X3028400Y-3783800D01*
G37*
G36*
X2941599Y-3783800D02*
G01*
X2941599Y-3681300D01*
X2981099Y-3681300D01*
X2981099Y-3783800D01*
G37*
G36*
X2894399Y-3783800D02*
G01*
X2894399Y-3681300D01*
X2933900Y-3681300D01*
X2933900Y-3783800D01*
G37*
G36*
X2847100Y-3783800D02*
G01*
X2847100Y-3681300D01*
X2886599Y-3681300D01*
X2886599Y-3783800D01*
G37*
G36*
X2799899Y-3783800D02*
G01*
X2799899Y-3681300D01*
X2839399Y-3681300D01*
X2839399Y-3783800D01*
G37*
G36*
X2752700Y-3783800D02*
G01*
X2752700Y-3681300D01*
X2792100Y-3681300D01*
X2792100Y-3783800D01*
G37*
G36*
X2705399Y-3783800D02*
G01*
X2705399Y-3681300D01*
X2744899Y-3681300D01*
X2744899Y-3783800D01*
G37*
G36*
X2658199Y-3783800D02*
G01*
X2658199Y-3681300D01*
X2697700Y-3681300D01*
X2697700Y-3783800D01*
G37*
G36*
X2621199Y-3833000D02*
G01*
X2621199Y-3793499D01*
X2723599Y-3793499D01*
X2723599Y-3833000D01*
G37*
G36*
X2621199Y-3880300D02*
G01*
X2621199Y-3840799D01*
X2723599Y-3840799D01*
X2723599Y-3880300D01*
G37*
G36*
X2621199Y-3927500D02*
G01*
X2621199Y-3888000D01*
X2723599Y-3888000D01*
X2723599Y-3927500D01*
G37*
G36*
X2621199Y-3974699D02*
G01*
X2621199Y-3935300D01*
X2723599Y-3935300D01*
X2723599Y-3974699D01*
G37*
G36*
X2621199Y-4021999D02*
G01*
X2621199Y-3982500D01*
X2723599Y-3982500D01*
X2723599Y-4021999D01*
G37*
G36*
X2621199Y-4069200D02*
G01*
X2621199Y-4029699D01*
X2723599Y-4029699D01*
X2723599Y-4069200D01*
G37*
G36*
X2621199Y-4116500D02*
G01*
X2621199Y-4076999D01*
X2723599Y-4076999D01*
X2723599Y-4116500D01*
G37*
G36*
X2658199Y-4228699D02*
G01*
X2658199Y-4126199D01*
X2697700Y-4126199D01*
X2697700Y-4228699D01*
G37*
G36*
X2705399Y-4228699D02*
G01*
X2705399Y-4126199D01*
X2744899Y-4126199D01*
X2744899Y-4228699D01*
G37*
G36*
X2752700Y-4228699D02*
G01*
X2752700Y-4126199D01*
X2792100Y-4126199D01*
X2792100Y-4228699D01*
G37*
D44*
G01*
X2819650Y-4177440D03*
G36*
X2847100Y-4228699D02*
G01*
X2847100Y-4126199D01*
X2886599Y-4126199D01*
X2886599Y-4228699D01*
G37*
G36*
X2894399Y-4228699D02*
G01*
X2894399Y-4126199D01*
X2933900Y-4126199D01*
X2933900Y-4228699D01*
G37*
G36*
X2941599Y-4228699D02*
G01*
X2941599Y-4126199D01*
X2981099Y-4126199D01*
X2981099Y-4228699D01*
G37*
G36*
X2988900Y-4228699D02*
G01*
X2988900Y-4126199D01*
X3028400Y-4126199D01*
X3028400Y-4228699D01*
G37*
G36*
X3036099Y-4228699D02*
G01*
X3036099Y-4126199D01*
X3075600Y-4126199D01*
X3075600Y-4228699D01*
G37*
G36*
X3083400Y-4228699D02*
G01*
X3083400Y-4126199D01*
X3122899Y-4126199D01*
X3122899Y-4228699D01*
G37*
G01*
X3150349Y-4177440D03*
G36*
X3177899Y-4228699D02*
G01*
X3177899Y-4126199D01*
X3217299Y-4126199D01*
X3217299Y-4228699D01*
G37*
G36*
X2556899Y-2964499D02*
G01*
X2556899Y-2895500D01*
X2604300Y-2895500D01*
X2604300Y-2964499D01*
G37*
G36*
X2635699Y-2964499D02*
G01*
X2635699Y-2895500D01*
X2683100Y-2895500D01*
X2683100Y-2964499D01*
G37*
G36*
X2415000Y-2954499D02*
G01*
X2415000Y-2861500D01*
X2466000Y-2861500D01*
X2466000Y-2954499D01*
G37*
G36*
X2323999Y-2954499D02*
G01*
X2323999Y-2861500D01*
X2375000Y-2861500D01*
X2375000Y-2954499D01*
G37*
G36*
X2233999Y-2954499D02*
G01*
X2233999Y-2861500D01*
X2285000Y-2861500D01*
X2285000Y-2954499D01*
G37*
G36*
X2276499Y-3198499D02*
G01*
X2276499Y-3105500D01*
X2422500Y-3105500D01*
X2422500Y-3198499D01*
G37*
G36*
X1842500Y-4242500D02*
G01*
X1842500Y-4167500D01*
X1917500Y-4167500D01*
X1917500Y-4242500D01*
G37*
D50*
G01*
X1980000Y-4205000D03*
G01*
X2080000Y-4205000D03*
G01*
X2180000Y-4205000D03*
G36*
X1842500Y-4632500D02*
G01*
X1842500Y-4557500D01*
X1917500Y-4557500D01*
X1917500Y-4632500D01*
G37*
G01*
X1980000Y-4595000D03*
G01*
X2080000Y-4595000D03*
G01*
X2180000Y-4595000D03*
D51*
G01*
X1625000Y-3390000D03*
G01*
X1625000Y-3490000D03*
G01*
X1625000Y-3590000D03*
G01*
X1625000Y-3690000D03*
G01*
X1625000Y-3790000D03*
G01*
X1625000Y-3890000D03*
G01*
X1625000Y-3990000D03*
G01*
X1625000Y-4090000D03*
G01*
X1625000Y-4190000D03*
G01*
X1625000Y-4290000D03*
G01*
X1625000Y-4390000D03*
G01*
X1625000Y-4490000D03*
G01*
X1625000Y-4590000D03*
G01*
X725000Y-3390000D03*
G01*
X725000Y-3490000D03*
G01*
X725000Y-3590000D03*
G01*
X725000Y-3690000D03*
G01*
X725000Y-3790000D03*
G01*
X725000Y-3890000D03*
G01*
X725000Y-3990000D03*
G01*
X725000Y-4090000D03*
G01*
X725000Y-4190000D03*
G01*
X725000Y-4290000D03*
G01*
X725000Y-4390000D03*
G01*
X725000Y-4490000D03*
G01*
X725000Y-4590000D03*
G01*
X1425000Y-2790000D03*
G01*
X1325000Y-2790000D03*
G01*
X1025000Y-2790000D03*
G01*
X925000Y-2790000D03*
G36*
X1932100Y-3907899D02*
G01*
X1932100Y-3762100D01*
X2077899Y-3762100D01*
X2077899Y-3907899D01*
G37*
G36*
X2130500Y-3469299D02*
G01*
X2130500Y-3421900D01*
X2199499Y-3421900D01*
X2199499Y-3469299D01*
G37*
G36*
X2130500Y-3548099D02*
G01*
X2130500Y-3500700D01*
X2199499Y-3500700D01*
X2199499Y-3548099D01*
G37*
G36*
X1911899Y-3369499D02*
G01*
X1911899Y-3300500D01*
X1959300Y-3300500D01*
X1959300Y-3369499D01*
G37*
G36*
X1990699Y-3369499D02*
G01*
X1990699Y-3300500D01*
X2038100Y-3300500D01*
X2038100Y-3369499D01*
G37*
G36*
X1921899Y-3199499D02*
G01*
X1921899Y-3130500D01*
X1969300Y-3130500D01*
X1969300Y-3199499D01*
G37*
G36*
X2000699Y-3199499D02*
G01*
X2000699Y-3130500D01*
X2048100Y-3130500D01*
X2048100Y-3199499D01*
G37*
G36*
X2135500Y-3244299D02*
G01*
X2135500Y-3196900D01*
X2204499Y-3196900D01*
X2204499Y-3244299D01*
G37*
G36*
X2135500Y-3323099D02*
G01*
X2135500Y-3275700D01*
X2204499Y-3275700D01*
X2204499Y-3323099D01*
G37*
G36*
X2541899Y-3214499D02*
G01*
X2541899Y-3145500D01*
X2589300Y-3145500D01*
X2589300Y-3214499D01*
G37*
G36*
X2620699Y-3214499D02*
G01*
X2620699Y-3145500D01*
X2668100Y-3145500D01*
X2668100Y-3214499D01*
G37*
G36*
X1901899Y-3549499D02*
G01*
X1901899Y-3480500D01*
X1949300Y-3480500D01*
X1949300Y-3549499D01*
G37*
G36*
X1980699Y-3549499D02*
G01*
X1980699Y-3480500D01*
X2028100Y-3480500D01*
X2028100Y-3549499D01*
G37*
D39*
G01*
X2430000Y-4985000D03*
G01*
X2330000Y-4985000D03*
G01*
X2230000Y-4985000D03*
G01*
X2130000Y-4985000D03*
G01*
X2030000Y-4985000D03*
G36*
X1890600Y-5024400D02*
G01*
X1890600Y-4945599D01*
X1969399Y-4945599D01*
X1969399Y-5024400D01*
G37*
M02*
