G04 Layer: BottomSolderMaskLayer*
G04 EasyEDA v6.4.17, 2021-03-16T21:25:48--4:00*
G04 0817081497994772ae9c6ae74964b192,7db2125e4611476bb2993bf99425ef50,10*
G04 Gerber Generator version 0.2*
G04 Scale: 100 percent, Rotated: No, Reflected: No *
G04 Dimensions in inches *
G04 leading zeros omitted , absolute positions ,3 integer and 6 decimal *
%FSLAX36Y36*%
%MOIN*%

%ADD37C,0.0592*%
%ADD39C,0.0789*%
%ADD43C,0.0552*%
%ADD50C,0.0749*%
%ADD51C,0.0680*%

%LPD*%
D37*
X1777500Y-2820407D02*
G01*
X1777500Y-2784974D01*
X2062500Y-2820407D02*
G01*
X2062500Y-2784974D01*
D39*
G01*
X405000Y-4380000D03*
G01*
X405000Y-4280000D03*
G36*
X365599Y-4215000D02*
G01*
X365599Y-4145000D01*
X444400Y-4145000D01*
X444400Y-4215000D01*
G37*
D43*
G01*
X2015469Y-2908989D03*
G01*
X1824530Y-2908989D03*
G36*
X1842500Y-4242500D02*
G01*
X1842500Y-4167500D01*
X1917500Y-4167500D01*
X1917500Y-4242500D01*
G37*
D50*
G01*
X1980000Y-4205000D03*
G01*
X2080000Y-4205000D03*
G01*
X2180000Y-4205000D03*
G36*
X1842500Y-4632500D02*
G01*
X1842500Y-4557500D01*
X1917500Y-4557500D01*
X1917500Y-4632500D01*
G37*
G01*
X1980000Y-4595000D03*
G01*
X2080000Y-4595000D03*
G01*
X2180000Y-4595000D03*
D51*
G01*
X1625000Y-3390000D03*
G01*
X1625000Y-3490000D03*
G01*
X1625000Y-3590000D03*
G01*
X1625000Y-3690000D03*
G01*
X1625000Y-3790000D03*
G01*
X1625000Y-3890000D03*
G01*
X1625000Y-3990000D03*
G01*
X1625000Y-4090000D03*
G01*
X1625000Y-4190000D03*
G01*
X1625000Y-4290000D03*
G01*
X1625000Y-4390000D03*
G01*
X1625000Y-4490000D03*
G01*
X1625000Y-4590000D03*
G01*
X725000Y-3390000D03*
G01*
X725000Y-3490000D03*
G01*
X725000Y-3590000D03*
G01*
X725000Y-3690000D03*
G01*
X725000Y-3790000D03*
G01*
X725000Y-3890000D03*
G01*
X725000Y-3990000D03*
G01*
X725000Y-4090000D03*
G01*
X725000Y-4190000D03*
G01*
X725000Y-4290000D03*
G01*
X725000Y-4390000D03*
G01*
X725000Y-4490000D03*
G01*
X725000Y-4590000D03*
G01*
X1425000Y-2790000D03*
G01*
X1325000Y-2790000D03*
G01*
X1025000Y-2790000D03*
G01*
X925000Y-2790000D03*
D39*
G01*
X2430000Y-4985000D03*
G01*
X2330000Y-4985000D03*
G01*
X2230000Y-4985000D03*
G01*
X2130000Y-4985000D03*
G01*
X2030000Y-4985000D03*
G36*
X1890600Y-5024400D02*
G01*
X1890600Y-4945599D01*
X1969399Y-4945599D01*
X1969399Y-5024400D01*
G37*
M02*
