G04 Layer: TopLayer*
G04 EasyEDA v6.4.17, 2021-03-16T21:25:48--4:00*
G04 0817081497994772ae9c6ae74964b192,7db2125e4611476bb2993bf99425ef50,10*
G04 Gerber Generator version 0.2*
G04 Scale: 100 percent, Rotated: No, Reflected: No *
G04 Dimensions in inches *
G04 leading zeros omitted , absolute positions ,3 integer and 6 decimal *
%FSLAX36Y36*%
%MOIN*%

%ADD10C,0.0100*%
%ADD11C,0.0102*%
%ADD12C,0.0110*%
%ADD13C,0.0240*%
%ADD14R,0.0157X0.0787*%
%ADD15R,0.0630X0.0472*%
%ADD16R,0.0315X0.0945*%
%ADD19R,0.0430X0.0850*%
%ADD20R,0.1380X0.0850*%
%ADD21R,0.1378X0.1378*%
%ADD22R,0.0610X0.0394*%
%ADD23C,0.0709*%
%ADD24R,0.0709X0.0620*%
%ADD25C,0.0472*%
%ADD27C,0.0669*%
%ADD28C,0.0600*%
%ADD30C,0.0512*%

%LPD*%
D10*
X3103109Y-4177438D02*
G01*
X3100000Y-4180549D01*
X3100000Y-4260000D01*
D11*
X3197600Y-3673800D02*
G01*
X3096199Y-3673800D01*
X2644399Y-3221999D01*
X2122100Y-3854699D02*
G01*
X2332399Y-3849699D01*
X2450000Y-3735000D01*
X2677910Y-3732559D01*
D10*
X2103428Y-3835010D02*
G01*
X2149989Y-3835010D01*
X2160000Y-3825000D01*
X2961379Y-3732559D02*
G01*
X2961379Y-3646379D01*
X2950000Y-3635000D01*
X1980000Y-4205000D02*
G01*
X1980000Y-4155000D01*
X2215000Y-3920000D01*
X2350000Y-3920000D01*
X2465000Y-3805000D01*
X2290000Y-3980000D02*
G01*
X2290000Y-4025700D01*
X2130000Y-4185700D01*
X2914129Y-3732559D02*
G01*
X2914129Y-3694130D01*
X2840000Y-3620000D01*
X2460000Y-3620000D01*
X2290000Y-3790000D01*
D11*
X2130000Y-4185700D02*
G01*
X2130000Y-4220700D01*
X2083000Y-4267800D01*
X1702799Y-4267800D01*
X1625000Y-4190000D01*
X2004399Y-3552899D02*
G01*
X2094499Y-3552899D01*
X2123000Y-3524400D01*
X1946000Y-2939899D02*
G01*
X1946000Y-2990999D01*
X2135000Y-3170000D01*
X2210000Y-3170000D01*
X2235200Y-3210500D01*
X2235200Y-3706599D01*
X2126400Y-3815300D01*
X2103699Y-3815300D01*
X1625000Y-3890000D02*
G01*
X1659899Y-3924899D01*
X1811300Y-3924899D01*
X725000Y-4490000D02*
G01*
X682399Y-4532600D01*
X682399Y-4609600D01*
X707300Y-4634400D01*
X1367100Y-4634400D01*
X1453599Y-4547900D01*
X2132899Y-4547900D01*
X2180000Y-4595000D01*
X2005000Y-3933699D02*
G01*
X2005000Y-3952199D01*
X1987100Y-3970000D01*
X725000Y-4590000D02*
G01*
X976000Y-4339000D01*
X2046000Y-4339000D01*
X2180000Y-4205000D01*
X2024700Y-3933699D02*
G01*
X2024700Y-3977100D01*
X1828500Y-4173299D01*
X1828500Y-4241799D01*
X1837799Y-4251100D01*
X2033900Y-4251100D01*
X2080000Y-4205000D01*
X2565600Y-3138000D02*
G01*
X2443999Y-3138000D01*
X2430000Y-3151999D01*
X2565600Y-3180000D02*
G01*
X2565600Y-3138000D01*
X2349499Y-3151999D02*
G01*
X2430000Y-3151999D01*
X2430000Y-4985000D02*
G01*
X3150399Y-4264600D01*
X3150399Y-4177500D01*
X2330000Y-4985000D02*
G01*
X2819700Y-4495400D01*
X2819700Y-4177500D01*
X2772399Y-4177500D02*
G01*
X2772399Y-4365400D01*
X2180000Y-4957800D01*
X2180000Y-5008400D01*
X2156499Y-5031900D01*
X2000399Y-5031900D01*
X1976899Y-5008499D01*
X1976899Y-4985000D01*
X1930000Y-4985000D02*
G01*
X1976899Y-4985000D01*
X2030000Y-4985000D02*
G01*
X2725200Y-4289800D01*
X2725200Y-4177500D01*
X2866899Y-3732600D02*
G01*
X2866899Y-3791300D01*
X2740000Y-3880000D02*
G01*
X2828701Y-3791298D01*
X2866899Y-3791298D01*
X2880000Y-3840000D02*
G01*
X2959897Y-3840000D01*
X3008599Y-3791298D01*
X3008599Y-3732600D02*
G01*
X3008599Y-3791300D01*
X2202899Y-3445599D02*
G01*
X2206999Y-3449800D01*
X2206999Y-3594000D01*
X2064099Y-3736900D01*
X2103699Y-3775900D02*
G01*
X2064700Y-3736900D01*
X2064099Y-3736900D01*
X2183900Y-3445599D02*
G01*
X2202899Y-3445599D01*
X2183900Y-3445599D02*
G01*
X2165000Y-3445599D01*
X1925600Y-3515000D02*
G01*
X1925600Y-3477199D01*
X1925600Y-3477199D02*
G01*
X1637899Y-3477199D01*
X1625000Y-3490000D01*
X2580600Y-2930000D02*
G01*
X2580600Y-2971999D01*
X2259499Y-2908000D02*
G01*
X2259499Y-2961999D01*
X1971599Y-2990799D02*
G01*
X2230799Y-2990799D01*
X2259499Y-2961999D01*
X2580600Y-2971999D02*
G01*
X2269499Y-2971999D01*
X2259499Y-2961999D01*
X1971599Y-2939899D02*
G01*
X1971599Y-2990799D01*
X2170000Y-3220599D02*
G01*
X2173699Y-3220599D01*
X2173699Y-3220599D02*
G01*
X2215399Y-3262399D01*
X2215399Y-3414200D01*
X2183900Y-3445599D01*
X1971599Y-2939899D02*
G01*
X1971599Y-2889000D01*
X1976800Y-3445599D02*
G01*
X1976800Y-3128200D01*
X1787600Y-2938899D01*
X1787600Y-2895399D01*
X1809399Y-2873499D01*
X1956099Y-2873499D01*
X1971599Y-2889000D01*
X1925600Y-3477199D02*
G01*
X1957200Y-3445599D01*
X1976800Y-3445599D01*
X1976800Y-3445599D02*
G01*
X2165000Y-3445599D01*
X1920399Y-2939899D02*
G01*
X1920399Y-2990799D01*
X1923500Y-3003899D02*
G01*
X1923500Y-2993800D01*
X1920399Y-2990799D01*
X1945600Y-3206999D02*
G01*
X1935600Y-3216999D01*
X1935600Y-3335000D01*
X1945600Y-3185999D02*
G01*
X1945600Y-3206999D01*
X1945600Y-3185999D02*
G01*
X1945600Y-3165000D01*
X1945600Y-3165000D02*
G01*
X1945600Y-3123000D01*
X2349499Y-2908000D02*
G01*
X2349499Y-2854000D01*
X405000Y-4180000D02*
G01*
X405000Y-4137500D01*
X1935600Y-3335000D02*
G01*
X1935600Y-3372899D01*
X405000Y-4137500D02*
G01*
X842799Y-4137500D01*
X1540299Y-3440000D01*
X1868500Y-3440000D01*
X1935600Y-3372899D01*
X2103699Y-3795599D02*
G01*
X2121700Y-3795599D01*
X2140299Y-3776999D01*
X2140299Y-3768400D01*
X1945600Y-3123000D02*
G01*
X1770900Y-2948200D01*
X1770900Y-2888499D01*
X1802500Y-2856900D01*
X1963699Y-2856900D01*
X1971999Y-2865200D01*
X2205299Y-2865200D01*
X2205299Y-2865200D02*
G01*
X2216499Y-2854000D01*
X2349499Y-2854000D01*
X2165000Y-3524400D02*
G01*
X2123000Y-3524400D01*
X2644399Y-3138000D02*
G01*
X2659399Y-3123000D01*
X2659399Y-2930000D01*
X2644399Y-3180000D02*
G01*
X2644399Y-3138000D01*
X2170000Y-3299400D02*
G01*
X2128000Y-3299400D01*
X2024399Y-3165000D02*
G01*
X2024399Y-3293000D01*
X2128000Y-3299400D02*
G01*
X2121599Y-3293000D01*
X2024399Y-3293000D01*
X2024399Y-3293000D02*
G01*
X2014399Y-3293000D01*
X2014399Y-3314000D02*
G01*
X2014399Y-3293000D01*
X2014399Y-3314000D02*
G01*
X2014399Y-3335000D01*
X2004399Y-3515000D02*
G01*
X2004399Y-3552899D01*
X2440500Y-2854000D02*
G01*
X2625399Y-2854000D01*
X2659399Y-2888000D01*
X2659399Y-2930000D02*
G01*
X2659399Y-2888000D01*
X2440500Y-2858200D02*
G01*
X2440500Y-2854000D01*
X2440500Y-2908000D02*
G01*
X2440500Y-2858200D01*
X3197600Y-4177500D02*
G01*
X3197600Y-3732600D01*
X3197600Y-3732600D02*
G01*
X3197600Y-3673800D01*
X2644399Y-3180000D02*
G01*
X2644399Y-3221999D01*
X2440500Y-2854000D02*
G01*
X2389200Y-2802700D01*
X2062500Y-2802700D01*
X2062500Y-2802700D02*
G01*
X2061199Y-2802700D01*
X2029300Y-2770799D01*
X1777500Y-2802700D02*
G01*
X1781599Y-2802700D01*
X1814200Y-2770100D01*
X1857200Y-2770100D02*
G01*
X1814200Y-2770100D01*
X2007799Y-2770799D02*
G01*
X2029300Y-2770799D01*
X2007799Y-2770799D02*
G01*
X1986300Y-2770799D01*
X1986300Y-2770799D02*
G01*
X1900799Y-2770799D01*
X1900200Y-2770100D01*
X1857200Y-2770100D02*
G01*
X1900200Y-2770100D01*
X2024399Y-3165000D02*
G01*
X2024399Y-3123000D01*
X1824499Y-2909000D02*
G01*
X1838299Y-2909000D01*
X1869200Y-2939899D01*
X1869200Y-2939899D02*
G01*
X1869200Y-2990799D01*
X405000Y-4280000D02*
G01*
X439099Y-4245900D01*
X1169099Y-4245900D01*
X1625000Y-3790000D01*
X2256899Y-4092100D02*
G01*
X2607600Y-4092100D01*
X2677899Y-4177399D02*
G01*
X2670699Y-4177399D01*
X2607600Y-4114299D01*
X2607600Y-4092100D01*
X2607600Y-4092100D02*
G01*
X2607600Y-3795000D01*
X2670100Y-3732600D01*
X2677899Y-3732600D01*
X2137299Y-3906799D02*
G01*
X2137299Y-3869899D01*
X2122100Y-3854699D01*
X2103699Y-3854699D01*
X2004399Y-3552899D02*
G01*
X1767200Y-3790000D01*
X1625000Y-3790000D01*
X2024399Y-3123000D02*
G01*
X2001499Y-3123000D01*
X1869200Y-2990799D01*
D12*
X2064110Y-3945635D02*
G01*
X2064110Y-3921226D01*
X2044409Y-3945635D02*
G01*
X2044409Y-3921226D01*
X2024709Y-3945635D02*
G01*
X2024709Y-3921226D01*
X2005010Y-3945635D02*
G01*
X2005010Y-3921226D01*
X1985309Y-3945635D02*
G01*
X1985309Y-3921226D01*
X1965609Y-3945635D02*
G01*
X1965609Y-3921226D01*
X1945910Y-3945635D02*
G01*
X1945910Y-3921226D01*
X1918784Y-3894110D02*
G01*
X1894376Y-3894110D01*
X1918784Y-3874409D02*
G01*
X1894376Y-3874409D01*
X1918784Y-3854710D02*
G01*
X1894376Y-3854710D01*
X1918784Y-3835010D02*
G01*
X1894376Y-3835010D01*
X1918784Y-3815309D02*
G01*
X1894376Y-3815309D01*
X1918784Y-3795610D02*
G01*
X1894376Y-3795610D01*
X1918784Y-3775909D02*
G01*
X1894376Y-3775909D01*
X1945910Y-3748784D02*
G01*
X1945910Y-3724376D01*
X1965609Y-3748784D02*
G01*
X1965609Y-3724376D01*
X1985309Y-3748784D02*
G01*
X1985309Y-3724376D01*
X2005010Y-3748784D02*
G01*
X2005010Y-3724376D01*
X2024709Y-3748784D02*
G01*
X2024709Y-3724376D01*
X2044409Y-3748784D02*
G01*
X2044409Y-3724376D01*
X2064110Y-3748784D02*
G01*
X2064110Y-3724376D01*
X2115635Y-3775909D02*
G01*
X2091225Y-3775909D01*
X2115635Y-3795610D02*
G01*
X2091225Y-3795610D01*
X2115635Y-3815309D02*
G01*
X2091225Y-3815309D01*
X2115635Y-3835010D02*
G01*
X2091225Y-3835010D01*
X2115635Y-3854710D02*
G01*
X2091225Y-3854710D01*
X2115635Y-3874409D02*
G01*
X2091225Y-3874409D01*
X2115635Y-3894110D02*
G01*
X2091225Y-3894110D01*
D14*
G01*
X1869229Y-2939879D03*
G01*
X1894819Y-2939879D03*
G01*
X1920410Y-2939879D03*
G01*
X1946000Y-2939879D03*
G01*
X1971589Y-2939879D03*
D15*
G01*
X1857179Y-2770120D03*
G01*
X1986260Y-2770760D03*
D16*
G01*
X3197600Y-3732559D03*
G01*
X3150349Y-3732559D03*
G01*
X3103109Y-3732559D03*
G01*
X3055870Y-3732559D03*
G01*
X3008620Y-3732559D03*
G01*
X2961379Y-3732559D03*
G01*
X2914129Y-3732559D03*
G01*
X2866890Y-3732559D03*
G01*
X2819650Y-3732559D03*
G01*
X2772399Y-3732559D03*
G01*
X2725159Y-3732559D03*
G01*
X2677910Y-3732559D03*
G36*
X2625158Y-3797519D02*
G01*
X2719646Y-3797519D01*
X2719646Y-3829016D01*
X2625158Y-3829016D01*
G37*
G36*
X2625158Y-3844764D02*
G01*
X2719646Y-3844764D01*
X2719646Y-3876260D01*
X2625158Y-3876260D01*
G37*
G36*
X2625158Y-3892008D02*
G01*
X2719646Y-3892008D01*
X2719646Y-3923503D01*
X2625158Y-3923503D01*
G37*
G36*
X2625158Y-3939252D02*
G01*
X2719646Y-3939252D01*
X2719646Y-3970747D01*
X2625158Y-3970747D01*
G37*
G36*
X2625158Y-3986496D02*
G01*
X2719646Y-3986496D01*
X2719646Y-4017991D01*
X2625158Y-4017991D01*
G37*
G36*
X2625158Y-4033739D02*
G01*
X2719646Y-4033739D01*
X2719646Y-4065236D01*
X2625158Y-4065236D01*
G37*
G36*
X2625158Y-4080983D02*
G01*
X2719646Y-4080983D01*
X2719646Y-4112478D01*
X2625158Y-4112478D01*
G37*
G01*
X2677910Y-4177440D03*
G01*
X2725159Y-4177440D03*
G01*
X2772399Y-4177440D03*
G01*
X2819650Y-4177440D03*
G01*
X2866890Y-4177440D03*
G01*
X2914129Y-4177440D03*
G01*
X2961379Y-4177440D03*
G01*
X3008620Y-4177440D03*
G01*
X3055870Y-4177440D03*
G01*
X3103109Y-4177440D03*
G01*
X3150349Y-4177440D03*
G01*
X3197600Y-4177440D03*
G36*
X2560945Y-2899488D02*
G01*
X2600315Y-2899488D01*
X2600315Y-2960511D01*
X2560945Y-2960511D01*
G37*
G36*
X2639684Y-2899488D02*
G01*
X2679054Y-2899488D01*
X2679054Y-2960511D01*
X2639684Y-2960511D01*
G37*
D19*
G01*
X2440500Y-2908000D03*
G01*
X2349499Y-2908000D03*
G01*
X2259499Y-2908000D03*
D20*
G01*
X2349499Y-3151999D03*
D21*
G01*
X2005000Y-3835010D03*
D22*
G01*
X2165000Y-3445630D03*
G01*
X2165000Y-3524369D03*
G36*
X1915945Y-3304488D02*
G01*
X1955315Y-3304488D01*
X1955315Y-3365511D01*
X1915945Y-3365511D01*
G37*
G36*
X1994684Y-3304488D02*
G01*
X2034054Y-3304488D01*
X2034054Y-3365511D01*
X1994684Y-3365511D01*
G37*
G36*
X1925945Y-3134488D02*
G01*
X1965315Y-3134488D01*
X1965315Y-3195511D01*
X1925945Y-3195511D01*
G37*
G36*
X2004684Y-3134488D02*
G01*
X2044054Y-3134488D01*
X2044054Y-3195511D01*
X2004684Y-3195511D01*
G37*
G01*
X2170000Y-3220630D03*
G01*
X2170000Y-3299369D03*
G36*
X2545945Y-3149488D02*
G01*
X2585315Y-3149488D01*
X2585315Y-3210511D01*
X2545945Y-3210511D01*
G37*
G36*
X2624684Y-3149488D02*
G01*
X2664054Y-3149488D01*
X2664054Y-3210511D01*
X2624684Y-3210511D01*
G37*
G36*
X1905945Y-3484488D02*
G01*
X1945315Y-3484488D01*
X1945315Y-3545511D01*
X1905945Y-3545511D01*
G37*
G36*
X1984684Y-3484488D02*
G01*
X2024054Y-3484488D01*
X2024054Y-3545511D01*
X1984684Y-3545511D01*
G37*
D23*
G01*
X405000Y-4380000D03*
G01*
X405000Y-4280000D03*
D24*
G01*
X405000Y-4180000D03*
D25*
G01*
X2015469Y-2908989D03*
G01*
X1824530Y-2908989D03*
G36*
X1846535Y-4171534D02*
G01*
X1913464Y-4171534D01*
X1913464Y-4238465D01*
X1846535Y-4238465D01*
G37*
D27*
G01*
X1980000Y-4205000D03*
G01*
X2080000Y-4205000D03*
G01*
X2180000Y-4205000D03*
G36*
X1846535Y-4561534D02*
G01*
X1913464Y-4561534D01*
X1913464Y-4628465D01*
X1846535Y-4628465D01*
G37*
G01*
X1980000Y-4595000D03*
G01*
X2080000Y-4595000D03*
G01*
X2180000Y-4595000D03*
D28*
G01*
X1625000Y-3390000D03*
G01*
X1625000Y-3490000D03*
G01*
X1625000Y-3590000D03*
G01*
X1625000Y-3690000D03*
G01*
X1625000Y-3790000D03*
G01*
X1625000Y-3890000D03*
G01*
X1625000Y-3990000D03*
G01*
X1625000Y-4090000D03*
G01*
X1625000Y-4190000D03*
G01*
X1625000Y-4290000D03*
G01*
X1625000Y-4390000D03*
G01*
X1625000Y-4490000D03*
G01*
X1625000Y-4590000D03*
G01*
X725000Y-3390000D03*
G01*
X725000Y-3490000D03*
G01*
X725000Y-3590000D03*
G01*
X725000Y-3690000D03*
G01*
X725000Y-3790000D03*
G01*
X725000Y-3890000D03*
G01*
X725000Y-3990000D03*
G01*
X725000Y-4090000D03*
G01*
X725000Y-4190000D03*
G01*
X725000Y-4290000D03*
G01*
X725000Y-4390000D03*
G01*
X725000Y-4490000D03*
G01*
X725000Y-4590000D03*
G01*
X1425000Y-2790000D03*
G01*
X1325000Y-2790000D03*
G01*
X1025000Y-2790000D03*
G01*
X925000Y-2790000D03*
D23*
G01*
X2430000Y-4985000D03*
G01*
X2330000Y-4985000D03*
G01*
X2230000Y-4985000D03*
G01*
X2130000Y-4985000D03*
G01*
X2030000Y-4985000D03*
G36*
X1894566Y-4949567D02*
G01*
X1965433Y-4949567D01*
X1965433Y-5020432D01*
X1894566Y-5020432D01*
G37*
D13*
G01*
X2950000Y-3635000D03*
G01*
X2290000Y-3980000D03*
G01*
X2290000Y-3790000D03*
G01*
X2465000Y-3805000D03*
G01*
X1811300Y-3924899D03*
G01*
X1987100Y-3970000D03*
G01*
X2740000Y-3880000D03*
G01*
X2880000Y-3840000D03*
G01*
X2160000Y-3825000D03*
G01*
X1923500Y-3003899D03*
G01*
X2140299Y-3768400D03*
G01*
X2205299Y-2865200D03*
G01*
X2137299Y-3906799D03*
G01*
X2256899Y-4092100D03*
G01*
X3100000Y-4260000D03*
D30*
X1777500Y-2820407D02*
G01*
X1777500Y-2784974D01*
X2062500Y-2820407D02*
G01*
X2062500Y-2784974D01*
M02*
