M48
INCH,LZ
;FILE_FORMAT=2:4
;TYPE=PLATED
;Layer: Drill PTH
;EasyEDA v6.4.17, 2021-03-16T21:25:48--4:00
;0817081497994772ae9c6ae74964b192,7db2125e4611476bb2993bf99425ef50,10
;Gerber Generator version 0.2
;Holesize 1 = 0.0120 inch
T01C0.0120
;Holesize 2 = 0.0120 inch
T02C0.0120
;Holesize 3 = 0.0280 inch
T03C0.0280
;Holesize 4 = 0.0360 inch
T04C0.0360
;Holesize 5 = 0.0430 inch
T05C0.0430
;Holesize 6 = 0.0470 inch
T06C0.0470
%
G05
G90
T01
X029500Y-036350
X022900Y-039800
X022900Y-037900
X024650Y-038050
X031000Y-042600
T02
X018113Y-039249
X019871Y-039700
X027400Y-038800
X028800Y-038400
X021600Y-038250
X019235Y-030039
X021403Y-037684
X022053Y-028652
X021373Y-039068
X022569Y-040921
T03
X017775Y-027869G85X017775Y-028184
X020625Y-027869G85X020625Y-028184
X020155Y-029090
X018245Y-029090
T04
X016250Y-033900
X016250Y-034900
X016250Y-035900
X016250Y-036900
X016250Y-037900
X016250Y-038900
X016250Y-039900
X016250Y-040900
X016250Y-041900
X016250Y-042900
X016250Y-043900
X016250Y-044900
X016250Y-045900
X007250Y-033900
X007250Y-034900
X007250Y-035900
X007250Y-036900
X007250Y-037900
X007250Y-038900
X007250Y-039900
X007250Y-040900
X007250Y-041900
X007250Y-042900
X007250Y-043900
X007250Y-044900
X007250Y-045900
X014250Y-027900
X013250Y-027900
X010250Y-027900
X009250Y-027900
T05
X018800Y-042050
X019800Y-042050
X020800Y-042050
X021800Y-042050
X018800Y-045950
X019800Y-045950
X020800Y-045950
X021800Y-045950
T06
X004050Y-043800
X004050Y-042800
X004050Y-041800
X024300Y-049850
X023300Y-049850
X022300Y-049850
X021300Y-049850
X020300Y-049850
X019300Y-049850
M30
