G04 Layer: BottomLayer*
G04 EasyEDA v6.4.17, 2021-03-16T21:25:48--4:00*
G04 0817081497994772ae9c6ae74964b192,7db2125e4611476bb2993bf99425ef50,10*
G04 Gerber Generator version 0.2*
G04 Scale: 100 percent, Rotated: No, Reflected: No *
G04 Dimensions in inches *
G04 leading zeros omitted , absolute positions ,3 integer and 6 decimal *
%FSLAX36Y36*%
%MOIN*%

%ADD10C,0.0100*%
%ADD11C,0.0102*%
%ADD13C,0.0240*%
%ADD23C,0.0709*%
%ADD24R,0.0709X0.0620*%
%ADD25C,0.0472*%
%ADD27C,0.0669*%
%ADD28C,0.0600*%
%ADD30C,0.0512*%

%LPD*%
D10*
X2465000Y-3805000D02*
G01*
X2465000Y-3700000D01*
X2590000Y-3575000D01*
X2890000Y-3575000D01*
X2950000Y-3635000D01*
X3100000Y-4260000D02*
G01*
X3100000Y-4410000D01*
X2455000Y-5055000D01*
X790000Y-5055000D01*
X350000Y-4615000D01*
X350000Y-4235000D01*
X405000Y-4180000D01*
X2290000Y-3790000D02*
G01*
X2290000Y-3980000D01*
D11*
X1880000Y-4595000D02*
G01*
X1880000Y-4550000D01*
X1880000Y-4550000D02*
G01*
X1811300Y-4481399D01*
X1811300Y-3924899D01*
X1625000Y-3990000D02*
G01*
X1713900Y-3901199D01*
X1821300Y-3901199D01*
X1880000Y-3959899D01*
X1880000Y-4205000D01*
X2080000Y-4595000D02*
G01*
X2030000Y-4545000D01*
X2030000Y-4012899D01*
X1987100Y-3970000D01*
X1625000Y-4090000D02*
G01*
X1581300Y-4133699D01*
X1581300Y-4308800D01*
X1619600Y-4347100D01*
X1646599Y-4347100D01*
X1667700Y-4368200D01*
X1667700Y-4546300D01*
X2080000Y-4958600D01*
X2080000Y-5004400D01*
X2112700Y-5037199D01*
X2377799Y-5037199D01*
X2430000Y-4985000D01*
X2230000Y-4985000D02*
G01*
X2740000Y-4475000D01*
X2740000Y-3880000D01*
X2130000Y-4985000D02*
G01*
X1697399Y-4552399D01*
X1697399Y-4262399D01*
X1625000Y-4190000D01*
X1980000Y-4595000D02*
G01*
X2028599Y-4643600D01*
X2096201Y-4643600D01*
X2130000Y-4609800D01*
X2130000Y-4444899D01*
X2734799Y-3840100D01*
X2879899Y-3840100D01*
X2880000Y-3840000D01*
X1923500Y-3003899D02*
G01*
X1923500Y-3588501D01*
X2160000Y-3825000D01*
X2140299Y-3768400D02*
G01*
X2205299Y-3703400D01*
X2205299Y-2865200D01*
X2015500Y-2909000D02*
G01*
X2062500Y-2861999D01*
X2062500Y-2802700D01*
X1777500Y-2802700D02*
G01*
X1824499Y-2849699D01*
X1824499Y-2909000D01*
X2256899Y-4092100D02*
G01*
X2137299Y-3972399D01*
X2137299Y-3906799D01*
X1822700Y-3592300D02*
G01*
X2137299Y-3906799D01*
X1824499Y-2909000D02*
G01*
X1824499Y-3590500D01*
X1822700Y-3592300D01*
X1822700Y-3592300D02*
G01*
X1625000Y-3790000D01*
X725000Y-4390000D02*
G01*
X415000Y-4390000D01*
X405000Y-4380000D01*
D23*
G01*
X405000Y-4380000D03*
G01*
X405000Y-4280000D03*
D24*
G01*
X405000Y-4180000D03*
D25*
G01*
X2015469Y-2908989D03*
G01*
X1824530Y-2908989D03*
G36*
X1846535Y-4171534D02*
G01*
X1913464Y-4171534D01*
X1913464Y-4238465D01*
X1846535Y-4238465D01*
G37*
D27*
G01*
X1980000Y-4205000D03*
G01*
X2080000Y-4205000D03*
G01*
X2180000Y-4205000D03*
G36*
X1846535Y-4561534D02*
G01*
X1913464Y-4561534D01*
X1913464Y-4628465D01*
X1846535Y-4628465D01*
G37*
G01*
X1980000Y-4595000D03*
G01*
X2080000Y-4595000D03*
G01*
X2180000Y-4595000D03*
D28*
G01*
X1625000Y-3390000D03*
G01*
X1625000Y-3490000D03*
G01*
X1625000Y-3590000D03*
G01*
X1625000Y-3690000D03*
G01*
X1625000Y-3790000D03*
G01*
X1625000Y-3890000D03*
G01*
X1625000Y-3990000D03*
G01*
X1625000Y-4090000D03*
G01*
X1625000Y-4190000D03*
G01*
X1625000Y-4290000D03*
G01*
X1625000Y-4390000D03*
G01*
X1625000Y-4490000D03*
G01*
X1625000Y-4590000D03*
G01*
X725000Y-3390000D03*
G01*
X725000Y-3490000D03*
G01*
X725000Y-3590000D03*
G01*
X725000Y-3690000D03*
G01*
X725000Y-3790000D03*
G01*
X725000Y-3890000D03*
G01*
X725000Y-3990000D03*
G01*
X725000Y-4090000D03*
G01*
X725000Y-4190000D03*
G01*
X725000Y-4290000D03*
G01*
X725000Y-4390000D03*
G01*
X725000Y-4490000D03*
G01*
X725000Y-4590000D03*
G01*
X1425000Y-2790000D03*
G01*
X1325000Y-2790000D03*
G01*
X1025000Y-2790000D03*
G01*
X925000Y-2790000D03*
D23*
G01*
X2430000Y-4985000D03*
G01*
X2330000Y-4985000D03*
G01*
X2230000Y-4985000D03*
G01*
X2130000Y-4985000D03*
G01*
X2030000Y-4985000D03*
G36*
X1894566Y-4949567D02*
G01*
X1965433Y-4949567D01*
X1965433Y-5020432D01*
X1894566Y-5020432D01*
G37*
D13*
G01*
X2950000Y-3635000D03*
G01*
X2290000Y-3980000D03*
G01*
X2290000Y-3790000D03*
G01*
X2465000Y-3805000D03*
G01*
X1811300Y-3924899D03*
G01*
X1987100Y-3970000D03*
G01*
X2740000Y-3880000D03*
G01*
X2880000Y-3840000D03*
G01*
X2160000Y-3825000D03*
G01*
X1923500Y-3003899D03*
G01*
X2140299Y-3768400D03*
G01*
X2205299Y-2865200D03*
G01*
X2137299Y-3906799D03*
G01*
X2256899Y-4092100D03*
G01*
X3100000Y-4260000D03*
D30*
X1777500Y-2820407D02*
G01*
X1777500Y-2784974D01*
X2062500Y-2820407D02*
G01*
X2062500Y-2784974D01*
M02*
