G04 Layer: TopSolderMaskLayer*
G04 EasyEDA v6.4.14, 2021-02-19T19:43:34--5:00*
G04 2728a531d0ad4e71a9f6f8894443a7d9,7db2125e4611476bb2993bf99425ef50,10*
G04 Gerber Generator version 0.2*
G04 Scale: 100 percent, Rotated: No, Reflected: No *
G04 Dimensions in millimeters *
G04 leading zeros omitted , absolute positions ,4 integer and 5 decimal *
%FSLAX45Y45*%
%MOMM*%

%ADD30C,1.5032*%
%ADD33C,1.9032*%
%ADD38C,1.4032*%

%LPD*%
D30*
X2925445Y265826D02*
G01*
X2925445Y175826D01*
X2201545Y265826D02*
G01*
X2201545Y175826D01*
G36*
X1821815Y713359D02*
G01*
X1821815Y933831D01*
X1977263Y933831D01*
X1977263Y713359D01*
G37*
G36*
X1371727Y713359D02*
G01*
X1371727Y933831D01*
X1527175Y933831D01*
X1527175Y713359D01*
G37*
G36*
X4552315Y1767459D02*
G01*
X4552315Y1987931D01*
X4707763Y1987931D01*
X4707763Y1767459D01*
G37*
G36*
X4102227Y1767459D02*
G01*
X4102227Y1987931D01*
X4257675Y1987931D01*
X4257675Y1767459D01*
G37*
G36*
X3903345Y3484245D02*
G01*
X3903345Y3674745D01*
X4093845Y3674745D01*
X4093845Y3484245D01*
G37*
D33*
G01*
X3998595Y3325495D03*
G01*
X3998595Y3071495D03*
G01*
X3998595Y2817495D03*
G36*
X337185Y2961513D02*
G01*
X337185Y3111881D01*
X497459Y3111881D01*
X497459Y2961513D01*
G37*
G36*
X337185Y2751455D02*
G01*
X337185Y2901823D01*
X497459Y2901823D01*
X497459Y2751455D01*
G37*
G36*
X591185Y3520313D02*
G01*
X591185Y3670681D01*
X751459Y3670681D01*
X751459Y3520313D01*
G37*
G36*
X591185Y3310255D02*
G01*
X591185Y3460623D01*
X751459Y3460623D01*
X751459Y3310255D01*
G37*
G36*
X891920Y3072765D02*
G01*
X891920Y3248025D01*
X1012317Y3248025D01*
X1012317Y3072765D01*
G37*
G36*
X1092072Y3072765D02*
G01*
X1092072Y3248025D01*
X1212469Y3248025D01*
X1212469Y3072765D01*
G37*
G36*
X993520Y3529965D02*
G01*
X993520Y3705225D01*
X1113917Y3705225D01*
X1113917Y3529965D01*
G37*
G36*
X1193672Y3529965D02*
G01*
X1193672Y3705225D01*
X1314069Y3705225D01*
X1314069Y3529965D01*
G37*
G36*
X436245Y2265045D02*
G01*
X436245Y2455545D01*
X626745Y2455545D01*
X626745Y2265045D01*
G37*
G01*
X531495Y2106295D03*
G01*
X531495Y1852295D03*
G01*
X531495Y1598295D03*
G36*
X1031620Y1231265D02*
G01*
X1031620Y1406525D01*
X1152017Y1406525D01*
X1152017Y1231265D01*
G37*
G36*
X1231772Y1231265D02*
G01*
X1231772Y1406525D01*
X1352169Y1406525D01*
X1352169Y1231265D01*
G37*
G36*
X2664333Y461390D02*
G01*
X2664333Y677290D01*
X2720467Y677290D01*
X2720467Y461390D01*
G37*
G36*
X2599563Y461390D02*
G01*
X2599563Y677290D01*
X2655443Y677290D01*
X2655443Y461390D01*
G37*
G36*
X2534538Y461390D02*
G01*
X2534538Y677290D01*
X2590419Y677290D01*
X2590419Y461390D01*
G37*
G36*
X2469515Y461390D02*
G01*
X2469515Y677290D01*
X2525395Y677290D01*
X2525395Y461390D01*
G37*
G36*
X2404490Y461390D02*
G01*
X2404490Y677290D01*
X2460370Y677290D01*
X2460370Y461390D01*
G37*
G36*
X2632836Y67945D02*
G01*
X2632836Y208153D01*
X2813177Y208153D01*
X2813177Y67945D01*
G37*
G36*
X2304922Y69469D02*
G01*
X2304922Y209931D01*
X2485263Y209931D01*
X2485263Y69469D01*
G37*
D38*
G01*
X2321001Y490829D03*
G01*
X2805988Y490829D03*
G36*
X2383154Y852805D02*
G01*
X2383154Y1089025D01*
X2512695Y1089025D01*
X2512695Y852805D01*
G37*
G36*
X2614295Y852805D02*
G01*
X2614295Y1089025D01*
X2743835Y1089025D01*
X2743835Y852805D01*
G37*
G36*
X2842895Y852805D02*
G01*
X2842895Y1089025D01*
X2972435Y1089025D01*
X2972435Y852805D01*
G37*
G36*
X2493645Y1472565D02*
G01*
X2493645Y1708785D01*
X2864485Y1708785D01*
X2864485Y1472565D01*
G37*
G36*
X4444872Y2298065D02*
G01*
X4444872Y2473325D01*
X4565269Y2473325D01*
X4565269Y2298065D01*
G37*
G36*
X4244720Y2298065D02*
G01*
X4244720Y2473325D01*
X4365117Y2473325D01*
X4365117Y2298065D01*
G37*
G36*
X3393820Y697865D02*
G01*
X3393820Y873125D01*
X3514217Y873125D01*
X3514217Y697865D01*
G37*
G36*
X3593972Y697865D02*
G01*
X3593972Y873125D01*
X3714369Y873125D01*
X3714369Y697865D01*
G37*
G36*
X1993772Y1586865D02*
G01*
X1993772Y1762125D01*
X2114169Y1762125D01*
X2114169Y1586865D01*
G37*
G36*
X1793620Y1586865D02*
G01*
X1793620Y1762125D01*
X1914017Y1762125D01*
X1914017Y1586865D01*
G37*
G36*
X3406520Y1129665D02*
G01*
X3406520Y1304925D01*
X3526917Y1304925D01*
X3526917Y1129665D01*
G37*
G36*
X3606672Y1129665D02*
G01*
X3606672Y1304925D01*
X3727069Y1304925D01*
X3727069Y1129665D01*
G37*
G36*
X4050665Y1422273D02*
G01*
X4050665Y1542669D01*
X4225925Y1542669D01*
X4225925Y1422273D01*
G37*
G36*
X4050665Y1222121D02*
G01*
X4050665Y1342517D01*
X4225925Y1342517D01*
X4225925Y1222121D01*
G37*
G36*
X3187572Y4220082D02*
G01*
X3187572Y4310507D01*
X3438017Y4310507D01*
X3438017Y4220082D01*
G37*
G36*
X3187572Y4068190D02*
G01*
X3187572Y4158361D01*
X3438017Y4158361D01*
X3438017Y4068190D01*
G37*
G36*
X3187572Y3648075D02*
G01*
X3187572Y3738499D01*
X3438017Y3738499D01*
X3438017Y3648075D01*
G37*
G36*
X3187572Y3521075D02*
G01*
X3187572Y3611499D01*
X3438017Y3611499D01*
X3438017Y3521075D01*
G37*
G36*
X3187572Y3394075D02*
G01*
X3187572Y3484499D01*
X3438017Y3484499D01*
X3438017Y3394075D01*
G37*
G36*
X3187572Y3267075D02*
G01*
X3187572Y3357499D01*
X3438017Y3357499D01*
X3438017Y3267075D01*
G37*
G36*
X1536572Y3648075D02*
G01*
X1536572Y3738499D01*
X1787017Y3738499D01*
X1787017Y3648075D01*
G37*
G36*
X1536572Y3521582D02*
G01*
X1536572Y3612007D01*
X1787017Y3612007D01*
X1787017Y3521582D01*
G37*
G36*
X1536572Y3394075D02*
G01*
X1536572Y3484499D01*
X1787017Y3484499D01*
X1787017Y3394075D01*
G37*
G36*
X1536572Y3267075D02*
G01*
X1536572Y3357499D01*
X1787017Y3357499D01*
X1787017Y3267075D01*
G37*
G36*
X1536572Y3140075D02*
G01*
X1536572Y3230499D01*
X1787017Y3230499D01*
X1787017Y3140075D01*
G37*
G36*
X1536572Y3013075D02*
G01*
X1536572Y3103499D01*
X1787017Y3103499D01*
X1787017Y3013075D01*
G37*
G36*
X3187572Y3140075D02*
G01*
X3187572Y3230499D01*
X3438017Y3230499D01*
X3438017Y3140075D01*
G37*
G36*
X3187572Y3013075D02*
G01*
X3187572Y3103499D01*
X3438017Y3103499D01*
X3438017Y3013075D01*
G37*
G36*
X3187572Y2886075D02*
G01*
X3187572Y2976499D01*
X3438017Y2976499D01*
X3438017Y2886075D01*
G37*
G36*
X3187572Y2759075D02*
G01*
X3187572Y2849499D01*
X3438017Y2849499D01*
X3438017Y2759075D01*
G37*
G36*
X3187572Y2505075D02*
G01*
X3187572Y2595499D01*
X3438017Y2595499D01*
X3438017Y2505075D01*
G37*
G36*
X3187572Y2632075D02*
G01*
X3187572Y2722499D01*
X3438017Y2722499D01*
X3438017Y2632075D01*
G37*
G36*
X3187572Y2124075D02*
G01*
X3187572Y2214499D01*
X3438017Y2214499D01*
X3438017Y2124075D01*
G37*
G36*
X3187572Y1997075D02*
G01*
X3187572Y2087499D01*
X3438017Y2087499D01*
X3438017Y1997075D01*
G37*
G36*
X3187572Y2251075D02*
G01*
X3187572Y2341499D01*
X3438017Y2341499D01*
X3438017Y2251075D01*
G37*
G36*
X3187572Y2378075D02*
G01*
X3187572Y2468499D01*
X3438017Y2468499D01*
X3438017Y2378075D01*
G37*
G36*
X1536572Y2505075D02*
G01*
X1536572Y2595499D01*
X1787017Y2595499D01*
X1787017Y2505075D01*
G37*
G36*
X1536572Y2629789D02*
G01*
X1536572Y2719959D01*
X1787017Y2719959D01*
X1787017Y2629789D01*
G37*
G36*
X1536572Y2883789D02*
G01*
X1536572Y2973959D01*
X1787017Y2973959D01*
X1787017Y2883789D01*
G37*
G36*
X1536572Y2756789D02*
G01*
X1536572Y2846959D01*
X1787017Y2846959D01*
X1787017Y2756789D01*
G37*
G36*
X1536572Y2248789D02*
G01*
X1536572Y2338959D01*
X1787017Y2338959D01*
X1787017Y2248789D01*
G37*
G36*
X1536572Y2375789D02*
G01*
X1536572Y2465959D01*
X1787017Y2465959D01*
X1787017Y2375789D01*
G37*
G36*
X1536572Y2121789D02*
G01*
X1536572Y2211959D01*
X1787017Y2211959D01*
X1787017Y2121789D01*
G37*
G36*
X1536572Y1994789D02*
G01*
X1536572Y2084959D01*
X1787017Y2084959D01*
X1787017Y1994789D01*
G37*
M02*
