G04 Layer: TopSilkLayer*
G04 EasyEDA v6.4.14, 2021-02-19T19:43:34--5:00*
G04 2728a531d0ad4e71a9f6f8894443a7d9,7db2125e4611476bb2993bf99425ef50,10*
G04 Gerber Generator version 0.2*
G04 Scale: 100 percent, Rotated: No, Reflected: No *
G04 Dimensions in millimeters *
G04 leading zeros omitted , absolute positions ,4 integer and 5 decimal *
%FSLAX45Y45*%
%MOMM*%

%ADD10C,0.2540*%
%ADD26C,0.2032*%
%ADD27C,0.2030*%
%ADD28C,0.2007*%
%ADD29C,0.1524*%

%LPD*%
D26*
X785495Y1897253D02*
G01*
X785495Y1782699D01*
X747395Y1897253D02*
G01*
X823849Y1897253D01*
X859663Y1897253D02*
G01*
X936117Y1782699D01*
X936117Y1897253D02*
G01*
X859663Y1782699D01*
X785495Y2113153D02*
G01*
X785495Y1998599D01*
X785495Y2113153D02*
G01*
X834517Y2113153D01*
X851027Y2107565D01*
X856361Y2102231D01*
X861949Y2091309D01*
X861949Y2080387D01*
X856361Y2069465D01*
X851027Y2063877D01*
X834517Y2058543D01*
X785495Y2058543D01*
X823595Y2058543D02*
G01*
X861949Y1998599D01*
X897763Y2113153D02*
G01*
X974217Y1998599D01*
X974217Y2113153D02*
G01*
X897763Y1998599D01*
X771017Y1681353D02*
G01*
X830961Y1681353D01*
X798195Y1637665D01*
X814705Y1637665D01*
X825627Y1632077D01*
X830961Y1626743D01*
X836549Y1610487D01*
X836549Y1599565D01*
X830961Y1583055D01*
X820039Y1572132D01*
X803782Y1566799D01*
X787273Y1566799D01*
X771017Y1572132D01*
X765429Y1577721D01*
X760095Y1588643D01*
X877951Y1593977D02*
G01*
X872363Y1588643D01*
X877951Y1583055D01*
X883285Y1588643D01*
X877951Y1593977D01*
X930275Y1681353D02*
G01*
X990219Y1681353D01*
X957453Y1637665D01*
X973963Y1637665D01*
X984885Y1632077D01*
X990219Y1626743D01*
X995806Y1610487D01*
X995806Y1599565D01*
X990219Y1583055D01*
X979297Y1572132D01*
X963040Y1566799D01*
X946531Y1566799D01*
X930275Y1572132D01*
X924940Y1577721D01*
X919353Y1588643D01*
X1031620Y1642999D02*
G01*
X1064386Y1566799D01*
X1097153Y1642999D02*
G01*
X1064386Y1566799D01*
X829182Y2377821D02*
G01*
X823849Y2388743D01*
X812927Y2399665D01*
X802005Y2405253D01*
X780161Y2405253D01*
X769239Y2399665D01*
X758317Y2388743D01*
X752729Y2377821D01*
X747395Y2361565D01*
X747395Y2334387D01*
X752729Y2317877D01*
X758317Y2306955D01*
X769239Y2296032D01*
X780161Y2290699D01*
X802005Y2290699D01*
X812927Y2296032D01*
X823849Y2306955D01*
X829182Y2317877D01*
X829182Y2334387D01*
X802005Y2334387D02*
G01*
X829182Y2334387D01*
X865251Y2405253D02*
G01*
X865251Y2290699D01*
X865251Y2405253D02*
G01*
X941451Y2290699D01*
X941451Y2405253D02*
G01*
X941451Y2290699D01*
X977519Y2405253D02*
G01*
X977519Y2290699D01*
X977519Y2405253D02*
G01*
X1015872Y2405253D01*
X1032129Y2399665D01*
X1043051Y2388743D01*
X1048385Y2377821D01*
X1053972Y2361565D01*
X1053972Y2334387D01*
X1048385Y2317877D01*
X1043051Y2306955D01*
X1032129Y2296032D01*
X1015872Y2290699D01*
X977519Y2290699D01*
X4239895Y2913253D02*
G01*
X4239895Y2798699D01*
X4201795Y2913253D02*
G01*
X4278249Y2913253D01*
X4314063Y2913253D02*
G01*
X4314063Y2798699D01*
X4314063Y2913253D02*
G01*
X4352417Y2913253D01*
X4368672Y2907665D01*
X4379595Y2896743D01*
X4385183Y2885821D01*
X4390517Y2869565D01*
X4390517Y2842387D01*
X4385183Y2825877D01*
X4379595Y2814955D01*
X4368672Y2804032D01*
X4352417Y2798699D01*
X4314063Y2798699D01*
X4459351Y2913253D02*
G01*
X4448429Y2907665D01*
X4437506Y2896743D01*
X4431919Y2885821D01*
X4426585Y2869565D01*
X4426585Y2842387D01*
X4431919Y2825877D01*
X4437506Y2814955D01*
X4448429Y2804032D01*
X4459351Y2798699D01*
X4480940Y2798699D01*
X4491863Y2804032D01*
X4502785Y2814955D01*
X4508372Y2825877D01*
X4513706Y2842387D01*
X4513706Y2869565D01*
X4508372Y2885821D01*
X4502785Y2896743D01*
X4491863Y2907665D01*
X4480940Y2913253D01*
X4459351Y2913253D01*
X4252595Y3141853D02*
G01*
X4252595Y3027299D01*
X4214495Y3141853D02*
G01*
X4290949Y3141853D01*
X4326763Y3141853D02*
G01*
X4326763Y3027299D01*
X4326763Y3141853D02*
G01*
X4365117Y3141853D01*
X4381372Y3136265D01*
X4392295Y3125343D01*
X4397883Y3114421D01*
X4403217Y3098165D01*
X4403217Y3070987D01*
X4397883Y3054477D01*
X4392295Y3043555D01*
X4381372Y3032632D01*
X4365117Y3027299D01*
X4326763Y3027299D01*
X4439285Y3141853D02*
G01*
X4439285Y3027299D01*
X4252595Y3370453D02*
G01*
X4252595Y3255899D01*
X4214495Y3370453D02*
G01*
X4290949Y3370453D01*
X4408551Y3343021D02*
G01*
X4403217Y3353943D01*
X4392295Y3364865D01*
X4381372Y3370453D01*
X4359529Y3370453D01*
X4348606Y3364865D01*
X4337685Y3353943D01*
X4332351Y3343021D01*
X4326763Y3326765D01*
X4326763Y3299587D01*
X4332351Y3283077D01*
X4337685Y3272155D01*
X4348606Y3261232D01*
X4359529Y3255899D01*
X4381372Y3255899D01*
X4392295Y3261232D01*
X4403217Y3272155D01*
X4408551Y3283077D01*
X4444619Y3370453D02*
G01*
X4444619Y3255899D01*
X4521072Y3370453D02*
G01*
X4444619Y3293999D01*
X4472051Y3321177D02*
G01*
X4521072Y3255899D01*
X4239895Y3611753D02*
G01*
X4239895Y3497199D01*
X4201795Y3611753D02*
G01*
X4278249Y3611753D01*
X4314063Y3611753D02*
G01*
X4314063Y3497199D01*
X4314063Y3611753D02*
G01*
X4357751Y3497199D01*
X4401438Y3611753D02*
G01*
X4357751Y3497199D01*
X4401438Y3611753D02*
G01*
X4401438Y3497199D01*
X4513706Y3595243D02*
G01*
X4502785Y3606165D01*
X4486529Y3611753D01*
X4464685Y3611753D01*
X4448429Y3606165D01*
X4437506Y3595243D01*
X4437506Y3584321D01*
X4442840Y3573399D01*
X4448429Y3568065D01*
X4459351Y3562477D01*
X4491863Y3551809D01*
X4502785Y3546221D01*
X4508372Y3540887D01*
X4513706Y3529965D01*
X4513706Y3513455D01*
X4502785Y3502532D01*
X4486529Y3497199D01*
X4464685Y3497199D01*
X4448429Y3502532D01*
X4437506Y3513455D01*
D29*
X1387729Y639445D02*
G01*
X1387729Y530479D01*
X1387729Y639445D02*
G01*
X1434465Y639445D01*
X1449959Y634365D01*
X1455293Y629031D01*
X1460372Y618617D01*
X1460372Y608203D01*
X1455293Y597789D01*
X1449959Y592709D01*
X1434465Y587629D01*
X1387729Y587629D01*
X1424051Y587629D02*
G01*
X1460372Y530479D01*
X1567561Y623951D02*
G01*
X1557147Y634365D01*
X1541399Y639445D01*
X1520825Y639445D01*
X1505077Y634365D01*
X1494663Y623951D01*
X1494663Y613537D01*
X1499997Y603123D01*
X1505077Y597789D01*
X1515490Y592709D01*
X1546733Y582295D01*
X1557147Y577215D01*
X1562227Y571881D01*
X1567561Y561467D01*
X1567561Y545973D01*
X1557147Y535559D01*
X1541399Y530479D01*
X1520825Y530479D01*
X1505077Y535559D01*
X1494663Y545973D01*
X1638172Y639445D02*
G01*
X1638172Y530479D01*
X1601851Y639445D02*
G01*
X1674495Y639445D01*
X1708785Y618617D02*
G01*
X1719199Y623951D01*
X1734693Y639445D01*
X1734693Y530479D01*
X3769995Y1929511D02*
G01*
X3769995Y1820545D01*
X3769995Y1929511D02*
G01*
X3816731Y1929511D01*
X3832225Y1924431D01*
X3837559Y1919097D01*
X3842638Y1908682D01*
X3842638Y1898269D01*
X3837559Y1887855D01*
X3832225Y1882775D01*
X3816731Y1877695D01*
X3769995Y1877695D02*
G01*
X3816731Y1877695D01*
X3832225Y1872361D01*
X3837559Y1867281D01*
X3842638Y1856867D01*
X3842638Y1841119D01*
X3837559Y1830705D01*
X3832225Y1825625D01*
X3816731Y1820545D01*
X3769995Y1820545D01*
X3949827Y1914017D02*
G01*
X3939413Y1924431D01*
X3923665Y1929511D01*
X3903090Y1929511D01*
X3887343Y1924431D01*
X3876929Y1914017D01*
X3876929Y1903603D01*
X3882263Y1893189D01*
X3887343Y1887855D01*
X3897756Y1882775D01*
X3928999Y1872361D01*
X3939413Y1867281D01*
X3944493Y1861947D01*
X3949827Y1851532D01*
X3949827Y1836039D01*
X3939413Y1825625D01*
X3923665Y1820545D01*
X3903090Y1820545D01*
X3887343Y1825625D01*
X3876929Y1836039D01*
X3984117Y1929511D02*
G01*
X3984117Y1820545D01*
X3984117Y1820545D02*
G01*
X4046347Y1820545D01*
X4080636Y1908682D02*
G01*
X4091051Y1914017D01*
X4106545Y1929511D01*
X4106545Y1820545D01*
X124079Y2779395D02*
G01*
X233045Y2779395D01*
X233045Y2779395D02*
G01*
X233045Y2841625D01*
X124079Y2875915D02*
G01*
X233045Y2875915D01*
X124079Y2875915D02*
G01*
X124079Y2943479D01*
X175895Y2875915D02*
G01*
X175895Y2917571D01*
X233045Y2875915D02*
G01*
X233045Y2943479D01*
X124079Y2977769D02*
G01*
X233045Y2977769D01*
X124079Y2977769D02*
G01*
X124079Y3014345D01*
X129159Y3029839D01*
X139573Y3040253D01*
X149987Y3045332D01*
X165735Y3050667D01*
X191643Y3050667D01*
X207137Y3045332D01*
X217551Y3040253D01*
X227965Y3029839D01*
X233045Y3014345D01*
X233045Y2977769D01*
X124079Y3095371D02*
G01*
X124079Y3152521D01*
X165735Y3121279D01*
X165735Y3136773D01*
X170815Y3147187D01*
X175895Y3152521D01*
X191643Y3157601D01*
X202057Y3157601D01*
X217551Y3152521D01*
X227965Y3142107D01*
X233045Y3126359D01*
X233045Y3110865D01*
X227965Y3095371D01*
X222885Y3090037D01*
X212471Y3084957D01*
X416179Y3376295D02*
G01*
X525145Y3376295D01*
X525145Y3376295D02*
G01*
X525145Y3438525D01*
X416179Y3472815D02*
G01*
X525145Y3472815D01*
X416179Y3472815D02*
G01*
X416179Y3540379D01*
X467995Y3472815D02*
G01*
X467995Y3514471D01*
X525145Y3472815D02*
G01*
X525145Y3540379D01*
X416179Y3574669D02*
G01*
X525145Y3574669D01*
X416179Y3574669D02*
G01*
X416179Y3611245D01*
X421259Y3626739D01*
X431673Y3637153D01*
X442087Y3642232D01*
X457835Y3647567D01*
X483743Y3647567D01*
X499237Y3642232D01*
X509651Y3637153D01*
X520065Y3626739D01*
X525145Y3611245D01*
X525145Y3574669D01*
X416179Y3733673D02*
G01*
X488823Y3681857D01*
X488823Y3759835D01*
X416179Y3733673D02*
G01*
X525145Y3733673D01*
X883462Y3001645D02*
G01*
X883462Y2892679D01*
X883462Y3001645D02*
G01*
X930198Y3001645D01*
X945692Y2996565D01*
X951026Y2991231D01*
X956106Y2980817D01*
X956106Y2970403D01*
X951026Y2959989D01*
X945692Y2954909D01*
X930198Y2949829D01*
X883462Y2949829D01*
X919784Y2949829D02*
G01*
X956106Y2892679D01*
X1000810Y3001645D02*
G01*
X1057960Y3001645D01*
X1026972Y2959989D01*
X1042466Y2959989D01*
X1052880Y2954909D01*
X1057960Y2949829D01*
X1063294Y2934081D01*
X1063294Y2923667D01*
X1057960Y2908173D01*
X1047546Y2897759D01*
X1032052Y2892679D01*
X1016558Y2892679D01*
X1000810Y2897759D01*
X995730Y2902839D01*
X990396Y2913253D01*
X963295Y3885311D02*
G01*
X963295Y3776345D01*
X963295Y3885311D02*
G01*
X1010031Y3885311D01*
X1025525Y3880231D01*
X1030859Y3874897D01*
X1035938Y3864482D01*
X1035938Y3854069D01*
X1030859Y3843655D01*
X1025525Y3838575D01*
X1010031Y3833495D01*
X963295Y3833495D01*
X999617Y3833495D02*
G01*
X1035938Y3776345D01*
X1075563Y3859403D02*
G01*
X1075563Y3864482D01*
X1080643Y3874897D01*
X1085977Y3880231D01*
X1096390Y3885311D01*
X1116965Y3885311D01*
X1127379Y3880231D01*
X1132713Y3874897D01*
X1137793Y3864482D01*
X1137793Y3854069D01*
X1132713Y3843655D01*
X1122299Y3828161D01*
X1070229Y3776345D01*
X1143127Y3776345D01*
X1069898Y1160145D02*
G01*
X1069898Y1051179D01*
X1069898Y1160145D02*
G01*
X1116634Y1160145D01*
X1132128Y1155065D01*
X1137462Y1149731D01*
X1142542Y1139317D01*
X1142542Y1128903D01*
X1137462Y1118489D01*
X1132128Y1113409D01*
X1116634Y1108329D01*
X1069898Y1108329D01*
X1106220Y1108329D02*
G01*
X1142542Y1051179D01*
X1176832Y1139317D02*
G01*
X1187246Y1144651D01*
X1202994Y1160145D01*
X1202994Y1051179D01*
X4646295Y2450211D02*
G01*
X4646295Y2341245D01*
X4646295Y2450211D02*
G01*
X4693031Y2450211D01*
X4708525Y2445131D01*
X4713859Y2439797D01*
X4718938Y2429382D01*
X4718938Y2418969D01*
X4713859Y2408555D01*
X4708525Y2403475D01*
X4693031Y2398395D01*
X4646295Y2398395D01*
X4682617Y2398395D02*
G01*
X4718938Y2341245D01*
X4805299Y2450211D02*
G01*
X4753229Y2377567D01*
X4831206Y2377567D01*
X4805299Y2450211D02*
G01*
X4805299Y2341245D01*
X3327272Y608203D02*
G01*
X3321938Y618617D01*
X3311525Y629031D01*
X3301365Y634111D01*
X3280536Y634111D01*
X3270122Y629031D01*
X3259709Y618617D01*
X3254375Y608203D01*
X3249295Y592455D01*
X3249295Y566547D01*
X3254375Y551053D01*
X3259709Y540639D01*
X3270122Y530225D01*
X3280536Y525145D01*
X3301365Y525145D01*
X3311525Y530225D01*
X3321938Y540639D01*
X3327272Y551053D01*
X3387470Y634111D02*
G01*
X3371977Y629031D01*
X3366643Y618617D01*
X3366643Y608203D01*
X3371977Y597789D01*
X3382390Y592455D01*
X3402965Y587375D01*
X3418713Y582295D01*
X3429127Y571881D01*
X3434206Y561467D01*
X3434206Y545719D01*
X3429127Y535305D01*
X3423793Y530225D01*
X3408299Y525145D01*
X3387470Y525145D01*
X3371977Y530225D01*
X3366643Y535305D01*
X3361563Y545719D01*
X3361563Y561467D01*
X3366643Y571881D01*
X3377056Y582295D01*
X3392804Y587375D01*
X3413379Y592455D01*
X3423793Y597789D01*
X3429127Y608203D01*
X3429127Y618617D01*
X3423793Y629031D01*
X3408299Y634111D01*
X3387470Y634111D01*
X1852726Y1489837D02*
G01*
X1847392Y1500251D01*
X1836978Y1510665D01*
X1826818Y1515745D01*
X1805990Y1515745D01*
X1795576Y1510665D01*
X1785162Y1500251D01*
X1779828Y1489837D01*
X1774748Y1474089D01*
X1774748Y1448181D01*
X1779828Y1432687D01*
X1785162Y1422273D01*
X1795576Y1411859D01*
X1805990Y1406779D01*
X1826818Y1406779D01*
X1836978Y1411859D01*
X1847392Y1422273D01*
X1852726Y1432687D01*
X1938832Y1515745D02*
G01*
X1887016Y1443101D01*
X1964994Y1443101D01*
X1938832Y1515745D02*
G01*
X1938832Y1406779D01*
X3633673Y1459103D02*
G01*
X3628339Y1469517D01*
X3617925Y1479931D01*
X3607765Y1485011D01*
X3586937Y1485011D01*
X3576523Y1479931D01*
X3566109Y1469517D01*
X3560775Y1459103D01*
X3555695Y1443355D01*
X3555695Y1417447D01*
X3560775Y1401953D01*
X3566109Y1391539D01*
X3576523Y1381125D01*
X3586937Y1376045D01*
X3607765Y1376045D01*
X3617925Y1381125D01*
X3628339Y1391539D01*
X3633673Y1401953D01*
X3678377Y1485011D02*
G01*
X3735527Y1485011D01*
X3704285Y1443355D01*
X3719779Y1443355D01*
X3730193Y1438275D01*
X3735527Y1433195D01*
X3740607Y1417447D01*
X3740607Y1407032D01*
X3735527Y1391539D01*
X3725113Y1381125D01*
X3709365Y1376045D01*
X3693871Y1376045D01*
X3678377Y1381125D01*
X3673043Y1386205D01*
X3667963Y1396619D01*
X4367403Y1304417D02*
G01*
X4377817Y1309751D01*
X4388231Y1320165D01*
X4393311Y1330325D01*
X4393311Y1351153D01*
X4388231Y1361567D01*
X4377817Y1371981D01*
X4367403Y1377315D01*
X4351654Y1382395D01*
X4325747Y1382395D01*
X4310253Y1377315D01*
X4299838Y1371981D01*
X4289425Y1361567D01*
X4284345Y1351153D01*
X4284345Y1330325D01*
X4289425Y1320165D01*
X4299838Y1309751D01*
X4310253Y1304417D01*
X4367403Y1265047D02*
G01*
X4372483Y1265047D01*
X4382897Y1259713D01*
X4388231Y1254632D01*
X4393311Y1244219D01*
X4393311Y1223390D01*
X4388231Y1212977D01*
X4382897Y1207897D01*
X4372483Y1202563D01*
X4362069Y1202563D01*
X4351654Y1207897D01*
X4336161Y1218311D01*
X4284345Y1270127D01*
X4284345Y1197482D01*
X2461895Y5066411D02*
G01*
X2461895Y4988432D01*
X2466975Y4972939D01*
X2477388Y4962525D01*
X2493136Y4957445D01*
X2503551Y4957445D01*
X2519045Y4962525D01*
X2529459Y4972939D01*
X2534538Y4988432D01*
X2534538Y5066411D01*
X2568829Y5045582D02*
G01*
X2579243Y5050917D01*
X2594990Y5066411D01*
X2594990Y4957445D01*
D10*
X1874494Y678594D02*
G01*
X1474495Y678594D01*
X1874494Y968595D02*
G01*
X1474495Y968595D01*
X1874494Y678594D02*
G01*
X1874494Y700481D01*
X1874494Y946708D02*
G01*
X1874494Y968595D01*
X1474495Y678594D02*
G01*
X1474495Y700481D01*
X1474495Y946708D02*
G01*
X1474495Y968595D01*
X4604994Y1732694D02*
G01*
X4204995Y1732694D01*
X4604994Y2022695D02*
G01*
X4204995Y2022695D01*
X4604994Y1732694D02*
G01*
X4604994Y1754581D01*
X4604994Y2000808D02*
G01*
X4604994Y2022695D01*
X4204995Y1732694D02*
G01*
X4204995Y1754581D01*
X4204995Y2000808D02*
G01*
X4204995Y2022695D01*
D26*
X4125595Y2690495D02*
G01*
X3871595Y2690495D01*
X3871595Y3706495D01*
X4125595Y3706495D01*
X4125595Y3515995D01*
D27*
X4125595Y2690495D02*
G01*
X4125595Y3515995D01*
D10*
X518922Y2976118D02*
G01*
X518922Y3131057D01*
X315722Y3131057D01*
X315722Y2976118D01*
X521462Y2897378D02*
G01*
X521462Y2750057D01*
X480822Y2709418D01*
X353822Y2709418D01*
X315722Y2747518D01*
X315722Y2899918D01*
X367195Y2951794D02*
G01*
X467220Y2951794D01*
X417195Y2941802D02*
G01*
X417195Y2914904D01*
X772922Y3534918D02*
G01*
X772922Y3689857D01*
X569722Y3689857D01*
X569722Y3534918D01*
X775462Y3456178D02*
G01*
X775462Y3308857D01*
X734822Y3268218D01*
X607822Y3268218D01*
X569722Y3306318D01*
X569722Y3458718D01*
X621195Y3510594D02*
G01*
X721220Y3510594D01*
X671195Y3500602D02*
G01*
X671195Y3473704D01*
X1102194Y3058398D02*
G01*
X1227195Y3058398D01*
X1102194Y3262391D02*
G01*
X1227195Y3262391D01*
X1002195Y3058398D02*
G01*
X877194Y3058398D01*
X1002195Y3262391D02*
G01*
X877194Y3262391D01*
X1227198Y3058398D02*
G01*
X1227195Y3262391D01*
X877194Y3058398D02*
G01*
X877194Y3262391D01*
X1203794Y3515598D02*
G01*
X1328795Y3515598D01*
X1203794Y3719591D02*
G01*
X1328795Y3719591D01*
X1103795Y3515598D02*
G01*
X978794Y3515598D01*
X1103795Y3719591D02*
G01*
X978794Y3719591D01*
X1328798Y3515598D02*
G01*
X1328795Y3719591D01*
X978794Y3515598D02*
G01*
X978794Y3719591D01*
D26*
X658495Y1471295D02*
G01*
X404495Y1471295D01*
X404495Y2487295D01*
X658495Y2487295D01*
X658495Y2296795D01*
D27*
X658495Y1471295D02*
G01*
X658495Y2296795D01*
D10*
X1241894Y1216898D02*
G01*
X1366895Y1216898D01*
X1241894Y1420891D02*
G01*
X1366895Y1420891D01*
X1141895Y1216898D02*
G01*
X1016894Y1216898D01*
X1141895Y1420891D02*
G01*
X1016894Y1420891D01*
X1366898Y1216898D02*
G01*
X1366895Y1420891D01*
X1016894Y1216898D02*
G01*
X1016894Y1420891D01*
X2166493Y15824D02*
G01*
X2166493Y25806D01*
X2225497Y84810D01*
X2961487Y13817D02*
G01*
X2961487Y25806D01*
X2902483Y84810D01*
X2902483Y84810D02*
G01*
X2225497Y84810D01*
X2963494Y13817D02*
G01*
X2163495Y13817D01*
X2163495Y589813D02*
G01*
X2386838Y589813D01*
X2738069Y589813D02*
G01*
X2963494Y589813D01*
X2963494Y588797D02*
G01*
X2963494Y345274D01*
X2963494Y96380D02*
G01*
X2963494Y13817D01*
X2163495Y589813D02*
G01*
X2163495Y345274D01*
X2163495Y96380D02*
G01*
X2163495Y15824D01*
D28*
X3013329Y1117981D02*
G01*
X2343277Y1117981D01*
X2343277Y1442847D01*
X3013329Y1442847D01*
X3013329Y1117981D01*
D10*
X4354995Y2487691D02*
G01*
X4229994Y2487691D01*
X4354995Y2283698D02*
G01*
X4229994Y2283698D01*
X4454994Y2487691D02*
G01*
X4579995Y2487691D01*
X4454994Y2283698D02*
G01*
X4579995Y2283698D01*
X4229991Y2487691D02*
G01*
X4229994Y2283698D01*
X4579995Y2487691D02*
G01*
X4579995Y2283698D01*
X3729098Y865497D02*
G01*
X3729098Y705495D01*
X3379091Y865497D02*
G01*
X3379094Y705492D01*
X3604094Y681494D02*
G01*
X3709093Y681494D01*
X3604094Y889495D02*
G01*
X3709093Y889495D01*
X3504095Y681494D02*
G01*
X3399096Y681494D01*
X3504095Y889495D02*
G01*
X3399096Y889495D01*
X3379091Y867488D02*
G01*
X3379091Y865497D01*
X3379091Y869490D02*
G01*
X3379091Y865497D01*
X3379094Y701497D02*
G01*
X3379094Y705492D01*
X3729098Y869490D02*
G01*
X3729098Y865497D01*
X3729098Y701499D02*
G01*
X3729098Y705495D01*
X1778891Y1594492D02*
G01*
X1778891Y1754494D01*
X2128898Y1594492D02*
G01*
X2128895Y1754497D01*
X1903895Y1778495D02*
G01*
X1798896Y1778495D01*
X1903895Y1570494D02*
G01*
X1798896Y1570494D01*
X2003894Y1778495D02*
G01*
X2108893Y1778495D01*
X2003894Y1570494D02*
G01*
X2108893Y1570494D01*
X2128898Y1592501D02*
G01*
X2128898Y1594492D01*
X2128898Y1590499D02*
G01*
X2128898Y1594492D01*
X2128895Y1758492D02*
G01*
X2128895Y1754497D01*
X1778891Y1590499D02*
G01*
X1778891Y1594492D01*
X1778891Y1758490D02*
G01*
X1778891Y1754494D01*
X3741798Y1297297D02*
G01*
X3741798Y1137295D01*
X3391791Y1297297D02*
G01*
X3391794Y1137292D01*
X3616794Y1113294D02*
G01*
X3721793Y1113294D01*
X3616794Y1321295D02*
G01*
X3721793Y1321295D01*
X3516795Y1113294D02*
G01*
X3411796Y1113294D01*
X3516795Y1321295D02*
G01*
X3411796Y1321295D01*
X3391791Y1299288D02*
G01*
X3391791Y1297297D01*
X3391791Y1301290D02*
G01*
X3391791Y1297297D01*
X3391794Y1133297D02*
G01*
X3391794Y1137292D01*
X3741798Y1301290D02*
G01*
X3741798Y1297297D01*
X3741798Y1133299D02*
G01*
X3741798Y1137295D01*
X4218297Y1207391D02*
G01*
X4058295Y1207391D01*
X4218297Y1557398D02*
G01*
X4058292Y1557395D01*
X4034294Y1332395D02*
G01*
X4034294Y1227396D01*
X4242295Y1332395D02*
G01*
X4242295Y1227396D01*
X4034294Y1432394D02*
G01*
X4034294Y1537393D01*
X4242295Y1432394D02*
G01*
X4242295Y1537393D01*
X4220288Y1557398D02*
G01*
X4218297Y1557398D01*
X4222290Y1557398D02*
G01*
X4218297Y1557398D01*
X4054297Y1557395D02*
G01*
X4058292Y1557395D01*
X4222290Y1207391D02*
G01*
X4218297Y1207391D01*
X4054299Y1207391D02*
G01*
X4058295Y1207391D01*
X1662023Y4904181D02*
G01*
X3301187Y4904181D01*
X3301187Y1903907D01*
X1662023Y1903907D01*
X1662023Y4904181D01*
G75*
G01*
X3399097Y889495D02*
G03*
X3379092Y869490I0J-20005D01*
G75*
G01*
X3399097Y681495D02*
G02*
X3379094Y701497I0J20002D01*
G75*
G01*
X3709093Y889495D02*
G02*
X3729098Y869490I0J-20005D01*
G75*
G01*
X3709093Y681495D02*
G03*
X3729098Y701500I0J20005D01*
G75*
G01*
X2108893Y1570495D02*
G03*
X2128898Y1590500I0J20005D01*
G75*
G01*
X2108893Y1778495D02*
G02*
X2128896Y1758493I0J-20002D01*
G75*
G01*
X1798897Y1570495D02*
G02*
X1778892Y1590500I0J20005D01*
G75*
G01*
X1798897Y1778495D02*
G03*
X1778892Y1758490I0J-20005D01*
G75*
G01*
X3411797Y1321295D02*
G03*
X3391792Y1301290I0J-20005D01*
G75*
G01*
X3411797Y1113295D02*
G02*
X3391794Y1133297I0J20002D01*
G75*
G01*
X3721793Y1321295D02*
G02*
X3741798Y1301290I0J-20005D01*
G75*
G01*
X3721793Y1113295D02*
G03*
X3741798Y1133300I0J20005D01*
G75*
G01*
X4242295Y1537393D02*
G03*
X4222290Y1557398I-20005J0D01*
G75*
G01*
X4034295Y1537393D02*
G02*
X4054297Y1557396I20002J0D01*
G75*
G01*
X4242295Y1227397D02*
G02*
X4222290Y1207392I-20005J0D01*
G75*
G01*
X4034295Y1227397D02*
G03*
X4054300Y1207392I20005J0D01*
G75*
G01
X1759509Y823595D02*
G03X1759509Y823595I-85014J0D01*
G75*
G01
X4490009Y1877695D02*
G03X4490009Y1877695I-85014J0D01*
M02*
