G04 Layer: TopLayer*
G04 EasyEDA v6.4.14, 2021-02-19T19:43:34--5:00*
G04 2728a531d0ad4e71a9f6f8894443a7d9,7db2125e4611476bb2993bf99425ef50,10*
G04 Gerber Generator version 0.2*
G04 Scale: 100 percent, Rotated: No, Reflected: No *
G04 Dimensions in millimeters *
G04 leading zeros omitted , absolute positions ,4 integer and 5 decimal *
%FSLAX45Y45*%
%MOMM*%

%ADD10C,0.2540*%
%ADD11C,0.2600*%
%ADD12C,0.6100*%
%ADD13R,1.3500X2.0000*%
%ADD14R,1.3995X1.3005*%
%ADD15R,1.0000X1.5500*%
%ADD16R,0.4000X2.0000*%
%ADD20R,1.5500X1.0000*%
%ADD22R,1.7000X1.7000*%
%ADD23C,1.7000*%
%ADD24C,1.2000*%
%ADD25C,1.3000*%

%LPD*%
D10*
X3998595Y3071495D02*
G01*
X3922395Y3071495D01*
X3630295Y2779395D01*
X3630295Y2639695D01*
X3413886Y2423287D01*
X3312795Y2423287D01*
X3312795Y2423287D02*
G01*
X3350386Y2423287D01*
X1152194Y3160395D02*
G01*
X1431086Y3439287D01*
X1661795Y3439287D01*
X1253794Y3617595D02*
G01*
X1304594Y3566795D01*
X1661795Y3566795D01*
X1661769Y2420899D02*
G01*
X2014499Y2420899D01*
X2322195Y2728595D01*
X1661769Y2293899D02*
G01*
X2166899Y2293899D01*
X2487295Y2614295D01*
X3312795Y2296287D02*
G01*
X3477386Y2296287D01*
X3998595Y2817495D01*
X1293495Y2665095D02*
G01*
X1303299Y2674899D01*
X1661769Y2674899D01*
X1204595Y2804795D02*
G01*
X1207490Y2801899D01*
X1661769Y2801899D01*
X417195Y2826765D02*
G01*
X417195Y2766695D01*
X226695Y2576195D01*
X417195Y2826765D02*
G01*
X417195Y2766695D01*
D11*
X1053719Y3510915D02*
G01*
X855090Y3510915D01*
X770509Y3595497D01*
X1053719Y3617595D02*
G01*
X1053719Y3510915D01*
X671195Y3595497D02*
G01*
X770509Y3595497D01*
X3312795Y2169287D02*
G01*
X4195445Y2169287D01*
X4304919Y2279015D01*
X4304919Y2385695D02*
G01*
X4304919Y2279015D01*
X4138295Y1482471D02*
G01*
X2991993Y1482471D01*
X2883535Y1590675D01*
X2679065Y1590675D02*
G01*
X2883535Y1590675D01*
X3466719Y1110615D02*
G01*
X2910204Y1110615D01*
X2907665Y1108075D01*
X3466719Y1217295D02*
G01*
X3466719Y1110615D01*
X2907665Y970915D02*
G01*
X2907665Y1108075D01*
X3454019Y785495D02*
G01*
X3454019Y892175D01*
X2907665Y970915D02*
G01*
X2907665Y844169D01*
X2907665Y844169D02*
G01*
X2761869Y698627D01*
X2432431Y698627D01*
X2432431Y569340D02*
G01*
X2432431Y698627D01*
X3454019Y892175D02*
G01*
X2955670Y892175D01*
X2907665Y844169D01*
X2679065Y970915D02*
G01*
X2679065Y1108075D01*
X2053970Y1674495D02*
G01*
X2053970Y1578229D01*
X2053970Y1578229D02*
G01*
X2053970Y1567815D01*
X2219325Y1567815D01*
X2679065Y1108075D01*
X2053970Y1674495D02*
G01*
X2053970Y1781175D01*
X1661795Y2167001D02*
G01*
X1517522Y2167001D01*
X1209929Y2474595D01*
X424815Y2474595D01*
X417195Y2466975D01*
X417195Y2253615D01*
X424815Y2245995D01*
X560451Y2245995D01*
X714375Y2092071D01*
X714375Y1781175D01*
X531495Y1598295D02*
G01*
X714375Y1781175D01*
X1091819Y1318895D02*
G01*
X1091819Y1425575D01*
X1091819Y1781175D02*
G01*
X1091819Y1425575D01*
X714375Y1781175D02*
G01*
X1091819Y1781175D01*
X1091819Y1781175D02*
G01*
X2053970Y1781175D01*
X4505070Y2385695D02*
G01*
X4505070Y1905889D01*
X4533265Y1877695D01*
X4630038Y1877695D02*
G01*
X4533265Y1877695D01*
X1291970Y1318895D02*
G01*
X1291970Y884301D01*
X1352677Y823595D01*
X1449451Y823595D02*
G01*
X1352677Y823595D01*
X952119Y3053715D02*
G01*
X533273Y3053715D01*
X516509Y3036697D01*
X952119Y3160395D02*
G01*
X952119Y3053715D01*
X417195Y3036697D02*
G01*
X516509Y3036697D01*
X4031615Y1282319D02*
G01*
X3989959Y1323975D01*
X3666870Y1323975D01*
X4138295Y1282319D02*
G01*
X4031615Y1282319D01*
X3666870Y1270635D02*
G01*
X3666870Y1323975D01*
X3666870Y1270635D02*
G01*
X3666870Y1217295D01*
X3666870Y1217295D02*
G01*
X3666870Y904875D01*
X3654170Y892175D01*
X531495Y2360295D02*
G01*
X645795Y2360295D01*
X3654170Y813689D02*
G01*
X3654170Y892175D01*
X3654170Y813689D02*
G01*
X3654170Y785495D01*
X3654170Y785495D02*
G01*
X3654170Y678815D01*
X2447925Y970915D02*
G01*
X2447925Y833755D01*
X1899538Y823595D02*
G01*
X1996313Y823595D01*
X2806065Y569340D02*
G01*
X2692527Y569340D01*
X3654170Y678815D02*
G01*
X2915538Y678815D01*
X2806065Y569340D01*
X2806065Y569340D02*
G01*
X2806065Y490855D01*
X2201545Y220853D02*
G01*
X2204847Y220853D01*
X2285872Y139827D01*
X2925445Y220853D02*
G01*
X2915031Y220853D01*
X2832227Y138049D01*
X2723006Y138049D02*
G01*
X2832227Y138049D01*
X2340483Y139827D02*
G01*
X2285872Y139827D01*
X2340483Y139827D02*
G01*
X2395093Y139827D01*
X2395093Y139827D02*
G01*
X2612263Y139827D01*
X2613786Y138049D01*
X2723006Y138049D02*
G01*
X2613786Y138049D01*
X2320925Y823595D02*
G01*
X1996313Y823595D01*
X2320925Y490855D02*
G01*
X2320925Y823595D01*
X2320925Y823595D02*
G01*
X2331085Y833755D01*
X2447925Y833755D01*
X2447925Y970915D02*
G01*
X2447925Y1108075D01*
X4179951Y1748409D02*
G01*
X4244975Y1683385D01*
X4244975Y1282319D01*
X4179951Y1877695D02*
G01*
X4179951Y1748409D01*
X4138295Y1282319D02*
G01*
X4244975Y1282319D01*
X1853819Y1674495D02*
G01*
X1853819Y1567815D01*
X1661795Y2040001D02*
G01*
X966088Y2040001D01*
X645795Y2360295D01*
X1806067Y2040001D02*
G01*
X1867788Y1978025D01*
X3950335Y1978025D01*
X4179951Y1748409D01*
X1661795Y2040001D02*
G01*
X1806067Y2040001D01*
X571881Y3385439D02*
G01*
X317881Y3131439D01*
X317881Y2949575D01*
X346582Y2921127D01*
X417195Y2921127D01*
X671195Y3385439D02*
G01*
X571881Y3385439D01*
X417195Y2826639D02*
G01*
X417195Y2921127D01*
X417195Y2826639D02*
G01*
X417195Y2921127D01*
X1853819Y1567815D02*
G01*
X1988185Y1567815D01*
X2447925Y1108075D01*
D13*
G01*
X1899488Y823595D03*
G01*
X1449501Y823595D03*
G01*
X4629988Y1877695D03*
G01*
X4180001Y1877695D03*
D14*
G01*
X417195Y3036824D03*
G01*
X417195Y2826765D03*
G01*
X671195Y3595624D03*
G01*
X671195Y3385565D03*
D15*
G01*
X952195Y3160395D03*
G01*
X1152194Y3160395D03*
G01*
X1053795Y3617595D03*
G01*
X1253794Y3617595D03*
G01*
X1091895Y1318895D03*
G01*
X1291894Y1318895D03*
D16*
G01*
X2692450Y569290D03*
G01*
X2627452Y569290D03*
G01*
X2562453Y569290D03*
G01*
X2497454Y569290D03*
G01*
X2432456Y569290D03*
G36*
X2643047Y198094D02*
G01*
X2803067Y198094D01*
X2803067Y78105D01*
X2643047Y78105D01*
G37*
G36*
X2315184Y199720D02*
G01*
X2475204Y199720D01*
X2475204Y79730D01*
X2315184Y79730D01*
G37*
G36*
X2393315Y1078865D02*
G01*
X2502535Y1078865D01*
X2502535Y862965D01*
X2393315Y862965D01*
G37*
G36*
X2624454Y1078865D02*
G01*
X2733675Y1078865D01*
X2733675Y862965D01*
X2624454Y862965D01*
G37*
G36*
X2853054Y1078865D02*
G01*
X2962275Y1078865D01*
X2962275Y862965D01*
X2853054Y862965D01*
G37*
G36*
X2503804Y1698625D02*
G01*
X2854325Y1698625D01*
X2854325Y1482725D01*
X2503804Y1482725D01*
G37*
G36*
X4454994Y2463195D02*
G01*
X4554994Y2463195D01*
X4554994Y2308194D01*
X4454994Y2308194D01*
G37*
G36*
X4254995Y2463195D02*
G01*
X4354995Y2463195D01*
X4354995Y2308194D01*
X4254995Y2308194D01*
G37*
G36*
X3404095Y862995D02*
G01*
X3504095Y862995D01*
X3504095Y707994D01*
X3404095Y707994D01*
G37*
G36*
X3604094Y862995D02*
G01*
X3704094Y862995D01*
X3704094Y707994D01*
X3604094Y707994D01*
G37*
D15*
G01*
X2053894Y1674495D03*
G01*
X1853895Y1674495D03*
G36*
X3416795Y1294795D02*
G01*
X3516795Y1294795D01*
X3516795Y1139794D01*
X3416795Y1139794D01*
G37*
G36*
X3616794Y1294795D02*
G01*
X3716794Y1294795D01*
X3716794Y1139794D01*
X3616794Y1139794D01*
G37*
D20*
G01*
X4138295Y1482394D03*
G01*
X4138295Y1282395D03*
G36*
X3427796Y4300293D02*
G01*
X3197793Y4300293D01*
X3197793Y4230291D01*
X3427796Y4230291D01*
G37*
G36*
X3427796Y4148292D02*
G01*
X3197793Y4148292D01*
X3197793Y4078290D01*
X3427796Y4078290D01*
G37*
G36*
X3427796Y3728293D02*
G01*
X3197793Y3728293D01*
X3197793Y3658290D01*
X3427796Y3658290D01*
G37*
G36*
X3427796Y3601293D02*
G01*
X3197793Y3601293D01*
X3197793Y3531290D01*
X3427796Y3531290D01*
G37*
G36*
X3427796Y3474293D02*
G01*
X3197793Y3474293D01*
X3197793Y3404290D01*
X3427796Y3404290D01*
G37*
G36*
X3427796Y3347293D02*
G01*
X3197793Y3347293D01*
X3197793Y3277290D01*
X3427796Y3277290D01*
G37*
G36*
X1546804Y3728285D02*
G01*
X1776806Y3728285D01*
X1776806Y3658283D01*
X1546804Y3658283D01*
G37*
G36*
X1546804Y3601786D02*
G01*
X1776806Y3601786D01*
X1776806Y3531783D01*
X1546804Y3531783D01*
G37*
G36*
X1546804Y3474285D02*
G01*
X1776806Y3474285D01*
X1776806Y3404283D01*
X1546804Y3404283D01*
G37*
G36*
X1546804Y3347285D02*
G01*
X1776806Y3347285D01*
X1776806Y3277283D01*
X1546804Y3277283D01*
G37*
G36*
X1546804Y3220285D02*
G01*
X1776806Y3220285D01*
X1776806Y3150283D01*
X1546804Y3150283D01*
G37*
G36*
X1546804Y3093285D02*
G01*
X1776806Y3093285D01*
X1776806Y3023283D01*
X1546804Y3023283D01*
G37*
G36*
X3427796Y3220293D02*
G01*
X3197793Y3220293D01*
X3197793Y3150290D01*
X3427796Y3150290D01*
G37*
G36*
X3427796Y3093293D02*
G01*
X3197793Y3093293D01*
X3197793Y3023290D01*
X3427796Y3023290D01*
G37*
G36*
X3427796Y2966293D02*
G01*
X3197793Y2966293D01*
X3197793Y2896290D01*
X3427796Y2896290D01*
G37*
G36*
X3427796Y2769298D02*
G01*
X3197793Y2769298D01*
X3197793Y2839300D01*
X3427796Y2839300D01*
G37*
G36*
X3427796Y2515295D02*
G01*
X3197793Y2515295D01*
X3197793Y2585298D01*
X3427796Y2585298D01*
G37*
G36*
X3427796Y2642293D02*
G01*
X3197793Y2642293D01*
X3197793Y2712295D01*
X3427796Y2712295D01*
G37*
G36*
X3427796Y2134293D02*
G01*
X3197793Y2134293D01*
X3197793Y2204295D01*
X3427796Y2204295D01*
G37*
G36*
X3427796Y2007295D02*
G01*
X3197793Y2007295D01*
X3197793Y2077298D01*
X3427796Y2077298D01*
G37*
G36*
X3427796Y2261298D02*
G01*
X3197793Y2261298D01*
X3197793Y2331300D01*
X3427796Y2331300D01*
G37*
G36*
X3427796Y2458293D02*
G01*
X3197793Y2458293D01*
X3197793Y2388290D01*
X3427796Y2388290D01*
G37*
G36*
X1546804Y2515288D02*
G01*
X1776806Y2515288D01*
X1776806Y2585290D01*
X1546804Y2585290D01*
G37*
G36*
X1546778Y2709895D02*
G01*
X1776780Y2709895D01*
X1776780Y2639893D01*
X1546778Y2639893D01*
G37*
G36*
X1546778Y2963898D02*
G01*
X1776780Y2963898D01*
X1776780Y2893895D01*
X1546778Y2893895D01*
G37*
G36*
X1546778Y2836900D02*
G01*
X1776780Y2836900D01*
X1776780Y2766898D01*
X1546778Y2766898D01*
G37*
G36*
X1546778Y2328900D02*
G01*
X1776780Y2328900D01*
X1776780Y2258898D01*
X1546778Y2258898D01*
G37*
G36*
X1546778Y2455898D02*
G01*
X1776780Y2455898D01*
X1776780Y2385895D01*
X1546778Y2385895D01*
G37*
G36*
X1546778Y2201895D02*
G01*
X1776780Y2201895D01*
X1776780Y2131893D01*
X1546778Y2131893D01*
G37*
G36*
X1546778Y2004900D02*
G01*
X1776780Y2004900D01*
X1776780Y2074903D01*
X1546778Y2074903D01*
G37*
D22*
G01*
X3998595Y3579495D03*
D23*
G01*
X3998595Y3325495D03*
G01*
X3998595Y3071495D03*
G01*
X3998595Y2817495D03*
D22*
G01*
X531495Y2360295D03*
D23*
G01*
X531495Y2106295D03*
G01*
X531495Y1852295D03*
G01*
X531495Y1598295D03*
D24*
G01*
X2321001Y490829D03*
G01*
X2805988Y490829D03*
D12*
G01*
X226695Y2576195D03*
G01*
X1204595Y2804795D03*
G01*
X1293495Y2665095D03*
G01*
X2487295Y2614295D03*
G01*
X2322195Y2728595D03*
D25*
X2925445Y265826D02*
G01*
X2925445Y175826D01*
X2201545Y265826D02*
G01*
X2201545Y175826D01*
M02*
