M48
METRIC,LZ,000.000
;FILE_FORMAT=3:3
;TYPE=PLATED
;Layer: PTH_Through
;EasyEDA v6.5.15, 2022-09-30 09:11:36
;c4fc160ae67e4dbf9a9ecab7d7680e70,7db2125e4611476bb2993bf99425ef50,10
;Gerber Generator version 0.2
;Holesize 1 = 0.306 mm
T01C0.306
;Holesize 2 = 0.800 mm
T02C0.800
;Holesize 3 = 0.915 mm
T03C0.915
%
G05
G90
T01
X083479Y111960
X083890Y117876
X076774Y120719
X094869Y119420
X078961Y112776
X087380Y104317
X088138Y118497
X088658Y105262
X091717Y103321
X086380Y103321
T02
X091950Y100835G85X091950Y101435
X091950Y104915G85X091950Y105715
X083310Y104915G85X083310Y105715
X083310Y100835G85X083310Y101435
T03
X075819Y114300
X075819Y111760
X075819Y109220
X098679Y114300
X098679Y111760
X098679Y109220
M30
