G04 Layer: TopPasteMaskLayer*
G04 EasyEDA v6.5.15, 2022-09-30 09:11:36*
G04 c4fc160ae67e4dbf9a9ecab7d7680e70,7db2125e4611476bb2993bf99425ef50,10*
G04 Gerber Generator version 0.2*
G04 Scale: 100 percent, Rotated: No, Reflected: No *
G04 Dimensions in millimeters *
G04 leading zeros omitted , absolute positions ,4 integer and 5 decimal *
%FSLAX45Y45*%
%MOMM*%

%ADD10R,1.5500X1.0000*%
%ADD11R,0.7000X1.2500*%
%ADD12R,1.4500X1.1600*%
%ADD13O,0.6020054X1.9709892*%
%ADD14R,1.0922X2.1590*%
%ADD15R,3.5052X2.1590*%
%ADD16R,0.3000X1.3000*%

%LPD*%
G36*
X9435592Y10876127D02*
G01*
X9430613Y10871098D01*
X9430613Y10756087D01*
X9435592Y10751108D01*
X9477603Y10751616D01*
X9477603Y10795609D01*
X9522612Y10795609D01*
X9522612Y10750600D01*
X9563608Y10751108D01*
X9568586Y10756087D01*
X9568586Y10871098D01*
X9563608Y10876127D01*
G37*
G36*
X9435592Y10661091D02*
G01*
X9430613Y10656112D01*
X9430613Y10541101D01*
X9435592Y10536123D01*
X9563608Y10536123D01*
X9568586Y10541101D01*
X9568586Y10656112D01*
X9563608Y10661091D01*
X9522612Y10660583D01*
X9522612Y10616590D01*
X9477603Y10616590D01*
X9477603Y10661091D01*
G37*
G36*
X9435592Y10418927D02*
G01*
X9430613Y10413898D01*
X9430613Y10298887D01*
X9435592Y10293908D01*
X9477603Y10294416D01*
X9477603Y10338409D01*
X9522612Y10338409D01*
X9522612Y10293400D01*
X9563608Y10293908D01*
X9568586Y10298887D01*
X9568586Y10413898D01*
X9563608Y10418927D01*
G37*
G36*
X9435592Y10203891D02*
G01*
X9430613Y10198912D01*
X9430613Y10083901D01*
X9435592Y10078923D01*
X9563608Y10078923D01*
X9568586Y10083901D01*
X9568586Y10198912D01*
X9563608Y10203891D01*
X9522612Y10203383D01*
X9522612Y10159390D01*
X9477603Y10159390D01*
X9477603Y10203891D01*
G37*
G36*
X8329726Y10631373D02*
G01*
X8322665Y10630916D01*
X8319160Y10630408D01*
X8312302Y10628731D01*
X8305698Y10626191D01*
X8302498Y10624667D01*
X8296452Y10621010D01*
X8290864Y10616641D01*
X8285886Y10611612D01*
X8283600Y10608919D01*
X8279587Y10603077D01*
X8276285Y10596829D01*
X8273796Y10590174D01*
X8272830Y10586770D01*
X8271560Y10579811D01*
X8271154Y10572750D01*
X8271154Y10485831D01*
X8272018Y10478922D01*
X8272729Y10475518D01*
X8274812Y10468864D01*
X8277707Y10462514D01*
X8281263Y10456570D01*
X8285581Y10451084D01*
X8290509Y10446156D01*
X8295995Y10441838D01*
X8301990Y10438231D01*
X8308340Y10435386D01*
X8311591Y10434218D01*
X8318398Y10432592D01*
X8325307Y10431729D01*
X8331352Y10431627D01*
X8338566Y10432034D01*
X8345627Y10433354D01*
X8352485Y10435488D01*
X8359038Y10438434D01*
X8365185Y10442143D01*
X8370824Y10446613D01*
X8373465Y10449052D01*
X8378240Y10454436D01*
X8382304Y10460329D01*
X8385657Y10466730D01*
X8388197Y10473436D01*
X8389924Y10480395D01*
X8390483Y10483951D01*
X8390890Y10491114D01*
X8390890Y10577169D01*
X8390026Y10584078D01*
X8389315Y10587482D01*
X8387232Y10594136D01*
X8384387Y10600486D01*
X8380780Y10606430D01*
X8376462Y10611916D01*
X8371535Y10616844D01*
X8366048Y10621162D01*
X8360105Y10624769D01*
X8353755Y10627614D01*
X8347100Y10629696D01*
X8340242Y10630966D01*
X8333282Y10631373D01*
G37*
G36*
X9193733Y10631373D02*
G01*
X9186672Y10630916D01*
X9183166Y10630408D01*
X9176308Y10628731D01*
X9169704Y10626191D01*
X9166504Y10624667D01*
X9160459Y10621010D01*
X9154871Y10616641D01*
X9149892Y10611612D01*
X9147606Y10608919D01*
X9143593Y10603077D01*
X9140291Y10596829D01*
X9137802Y10590174D01*
X9136837Y10586770D01*
X9135567Y10579811D01*
X9135160Y10572750D01*
X9135160Y10485831D01*
X9136024Y10478922D01*
X9136735Y10475518D01*
X9138818Y10468864D01*
X9141714Y10462514D01*
X9145270Y10456570D01*
X9149588Y10451084D01*
X9154515Y10446156D01*
X9160002Y10441838D01*
X9165996Y10438231D01*
X9172346Y10435386D01*
X9175597Y10434218D01*
X9182404Y10432592D01*
X9189313Y10431729D01*
X9195409Y10431627D01*
X9202572Y10432034D01*
X9209633Y10433354D01*
X9216491Y10435488D01*
X9223044Y10438434D01*
X9229191Y10442143D01*
X9234830Y10446613D01*
X9237472Y10449052D01*
X9242247Y10454436D01*
X9246311Y10460329D01*
X9249664Y10466730D01*
X9252204Y10473436D01*
X9253931Y10480395D01*
X9254490Y10483951D01*
X9254896Y10491114D01*
X9254896Y10577169D01*
X9254032Y10584078D01*
X9253321Y10587482D01*
X9251238Y10594136D01*
X9248394Y10600486D01*
X9244787Y10606430D01*
X9240469Y10611916D01*
X9235541Y10616844D01*
X9230055Y10621162D01*
X9224111Y10624769D01*
X9217761Y10627614D01*
X9211106Y10629696D01*
X9204248Y10630966D01*
X9197289Y10631373D01*
G37*
G36*
X8330031Y10203281D02*
G01*
X8322970Y10202824D01*
X8319414Y10202316D01*
X8312505Y10200589D01*
X8305850Y10198049D01*
X8302650Y10196525D01*
X8296605Y10192816D01*
X8290966Y10188448D01*
X8285937Y10183418D01*
X8281568Y10177830D01*
X8277910Y10171734D01*
X8274964Y10165232D01*
X8272830Y10158425D01*
X8271560Y10151465D01*
X8271154Y10144353D01*
X8271459Y10075824D01*
X8272322Y10068915D01*
X8273084Y10065512D01*
X8275269Y10058857D01*
X8278215Y10052507D01*
X8281974Y10046614D01*
X8286445Y10041229D01*
X8291525Y10036454D01*
X8297164Y10032339D01*
X8303310Y10028986D01*
X8309762Y10026446D01*
X8316569Y10024668D01*
X8323478Y10023805D01*
X8331708Y10023703D01*
X8338820Y10024110D01*
X8345881Y10025430D01*
X8352688Y10027564D01*
X8359190Y10030510D01*
X8365337Y10034168D01*
X8370976Y10038588D01*
X8376005Y10043668D01*
X8380425Y10049256D01*
X8384133Y10055402D01*
X8387080Y10061905D01*
X8388248Y10065308D01*
X8389924Y10072217D01*
X8390788Y10079329D01*
X8391042Y10134142D01*
X8390940Y10149230D01*
X8390128Y10156088D01*
X8388451Y10162844D01*
X8387334Y10166146D01*
X8384438Y10172496D01*
X8380882Y10178440D01*
X8376564Y10183876D01*
X8371687Y10188803D01*
X8366201Y10193070D01*
X8360257Y10196677D01*
X8353907Y10199522D01*
X8347303Y10201605D01*
X8340445Y10202824D01*
X8333536Y10203281D01*
G37*
G36*
X9194038Y10203281D02*
G01*
X9186976Y10202824D01*
X9183420Y10202316D01*
X9176512Y10200589D01*
X9169857Y10198049D01*
X9166656Y10196525D01*
X9160611Y10192816D01*
X9154972Y10188448D01*
X9149943Y10183418D01*
X9145574Y10177830D01*
X9141917Y10171734D01*
X9138970Y10165232D01*
X9136837Y10158425D01*
X9135567Y10151465D01*
X9135160Y10144353D01*
X9135465Y10075824D01*
X9136329Y10068915D01*
X9137091Y10065512D01*
X9139275Y10058857D01*
X9142222Y10052507D01*
X9145981Y10046614D01*
X9150451Y10041229D01*
X9155531Y10036454D01*
X9161170Y10032339D01*
X9167317Y10028986D01*
X9173768Y10026446D01*
X9180576Y10024668D01*
X9187484Y10023805D01*
X9195714Y10023703D01*
X9202826Y10024110D01*
X9209887Y10025430D01*
X9216694Y10027564D01*
X9223197Y10030510D01*
X9229344Y10034168D01*
X9234982Y10038588D01*
X9240012Y10043668D01*
X9244431Y10049256D01*
X9248140Y10055402D01*
X9251086Y10061905D01*
X9252254Y10065308D01*
X9253931Y10072217D01*
X9254794Y10079329D01*
X9255048Y10134142D01*
X9254947Y10149230D01*
X9254134Y10156088D01*
X9252458Y10162844D01*
X9251340Y10166146D01*
X9248444Y10172496D01*
X9244888Y10178440D01*
X9240570Y10183876D01*
X9235694Y10188803D01*
X9230207Y10193070D01*
X9224264Y10196677D01*
X9217914Y10199522D01*
X9211310Y10201605D01*
X9204452Y10202824D01*
X9197543Y10203281D01*
G37*
D10*
G01*
X7899400Y11872899D03*
G01*
X7899400Y11672900D03*
G01*
X7899400Y11377599D03*
G01*
X7899400Y11177600D03*
G01*
X7886700Y10869599D03*
G01*
X7886700Y10669600D03*
G01*
X7899400Y10348899D03*
G01*
X7899400Y10148900D03*
D11*
G01*
X7772400Y12431268D03*
G01*
X7867395Y12181331D03*
G01*
X7677404Y12181331D03*
G01*
X9537700Y12355068D03*
G01*
X9632695Y12105131D03*
G01*
X9442704Y12105131D03*
D12*
G01*
X9486900Y11836400D03*
G01*
X9486900Y11633200D03*
G01*
X9486900Y11328400D03*
G01*
X9486900Y11125200D03*
D13*
G01*
X8305800Y11994642D03*
G01*
X8432800Y11994642D03*
G01*
X8559800Y11994642D03*
G01*
X8686800Y11994642D03*
G01*
X8813800Y11994642D03*
G01*
X8940800Y11994642D03*
G01*
X9067800Y11994642D03*
G01*
X9194800Y11994642D03*
G01*
X8305800Y12541758D03*
G01*
X8432800Y12541758D03*
G01*
X8559800Y12541758D03*
G01*
X8686800Y12541758D03*
G01*
X8813800Y12541758D03*
G01*
X8940800Y12541758D03*
G01*
X9067800Y12541758D03*
G01*
X9194800Y12541758D03*
D14*
G01*
X8495029Y11056620D03*
G01*
X8726170Y11056620D03*
G01*
X8954770Y11056620D03*
D15*
G01*
X8726170Y11676379D03*
D16*
G01*
X8422995Y10638332D03*
G01*
X8457996Y10638332D03*
G01*
X8506993Y10638332D03*
G01*
X8538997Y10638332D03*
G01*
X8987002Y10638332D03*
G01*
X9017990Y10638332D03*
G01*
X9068003Y10638332D03*
G01*
X9098000Y10638332D03*
G01*
X8587993Y10638332D03*
G01*
X8638006Y10638332D03*
G01*
X8687993Y10638332D03*
G01*
X8738006Y10638332D03*
G01*
X8787993Y10638332D03*
G01*
X8838006Y10638332D03*
G01*
X8887968Y10638332D03*
G01*
X8938006Y10638332D03*
M02*
