G04 Layer: TopLayer*
G04 EasyEDA v6.5.15, 2022-09-30 09:11:36*
G04 c4fc160ae67e4dbf9a9ecab7d7680e70,7db2125e4611476bb2993bf99425ef50,10*
G04 Gerber Generator version 0.2*
G04 Scale: 100 percent, Rotated: No, Reflected: No *
G04 Dimensions in millimeters *
G04 leading zeros omitted , absolute positions ,4 integer and 5 decimal *
%FSLAX45Y45*%
%MOMM*%

%AMMACRO1*21,1,$1,$2,0,0,$3*%
%ADD10C,0.2540*%
%ADD11R,1.5500X1.0000*%
%ADD12R,0.7000X1.2500*%
%ADD13MACRO1,1.377X1.1325X0.0000*%
%ADD14R,1.3770X1.1325*%
%ADD15R,1.4500X1.1600*%
%ADD16O,0.6020054X1.9709892*%
%ADD17R,1.0922X2.1590*%
%ADD18R,3.5052X2.1590*%
%ADD19R,0.3000X1.3000*%
%ADD20O,1.1999976X1.7999964*%
%ADD21O,1.1999976X1.9999959999999999*%
%ADD22C,1.5240*%
%ADD23C,0.6100*%
%ADD24C,0.0190*%

%LPD*%
D10*
X8506815Y10731423D02*
G01*
X8254136Y10731423D01*
X8004809Y11377599D02*
G01*
X8254136Y11128273D01*
X8254136Y10731423D01*
X9017990Y10638332D02*
G01*
X8987002Y10638332D01*
X8538997Y10638332D02*
G01*
X8506993Y10638332D01*
X7899400Y10348899D02*
G01*
X8004809Y10348899D01*
X8506993Y10638332D02*
G01*
X8506993Y10731245D01*
X8954770Y11020653D02*
G01*
X8954770Y10993120D01*
X8954770Y11056620D02*
G01*
X8954770Y11020653D01*
X8254136Y10731423D02*
G01*
X8004809Y10482097D01*
X8004809Y10348899D01*
X7899400Y11377599D02*
G01*
X8004809Y11377599D01*
X8954770Y10993120D02*
G01*
X8954770Y10920755D01*
X8506993Y10731245D02*
G01*
X8506815Y10731423D01*
X8987002Y10731245D02*
G01*
X8986824Y10731423D01*
X8954770Y10731423D01*
X8954770Y10731423D02*
G01*
X8506815Y10731423D01*
X8987002Y10638332D02*
G01*
X8987002Y10731245D01*
X8954770Y10731423D02*
G01*
X8954770Y10920755D01*
X7867395Y12181331D02*
G01*
X7867395Y12271755D01*
X9486900Y11125200D02*
G01*
X9486900Y11039297D01*
X8559800Y12573457D02*
G01*
X8667216Y12680873D01*
X9352534Y12680873D01*
X9976967Y12056440D01*
X9976967Y10859770D01*
X9923246Y10806049D01*
X9720148Y10806049D01*
X9486900Y11039297D01*
X8559800Y12541758D02*
G01*
X8559800Y12573457D01*
X8559800Y12573457D02*
G01*
X8462543Y12670713D01*
X8266353Y12670713D01*
X7867395Y12271755D01*
X9171660Y10332110D02*
G01*
X9389414Y10332110D01*
X9402825Y10345521D01*
X9499600Y10345521D02*
G01*
X9402825Y10345521D01*
X8638006Y10638332D02*
G01*
X8638006Y10472699D01*
X8629751Y10464444D01*
X8629751Y10430662D01*
X8638006Y10422407D01*
X8638006Y10332110D01*
X9867900Y10922000D02*
G01*
X9578593Y11211305D01*
X9430588Y11211305D01*
X9004300Y11637594D01*
X9004300Y12097410D01*
X8978798Y12122912D01*
X8662441Y12122912D01*
X8559800Y12020270D01*
X8559800Y11994642D01*
X7899400Y11872899D02*
G01*
X8004809Y11872899D01*
X8726170Y11676379D02*
G01*
X8201329Y11676379D01*
X8004809Y11872899D01*
X7772400Y12340844D02*
G01*
X7681975Y12340844D01*
X7472832Y12131700D01*
X7472832Y11031067D01*
X7581900Y10922000D01*
X7772400Y12431268D02*
G01*
X7772400Y12340844D01*
X9537700Y12264644D02*
G01*
X9628124Y12264644D01*
X9867900Y12024868D01*
X9867900Y11430000D01*
X9537700Y12355068D02*
G01*
X9537700Y12264644D01*
X9486900Y11719128D02*
G01*
X9551339Y11719128D01*
X9632695Y11800484D01*
X9632695Y12105131D01*
X9486900Y11633200D02*
G01*
X9486900Y11719128D01*
X8686800Y12541758D02*
G01*
X8686800Y12507163D01*
X8970340Y12223622D01*
X9604629Y12223622D01*
X9632695Y12195555D01*
X9632695Y12105131D02*
G01*
X9632695Y12195555D01*
X9486900Y11328400D02*
G01*
X9486900Y11414328D01*
X9442704Y12105131D02*
G01*
X9442704Y12014708D01*
X9442704Y12014708D02*
G01*
X9369196Y11941200D01*
X9369196Y11532031D01*
X9486900Y11414328D01*
X8813800Y11994642D02*
G01*
X8813800Y11849735D01*
X8838006Y10638332D02*
G01*
X8838006Y10545419D01*
X8838006Y10545419D02*
G01*
X8846565Y10545419D01*
X8865793Y10526191D01*
X8738006Y10638332D02*
G01*
X8738006Y10431729D01*
X9499600Y10802721D02*
G01*
X9499600Y10718190D01*
X9499600Y10718190D02*
G01*
X9562998Y10718190D01*
X9608134Y10673054D01*
X9608134Y10550956D01*
X9487433Y10430255D01*
X9316110Y10430255D01*
X9289262Y10403408D01*
X9022816Y10403408D01*
X8938006Y10488218D01*
X8938006Y10638332D01*
X8330996Y10531475D02*
G01*
X8409050Y10531475D01*
X8422995Y10545419D01*
X8422995Y10638332D02*
G01*
X8422995Y10545419D01*
X9195003Y10113467D02*
G01*
X9233814Y10152278D01*
X9499600Y10152278D01*
X9098000Y10638332D02*
G01*
X9098000Y10591876D01*
X9098000Y10591876D02*
G01*
X9098000Y10545419D01*
X9098000Y10591876D02*
G01*
X9068003Y10621873D01*
X9068003Y10638332D01*
X9098000Y10545419D02*
G01*
X9111945Y10531475D01*
X9195003Y10531475D01*
X9195003Y10531475D02*
G01*
X9324822Y10531475D01*
X9402825Y10609478D01*
X9499600Y10609478D02*
G01*
X9402825Y10609478D01*
X8457996Y10638332D02*
G01*
X8422995Y10638332D01*
X8330996Y10148900D02*
G01*
X8004809Y10148900D01*
X8330996Y10113467D02*
G01*
X8330996Y10148900D01*
X8330996Y10148900D02*
G01*
X8330996Y10531475D01*
X8305800Y11994642D02*
G01*
X7852663Y11994642D01*
X7793812Y11935790D01*
X7793812Y11673078D01*
X7793990Y11672900D01*
X7952104Y10148900D02*
G01*
X8004809Y10148900D01*
X7952104Y10148900D02*
G01*
X7899400Y10148900D01*
X7899400Y10148900D02*
G01*
X7793990Y10148900D01*
X7886700Y10669600D02*
G01*
X7791373Y10669600D01*
X7793990Y10148900D02*
G01*
X7791373Y10151516D01*
X7791373Y10669600D01*
X7791373Y10669600D02*
G01*
X7702524Y10758449D01*
X7702524Y11055375D01*
X7581900Y11176000D01*
X8495029Y11192484D02*
G01*
X8485225Y11192484D01*
X8004809Y11672900D01*
X8495029Y11056620D02*
G01*
X8495029Y11192484D01*
X7899400Y11672900D02*
G01*
X8004809Y11672900D01*
X7899400Y11672900D02*
G01*
X7846695Y11672900D01*
X7846695Y11672900D02*
G01*
X7793990Y11672900D01*
X7846695Y11672900D02*
G01*
X7781493Y11607698D01*
X7781493Y11319687D01*
X7859826Y11241354D01*
X7896097Y11277625D02*
G01*
X7859826Y11241354D01*
X7859826Y11241354D02*
G01*
X7859826Y11217173D01*
X7899400Y11177600D01*
X7677404Y12181331D02*
G01*
X7677404Y12090908D01*
X7677404Y12090908D02*
G01*
X7677404Y12071908D01*
X9486900Y11836400D02*
G01*
X9486900Y11922328D01*
X9486900Y11922328D02*
G01*
X9486900Y11941962D01*
X8856268Y10452887D02*
G01*
X8773566Y10370185D01*
X8715349Y10370185D01*
X8679408Y10406126D01*
X8679408Y10455986D01*
X8687993Y10464571D01*
X8687993Y10638332D01*
X8787993Y10638332D02*
G01*
X8787993Y10521162D01*
X8856268Y10452887D01*
X8856268Y10452887D02*
G01*
X9048343Y10260812D01*
X9581006Y10260812D01*
X9651161Y10330967D01*
X9651161Y10817377D01*
X9431680Y11036858D01*
X9396729Y11036858D01*
X8940800Y11492788D01*
X8940800Y11994642D01*
X8432800Y11994642D02*
G01*
X8389035Y11950877D01*
X8389035Y11787631D01*
X8726170Y10920755D02*
G01*
X8725992Y10920577D01*
X8412327Y10920577D01*
X8347862Y10985042D01*
X8347862Y11196015D01*
X8726170Y11056620D02*
G01*
X8726170Y10920755D01*
X7581900Y11430000D02*
G01*
X7781290Y11230610D01*
X7781290Y10869599D01*
X7886700Y10869599D02*
G01*
X7781290Y10869599D01*
X8305800Y12541758D02*
G01*
X8305800Y12482525D01*
X8206130Y12382855D01*
X8686800Y11994642D02*
G01*
X8686800Y11957151D01*
X8597645Y11867997D01*
X8521623Y11867997D01*
X8496300Y11893321D01*
X8496300Y12092660D01*
X8206130Y12382855D01*
X8206130Y12382855D02*
G01*
X7914030Y12090755D01*
X7891094Y12090755D01*
X7740700Y11940362D01*
X7740700Y11678132D01*
X7581900Y11519331D01*
X7581900Y11430000D01*
D11*
G01*
X7899400Y11872899D03*
G01*
X7899400Y11672900D03*
G01*
X7899400Y11377599D03*
G01*
X7899400Y11177600D03*
G01*
X7886700Y10869599D03*
G01*
X7886700Y10669600D03*
G01*
X7899400Y10348899D03*
G01*
X7899400Y10148900D03*
D12*
G01*
X7772400Y12431268D03*
G01*
X7867395Y12181331D03*
G01*
X7677404Y12181331D03*
G01*
X9537700Y12355068D03*
G01*
X9632695Y12105131D03*
G01*
X9442704Y12105131D03*
D13*
G01*
X9499600Y10609473D03*
D14*
G01*
X9499600Y10802721D03*
D13*
G01*
X9499600Y10152273D03*
D14*
G01*
X9499600Y10345521D03*
D15*
G01*
X9486900Y11836400D03*
G01*
X9486900Y11633200D03*
G01*
X9486900Y11328400D03*
G01*
X9486900Y11125200D03*
D16*
G01*
X8305800Y11994642D03*
G01*
X8432800Y11994642D03*
G01*
X8559800Y11994642D03*
G01*
X8686800Y11994642D03*
G01*
X8813800Y11994642D03*
G01*
X8940800Y11994642D03*
G01*
X9067800Y11994642D03*
G01*
X9194800Y11994642D03*
G01*
X8305800Y12541758D03*
G01*
X8432800Y12541758D03*
G01*
X8559800Y12541758D03*
G01*
X8686800Y12541758D03*
G01*
X8813800Y12541758D03*
G01*
X8940800Y12541758D03*
G01*
X9067800Y12541758D03*
G01*
X9194800Y12541758D03*
D17*
G01*
X8495029Y11056620D03*
G01*
X8726170Y11056620D03*
G01*
X8954770Y11056620D03*
D18*
G01*
X8726170Y11676379D03*
D19*
G01*
X8422995Y10638332D03*
G01*
X8457996Y10638332D03*
G01*
X8506993Y10638332D03*
G01*
X8538997Y10638332D03*
G01*
X8987002Y10638332D03*
G01*
X9017990Y10638332D03*
G01*
X9068003Y10638332D03*
G01*
X9098000Y10638332D03*
G01*
X8587993Y10638332D03*
G01*
X8638006Y10638332D03*
G01*
X8687993Y10638332D03*
G01*
X8738006Y10638332D03*
G01*
X8787993Y10638332D03*
G01*
X8838006Y10638332D03*
G01*
X8887968Y10638332D03*
G01*
X8938006Y10638332D03*
D20*
G01*
X9195003Y10113467D03*
D21*
G01*
X9195003Y10531475D03*
G01*
X8330996Y10531475D03*
D20*
G01*
X8330996Y10113467D03*
D22*
G01*
X7581900Y11430000D03*
G01*
X7581900Y11176000D03*
G01*
X7581900Y10922000D03*
G01*
X9867900Y11430000D03*
G01*
X9867900Y11176000D03*
G01*
X9867900Y10922000D03*
D23*
G01*
X8347862Y11196015D03*
G01*
X8389035Y11787631D03*
G01*
X7677404Y12071908D03*
G01*
X9486900Y11941962D03*
G01*
X7896097Y11277625D03*
G01*
X8738006Y10431729D03*
G01*
X8813800Y11849735D03*
G01*
X8865793Y10526191D03*
G01*
X9171660Y10332110D03*
G01*
X8638006Y10332110D03*
M02*
