G04 Layer: TopSolderMaskLayer*
G04 EasyEDA v6.5.15, 2022-09-30 09:11:36*
G04 c4fc160ae67e4dbf9a9ecab7d7680e70,7db2125e4611476bb2993bf99425ef50,10*
G04 Gerber Generator version 0.2*
G04 Scale: 100 percent, Rotated: No, Reflected: No *
G04 Dimensions in millimeters *
G04 leading zeros omitted , absolute positions ,4 integer and 5 decimal *
%FSLAX45Y45*%
%MOMM*%

%AMMACRO1*1,1,$1,$2,$3*1,1,$1,$4,$5*1,1,$1,0-$2,0-$3*1,1,$1,0-$4,0-$5*20,1,$1,$2,$3,$4,$5,0*20,1,$1,$4,$5,0-$2,0-$3,0*20,1,$1,0-$2,0-$3,0-$4,0-$5,0*20,1,$1,0-$4,0-$5,$2,$3,0*4,1,4,$2,$3,$4,$5,0-$2,0-$3,0-$4,0-$5,$2,$3,0*%
%ADD10MACRO1,0.2032X0.775X0.5X0.775X-0.5*%
%ADD11MACRO1,0.1016X0.35X-0.625X-0.35X-0.625*%
%ADD12MACRO1,0.1016X-0.6885X0.5663X0.6885X0.5663*%
%ADD13MACRO1,0.1016X-0.6885X-0.5663X0.6885X-0.5663*%
%ADD14MACRO1,0.2032X0.725X0.58X0.725X-0.58*%
%ADD15O,0.6020054X1.9709892*%
%ADD16MACRO1,0.2032X-0.5461X1.0795X0.5461X1.0795*%
%ADD17MACRO1,0.2032X-1.7526X1.0795X1.7526X1.0795*%
%ADD18MACRO1,0.1016X-0.15X0.65X0.15X0.65*%
%ADD19O,1.1999976X1.7999964*%
%ADD20O,1.1999976X1.9999959999999999*%
%ADD21C,1.6256*%

%LPD*%
D10*
G01*
X7899400Y11872899D03*
G01*
X7899400Y11672900D03*
G01*
X7899400Y11377599D03*
G01*
X7899400Y11177600D03*
G01*
X7886700Y10869599D03*
G01*
X7886700Y10669600D03*
G01*
X7899400Y10348899D03*
G01*
X7899400Y10148900D03*
D11*
G01*
X7772400Y12431268D03*
G01*
X7867396Y12181331D03*
G01*
X7677403Y12181331D03*
G01*
X9537700Y12355068D03*
G01*
X9632696Y12105131D03*
G01*
X9442703Y12105131D03*
D12*
G01*
X9499600Y10609473D03*
D13*
G01*
X9499600Y10802726D03*
D12*
G01*
X9499600Y10152273D03*
D13*
G01*
X9499600Y10345526D03*
D14*
G01*
X9486900Y11836400D03*
G01*
X9486900Y11633200D03*
G01*
X9486900Y11328400D03*
G01*
X9486900Y11125200D03*
D15*
G01*
X8305800Y11994642D03*
G01*
X8432800Y11994642D03*
G01*
X8559800Y11994642D03*
G01*
X8686800Y11994642D03*
G01*
X8813800Y11994642D03*
G01*
X8940800Y11994642D03*
G01*
X9067800Y11994642D03*
G01*
X9194800Y11994642D03*
G01*
X8305800Y12541758D03*
G01*
X8432800Y12541758D03*
G01*
X8559800Y12541758D03*
G01*
X8686800Y12541758D03*
G01*
X8813800Y12541758D03*
G01*
X8940800Y12541758D03*
G01*
X9067800Y12541758D03*
G01*
X9194800Y12541758D03*
D16*
G01*
X8495030Y11056620D03*
G01*
X8726169Y11056620D03*
G01*
X8954769Y11056620D03*
D17*
G01*
X8726169Y11676379D03*
D18*
G01*
X8423001Y10638327D03*
G01*
X8458003Y10638327D03*
G01*
X8507001Y10638327D03*
G01*
X8538999Y10638330D03*
G01*
X8987000Y10638327D03*
G01*
X9018000Y10638330D03*
G01*
X9068000Y10638330D03*
G01*
X9098000Y10638330D03*
G01*
X8587995Y10638325D03*
G01*
X8638007Y10638325D03*
G01*
X8687995Y10638327D03*
G01*
X8738007Y10638325D03*
G01*
X8787994Y10638327D03*
G01*
X8838007Y10638325D03*
G01*
X8887969Y10638325D03*
G01*
X8938007Y10638325D03*
D19*
G01*
X9195003Y10113467D03*
D20*
G01*
X9195003Y10531475D03*
G01*
X8330996Y10531475D03*
D19*
G01*
X8330996Y10113467D03*
D21*
G01*
X7581900Y11430000D03*
G01*
X7581900Y11176000D03*
G01*
X7581900Y10922000D03*
G01*
X9867900Y11430000D03*
G01*
X9867900Y11176000D03*
G01*
X9867900Y10922000D03*
M02*
