G04 Layer: BottomLayer*
G04 EasyEDA v6.4.17, 2021-03-16T21:25:48--4:00*
G04 02908657a6854e8f96d385e85a04b694,7db2125e4611476bb2993bf99425ef50,10*
G04 Gerber Generator version 0.2*
G04 Scale: 100 percent, Rotated: No, Reflected: No *
G04 Dimensions in millimeters *
G04 leading zeros omitted , absolute positions ,4 integer and 5 decimal *
%FSLAX45Y45*%
%MOMM*%

%ADD10C,0.2540*%
%ADD11C,0.2600*%
%ADD14C,0.6100*%
%ADD24C,1.8000*%
%ADD25R,1.8000X1.8000*%
%ADD26R,1.8000X1.5748*%
%ADD27C,1.2000*%
%ADD29C,1.7000*%
%ADD30C,1.5240*%
%ADD31C,1.3000*%

%LPD*%
D11*
X3098800Y2006600D02*
G01*
X3212591Y2006600D01*
X3914902Y1304036D01*
X4292600Y228600D02*
G01*
X4553458Y489457D01*
X4553458Y1115821D01*
X3098800Y1244600D02*
G01*
X3210306Y1356105D01*
X3210306Y1641094D01*
X3098800Y1752600D01*
X3486150Y3752342D02*
G01*
X3605529Y3632962D01*
X3605529Y3482339D01*
X4090670Y3482339D02*
G01*
X4210050Y3601720D01*
X4210050Y3752342D01*
X3098800Y-533400D02*
G01*
X2945129Y-379729D01*
X2945129Y1090929D01*
X3098800Y1244600D01*
X5616193Y1200657D02*
G01*
X5616193Y1133094D01*
X4597145Y114300D01*
X4152900Y114300D01*
X4038600Y228600D01*
X6121400Y2197100D02*
G01*
X6121400Y814323D01*
X5867400Y2197100D02*
G01*
X5867400Y1305560D01*
X5613400Y2197100D02*
G01*
X4863845Y1447545D01*
X4383277Y1447545D01*
X3164331Y228600D01*
X3098800Y228600D01*
X4038600Y-825500D02*
G01*
X4038600Y-787400D01*
X5609081Y782828D01*
X5933947Y782828D01*
X4292600Y-825500D02*
G01*
X4174743Y-943355D01*
X3994658Y-943355D01*
X3918965Y-867663D01*
X3918965Y483870D01*
X4490974Y1056131D01*
X3784600Y-825500D02*
G01*
X3784600Y-711200D01*
X3098800Y990600D02*
G01*
X2987293Y879094D01*
X2987293Y-69342D01*
X3070352Y-152400D01*
X3225800Y-152400D01*
X3784600Y-711200D01*
X5264150Y350012D02*
G01*
X5264150Y378205D01*
X5565393Y679450D01*
X5593588Y679450D01*
X812800Y-787400D02*
G01*
X1620265Y20065D01*
X1620265Y39623D01*
X6375400Y2197100D02*
G01*
X6256274Y2316226D01*
X5556758Y2316226D01*
X5486400Y2246121D01*
X5486400Y2135886D01*
X4966461Y1615947D01*
X4491736Y1615947D01*
X3358388Y482600D01*
X3098800Y482600D01*
X6375400Y21336D02*
G01*
X6375400Y2197100D01*
X5366765Y396494D02*
G01*
X5366765Y-355092D01*
X3924300Y1524000D02*
G01*
X3822700Y1651000D01*
X3822700Y3256279D01*
X3849115Y3256279D01*
D10*
X4191000Y1524000D02*
G01*
X3924300Y1524000D01*
X4077487Y1612900D02*
G01*
X4077487Y2653512D01*
X3937000Y2794000D01*
D24*
G01*
X5537200Y-2032000D03*
D25*
G01*
X5791200Y-2032000D03*
D24*
G01*
X6375400Y2197100D03*
G01*
X6121400Y2197100D03*
G01*
X5867400Y2197100D03*
G01*
X5613400Y2197100D03*
G01*
X5359400Y2197100D03*
G36*
X5015400Y2287099D02*
G01*
X5195399Y2287099D01*
X5195399Y2107100D01*
X5015400Y2107100D01*
G37*
G01*
X0Y-254000D03*
G01*
X0Y0D03*
D26*
G01*
X0Y254000D03*
D27*
G01*
X4090593Y3482365D03*
G01*
X3605606Y3482365D03*
G36*
X3699598Y-740498D02*
G01*
X3869601Y-740498D01*
X3869601Y-910501D01*
X3699598Y-910501D01*
G37*
D29*
G01*
X4038600Y-825500D03*
G01*
X4292600Y-825500D03*
G01*
X4546600Y-825500D03*
G36*
X3699598Y313601D02*
G01*
X3869601Y313601D01*
X3869601Y143598D01*
X3699598Y143598D01*
G37*
G01*
X4038600Y228600D03*
G01*
X4292600Y228600D03*
G01*
X4546600Y228600D03*
D30*
G01*
X3098800Y2260600D03*
G01*
X3098800Y2006600D03*
G01*
X3098800Y1752600D03*
G01*
X3098800Y1498600D03*
G01*
X3098800Y1244600D03*
G01*
X3098800Y990600D03*
G01*
X3098800Y736600D03*
G01*
X3098800Y482600D03*
G01*
X3098800Y228600D03*
G01*
X3098800Y-25400D03*
G01*
X3098800Y-279400D03*
G01*
X3098800Y-533400D03*
G01*
X3098800Y-787400D03*
G01*
X812800Y2260600D03*
G01*
X812800Y2006600D03*
G01*
X812800Y1752600D03*
G01*
X812800Y1498600D03*
G01*
X812800Y1244600D03*
G01*
X812800Y990600D03*
G01*
X812800Y736600D03*
G01*
X812800Y482600D03*
G01*
X812800Y228600D03*
G01*
X812800Y-25400D03*
G01*
X812800Y-279400D03*
G01*
X812800Y-533400D03*
G01*
X812800Y-787400D03*
G01*
X2590800Y3784600D03*
G01*
X2336800Y3784600D03*
G01*
X1574800Y3784600D03*
G01*
X1320800Y3784600D03*
D14*
G01*
X5366765Y-355092D03*
G01*
X5366765Y396494D03*
G01*
X6375400Y21336D03*
G01*
X1620265Y39623D03*
G01*
X5264150Y350012D03*
G01*
X5593588Y679450D03*
G01*
X4490974Y1056131D03*
G01*
X5933947Y782828D03*
G01*
X5867400Y1305560D03*
G01*
X6121400Y814323D03*
G01*
X5616193Y1200657D03*
G01*
X4553458Y1115821D03*
G01*
X3849115Y3256279D03*
G01*
X4191000Y1524000D03*
G01*
X3914902Y1304036D03*
G01*
X4077487Y1612900D03*
G01*
X3937000Y2794000D03*
D31*
X3486150Y3707366D02*
G01*
X3486150Y3797366D01*
X4210050Y3707366D02*
G01*
X4210050Y3797366D01*
M02*
