G04 Layer: TopLayer*
G04 EasyEDA v6.4.17, 2021-03-16T21:25:48--4:00*
G04 02908657a6854e8f96d385e85a04b694,7db2125e4611476bb2993bf99425ef50,10*
G04 Gerber Generator version 0.2*
G04 Scale: 100 percent, Rotated: No, Reflected: No *
G04 Dimensions in millimeters *
G04 leading zeros omitted , absolute positions ,4 integer and 5 decimal *
%FSLAX45Y45*%
%MOMM*%

%ADD10C,0.2540*%
%ADD11C,0.2600*%
%ADD12C,0.2800*%
%ADD13C,0.8000*%
%ADD14C,0.6100*%
%ADD15R,1.0000X1.0500*%
%ADD16R,1.0500X2.2000*%
%ADD17R,0.4000X2.0000*%
%ADD18R,1.6000X1.1999*%
%ADD20R,1.0922X2.1590*%
%ADD21R,3.5052X2.1590*%
%ADD22R,3.5000X3.5000*%
%ADD23R,1.5500X1.0000*%
%ADD24C,1.8000*%
%ADD25R,1.8000X1.8000*%
%ADD26R,1.8000X1.5748*%
%ADD27C,1.2000*%
%ADD29C,1.7000*%
%ADD30C,1.5240*%
%ADD31C,1.3000*%

%LPD*%
D10*
X6722719Y-148996D02*
G01*
X6697802Y-173913D01*
X6697802Y-520700D01*
X6962698Y-148996D02*
G01*
X6992797Y-179095D01*
X6992797Y-520700D01*
X6842709Y-148996D02*
G01*
X6842709Y-518109D01*
X6845300Y-520700D01*
X6992797Y-520700D02*
G01*
X6992797Y-1440002D01*
X6261100Y-2171700D01*
X1181100Y-2171700D01*
X-152400Y-838200D01*
X-152400Y-152400D01*
X0Y0D01*
D11*
X3977386Y1304036D02*
G01*
X3914902Y1304036D01*
X4165600Y2055876D02*
G01*
X3148075Y2055876D01*
X3098800Y2006600D01*
X5022850Y3322320D02*
G01*
X5022850Y3614420D01*
X5015229Y3622039D01*
X4710429Y3622039D01*
X4754879Y2640076D02*
G01*
X4754879Y2711450D01*
X4728209Y2738373D01*
X4728209Y3027679D01*
X5022850Y3322320D01*
X5022850Y3322320D02*
G01*
X5526024Y3322320D01*
X3979163Y3403854D02*
G01*
X3979163Y3533139D01*
X4710429Y3484879D02*
G01*
X4710429Y3622037D01*
X4710435Y3622042D01*
X4710429Y3622039D02*
G01*
X4634229Y3622039D01*
X4586986Y3574795D01*
X4020820Y3574795D01*
X3979163Y3533139D01*
X4572000Y2639999D02*
G01*
X4754811Y2639999D01*
X4754885Y2640073D01*
X5526024Y3429000D02*
G01*
X5526024Y3322320D01*
X4572000Y2639999D02*
G01*
X4267634Y2639999D01*
X4191000Y2563365D01*
X4191000Y2216150D01*
X4272285Y2135126D01*
X4272285Y2055873D01*
X3977386Y1304036D02*
G01*
X3878325Y1204976D01*
X3878325Y1204213D01*
X4635500Y2055876D02*
G01*
X4272279Y2055876D01*
X4165600Y2055876D02*
G01*
X4272279Y2055876D01*
X3849115Y3403854D02*
G01*
X3849115Y3256279D01*
X4378197Y1104137D02*
G01*
X4454652Y1104137D01*
X4466336Y1115821D01*
X4553458Y1115821D01*
X812800Y-25400D02*
G01*
X25400Y-25400D01*
X0Y0D01*
X3098800Y-533400D02*
G01*
X2590800Y-25400D01*
X812800Y-25400D01*
X4479797Y1648460D02*
G01*
X4177538Y1346200D01*
X4177538Y1304036D01*
X4479797Y1648460D02*
G01*
X4272279Y1855723D01*
X5762752Y980947D02*
G01*
X5762752Y980947D01*
X5147056Y980947D01*
X4479797Y1648460D01*
X4572000Y2440000D02*
G01*
X4754811Y2440000D01*
X4754885Y2439926D01*
X5658104Y2581910D02*
G01*
X4896865Y2581910D01*
X4754879Y2439923D01*
X7082790Y980947D02*
G01*
X7082790Y1039621D01*
X5994400Y2128012D01*
X5994400Y2245613D01*
X5658104Y2581910D01*
X5658104Y2581910D02*
G01*
X5658104Y2720847D01*
X5764275Y2827020D01*
X5762752Y-149097D02*
G01*
X3483102Y-149097D01*
X3098800Y-533400D01*
X6863588Y9144D02*
G01*
X6807200Y9144D01*
X6722618Y-75184D01*
X6722618Y-149097D01*
X6962647Y-149097D02*
G01*
X6962647Y-90170D01*
X6863588Y9144D01*
X3688588Y3835145D02*
G01*
X3797808Y3835145D01*
X4016502Y3833368D02*
G01*
X3799331Y3833368D01*
X3797808Y3835145D01*
X4071111Y3833368D02*
G01*
X4016502Y3833368D01*
X4071111Y3833368D02*
G01*
X4125722Y3833368D01*
X3688588Y3835145D02*
G01*
X3579368Y3835145D01*
X3486150Y3752342D02*
G01*
X3496563Y3752342D01*
X3579368Y3835145D01*
X4210050Y3752342D02*
G01*
X4206747Y3752342D01*
X4125722Y3833368D01*
X5170170Y3611371D02*
G01*
X5029200Y3752342D01*
X4210050Y3752342D01*
X3719068Y3403854D02*
G01*
X3719068Y3533139D01*
X3605529Y3482339D02*
G01*
X3656329Y3533139D01*
X3719068Y3533139D01*
X5170170Y3611371D02*
G01*
X5650484Y3611371D01*
X5726175Y3535679D01*
X5170170Y3484879D02*
G01*
X5170170Y3611364D01*
X5170164Y3611369D01*
X5726175Y3429000D02*
G01*
X5726175Y3535679D01*
X5764275Y2933700D02*
G01*
X5764275Y2827020D01*
X4594857Y2439926D02*
G01*
X4594783Y2440000D01*
X4572000Y2440000D01*
X4594859Y2439923D02*
G01*
X4541520Y2439923D01*
X4635500Y1855723D02*
G01*
X4272279Y1855723D01*
X4165600Y1855723D02*
G01*
X4272279Y1855723D01*
X6962647Y-149097D02*
G01*
X7082790Y-149097D01*
X4493768Y2369820D02*
G01*
X4742179Y2121407D01*
X4742179Y1855723D01*
X4278375Y2369820D02*
G01*
X4493768Y2369820D01*
X4493768Y2369820D02*
G01*
X4493768Y2392171D01*
X4541520Y2439923D01*
X4635500Y1855723D02*
G01*
X4742179Y1855723D01*
X4291075Y3048000D02*
G01*
X4291075Y3281934D01*
X4090670Y3482339D01*
X4278299Y2463800D02*
G01*
X4278299Y2369896D01*
X4278373Y2369820D01*
X4165600Y1855723D02*
G01*
X3201924Y1855723D01*
X3098800Y1752600D01*
X5726175Y3429000D02*
G01*
X5726175Y3322320D01*
X5764275Y2933700D02*
G01*
X5764275Y3284220D01*
X5726175Y3322320D01*
X6002781Y980947D02*
G01*
X6002781Y1039876D01*
X5842000Y1200657D01*
X5616193Y1200657D01*
X6362700Y980947D02*
G01*
X6362700Y921257D01*
X6255511Y814323D01*
X6121400Y814323D01*
X6242811Y980947D02*
G01*
X6242811Y1054862D01*
X5991859Y1305560D01*
X5867400Y1305560D01*
X6722618Y980947D02*
G01*
X6722618Y1087881D01*
X5613400Y2197100D01*
X5224525Y2197100D02*
G01*
X5224525Y2138679D01*
X6202172Y1161034D01*
X6367272Y1161034D01*
X6482841Y1045718D01*
X6482841Y980947D01*
X5105400Y2197100D02*
G01*
X5224525Y2197100D01*
X5359400Y2197100D02*
G01*
X6335268Y1221231D01*
X6431788Y1221231D01*
X6602729Y1050289D01*
X6602729Y980947D01*
X5933947Y782828D02*
G01*
X5993891Y782828D01*
X6122670Y911605D01*
X6122670Y980947D01*
X4378197Y1054100D02*
G01*
X4489195Y1054100D01*
X4490974Y1056131D01*
X5762752Y775970D02*
G01*
X5690108Y775970D01*
X5593588Y679450D01*
X3335781Y1330960D02*
G01*
X4316729Y350012D01*
X5264150Y350012D01*
X3335781Y1330960D02*
G01*
X3385058Y1380236D01*
X0Y361950D02*
G01*
X755650Y1117600D01*
X3122422Y1117600D01*
X3335781Y1330960D01*
X3385058Y1380236D02*
G01*
X4008374Y1380236D01*
X4027424Y1361186D01*
X4027424Y1304036D01*
X4078300Y2463800D02*
G01*
X4078300Y2369896D01*
X4078226Y2369820D01*
X4078224Y2369820D02*
G01*
X3842258Y2133600D01*
X3057397Y2133600D01*
X2985770Y2061971D01*
X2985770Y1698497D01*
X3058922Y1625600D01*
X3139693Y1625600D01*
X3385058Y1380236D01*
X4090926Y2941320D02*
G01*
X4078300Y2928696D01*
X4078300Y2463800D01*
X0Y254000D02*
G01*
X0Y361950D01*
X4090924Y2941320D02*
G01*
X4532629Y2941320D01*
X4939029Y3347720D01*
X4939029Y3484879D02*
G01*
X4939029Y3347725D01*
X4939035Y3347720D01*
X4090924Y3048000D02*
G01*
X4090924Y2941320D01*
X812800Y-279400D02*
G01*
X25400Y-279400D01*
X0Y-254000D01*
X4939029Y2865120D02*
G01*
X5143500Y2865120D01*
X5143500Y2865120D01*
X5564124Y2933700D02*
G01*
X5564124Y2827020D01*
X5564124Y2827020D02*
G01*
X5181600Y2827020D01*
X5143500Y2865120D01*
X812800Y-533400D02*
G01*
X704595Y-641604D01*
X704595Y-837184D01*
X807973Y-940307D01*
X4431791Y-940307D01*
X4546600Y-825500D01*
X3784600Y228600D02*
G01*
X3670300Y228600D01*
X3098800Y736600D02*
G01*
X3162300Y736600D01*
X3670300Y228600D01*
X1620265Y39623D02*
G01*
X2713990Y39623D01*
X2890520Y-137160D01*
X3173984Y-137160D01*
X3342131Y30987D01*
X4348988Y30987D01*
X4546600Y228600D01*
X6602729Y-149097D02*
G01*
X6602729Y-88900D01*
X6492493Y21336D01*
X6375400Y21336D01*
X5537200Y-2032000D02*
G01*
X6362700Y-1206500D01*
X6362700Y-149097D01*
X5791200Y-2032000D02*
G01*
X5791200Y-1912873D01*
X6482841Y-149097D02*
G01*
X6482841Y-1221231D01*
X5791200Y-1912873D01*
X4378197Y1004062D02*
G01*
X4422393Y1004062D01*
X4430268Y996442D01*
X4851400Y996442D01*
X5551677Y295910D01*
X5762752Y295910D01*
X6002781Y-149097D02*
G01*
X6002781Y-210312D01*
X5858002Y-355092D01*
X5366765Y-355092D01*
X5366765Y396494D02*
G01*
X4815840Y947165D01*
X4385056Y947165D01*
X4378197Y954023D01*
X4191000Y1524000D02*
G01*
X4191000Y1498600D01*
X4127500Y1435100D01*
X4127500Y1303020D01*
D10*
X4077487Y1304112D02*
G01*
X4077487Y1612900D01*
X3937000Y2794000D02*
G01*
X3914140Y2816860D01*
X3914140Y3403904D01*
D12*
X4408512Y1204239D02*
G01*
X4346514Y1204239D01*
X4408512Y1154201D02*
G01*
X4346514Y1154201D01*
X4408512Y1104163D02*
G01*
X4346514Y1104163D01*
X4408512Y1054125D02*
G01*
X4346514Y1054125D01*
X4408512Y1004087D02*
G01*
X4346514Y1004087D01*
X4408512Y954049D02*
G01*
X4346514Y954049D01*
X4408512Y904011D02*
G01*
X4346514Y904011D01*
X4277639Y835111D02*
G01*
X4277639Y773112D01*
X4227601Y835111D02*
G01*
X4227601Y773112D01*
X4177563Y835111D02*
G01*
X4177563Y773112D01*
X4127525Y835111D02*
G01*
X4127525Y773112D01*
X4077487Y835111D02*
G01*
X4077487Y773112D01*
X4027449Y835111D02*
G01*
X4027449Y773112D01*
X3977411Y835111D02*
G01*
X3977411Y773112D01*
X3908513Y904011D02*
G01*
X3846515Y904011D01*
X3908513Y954049D02*
G01*
X3846515Y954049D01*
X3908513Y1004087D02*
G01*
X3846515Y1004087D01*
X3908513Y1054125D02*
G01*
X3846515Y1054125D01*
X3908513Y1104163D02*
G01*
X3846515Y1104163D01*
X3908513Y1154201D02*
G01*
X3846515Y1154201D01*
X3908513Y1204239D02*
G01*
X3846515Y1204239D01*
X3977411Y1335110D02*
G01*
X3977411Y1273111D01*
X4027449Y1335110D02*
G01*
X4027449Y1273111D01*
X4077487Y1335110D02*
G01*
X4077487Y1273111D01*
X4127525Y1335110D02*
G01*
X4127525Y1273111D01*
X4177563Y1335110D02*
G01*
X4177563Y1273111D01*
X4227601Y1335110D02*
G01*
X4227601Y1273111D01*
X4277639Y1335110D02*
G01*
X4277639Y1273111D01*
D13*
X7082713Y-68996D02*
G01*
X7082713Y-228996D01*
X6962698Y-68996D02*
G01*
X6962698Y-228996D01*
X6842709Y-68996D02*
G01*
X6842709Y-228996D01*
X6722719Y-68996D02*
G01*
X6722719Y-228996D01*
X6602704Y-68996D02*
G01*
X6602704Y-228996D01*
X6482715Y-68996D02*
G01*
X6482715Y-228996D01*
X6362700Y-68996D02*
G01*
X6362700Y-228996D01*
X6242710Y-68996D02*
G01*
X6242710Y-228996D01*
X6122720Y-68996D02*
G01*
X6122720Y-228996D01*
X6002705Y-68996D02*
G01*
X6002705Y-228996D01*
X5882716Y-68996D02*
G01*
X5882716Y-228996D01*
X5762701Y-68996D02*
G01*
X5762701Y-228996D01*
X5682701Y56006D02*
G01*
X5842701Y56006D01*
X5682701Y175996D02*
G01*
X5842701Y175996D01*
X5682701Y296011D02*
G01*
X5842701Y296011D01*
X5682701Y416001D02*
G01*
X5842701Y416001D01*
X5682701Y535990D02*
G01*
X5842701Y535990D01*
X5682701Y656005D02*
G01*
X5842701Y656005D01*
X5682701Y775995D02*
G01*
X5842701Y775995D01*
X5762701Y1060998D02*
G01*
X5762701Y900998D01*
X5882716Y1060998D02*
G01*
X5882716Y900998D01*
X6002705Y1060998D02*
G01*
X6002705Y900998D01*
X6122720Y1060998D02*
G01*
X6122720Y900998D01*
X6242710Y1060998D02*
G01*
X6242710Y900998D01*
X6362700Y1060998D02*
G01*
X6362700Y900998D01*
X6482715Y1060998D02*
G01*
X6482715Y900998D01*
X6602704Y1060998D02*
G01*
X6602704Y900998D01*
X6722719Y1060998D02*
G01*
X6722719Y900998D01*
X6842709Y1060998D02*
G01*
X6842709Y900998D01*
X6962698Y1060998D02*
G01*
X6962698Y900998D01*
X7082713Y1060998D02*
G01*
X7082713Y900998D01*
D15*
G01*
X6845300Y-368198D03*
D16*
G01*
X6992797Y-520700D03*
G01*
X6697802Y-520700D03*
D17*
G01*
X3719144Y3403904D03*
G01*
X3784142Y3403904D03*
G01*
X3849141Y3403904D03*
G01*
X3914140Y3403904D03*
G01*
X3979138Y3403904D03*
D18*
G01*
X3688537Y3835095D03*
G01*
X4016400Y3833469D03*
G36*
X5476100Y3506500D02*
G01*
X5576100Y3506500D01*
X5576100Y3351499D01*
X5476100Y3351499D01*
G37*
G36*
X5676099Y3506500D02*
G01*
X5776099Y3506500D01*
X5776099Y3351499D01*
X5676099Y3351499D01*
G37*
D20*
G01*
X5170170Y3484879D03*
G01*
X4939029Y3484879D03*
G01*
X4710429Y3484879D03*
D21*
G01*
X4939029Y2865120D03*
D22*
G01*
X4127525Y1054100D03*
D23*
G01*
X4572000Y2639999D03*
G01*
X4572000Y2440000D03*
G36*
X4041000Y3125500D02*
G01*
X4141000Y3125500D01*
X4141000Y2970499D01*
X4041000Y2970499D01*
G37*
G36*
X4240999Y3125500D02*
G01*
X4340999Y3125500D01*
X4340999Y2970499D01*
X4240999Y2970499D01*
G37*
G36*
X4028300Y2541300D02*
G01*
X4128300Y2541300D01*
X4128300Y2386299D01*
X4028300Y2386299D01*
G37*
G36*
X4228299Y2541300D02*
G01*
X4328299Y2541300D01*
X4328299Y2386299D01*
X4228299Y2386299D01*
G37*
G01*
X4635500Y2055799D03*
G01*
X4635500Y1855800D03*
G01*
X4165600Y2055799D03*
G01*
X4165600Y1855800D03*
G36*
X5514200Y3011200D02*
G01*
X5614200Y3011200D01*
X5614200Y2856199D01*
X5514200Y2856199D01*
G37*
G36*
X5714199Y3011200D02*
G01*
X5814199Y3011200D01*
X5814199Y2856199D01*
X5714199Y2856199D01*
G37*
D24*
G01*
X5537200Y-2032000D03*
D25*
G01*
X5791200Y-2032000D03*
D24*
G01*
X6375400Y2197100D03*
G01*
X6121400Y2197100D03*
G01*
X5867400Y2197100D03*
G01*
X5613400Y2197100D03*
G01*
X5359400Y2197100D03*
G36*
X5015400Y2287099D02*
G01*
X5195399Y2287099D01*
X5195399Y2107100D01*
X5015400Y2107100D01*
G37*
G01*
X0Y-254000D03*
G01*
X0Y0D03*
D26*
G01*
X0Y254000D03*
D27*
G01*
X4090593Y3482365D03*
G01*
X3605606Y3482365D03*
G36*
X3699598Y-740498D02*
G01*
X3869601Y-740498D01*
X3869601Y-910501D01*
X3699598Y-910501D01*
G37*
D29*
G01*
X4038600Y-825500D03*
G01*
X4292600Y-825500D03*
G01*
X4546600Y-825500D03*
G36*
X3699598Y313601D02*
G01*
X3869601Y313601D01*
X3869601Y143598D01*
X3699598Y143598D01*
G37*
G01*
X4038600Y228600D03*
G01*
X4292600Y228600D03*
G01*
X4546600Y228600D03*
D30*
G01*
X3098800Y2260600D03*
G01*
X3098800Y2006600D03*
G01*
X3098800Y1752600D03*
G01*
X3098800Y1498600D03*
G01*
X3098800Y1244600D03*
G01*
X3098800Y990600D03*
G01*
X3098800Y736600D03*
G01*
X3098800Y482600D03*
G01*
X3098800Y228600D03*
G01*
X3098800Y-25400D03*
G01*
X3098800Y-279400D03*
G01*
X3098800Y-533400D03*
G01*
X3098800Y-787400D03*
G01*
X812800Y2260600D03*
G01*
X812800Y2006600D03*
G01*
X812800Y1752600D03*
G01*
X812800Y1498600D03*
G01*
X812800Y1244600D03*
G01*
X812800Y990600D03*
G01*
X812800Y736600D03*
G01*
X812800Y482600D03*
G01*
X812800Y228600D03*
G01*
X812800Y-25400D03*
G01*
X812800Y-279400D03*
G01*
X812800Y-533400D03*
G01*
X812800Y-787400D03*
G01*
X2590800Y3784600D03*
G01*
X2336800Y3784600D03*
G01*
X1574800Y3784600D03*
G01*
X1320800Y3784600D03*
D14*
G01*
X5366765Y-355092D03*
G01*
X5366765Y396494D03*
G01*
X6375400Y21336D03*
G01*
X1620265Y39623D03*
G01*
X5264150Y350012D03*
G01*
X5593588Y679450D03*
G01*
X4490974Y1056131D03*
G01*
X5933947Y782828D03*
G01*
X5867400Y1305560D03*
G01*
X6121400Y814323D03*
G01*
X5616193Y1200657D03*
G01*
X4553458Y1115821D03*
G01*
X3849115Y3256279D03*
G01*
X4191000Y1524000D03*
G01*
X3914902Y1304036D03*
G01*
X4077487Y1612900D03*
G01*
X3937000Y2794000D03*
D31*
X3486150Y3707366D02*
G01*
X3486150Y3797366D01*
X4210050Y3707366D02*
G01*
X4210050Y3797366D01*
M02*
