M48
METRIC,LZ,000.000
;FILE_FORMAT=3:3
;TYPE=PLATED
;Layer: Drill PTH
;EasyEDA v6.4.20.6, 2021-07-28T11:41:20--4:00
;2421fe4ad3c6477fbea3b4fc35478b58,7db2125e4611476bb2993bf99425ef50,10
;Gerber Generator version 0.2
;Holesize 1 = 0.310 mm
T01C0.310
;Holesize 2 = 0.701 mm
T02C0.701
;Holesize 3 = 0.915 mm
T03C0.915
;Holesize 4 = 1.101 mm
T04C1.101
;Holesize 5 = 1.200 mm
T05C1.200
%
G05
G90
T01
X054859Y-107953
X056695Y-107970
T02
X045143Y-071179G85X045143Y-071979
X052393Y-071179G85X052393Y-071979
X051193Y-074279
X046343Y-074279
T03
X054229Y-081026
X056769Y-081026
X059309Y-081026
X061849Y-081026
X064389Y-081026
X066929Y-081026
X069469Y-081026
X072009Y-081026
X074549Y-081026
X041275Y-086106
X041275Y-088646
X041275Y-091186
X041275Y-093726
X041275Y-096266
X041275Y-098806
X041275Y-101346
X041275Y-103886
X041275Y-106426
X041275Y-108966
X041275Y-111506
X041275Y-114046
X041275Y-116586
X018415Y-086106
X018415Y-088646
X018415Y-091186
X018415Y-093726
X018415Y-096266
X018415Y-098806
X018415Y-101346
X018415Y-103886
X018415Y-106426
X018415Y-108966
X018415Y-111506
X018415Y-114046
X018415Y-116586
X036195Y-070866
X033655Y-070866
X026035Y-070866
X023495Y-070866
T04
X010414Y-108839
X010414Y-111379
X010414Y-113919
X010414Y-116459
T05
X010287Y-122936
X010287Y-120396
X048514Y-118745
X051054Y-118745
M30
