G04 Layer: TopSolderMaskLayer*
G04 EasyEDA v6.4.20.6, 2021-07-28T11:41:20--4:00*
G04 2421fe4ad3c6477fbea3b4fc35478b58,7db2125e4611476bb2993bf99425ef50,10*
G04 Gerber Generator version 0.2*
G04 Scale: 100 percent, Rotated: No, Reflected: No *
G04 Dimensions in millimeters *
G04 leading zeros omitted , absolute positions ,4 integer and 5 decimal *
%FSLAX45Y45*%
%MOMM*%

%ADD32C,1.5032*%
%ADD35C,1.8032*%
%ADD38C,1.9032*%
%ADD39C,1.7272*%
%ADD40C,2.0032*%
%ADD46C,1.4032*%

%LPD*%
D32*
X4514291Y-7202873D02*
G01*
X4514291Y-7112873D01*
X5239308Y-7202873D02*
G01*
X5239308Y-7112873D01*
G36*
X4662170Y-10371074D02*
G01*
X4662170Y-10250678D01*
X4837429Y-10250678D01*
X4837429Y-10371074D01*
G37*
G36*
X4662170Y-10170921D02*
G01*
X4662170Y-10050526D01*
X4837429Y-10050526D01*
X4837429Y-10170921D01*
G37*
G36*
X5332729Y-8192770D02*
G01*
X5332729Y-8012429D01*
X5513070Y-8012429D01*
X5513070Y-8192770D01*
G37*
D35*
G01*
X5676900Y-8102600D03*
G01*
X5930900Y-8102600D03*
G01*
X6184900Y-8102600D03*
G01*
X6438900Y-8102600D03*
G01*
X6692900Y-8102600D03*
G01*
X6946900Y-8102600D03*
G01*
X7200900Y-8102600D03*
G01*
X7454900Y-8102600D03*
G36*
X6173977Y-11543029D02*
G01*
X6173977Y-11367770D01*
X6294374Y-11367770D01*
X6294374Y-11543029D01*
G37*
G36*
X5973825Y-11543029D02*
G01*
X5973825Y-11367770D01*
X6094222Y-11367770D01*
X6094222Y-11543029D01*
G37*
G36*
X946150Y-10979150D02*
G01*
X946150Y-10788650D01*
X1136650Y-10788650D01*
X1136650Y-10979150D01*
G37*
D38*
G01*
X1041400Y-11137900D03*
G01*
X1041400Y-11391900D03*
G01*
X1041400Y-11645900D03*
D39*
G01*
X4127500Y-8610600D03*
G01*
X4127500Y-8864600D03*
G01*
X4127500Y-9118600D03*
G01*
X4127500Y-9372600D03*
G01*
X4127500Y-9626600D03*
G01*
X4127500Y-9880600D03*
G01*
X4127500Y-10134600D03*
G01*
X4127500Y-10388600D03*
G01*
X4127500Y-10642600D03*
G01*
X4127500Y-10896600D03*
G01*
X4127500Y-11150600D03*
G01*
X4127500Y-11404600D03*
G01*
X4127500Y-11658600D03*
G01*
X1841500Y-8610600D03*
G01*
X1841500Y-8864600D03*
G01*
X1841500Y-9118600D03*
G01*
X1841500Y-9372600D03*
G01*
X1841500Y-9626600D03*
G01*
X1841500Y-9880600D03*
G01*
X1841500Y-10134600D03*
G01*
X1841500Y-10388600D03*
G01*
X1841500Y-10642600D03*
G01*
X1841500Y-10896600D03*
G01*
X1841500Y-11150600D03*
G01*
X1841500Y-11404600D03*
G01*
X1841500Y-11658600D03*
G01*
X3619500Y-7086600D03*
G01*
X3365500Y-7086600D03*
G01*
X2603500Y-7086600D03*
G01*
X2349500Y-7086600D03*
D40*
G01*
X1028700Y-12293600D03*
G36*
X928623Y-12139676D02*
G01*
X928623Y-11939524D01*
X1128776Y-11939524D01*
X1128776Y-12139676D01*
G37*
G36*
X7409688Y-11085321D02*
G01*
X7409688Y-10834878D01*
X7500111Y-10834878D01*
X7500111Y-11085321D01*
G37*
G36*
X7257795Y-11085321D02*
G01*
X7257795Y-10834878D01*
X7347965Y-10834878D01*
X7347965Y-11085321D01*
G37*
G36*
X6837679Y-11085321D02*
G01*
X6837679Y-10834878D01*
X6928104Y-10834878D01*
X6928104Y-11085321D01*
G37*
G36*
X6710679Y-11085321D02*
G01*
X6710679Y-10834878D01*
X6801104Y-10834878D01*
X6801104Y-11085321D01*
G37*
G36*
X6583679Y-11085321D02*
G01*
X6583679Y-10834878D01*
X6674104Y-10834878D01*
X6674104Y-11085321D01*
G37*
G36*
X6456679Y-11085321D02*
G01*
X6456679Y-10834878D01*
X6547104Y-10834878D01*
X6547104Y-11085321D01*
G37*
G36*
X6837679Y-9434321D02*
G01*
X6837679Y-9183878D01*
X6928104Y-9183878D01*
X6928104Y-9434321D01*
G37*
G36*
X6711188Y-9434321D02*
G01*
X6711188Y-9183878D01*
X6801611Y-9183878D01*
X6801611Y-9434321D01*
G37*
G36*
X6583679Y-9434321D02*
G01*
X6583679Y-9183878D01*
X6674104Y-9183878D01*
X6674104Y-9434321D01*
G37*
G36*
X6456679Y-9434321D02*
G01*
X6456679Y-9183878D01*
X6547104Y-9183878D01*
X6547104Y-9434321D01*
G37*
G36*
X6329679Y-9434321D02*
G01*
X6329679Y-9183878D01*
X6420104Y-9183878D01*
X6420104Y-9434321D01*
G37*
G36*
X6202679Y-9434321D02*
G01*
X6202679Y-9183878D01*
X6293104Y-9183878D01*
X6293104Y-9434321D01*
G37*
G36*
X6329679Y-11085321D02*
G01*
X6329679Y-10834878D01*
X6420104Y-10834878D01*
X6420104Y-11085321D01*
G37*
G36*
X6202679Y-11085321D02*
G01*
X6202679Y-10834878D01*
X6293104Y-10834878D01*
X6293104Y-11085321D01*
G37*
G36*
X6075679Y-11085321D02*
G01*
X6075679Y-10834878D01*
X6166104Y-10834878D01*
X6166104Y-11085321D01*
G37*
G36*
X5948679Y-11085321D02*
G01*
X5948679Y-10834878D01*
X6039104Y-10834878D01*
X6039104Y-11085321D01*
G37*
G36*
X5694679Y-11085321D02*
G01*
X5694679Y-10834878D01*
X5785104Y-10834878D01*
X5785104Y-11085321D01*
G37*
G36*
X5821679Y-11085321D02*
G01*
X5821679Y-10834878D01*
X5912104Y-10834878D01*
X5912104Y-11085321D01*
G37*
G36*
X5313679Y-11085321D02*
G01*
X5313679Y-10834878D01*
X5404104Y-10834878D01*
X5404104Y-11085321D01*
G37*
G36*
X5186679Y-11085321D02*
G01*
X5186679Y-10834878D01*
X5277104Y-10834878D01*
X5277104Y-11085321D01*
G37*
G36*
X5440679Y-11085321D02*
G01*
X5440679Y-10834878D01*
X5531104Y-10834878D01*
X5531104Y-11085321D01*
G37*
G36*
X5567679Y-11085321D02*
G01*
X5567679Y-10834878D01*
X5658104Y-10834878D01*
X5658104Y-11085321D01*
G37*
G36*
X5694679Y-9434321D02*
G01*
X5694679Y-9183878D01*
X5785104Y-9183878D01*
X5785104Y-9434321D01*
G37*
G36*
X5819393Y-9434321D02*
G01*
X5819393Y-9183878D01*
X5909563Y-9183878D01*
X5909563Y-9434321D01*
G37*
G36*
X6073393Y-9434321D02*
G01*
X6073393Y-9183878D01*
X6163563Y-9183878D01*
X6163563Y-9434321D01*
G37*
G36*
X5946393Y-9434321D02*
G01*
X5946393Y-9183878D01*
X6036563Y-9183878D01*
X6036563Y-9434321D01*
G37*
G36*
X5438393Y-9434321D02*
G01*
X5438393Y-9183878D01*
X5528563Y-9183878D01*
X5528563Y-9434321D01*
G37*
G36*
X5565393Y-9434321D02*
G01*
X5565393Y-9183878D01*
X5655563Y-9183878D01*
X5655563Y-9434321D01*
G37*
G36*
X5311393Y-9434321D02*
G01*
X5311393Y-9183878D01*
X5401563Y-9183878D01*
X5401563Y-9434321D01*
G37*
G36*
X5184393Y-9434321D02*
G01*
X5184393Y-9183878D01*
X5274563Y-9183878D01*
X5274563Y-9434321D01*
G37*
G36*
X6256020Y-12238736D02*
G01*
X6256020Y-12018263D01*
X6411468Y-12018263D01*
X6411468Y-12238736D01*
G37*
G36*
X5805931Y-12238736D02*
G01*
X5805931Y-12018263D01*
X5961379Y-12018263D01*
X5961379Y-12238736D01*
G37*
G01*
X4851400Y-11874500D03*
G36*
X5005324Y-11974576D02*
G01*
X5005324Y-11774424D01*
X5205475Y-11774424D01*
X5205475Y-11974576D01*
G37*
G36*
X4719827Y-7585963D02*
G01*
X4719827Y-7369810D01*
X4775961Y-7369810D01*
X4775961Y-7585963D01*
G37*
G36*
X4784852Y-7585963D02*
G01*
X4784852Y-7369810D01*
X4840731Y-7369810D01*
X4840731Y-7585963D01*
G37*
G36*
X4849875Y-7585963D02*
G01*
X4849875Y-7369810D01*
X4905756Y-7369810D01*
X4905756Y-7585963D01*
G37*
G36*
X4914900Y-7585963D02*
G01*
X4914900Y-7369810D01*
X4970779Y-7369810D01*
X4970779Y-7585963D01*
G37*
G36*
X4979924Y-7585963D02*
G01*
X4979924Y-7369810D01*
X5035804Y-7369810D01*
X5035804Y-7585963D01*
G37*
G36*
X4626609Y-7095744D02*
G01*
X4626609Y-6955281D01*
X4806950Y-6955281D01*
X4806950Y-7095744D01*
G37*
G36*
X4954524Y-7095744D02*
G01*
X4954524Y-6955281D01*
X5134863Y-6955281D01*
X5134863Y-7095744D01*
G37*
D46*
G01*
X5119293Y-7427874D03*
G01*
X4634306Y-7427874D03*
M02*
