G04 Layer: TopPasteMaskLayer*
G04 EasyEDA v6.4.20.6, 2021-07-28T11:41:20--4:00*
G04 2421fe4ad3c6477fbea3b4fc35478b58,7db2125e4611476bb2993bf99425ef50,10*
G04 Gerber Generator version 0.2*
G04 Scale: 100 percent, Rotated: No, Reflected: No *
G04 Dimensions in millimeters *
G04 leading zeros omitted , absolute positions ,4 integer and 5 decimal *
%FSLAX45Y45*%
%MOMM*%

%ADD13R,1.5500X1.0000*%
%ADD15R,0.7000X2.3000*%
%ADD16R,1.3500X2.0000*%
%ADD17R,0.4000X2.0000*%
%ADD18R,1.6000X1.1999*%

%LPD*%
D13*
G01*
X4749800Y-10310799D03*
G01*
X4749800Y-10110800D03*
G36*
X6184099Y-11377899D02*
G01*
X6284099Y-11377899D01*
X6284099Y-11532900D01*
X6184099Y-11532900D01*
G37*
G36*
X5984100Y-11377899D02*
G01*
X6084100Y-11377899D01*
X6084100Y-11532900D01*
X5984100Y-11532900D01*
G37*
G36*
X7489898Y-11075101D02*
G01*
X7489898Y-10845098D01*
X7419896Y-10845098D01*
X7419896Y-11075101D01*
G37*
G36*
X7337897Y-11075101D02*
G01*
X7337897Y-10845098D01*
X7267895Y-10845098D01*
X7267895Y-11075101D01*
G37*
G36*
X6917898Y-11075101D02*
G01*
X6917898Y-10845098D01*
X6847895Y-10845098D01*
X6847895Y-11075101D01*
G37*
G36*
X6790898Y-11075101D02*
G01*
X6790898Y-10845098D01*
X6720895Y-10845098D01*
X6720895Y-11075101D01*
G37*
G36*
X6663898Y-11075101D02*
G01*
X6663898Y-10845098D01*
X6593895Y-10845098D01*
X6593895Y-11075101D01*
G37*
G36*
X6536898Y-11075101D02*
G01*
X6536898Y-10845098D01*
X6466895Y-10845098D01*
X6466895Y-11075101D01*
G37*
D15*
G01*
X6882891Y-9309100D03*
G01*
X6756400Y-9309100D03*
G01*
X6628891Y-9309100D03*
G01*
X6501891Y-9309100D03*
G01*
X6374891Y-9309100D03*
G01*
X6247891Y-9309100D03*
G36*
X6409898Y-11075101D02*
G01*
X6409898Y-10845098D01*
X6339895Y-10845098D01*
X6339895Y-11075101D01*
G37*
G36*
X6282898Y-11075101D02*
G01*
X6282898Y-10845098D01*
X6212895Y-10845098D01*
X6212895Y-11075101D01*
G37*
G36*
X6155898Y-11075101D02*
G01*
X6155898Y-10845098D01*
X6085895Y-10845098D01*
X6085895Y-11075101D01*
G37*
G36*
X5958903Y-11075101D02*
G01*
X5958903Y-10845098D01*
X6028905Y-10845098D01*
X6028905Y-11075101D01*
G37*
G36*
X5704900Y-11075101D02*
G01*
X5704900Y-10845098D01*
X5774903Y-10845098D01*
X5774903Y-11075101D01*
G37*
G36*
X5831898Y-11075101D02*
G01*
X5831898Y-10845098D01*
X5901900Y-10845098D01*
X5901900Y-11075101D01*
G37*
G36*
X5323898Y-11075101D02*
G01*
X5323898Y-10845098D01*
X5393900Y-10845098D01*
X5393900Y-11075101D01*
G37*
G36*
X5196900Y-11075101D02*
G01*
X5196900Y-10845098D01*
X5266903Y-10845098D01*
X5266903Y-11075101D01*
G37*
G36*
X5450903Y-11075101D02*
G01*
X5450903Y-10845098D01*
X5520905Y-10845098D01*
X5520905Y-11075101D01*
G37*
G36*
X5647898Y-11075101D02*
G01*
X5647898Y-10845098D01*
X5577895Y-10845098D01*
X5577895Y-11075101D01*
G37*
G36*
X5704893Y-9194109D02*
G01*
X5704893Y-9424111D01*
X5774895Y-9424111D01*
X5774895Y-9194109D01*
G37*
G01*
X5864504Y-9309074D03*
G01*
X6118504Y-9309074D03*
G01*
X5991504Y-9309074D03*
G01*
X5483504Y-9309074D03*
G01*
X5610504Y-9309074D03*
G01*
X5356504Y-9309074D03*
G36*
X5194505Y-9194083D02*
G01*
X5194505Y-9424085D01*
X5264508Y-9424085D01*
X5264508Y-9194083D01*
G37*
D16*
G01*
X6333693Y-12128500D03*
G01*
X5883706Y-12128500D03*
D17*
G01*
X4747844Y-7477887D03*
G01*
X4812842Y-7477887D03*
G01*
X4877841Y-7477887D03*
G01*
X4942840Y-7477887D03*
G01*
X5007838Y-7477887D03*
D18*
G01*
X4716805Y-7025512D03*
G01*
X5044668Y-7025512D03*
M02*
