G04 Layer: BottomSolderMaskLayer*
G04 EasyEDA v6.4.14, 2021-01-21T23:56:56--5:00*
G04 aa685b108e8c4aaab1d0ece7fbf10bdb,7db2125e4611476bb2993bf99425ef50,10*
G04 Gerber Generator version 0.2*
G04 Scale: 100 percent, Rotated: No, Reflected: No *
G04 Dimensions in millimeters *
G04 leading zeros omitted , absolute positions ,4 integer and 5 decimal *
%FSLAX45Y45*%
%MOMM*%

%ADD32C,1.5032*%
%ADD34C,1.8032*%
%ADD39C,1.4032*%
%ADD41C,1.9032*%
%ADD42C,1.7272*%
%ADD43C,2.0032*%

%LPD*%
D32*
X3803850Y6270165D02*
G01*
X3803850Y6360165D01*
X4527750Y6270165D02*
G01*
X4527750Y6360165D01*
G36*
X4621730Y5241229D02*
G01*
X4621730Y5421569D01*
X4802070Y5421569D01*
X4802070Y5241229D01*
G37*
D34*
G01*
X4965900Y5331399D03*
G01*
X5219900Y5331399D03*
G01*
X5473900Y5331399D03*
G01*
X5727900Y5331399D03*
G01*
X5981900Y5331399D03*
G01*
X6235900Y5331399D03*
G01*
X6489900Y5331399D03*
G01*
X6743900Y5331399D03*
D39*
G01*
X4408294Y6045164D03*
G01*
X3923306Y6045164D03*
G36*
X235150Y2454849D02*
G01*
X235150Y2645349D01*
X425650Y2645349D01*
X425650Y2454849D01*
G37*
D41*
G01*
X330400Y2296099D03*
G01*
X330400Y2042099D03*
G01*
X330400Y1788099D03*
D42*
G01*
X3416500Y4823399D03*
G01*
X3416500Y4569399D03*
G01*
X3416500Y4315399D03*
G01*
X3416500Y4061399D03*
G01*
X3416500Y3807399D03*
G01*
X3416500Y3553399D03*
G01*
X3416500Y3299399D03*
G01*
X3416500Y3045399D03*
G01*
X3416500Y2791399D03*
G01*
X3416500Y2537399D03*
G01*
X3416500Y2283399D03*
G01*
X3416500Y2029399D03*
G01*
X3416500Y1775399D03*
G01*
X1130500Y4823399D03*
G01*
X1130500Y4569399D03*
G01*
X1130500Y4315399D03*
G01*
X1130500Y4061399D03*
G01*
X1130500Y3807399D03*
G01*
X1130500Y3553399D03*
G01*
X1130500Y3299399D03*
G01*
X1130500Y3045399D03*
G01*
X1130500Y2791399D03*
G01*
X1130500Y2537399D03*
G01*
X1130500Y2283399D03*
G01*
X1130500Y2029399D03*
G01*
X1130500Y1775399D03*
G01*
X2908500Y6347399D03*
G01*
X2654500Y6347399D03*
G01*
X1892500Y6347399D03*
G01*
X1638500Y6347399D03*
D43*
G01*
X317700Y1140399D03*
G36*
X217624Y1294323D02*
G01*
X217624Y1494475D01*
X417776Y1494475D01*
X417776Y1294323D01*
G37*
G01*
X4140400Y1559499D03*
G36*
X4294324Y1459423D02*
G01*
X4294324Y1659575D01*
X4494476Y1659575D01*
X4494476Y1459423D01*
G37*
M02*
