G04 Layer: TopPasteMaskLayer*
G04 EasyEDA v6.4.14, 2021-01-21T23:56:56--5:00*
G04 aa685b108e8c4aaab1d0ece7fbf10bdb,7db2125e4611476bb2993bf99425ef50,10*
G04 Gerber Generator version 0.2*
G04 Scale: 100 percent, Rotated: No, Reflected: No *
G04 Dimensions in millimeters *
G04 leading zeros omitted , absolute positions ,4 integer and 5 decimal *
%FSLAX45Y45*%
%MOMM*%

%ADD13R,2.0000X1.6002*%
%ADD15R,0.4000X2.0000*%
%ADD16R,1.6000X1.1999*%
%ADD17R,0.7000X2.3000*%
%ADD18R,1.3500X2.0000*%

%LPD*%
D13*
G01*
X3975300Y3319693D03*
G01*
X3975300Y2999704D03*
G36*
X5473100Y2056099D02*
G01*
X5573100Y2056099D01*
X5573100Y1901098D01*
X5473100Y1901098D01*
G37*
G36*
X5273100Y2056099D02*
G01*
X5373100Y2056099D01*
X5373100Y1901098D01*
X5273100Y1901098D01*
G37*
D15*
G01*
X4036844Y5966703D03*
G01*
X4101843Y5966703D03*
G01*
X4166842Y5966703D03*
G01*
X4231840Y5966703D03*
G01*
X4296839Y5966703D03*
D16*
G01*
X4006237Y6397894D03*
G01*
X4334101Y6396268D03*
G36*
X6778899Y2358897D02*
G01*
X6778899Y2588900D01*
X6708896Y2588900D01*
X6708896Y2358897D01*
G37*
G36*
X6626898Y2358897D02*
G01*
X6626898Y2588900D01*
X6556895Y2588900D01*
X6556895Y2358897D01*
G37*
G36*
X6206898Y2358897D02*
G01*
X6206898Y2588900D01*
X6136896Y2588900D01*
X6136896Y2358897D01*
G37*
G36*
X6079898Y2358897D02*
G01*
X6079898Y2588900D01*
X6009896Y2588900D01*
X6009896Y2358897D01*
G37*
G36*
X5952898Y2358897D02*
G01*
X5952898Y2588900D01*
X5882896Y2588900D01*
X5882896Y2358897D01*
G37*
G36*
X5825898Y2358897D02*
G01*
X5825898Y2588900D01*
X5755896Y2588900D01*
X5755896Y2358897D01*
G37*
D17*
G01*
X6171892Y4124899D03*
G01*
X6045400Y4124899D03*
G01*
X5917892Y4124899D03*
G01*
X5790892Y4124899D03*
G01*
X5663892Y4124899D03*
G01*
X5536892Y4124899D03*
G36*
X5698898Y2358897D02*
G01*
X5698898Y2588900D01*
X5628896Y2588900D01*
X5628896Y2358897D01*
G37*
G36*
X5571898Y2358897D02*
G01*
X5571898Y2588900D01*
X5501896Y2588900D01*
X5501896Y2358897D01*
G37*
G36*
X5444898Y2358897D02*
G01*
X5444898Y2588900D01*
X5374896Y2588900D01*
X5374896Y2358897D01*
G37*
G36*
X5247904Y2358897D02*
G01*
X5247904Y2588900D01*
X5317906Y2588900D01*
X5317906Y2358897D01*
G37*
G36*
X4993901Y2358897D02*
G01*
X4993901Y2588900D01*
X5063904Y2588900D01*
X5063904Y2358897D01*
G37*
G36*
X5120899Y2358897D02*
G01*
X5120899Y2588900D01*
X5190901Y2588900D01*
X5190901Y2358897D01*
G37*
G36*
X4612899Y2358897D02*
G01*
X4612899Y2588900D01*
X4682901Y2588900D01*
X4682901Y2358897D01*
G37*
G36*
X4485901Y2358897D02*
G01*
X4485901Y2588900D01*
X4555904Y2588900D01*
X4555904Y2358897D01*
G37*
G36*
X4739904Y2358897D02*
G01*
X4739904Y2588900D01*
X4809906Y2588900D01*
X4809906Y2358897D01*
G37*
G36*
X4936898Y2358897D02*
G01*
X4936898Y2588900D01*
X4866896Y2588900D01*
X4866896Y2358897D01*
G37*
G36*
X4993894Y4239889D02*
G01*
X4993894Y4009887D01*
X5063896Y4009887D01*
X5063896Y4239889D01*
G37*
G01*
X5153505Y4124924D03*
G01*
X5407505Y4124924D03*
G01*
X5280505Y4124924D03*
G01*
X4772505Y4124924D03*
G01*
X4899505Y4124924D03*
G01*
X4645505Y4124924D03*
G36*
X4483506Y4239915D02*
G01*
X4483506Y4009913D01*
X4553508Y4009913D01*
X4553508Y4239915D01*
G37*
D18*
G01*
X5622693Y1305499D03*
G01*
X5172707Y1305499D03*
M02*
