G04 Layer: BottomLayer*
G04 EasyEDA v6.4.14, 2021-01-21T23:56:56--5:00*
G04 aa685b108e8c4aaab1d0ece7fbf10bdb,7db2125e4611476bb2993bf99425ef50,10*
G04 Gerber Generator version 0.2*
G04 Scale: 100 percent, Rotated: No, Reflected: No *
G04 Dimensions in millimeters *
G04 leading zeros omitted , absolute positions ,4 integer and 5 decimal *
%FSLAX45Y45*%
%MOMM*%

%ADD11C,0.2600*%
%ADD12C,0.6100*%
%ADD20C,1.6000*%
%ADD21C,1.2000*%
%ADD22R,1.7000X1.7000*%
%ADD23C,1.7000*%
%ADD24C,1.5240*%
%ADD25C,1.8000*%
%ADD26R,1.8000X1.8000*%
%ADD27C,1.3000*%

%LPD*%
D11*
X4140400Y1559499D02*
G01*
X3416500Y2283399D01*
X3416500Y4315399D02*
G01*
X3923230Y4822129D01*
X3923230Y6045139D01*
X4408370Y6045139D02*
G01*
X4527750Y6164519D01*
X4527750Y6315141D01*
X3803850Y6315141D02*
G01*
X3923230Y6195761D01*
X3923230Y6045139D01*
X317700Y1513525D02*
G01*
X216100Y1615125D01*
X216100Y2550099D01*
X317700Y1394399D02*
G01*
X317700Y1513525D01*
X330400Y2550099D02*
G01*
X216100Y2550099D01*
X5981900Y5331399D02*
G01*
X5868870Y5444429D01*
X4607506Y5444429D01*
X3565090Y4402267D01*
X3565090Y3193989D01*
X3416500Y3045399D01*
X5727900Y5331399D02*
G01*
X4774892Y4378391D01*
X4774892Y2638745D01*
X5473900Y5331399D02*
G01*
X4633668Y4491167D01*
X4633668Y2639253D01*
X4394400Y1559499D02*
G01*
X4394400Y4904679D01*
X4711900Y5222179D01*
X4711900Y5331399D02*
G01*
X4711900Y5222179D01*
G36*
X4631900Y5411398D02*
G01*
X4791900Y5411398D01*
X4791900Y5251399D01*
X4631900Y5251399D01*
G37*
D20*
G01*
X4965900Y5331399D03*
G01*
X5219900Y5331399D03*
G01*
X5473900Y5331399D03*
G01*
X5727900Y5331399D03*
G01*
X5981900Y5331399D03*
G01*
X6235900Y5331399D03*
G01*
X6489900Y5331399D03*
G01*
X6743900Y5331399D03*
D21*
G01*
X4408294Y6045164D03*
G01*
X3923306Y6045164D03*
D22*
G01*
X330400Y2550099D03*
D23*
G01*
X330400Y2296099D03*
G01*
X330400Y2042099D03*
G01*
X330400Y1788099D03*
D24*
G01*
X3416500Y4823399D03*
G01*
X3416500Y4569399D03*
G01*
X3416500Y4315399D03*
G01*
X3416500Y4061399D03*
G01*
X3416500Y3807399D03*
G01*
X3416500Y3553399D03*
G01*
X3416500Y3299399D03*
G01*
X3416500Y3045399D03*
G01*
X3416500Y2791399D03*
G01*
X3416500Y2537399D03*
G01*
X3416500Y2283399D03*
G01*
X3416500Y2029399D03*
G01*
X3416500Y1775399D03*
G01*
X1130500Y4823399D03*
G01*
X1130500Y4569399D03*
G01*
X1130500Y4315399D03*
G01*
X1130500Y4061399D03*
G01*
X1130500Y3807399D03*
G01*
X1130500Y3553399D03*
G01*
X1130500Y3299399D03*
G01*
X1130500Y3045399D03*
G01*
X1130500Y2791399D03*
G01*
X1130500Y2537399D03*
G01*
X1130500Y2283399D03*
G01*
X1130500Y2029399D03*
G01*
X1130500Y1775399D03*
G01*
X2908500Y6347399D03*
G01*
X2654500Y6347399D03*
G01*
X1892500Y6347399D03*
G01*
X1638500Y6347399D03*
D25*
G01*
X317700Y1140399D03*
D26*
G01*
X317700Y1394399D03*
D25*
G01*
X4140400Y1559499D03*
D26*
G01*
X4394400Y1559499D03*
D12*
G01*
X4774892Y2638745D03*
G01*
X4633668Y2639253D03*
D27*
X3803850Y6270165D02*
G01*
X3803850Y6360165D01*
X4527750Y6270165D02*
G01*
X4527750Y6360165D01*
M02*
