G04 Layer: TopLayer*
G04 EasyEDA v6.4.20.6, 2021-07-28T11:41:20--4:00*
G04 2421fe4ad3c6477fbea3b4fc35478b58,7db2125e4611476bb2993bf99425ef50,10*
G04 Gerber Generator version 0.2*
G04 Scale: 100 percent, Rotated: No, Reflected: No *
G04 Dimensions in millimeters *
G04 leading zeros omitted , absolute positions ,4 integer and 5 decimal *
%FSLAX45Y45*%
%MOMM*%

%ADD10C,0.2540*%
%ADD11C,0.2600*%
%ADD12C,0.6100*%
%ADD13R,1.5500X1.0000*%
%ADD15R,0.7000X2.3000*%
%ADD16R,1.3500X2.0000*%
%ADD17R,0.4000X2.0000*%
%ADD18R,1.6000X1.1999*%
%ADD20C,1.6000*%
%ADD21R,1.7000X1.7000*%
%ADD22C,1.7000*%
%ADD23C,1.5240*%
%ADD24C,1.8000*%
%ADD25R,1.8000X1.8000*%
%ADD26C,1.2000*%
%ADD27C,1.3000*%

%LPD*%
D11*
X4749800Y-10310799D02*
G01*
X4882969Y-10310799D01*
X5739891Y-9453879D01*
X4127500Y-10388600D02*
G01*
X4405299Y-10110800D01*
X4749800Y-10110800D01*
X1028700Y-12293600D02*
G01*
X901445Y-12166345D01*
X901445Y-11941555D01*
X958595Y-11884405D01*
X3393693Y-11884405D01*
X4127500Y-11150600D01*
X1028700Y-12293600D02*
G01*
X901445Y-12166345D01*
X901445Y-11941555D01*
X958595Y-11884405D01*
X3393693Y-11884405D01*
X4127500Y-11150600D01*
X4331208Y-9322308D02*
G01*
X4127500Y-9118600D01*
X5229606Y-9453371D02*
G01*
X4462272Y-9453371D01*
X4331208Y-9322308D01*
X1155700Y-10883900D02*
G01*
X1270000Y-10769600D01*
X2732531Y-10769600D01*
X4002786Y-9499600D01*
X4153915Y-9499600D01*
X4331208Y-9322308D01*
X1041400Y-10883900D02*
G01*
X1155700Y-10883900D01*
X5229606Y-9309100D02*
G01*
X5229606Y-9453371D01*
X1028700Y-12039600D02*
G01*
X1147826Y-12039600D01*
X5883656Y-12128500D02*
G01*
X1236726Y-12128500D01*
X1147826Y-12039600D01*
X5612891Y-10960100D02*
G01*
X5612891Y-10815828D01*
X5612891Y-10815828D02*
G01*
X5650484Y-10815828D01*
X5669534Y-10797031D01*
X5485891Y-10960100D02*
G01*
X5485891Y-10795254D01*
X5422900Y-8102600D02*
G01*
X5422900Y-8211820D01*
X5356606Y-9309100D02*
G01*
X5356606Y-8278368D01*
X5422900Y-8211820D01*
X1841500Y-11658600D02*
G01*
X1054100Y-11658600D01*
X1041400Y-11645900D01*
X1841500Y-11404600D02*
G01*
X1054100Y-11404600D01*
X1041400Y-11391900D01*
X1841500Y-11150600D02*
G01*
X1054100Y-11150600D01*
X1041400Y-11137900D01*
X4127500Y-10642600D02*
G01*
X5046979Y-11562079D01*
X6234175Y-11562079D01*
X6234175Y-11562079D02*
G01*
X6234175Y-12125705D01*
X6236970Y-12128500D01*
X6234175Y-11455400D02*
G01*
X6234175Y-11562079D01*
X6333743Y-12128500D02*
G01*
X6236970Y-12128500D01*
X5739891Y-9309100D02*
G01*
X5739891Y-9453371D01*
X5991606Y-9309100D02*
G01*
X5991606Y-9453371D01*
X5991606Y-9453371D02*
G01*
X4886452Y-10558271D01*
X4310634Y-10558271D01*
X4267961Y-10515600D01*
X4102354Y-10515600D01*
X4009897Y-10422889D01*
X4009897Y-9998202D01*
X4127500Y-9880600D01*
X5991606Y-9247631D02*
G01*
X5991606Y-9309100D01*
X5991606Y-9247631D02*
G01*
X5991606Y-9164828D01*
X7200900Y-8102600D02*
G01*
X6138672Y-9164828D01*
X5991606Y-9164828D01*
X5864606Y-9164828D02*
G01*
X5690361Y-9164828D01*
X5675122Y-9180068D01*
X5675122Y-9450578D01*
X5139690Y-9986010D01*
X4276090Y-9986010D01*
X4127500Y-10134600D01*
X5864606Y-9309100D02*
G01*
X5864606Y-9175495D01*
X5864606Y-9175495D02*
G01*
X5864606Y-9164828D01*
X5864606Y-9164828D02*
G01*
X5884672Y-9164828D01*
X6946900Y-8102600D01*
X5930900Y-8102600D02*
G01*
X5610606Y-8422894D01*
X5610606Y-9309100D01*
X5483606Y-9309100D02*
G01*
X5483606Y-8295894D01*
X5676900Y-8102600D01*
X6034024Y-11455400D02*
G01*
X6034024Y-11348720D01*
X5358891Y-10960100D02*
G01*
X5358891Y-11104371D01*
X5358891Y-11104371D02*
G01*
X5789929Y-11104371D01*
X6034024Y-11348720D01*
D10*
X4716805Y-7025512D02*
G01*
X4584445Y-7157872D01*
X4514291Y-7157872D01*
X5044668Y-7025512D02*
G01*
X5177027Y-7157872D01*
X5239308Y-7157872D01*
X4747844Y-7477887D02*
G01*
X4684318Y-7477887D01*
X4634306Y-7427874D01*
X4716805Y-7025512D02*
G01*
X5044668Y-7025512D01*
X7454900Y-8102600D02*
G01*
X6780174Y-7427874D01*
X5119293Y-7427874D01*
D11*
X4127500Y-8864600D02*
G01*
X5007863Y-7984236D01*
X5007863Y-7467345D01*
D13*
G01*
X4749800Y-10310799D03*
G01*
X4749800Y-10110800D03*
G36*
X6184099Y-11377899D02*
G01*
X6284099Y-11377899D01*
X6284099Y-11532900D01*
X6184099Y-11532900D01*
G37*
G36*
X5984100Y-11377899D02*
G01*
X6084100Y-11377899D01*
X6084100Y-11532900D01*
X5984100Y-11532900D01*
G37*
G36*
X7489898Y-11075101D02*
G01*
X7489898Y-10845098D01*
X7419896Y-10845098D01*
X7419896Y-11075101D01*
G37*
G36*
X7337897Y-11075101D02*
G01*
X7337897Y-10845098D01*
X7267895Y-10845098D01*
X7267895Y-11075101D01*
G37*
G36*
X6917898Y-11075101D02*
G01*
X6917898Y-10845098D01*
X6847895Y-10845098D01*
X6847895Y-11075101D01*
G37*
G36*
X6790898Y-11075101D02*
G01*
X6790898Y-10845098D01*
X6720895Y-10845098D01*
X6720895Y-11075101D01*
G37*
G36*
X6663898Y-11075101D02*
G01*
X6663898Y-10845098D01*
X6593895Y-10845098D01*
X6593895Y-11075101D01*
G37*
G36*
X6536898Y-11075101D02*
G01*
X6536898Y-10845098D01*
X6466895Y-10845098D01*
X6466895Y-11075101D01*
G37*
D15*
G01*
X6882891Y-9309100D03*
G01*
X6756400Y-9309100D03*
G01*
X6628891Y-9309100D03*
G01*
X6501891Y-9309100D03*
G01*
X6374891Y-9309100D03*
G01*
X6247891Y-9309100D03*
G36*
X6409898Y-11075101D02*
G01*
X6409898Y-10845098D01*
X6339895Y-10845098D01*
X6339895Y-11075101D01*
G37*
G36*
X6282898Y-11075101D02*
G01*
X6282898Y-10845098D01*
X6212895Y-10845098D01*
X6212895Y-11075101D01*
G37*
G36*
X6155898Y-11075101D02*
G01*
X6155898Y-10845098D01*
X6085895Y-10845098D01*
X6085895Y-11075101D01*
G37*
G36*
X5958903Y-11075101D02*
G01*
X5958903Y-10845098D01*
X6028905Y-10845098D01*
X6028905Y-11075101D01*
G37*
G36*
X5704900Y-11075101D02*
G01*
X5704900Y-10845098D01*
X5774903Y-10845098D01*
X5774903Y-11075101D01*
G37*
G36*
X5831898Y-11075101D02*
G01*
X5831898Y-10845098D01*
X5901900Y-10845098D01*
X5901900Y-11075101D01*
G37*
G36*
X5323898Y-11075101D02*
G01*
X5323898Y-10845098D01*
X5393900Y-10845098D01*
X5393900Y-11075101D01*
G37*
G36*
X5196900Y-11075101D02*
G01*
X5196900Y-10845098D01*
X5266903Y-10845098D01*
X5266903Y-11075101D01*
G37*
G36*
X5450903Y-11075101D02*
G01*
X5450903Y-10845098D01*
X5520905Y-10845098D01*
X5520905Y-11075101D01*
G37*
G36*
X5647898Y-11075101D02*
G01*
X5647898Y-10845098D01*
X5577895Y-10845098D01*
X5577895Y-11075101D01*
G37*
G36*
X5704893Y-9194109D02*
G01*
X5704893Y-9424111D01*
X5774895Y-9424111D01*
X5774895Y-9194109D01*
G37*
G01*
X5864504Y-9309074D03*
G01*
X6118504Y-9309074D03*
G01*
X5991504Y-9309074D03*
G01*
X5483504Y-9309074D03*
G01*
X5610504Y-9309074D03*
G01*
X5356504Y-9309074D03*
G36*
X5194505Y-9194083D02*
G01*
X5194505Y-9424085D01*
X5264508Y-9424085D01*
X5264508Y-9194083D01*
G37*
D16*
G01*
X6333693Y-12128500D03*
G01*
X5883706Y-12128500D03*
D17*
G01*
X4747844Y-7477887D03*
G01*
X4812842Y-7477887D03*
G01*
X4877841Y-7477887D03*
G01*
X4942840Y-7477887D03*
G01*
X5007838Y-7477887D03*
D18*
G01*
X4716805Y-7025512D03*
G01*
X5044668Y-7025512D03*
G36*
X5342900Y-8022600D02*
G01*
X5502899Y-8022600D01*
X5502899Y-8182599D01*
X5342900Y-8182599D01*
G37*
D20*
G01*
X5676900Y-8102600D03*
G01*
X5930900Y-8102600D03*
G01*
X6184900Y-8102600D03*
G01*
X6438900Y-8102600D03*
G01*
X6692900Y-8102600D03*
G01*
X6946900Y-8102600D03*
G01*
X7200900Y-8102600D03*
G01*
X7454900Y-8102600D03*
D21*
G01*
X1041400Y-10883900D03*
D22*
G01*
X1041400Y-11137900D03*
G01*
X1041400Y-11391900D03*
G01*
X1041400Y-11645900D03*
D23*
G01*
X4127500Y-8610600D03*
G01*
X4127500Y-8864600D03*
G01*
X4127500Y-9118600D03*
G01*
X4127500Y-9372600D03*
G01*
X4127500Y-9626600D03*
G01*
X4127500Y-9880600D03*
G01*
X4127500Y-10134600D03*
G01*
X4127500Y-10388600D03*
G01*
X4127500Y-10642600D03*
G01*
X4127500Y-10896600D03*
G01*
X4127500Y-11150600D03*
G01*
X4127500Y-11404600D03*
G01*
X4127500Y-11658600D03*
G01*
X1841500Y-8610600D03*
G01*
X1841500Y-8864600D03*
G01*
X1841500Y-9118600D03*
G01*
X1841500Y-9372600D03*
G01*
X1841500Y-9626600D03*
G01*
X1841500Y-9880600D03*
G01*
X1841500Y-10134600D03*
G01*
X1841500Y-10388600D03*
G01*
X1841500Y-10642600D03*
G01*
X1841500Y-10896600D03*
G01*
X1841500Y-11150600D03*
G01*
X1841500Y-11404600D03*
G01*
X1841500Y-11658600D03*
G01*
X3619500Y-7086600D03*
G01*
X3365500Y-7086600D03*
G01*
X2603500Y-7086600D03*
G01*
X2349500Y-7086600D03*
D24*
G01*
X1028700Y-12293600D03*
D25*
G01*
X1028700Y-12039600D03*
D24*
G01*
X4851400Y-11874500D03*
D25*
G01*
X5105400Y-11874500D03*
D26*
G01*
X5119293Y-7427874D03*
G01*
X4634306Y-7427874D03*
D12*
G01*
X5485891Y-10795254D03*
G01*
X5669534Y-10797031D03*
D27*
X4514291Y-7202873D02*
G01*
X4514291Y-7112873D01*
X5239308Y-7202873D02*
G01*
X5239308Y-7112873D01*
M02*
