G04 Layer: BottomSolderMaskLayer*
G04 EasyEDA v6.4.20.6, 2021-07-28T11:41:20--4:00*
G04 2421fe4ad3c6477fbea3b4fc35478b58,7db2125e4611476bb2993bf99425ef50,10*
G04 Gerber Generator version 0.2*
G04 Scale: 100 percent, Rotated: No, Reflected: No *
G04 Dimensions in millimeters *
G04 leading zeros omitted , absolute positions ,4 integer and 5 decimal *
%FSLAX45Y45*%
%MOMM*%

%ADD32C,1.5032*%
%ADD35C,1.8032*%
%ADD38C,1.9032*%
%ADD39C,1.7272*%
%ADD40C,2.0032*%
%ADD46C,1.4032*%

%LPD*%
D32*
X4514291Y-7202873D02*
G01*
X4514291Y-7112873D01*
X5239308Y-7202873D02*
G01*
X5239308Y-7112873D01*
G36*
X5332729Y-8192770D02*
G01*
X5332729Y-8012429D01*
X5513070Y-8012429D01*
X5513070Y-8192770D01*
G37*
D35*
G01*
X5676900Y-8102600D03*
G01*
X5930900Y-8102600D03*
G01*
X6184900Y-8102600D03*
G01*
X6438900Y-8102600D03*
G01*
X6692900Y-8102600D03*
G01*
X6946900Y-8102600D03*
G01*
X7200900Y-8102600D03*
G01*
X7454900Y-8102600D03*
G36*
X946150Y-10979150D02*
G01*
X946150Y-10788650D01*
X1136650Y-10788650D01*
X1136650Y-10979150D01*
G37*
D38*
G01*
X1041400Y-11137900D03*
G01*
X1041400Y-11391900D03*
G01*
X1041400Y-11645900D03*
D39*
G01*
X4127500Y-8610600D03*
G01*
X4127500Y-8864600D03*
G01*
X4127500Y-9118600D03*
G01*
X4127500Y-9372600D03*
G01*
X4127500Y-9626600D03*
G01*
X4127500Y-9880600D03*
G01*
X4127500Y-10134600D03*
G01*
X4127500Y-10388600D03*
G01*
X4127500Y-10642600D03*
G01*
X4127500Y-10896600D03*
G01*
X4127500Y-11150600D03*
G01*
X4127500Y-11404600D03*
G01*
X4127500Y-11658600D03*
G01*
X1841500Y-8610600D03*
G01*
X1841500Y-8864600D03*
G01*
X1841500Y-9118600D03*
G01*
X1841500Y-9372600D03*
G01*
X1841500Y-9626600D03*
G01*
X1841500Y-9880600D03*
G01*
X1841500Y-10134600D03*
G01*
X1841500Y-10388600D03*
G01*
X1841500Y-10642600D03*
G01*
X1841500Y-10896600D03*
G01*
X1841500Y-11150600D03*
G01*
X1841500Y-11404600D03*
G01*
X1841500Y-11658600D03*
G01*
X3619500Y-7086600D03*
G01*
X3365500Y-7086600D03*
G01*
X2603500Y-7086600D03*
G01*
X2349500Y-7086600D03*
D40*
G01*
X1028700Y-12293600D03*
G36*
X928623Y-12139676D02*
G01*
X928623Y-11939524D01*
X1128776Y-11939524D01*
X1128776Y-12139676D01*
G37*
G01*
X4851400Y-11874500D03*
G36*
X5005324Y-11974576D02*
G01*
X5005324Y-11774424D01*
X5205475Y-11774424D01*
X5205475Y-11974576D01*
G37*
D46*
G01*
X5119293Y-7427874D03*
G01*
X4634306Y-7427874D03*
M02*
