M48
METRIC,LZ,0000.00
;FILE_FORMAT=4:2
;TYPE=PLATED
;Layer: Drill PTH
;EasyEDA v6.4.14, 2021-01-21T23:56:56--5:00
;aa685b108e8c4aaab1d0ece7fbf10bdb,7db2125e4611476bb2993bf99425ef50,10
;Gerber Generator version 0.2
;Holesize 1 = 0.310 mm
T01C0.310
;Holesize 2 = 0.701 mm
T02C0.701
;Holesize 3 = 0.915 mm
T03C0.915
;Holesize 4 = 1.101 mm
T04C1.101
;Holesize 5 = 1.200 mm
T05C1.200
%
G05
G90
T01
X004775Y002639
X004634Y002639
T02
X003804Y006355G85X003804Y006275
X004528Y006355G85X004528Y006275
X004408Y006045
X003923Y006045
T03
X004712Y005331
X004966Y005331
X005220Y005331
X005474Y005331
X005728Y005331
X005982Y005331
X006236Y005331
X006490Y005331
X006744Y005331
X003417Y004823
X003417Y004569
X003417Y004315
X003417Y004061
X003417Y003807
X003417Y003553
X003417Y003299
X003417Y003045
X003417Y002791
X003417Y002537
X003417Y002283
X003417Y002029
X003417Y001775
X001131Y004823
X001131Y004569
X001131Y004315
X001131Y004061
X001131Y003807
X001131Y003553
X001131Y003299
X001131Y003045
X001131Y002791
X001131Y002537
X001131Y002283
X001131Y002029
X001131Y001775
X002909Y006347
X002655Y006347
X001893Y006347
X001639Y006347
T04
X000330Y002550
X000330Y002296
X000330Y002042
X000330Y001788
T05
X000318Y001140
X000318Y001394
X004140Y001559
X004394Y001559
M30
