G04 Layer: BottomSilkLayer*
G04 EasyEDA v6.4.25, 2021-10-28T21:51:33--4:00*
G04 88f9fe5a47094e6790728aceff35a815,7db2125e4611476bb2993bf99425ef50,10*
G04 Gerber Generator version 0.2*
G04 Scale: 100 percent, Rotated: No, Reflected: No *
G04 Dimensions in inches *
G04 leading zeros omitted , absolute positions ,3 integer and 6 decimal *
%FSLAX36Y36*%
%MOIN*%

%ADD26C,0.0080*%

%LPD*%
D26*
X1908558Y-2637327D02*
G01*
X1908558Y-2673832D01*
X1906409Y-2680275D01*
X1902115Y-2682422D01*
X1897820Y-2682422D01*
X1915000Y-2652359D02*
G01*
X1899967Y-2652359D01*
X1883647Y-2637327D02*
G01*
X1883647Y-2682422D01*
X1883647Y-2660949D02*
G01*
X1877205Y-2654506D01*
X1872910Y-2652359D01*
X1866468Y-2652359D01*
X1862173Y-2654506D01*
X1860024Y-2660949D01*
X1860024Y-2682422D01*
X1845852Y-2665243D02*
G01*
X1820083Y-2665243D01*
X1820083Y-2660949D01*
X1822229Y-2656653D01*
X1824377Y-2654506D01*
X1828671Y-2652359D01*
X1835114Y-2652359D01*
X1839409Y-2654506D01*
X1843705Y-2658800D01*
X1845852Y-2665243D01*
X1845852Y-2669537D01*
X1843705Y-2675981D01*
X1839409Y-2680275D01*
X1835114Y-2682422D01*
X1828671Y-2682422D01*
X1824377Y-2680275D01*
X1820083Y-2675981D01*
X1766396Y-2637327D02*
G01*
X1766396Y-2673832D01*
X1764248Y-2680275D01*
X1759953Y-2682422D01*
X1755658Y-2682422D01*
X1772839Y-2652359D02*
G01*
X1757806Y-2652359D01*
X1741486Y-2652359D02*
G01*
X1741486Y-2673832D01*
X1739337Y-2680275D01*
X1735042Y-2682422D01*
X1728600Y-2682422D01*
X1724305Y-2680275D01*
X1717863Y-2673832D01*
X1717863Y-2652359D02*
G01*
X1717863Y-2682422D01*
X1703689Y-2637327D02*
G01*
X1703689Y-2682422D01*
X1703689Y-2658800D02*
G01*
X1699395Y-2654506D01*
X1695101Y-2652359D01*
X1688657Y-2652359D01*
X1684363Y-2654506D01*
X1680068Y-2658800D01*
X1677920Y-2665243D01*
X1677920Y-2669537D01*
X1680068Y-2675981D01*
X1684363Y-2680275D01*
X1688657Y-2682422D01*
X1695101Y-2682422D01*
X1699395Y-2680275D01*
X1703689Y-2675981D01*
X1663747Y-2665243D02*
G01*
X1637978Y-2665243D01*
X1637978Y-2660949D01*
X1640126Y-2656653D01*
X1642272Y-2654506D01*
X1646567Y-2652359D01*
X1653010Y-2652359D01*
X1657304Y-2654506D01*
X1661599Y-2658800D01*
X1663747Y-2665243D01*
X1663747Y-2669537D01*
X1661599Y-2675981D01*
X1657304Y-2680275D01*
X1653010Y-2682422D01*
X1646567Y-2682422D01*
X1642272Y-2680275D01*
X1637978Y-2675981D01*
X1564965Y-2658800D02*
G01*
X1569260Y-2654506D01*
X1573554Y-2652359D01*
X1579997Y-2652359D01*
X1584291Y-2654506D01*
X1588586Y-2658800D01*
X1590734Y-2665243D01*
X1590734Y-2669537D01*
X1588586Y-2675981D01*
X1584291Y-2680275D01*
X1579997Y-2682422D01*
X1573554Y-2682422D01*
X1569260Y-2680275D01*
X1564965Y-2675981D01*
X1525021Y-2658800D02*
G01*
X1529317Y-2654506D01*
X1533612Y-2652359D01*
X1540054Y-2652359D01*
X1544349Y-2654506D01*
X1548644Y-2658800D01*
X1550792Y-2665243D01*
X1550792Y-2669537D01*
X1548644Y-2675981D01*
X1544349Y-2680275D01*
X1540054Y-2682422D01*
X1533612Y-2682422D01*
X1529317Y-2680275D01*
X1525021Y-2675981D01*
X1508702Y-2648063D02*
G01*
X1508702Y-2645916D01*
X1506553Y-2641621D01*
X1504407Y-2639474D01*
X1500111Y-2637327D01*
X1491522Y-2637327D01*
X1487227Y-2639474D01*
X1485079Y-2641621D01*
X1482932Y-2645916D01*
X1482932Y-2650210D01*
X1485079Y-2654506D01*
X1489375Y-2660949D01*
X1510848Y-2682422D01*
X1480784Y-2682422D01*
X1440842Y-2643769D02*
G01*
X1442988Y-2639474D01*
X1449431Y-2637327D01*
X1453726Y-2637327D01*
X1460168Y-2639474D01*
X1464463Y-2645916D01*
X1466611Y-2656653D01*
X1466611Y-2667390D01*
X1464463Y-2675981D01*
X1460168Y-2680275D01*
X1453726Y-2682422D01*
X1451579Y-2682422D01*
X1445137Y-2680275D01*
X1440842Y-2675981D01*
X1438694Y-2669537D01*
X1438694Y-2667390D01*
X1440842Y-2660949D01*
X1445137Y-2656653D01*
X1451579Y-2654506D01*
X1453726Y-2654506D01*
X1460168Y-2656653D01*
X1464463Y-2660949D01*
X1466611Y-2667390D01*
X1398752Y-2637327D02*
G01*
X1420226Y-2637327D01*
X1422373Y-2656653D01*
X1420226Y-2654506D01*
X1413783Y-2652359D01*
X1407341Y-2652359D01*
X1400898Y-2654506D01*
X1396603Y-2658800D01*
X1394457Y-2665243D01*
X1394457Y-2669537D01*
X1396603Y-2675981D01*
X1400898Y-2680275D01*
X1407341Y-2682422D01*
X1413783Y-2682422D01*
X1420226Y-2680275D01*
X1422373Y-2678128D01*
X1424521Y-2673832D01*
X1378136Y-2648063D02*
G01*
X1378136Y-2645916D01*
X1375988Y-2641621D01*
X1373841Y-2639474D01*
X1369547Y-2637327D01*
X1360956Y-2637327D01*
X1356661Y-2639474D01*
X1354513Y-2641621D01*
X1352367Y-2645916D01*
X1352367Y-2650210D01*
X1354513Y-2654506D01*
X1358809Y-2660949D01*
X1380284Y-2682422D01*
X1350218Y-2682422D01*
X1336045Y-2652359D02*
G01*
X1336045Y-2697455D01*
X1336045Y-2658800D02*
G01*
X1331751Y-2654506D01*
X1327456Y-2652359D01*
X1321013Y-2652359D01*
X1316719Y-2654506D01*
X1312424Y-2658800D01*
X1310276Y-2665243D01*
X1310276Y-2669537D01*
X1312424Y-2675981D01*
X1316719Y-2680275D01*
X1321013Y-2682422D01*
X1327456Y-2682422D01*
X1331751Y-2680275D01*
X1336045Y-2675981D01*
X1293955Y-2648063D02*
G01*
X1293955Y-2645916D01*
X1291809Y-2641621D01*
X1289660Y-2639474D01*
X1285366Y-2637327D01*
X1276777Y-2637327D01*
X1272482Y-2639474D01*
X1270334Y-2641621D01*
X1268186Y-2645916D01*
X1268186Y-2650210D01*
X1270334Y-2654506D01*
X1274629Y-2660949D01*
X1296103Y-2682422D01*
X1266039Y-2682422D01*
X1218795Y-2637327D02*
G01*
X1218795Y-2682422D01*
X1218795Y-2637327D02*
G01*
X1199467Y-2637327D01*
X1193025Y-2639474D01*
X1190878Y-2641621D01*
X1188730Y-2645916D01*
X1188730Y-2652359D01*
X1190878Y-2656653D01*
X1193025Y-2658800D01*
X1199467Y-2660949D01*
X1218795Y-2660949D01*
X1161673Y-2637327D02*
G01*
X1165968Y-2639474D01*
X1170263Y-2643769D01*
X1172409Y-2648063D01*
X1174557Y-2654506D01*
X1174557Y-2665243D01*
X1172409Y-2671685D01*
X1170263Y-2675981D01*
X1165968Y-2680275D01*
X1161673Y-2682422D01*
X1153082Y-2682422D01*
X1148788Y-2680275D01*
X1144493Y-2675981D01*
X1142345Y-2671685D01*
X1140198Y-2665243D01*
X1140198Y-2654506D01*
X1142345Y-2648063D01*
X1144493Y-2643769D01*
X1148788Y-2639474D01*
X1153082Y-2637327D01*
X1161673Y-2637327D01*
X1126024Y-2637327D02*
G01*
X1126024Y-2682422D01*
X1126024Y-2637327D02*
G01*
X1098108Y-2637327D01*
X1126024Y-2658800D02*
G01*
X1108846Y-2658800D01*
X1126024Y-2682422D02*
G01*
X1098108Y-2682422D01*
X1018652Y-2648063D02*
G01*
X1020799Y-2643769D01*
X1025095Y-2639474D01*
X1029390Y-2637327D01*
X1037979Y-2637327D01*
X1042273Y-2639474D01*
X1046568Y-2643769D01*
X1048716Y-2648063D01*
X1050864Y-2654506D01*
X1050864Y-2665243D01*
X1048716Y-2671685D01*
X1046568Y-2675981D01*
X1042273Y-2680275D01*
X1037979Y-2682422D01*
X1029390Y-2682422D01*
X1025095Y-2680275D01*
X1020799Y-2675981D01*
X1018652Y-2671685D01*
X993742Y-2652359D02*
G01*
X998037Y-2654506D01*
X1002331Y-2658800D01*
X1004479Y-2665243D01*
X1004479Y-2669537D01*
X1002331Y-2675981D01*
X998037Y-2680275D01*
X993742Y-2682422D01*
X987299Y-2682422D01*
X983005Y-2680275D01*
X978710Y-2675981D01*
X976562Y-2669537D01*
X976562Y-2665243D01*
X978710Y-2658800D01*
X983005Y-2654506D01*
X987299Y-2652359D01*
X993742Y-2652359D01*
X951652Y-2652359D02*
G01*
X955946Y-2654506D01*
X960241Y-2658800D01*
X962389Y-2665243D01*
X962389Y-2669537D01*
X960241Y-2675981D01*
X955946Y-2680275D01*
X951652Y-2682422D01*
X945209Y-2682422D01*
X940915Y-2680275D01*
X936620Y-2675981D01*
X934471Y-2669537D01*
X934471Y-2665243D01*
X936620Y-2658800D01*
X940915Y-2654506D01*
X945209Y-2652359D01*
X951652Y-2652359D01*
X920299Y-2652359D02*
G01*
X920299Y-2682422D01*
X920299Y-2665243D02*
G01*
X918152Y-2658800D01*
X913856Y-2654506D01*
X909561Y-2652359D01*
X903118Y-2652359D01*
X863176Y-2637327D02*
G01*
X863176Y-2682422D01*
X863176Y-2658800D02*
G01*
X867471Y-2654506D01*
X871766Y-2652359D01*
X878208Y-2652359D01*
X882503Y-2654506D01*
X886799Y-2658800D01*
X888945Y-2665243D01*
X888945Y-2669537D01*
X886799Y-2675981D01*
X882503Y-2680275D01*
X878208Y-2682422D01*
X871766Y-2682422D01*
X867471Y-2680275D01*
X863176Y-2675981D01*
X849004Y-2637327D02*
G01*
X846855Y-2639474D01*
X844709Y-2637327D01*
X846855Y-2635178D01*
X849004Y-2637327D01*
X846855Y-2652359D02*
G01*
X846855Y-2682422D01*
X830534Y-2652359D02*
G01*
X830534Y-2682422D01*
X830534Y-2660949D02*
G01*
X824093Y-2654506D01*
X819798Y-2652359D01*
X813356Y-2652359D01*
X809061Y-2654506D01*
X806913Y-2660949D01*
X806913Y-2682422D01*
X766971Y-2652359D02*
G01*
X766971Y-2682422D01*
X766971Y-2658800D02*
G01*
X771265Y-2654506D01*
X775560Y-2652359D01*
X782003Y-2652359D01*
X786297Y-2654506D01*
X790592Y-2658800D01*
X792740Y-2665243D01*
X792740Y-2669537D01*
X790592Y-2675981D01*
X786297Y-2680275D01*
X782003Y-2682422D01*
X775560Y-2682422D01*
X771265Y-2680275D01*
X766971Y-2675981D01*
X746354Y-2637327D02*
G01*
X746354Y-2673832D01*
X744207Y-2680275D01*
X739913Y-2682422D01*
X735617Y-2682422D01*
X752797Y-2652359D02*
G01*
X737764Y-2652359D01*
X710707Y-2652359D02*
G01*
X715001Y-2654506D01*
X719297Y-2658800D01*
X721444Y-2665243D01*
X721444Y-2669537D01*
X719297Y-2675981D01*
X715001Y-2680275D01*
X710707Y-2682422D01*
X704265Y-2682422D01*
X699969Y-2680275D01*
X695675Y-2675981D01*
X693528Y-2669537D01*
X693528Y-2665243D01*
X695675Y-2658800D01*
X699969Y-2654506D01*
X704265Y-2652359D01*
X710707Y-2652359D01*
X679355Y-2652359D02*
G01*
X679355Y-2682422D01*
X679355Y-2665243D02*
G01*
X677206Y-2658800D01*
X672912Y-2654506D01*
X668616Y-2652359D01*
X662175Y-2652359D01*
X1874994Y-5807325D02*
G01*
X1874994Y-5822359D01*
X1857815Y-5807325D02*
G01*
X1857815Y-5822359D01*
X1813577Y-5813769D02*
G01*
X1817872Y-5809474D01*
X1824314Y-5807325D01*
X1832905Y-5807325D01*
X1839346Y-5809474D01*
X1843641Y-5813769D01*
X1843641Y-5818063D01*
X1841495Y-5822359D01*
X1839346Y-5824506D01*
X1835051Y-5826653D01*
X1822168Y-5830947D01*
X1817872Y-5833096D01*
X1815725Y-5835243D01*
X1813577Y-5839537D01*
X1813577Y-5845981D01*
X1817872Y-5850275D01*
X1824314Y-5852422D01*
X1832905Y-5852422D01*
X1839346Y-5850275D01*
X1843641Y-5845981D01*
X1788666Y-5822359D02*
G01*
X1792961Y-5824506D01*
X1797256Y-5828800D01*
X1799404Y-5835243D01*
X1799404Y-5839537D01*
X1797256Y-5845981D01*
X1792961Y-5850275D01*
X1788666Y-5852422D01*
X1782224Y-5852422D01*
X1777929Y-5850275D01*
X1773635Y-5845981D01*
X1771486Y-5839537D01*
X1771486Y-5835243D01*
X1773635Y-5828800D01*
X1777929Y-5824506D01*
X1782224Y-5822359D01*
X1788666Y-5822359D01*
X1700621Y-5828800D02*
G01*
X1702768Y-5824506D01*
X1709210Y-5822359D01*
X1715654Y-5822359D01*
X1722096Y-5824506D01*
X1724242Y-5828800D01*
X1722096Y-5833096D01*
X1717800Y-5835243D01*
X1707064Y-5837390D01*
X1702768Y-5839537D01*
X1700621Y-5843833D01*
X1700621Y-5845981D01*
X1702768Y-5850275D01*
X1709210Y-5852422D01*
X1715654Y-5852422D01*
X1722096Y-5850275D01*
X1724242Y-5845981D01*
X1680006Y-5807325D02*
G01*
X1680006Y-5843833D01*
X1677857Y-5850275D01*
X1673563Y-5852422D01*
X1669268Y-5852422D01*
X1686448Y-5822359D02*
G01*
X1671415Y-5822359D01*
X1655095Y-5822359D02*
G01*
X1655095Y-5843833D01*
X1652947Y-5850275D01*
X1648653Y-5852422D01*
X1642209Y-5852422D01*
X1637915Y-5850275D01*
X1631472Y-5843833D01*
X1631472Y-5822359D02*
G01*
X1631472Y-5852422D01*
X1617299Y-5822359D02*
G01*
X1617299Y-5867455D01*
X1617299Y-5828800D02*
G01*
X1613005Y-5824506D01*
X1608710Y-5822359D01*
X1602268Y-5822359D01*
X1597973Y-5824506D01*
X1593678Y-5828800D01*
X1591530Y-5835243D01*
X1591530Y-5839537D01*
X1593678Y-5845981D01*
X1597973Y-5850275D01*
X1602268Y-5852422D01*
X1608710Y-5852422D01*
X1613005Y-5850275D01*
X1617299Y-5845981D01*
X1577357Y-5835243D02*
G01*
X1551588Y-5835243D01*
X1551588Y-5830947D01*
X1553734Y-5826653D01*
X1555883Y-5824506D01*
X1560177Y-5822359D01*
X1566620Y-5822359D01*
X1570915Y-5824506D01*
X1575209Y-5828800D01*
X1577357Y-5835243D01*
X1577357Y-5839537D01*
X1575209Y-5845981D01*
X1570915Y-5850275D01*
X1566620Y-5852422D01*
X1560177Y-5852422D01*
X1555883Y-5850275D01*
X1551588Y-5845981D01*
X1537413Y-5822359D02*
G01*
X1537413Y-5852422D01*
X1537413Y-5830947D02*
G01*
X1530972Y-5824506D01*
X1526676Y-5822359D01*
X1520235Y-5822359D01*
X1515940Y-5824506D01*
X1513792Y-5830947D01*
X1513792Y-5852422D01*
X1473850Y-5807325D02*
G01*
X1473850Y-5852422D01*
X1473850Y-5828800D02*
G01*
X1478145Y-5824506D01*
X1482439Y-5822359D01*
X1488882Y-5822359D01*
X1493176Y-5824506D01*
X1497471Y-5828800D01*
X1499619Y-5835243D01*
X1499619Y-5839537D01*
X1497471Y-5845981D01*
X1493176Y-5850275D01*
X1488882Y-5852422D01*
X1482439Y-5852422D01*
X1478145Y-5850275D01*
X1473850Y-5845981D01*
X1448939Y-5822359D02*
G01*
X1453234Y-5824506D01*
X1457529Y-5828800D01*
X1459675Y-5835243D01*
X1459675Y-5839537D01*
X1457529Y-5845981D01*
X1453234Y-5850275D01*
X1448939Y-5852422D01*
X1442497Y-5852422D01*
X1438202Y-5850275D01*
X1433906Y-5845981D01*
X1431759Y-5839537D01*
X1431759Y-5835243D01*
X1433906Y-5828800D01*
X1438202Y-5824506D01*
X1442497Y-5822359D01*
X1448939Y-5822359D01*
X1417586Y-5822359D02*
G01*
X1417586Y-5843833D01*
X1415438Y-5850275D01*
X1411144Y-5852422D01*
X1404701Y-5852422D01*
X1400406Y-5850275D01*
X1393963Y-5843833D01*
X1393963Y-5822359D02*
G01*
X1393963Y-5852422D01*
X1356168Y-5828800D02*
G01*
X1358316Y-5824506D01*
X1364759Y-5822359D01*
X1371201Y-5822359D01*
X1377644Y-5824506D01*
X1379790Y-5828800D01*
X1377644Y-5833096D01*
X1373348Y-5835243D01*
X1362610Y-5837390D01*
X1358316Y-5839537D01*
X1356168Y-5843833D01*
X1356168Y-5845981D01*
X1358316Y-5850275D01*
X1364759Y-5852422D01*
X1371201Y-5852422D01*
X1377644Y-5850275D01*
X1379790Y-5845981D01*
X1337700Y-5843833D02*
G01*
X1339848Y-5845981D01*
X1341995Y-5843833D01*
X1339848Y-5841686D01*
X1337700Y-5843833D01*
X1337700Y-5848128D01*
X1341995Y-5852422D01*
X1290456Y-5807325D02*
G01*
X1290456Y-5852422D01*
X1276283Y-5807325D02*
G01*
X1274135Y-5809474D01*
X1271989Y-5807325D01*
X1274135Y-5805178D01*
X1276283Y-5807325D01*
X1274135Y-5822359D02*
G01*
X1274135Y-5852422D01*
X1257815Y-5822359D02*
G01*
X1244930Y-5852422D01*
X1232046Y-5822359D02*
G01*
X1244930Y-5852422D01*
X1217872Y-5807325D02*
G01*
X1215725Y-5809474D01*
X1213577Y-5807325D01*
X1215725Y-5805178D01*
X1217872Y-5807325D01*
X1215725Y-5822359D02*
G01*
X1215725Y-5852422D01*
X1199404Y-5822359D02*
G01*
X1199404Y-5852422D01*
X1199404Y-5830947D02*
G01*
X1192961Y-5824506D01*
X1188666Y-5822359D01*
X1182224Y-5822359D01*
X1177929Y-5824506D01*
X1175781Y-5830947D01*
X1175781Y-5852422D01*
X1135839Y-5822359D02*
G01*
X1135839Y-5856718D01*
X1137987Y-5863159D01*
X1140135Y-5865308D01*
X1144430Y-5867455D01*
X1150871Y-5867455D01*
X1155167Y-5865308D01*
X1135839Y-5828800D02*
G01*
X1140135Y-5824506D01*
X1144430Y-5822359D01*
X1150871Y-5822359D01*
X1155167Y-5824506D01*
X1159462Y-5828800D01*
X1161608Y-5835243D01*
X1161608Y-5839537D01*
X1159462Y-5845981D01*
X1155167Y-5850275D01*
X1150871Y-5852422D01*
X1144430Y-5852422D01*
X1140135Y-5850275D01*
X1135839Y-5845981D01*
X1088595Y-5807325D02*
G01*
X1086448Y-5809474D01*
X1084300Y-5807325D01*
X1086448Y-5805178D01*
X1088595Y-5807325D01*
X1086448Y-5822359D02*
G01*
X1086448Y-5852422D01*
X1070127Y-5822359D02*
G01*
X1070127Y-5852422D01*
X1070127Y-5830947D02*
G01*
X1063684Y-5824506D01*
X1059390Y-5822359D01*
X1052947Y-5822359D01*
X1048653Y-5824506D01*
X1046504Y-5830947D01*
X1046504Y-5852422D01*
X992818Y-5807325D02*
G01*
X992818Y-5843833D01*
X990671Y-5850275D01*
X986377Y-5852422D01*
X982082Y-5852422D01*
X999260Y-5822359D02*
G01*
X984228Y-5822359D01*
X967907Y-5807325D02*
G01*
X967907Y-5852422D01*
X967907Y-5830947D02*
G01*
X961466Y-5824506D01*
X957170Y-5822359D01*
X950729Y-5822359D01*
X946433Y-5824506D01*
X944286Y-5830947D01*
X944286Y-5852422D01*
X930113Y-5807325D02*
G01*
X927965Y-5809474D01*
X925817Y-5807325D01*
X927965Y-5805178D01*
X930113Y-5807325D01*
X927965Y-5822359D02*
G01*
X927965Y-5852422D01*
X888023Y-5828800D02*
G01*
X890169Y-5824506D01*
X896612Y-5822359D01*
X903055Y-5822359D01*
X909498Y-5824506D01*
X911644Y-5828800D01*
X909498Y-5833096D01*
X905203Y-5835243D01*
X894465Y-5837390D01*
X890169Y-5839537D01*
X888023Y-5843833D01*
X888023Y-5845981D01*
X890169Y-5850275D01*
X896612Y-5852422D01*
X903055Y-5852422D01*
X909498Y-5850275D01*
X911644Y-5845981D01*
X834336Y-5807325D02*
G01*
X834336Y-5843833D01*
X832188Y-5850275D01*
X827893Y-5852422D01*
X823599Y-5852422D01*
X840779Y-5822359D02*
G01*
X825747Y-5822359D01*
X809426Y-5822359D02*
G01*
X809426Y-5843833D01*
X807277Y-5850275D01*
X802983Y-5852422D01*
X796540Y-5852422D01*
X792245Y-5850275D01*
X785803Y-5843833D01*
X785803Y-5822359D02*
G01*
X785803Y-5852422D01*
X771630Y-5807325D02*
G01*
X771630Y-5852422D01*
X771630Y-5828800D02*
G01*
X767335Y-5824506D01*
X763041Y-5822359D01*
X756597Y-5822359D01*
X752303Y-5824506D01*
X748009Y-5828800D01*
X745860Y-5835243D01*
X745860Y-5839537D01*
X748009Y-5845981D01*
X752303Y-5850275D01*
X756597Y-5852422D01*
X763041Y-5852422D01*
X767335Y-5850275D01*
X771630Y-5845981D01*
X731687Y-5835243D02*
G01*
X705918Y-5835243D01*
X705918Y-5830947D01*
X708065Y-5826653D01*
X710212Y-5824506D01*
X714508Y-5822359D01*
X720951Y-5822359D01*
X725246Y-5824506D01*
X729540Y-5828800D01*
X731687Y-5835243D01*
X731687Y-5839537D01*
X729540Y-5845981D01*
X725246Y-5850275D01*
X720951Y-5852422D01*
X714508Y-5852422D01*
X710212Y-5850275D01*
X705918Y-5845981D01*
X691745Y-5807325D02*
G01*
X691745Y-5822359D01*
X674565Y-5807325D02*
G01*
X674565Y-5822359D01*
M02*
