G04 Layer: TopSilkLayer*
G04 EasyEDA v6.4.17, 2021-03-16T21:25:48--4:00*
G04 02908657a6854e8f96d385e85a04b694,7db2125e4611476bb2993bf99425ef50,10*
G04 Gerber Generator version 0.2*
G04 Scale: 100 percent, Rotated: No, Reflected: No *
G04 Dimensions in millimeters *
G04 leading zeros omitted , absolute positions ,4 integer and 5 decimal *
%FSLAX45Y45*%
%MOMM*%

%ADD10C,0.2540*%
%ADD32C,0.2032*%
%ADD33C,0.2030*%
%ADD34C,0.2007*%
%ADD35C,0.2000*%
%ADD36C,0.3000*%
%ADD37C,0.1524*%

%LPD*%
D32*
X795273Y-2236215D02*
G01*
X795273Y-2352039D01*
X801878Y-2372613D01*
X815594Y-2379471D01*
X829310Y-2379471D01*
X774700Y-2283968D02*
G01*
X822452Y-2283968D01*
X874268Y-2283968D02*
G01*
X874268Y-2352039D01*
X881126Y-2372613D01*
X894587Y-2379471D01*
X915161Y-2379471D01*
X928877Y-2372613D01*
X949197Y-2352039D01*
X949197Y-2283968D02*
G01*
X949197Y-2379471D01*
X994156Y-2236215D02*
G01*
X994156Y-2379471D01*
X994156Y-2304542D02*
G01*
X1007872Y-2290826D01*
X1021588Y-2283968D01*
X1041908Y-2283968D01*
X1055624Y-2290826D01*
X1069340Y-2304542D01*
X1075943Y-2324862D01*
X1075943Y-2338578D01*
X1069340Y-2358897D01*
X1055624Y-2372613D01*
X1041908Y-2379471D01*
X1021588Y-2379471D01*
X1007872Y-2372613D01*
X994156Y-2358897D01*
X1121156Y-2324862D02*
G01*
X1202943Y-2324862D01*
X1202943Y-2311145D01*
X1196086Y-2297684D01*
X1189227Y-2290826D01*
X1175511Y-2283968D01*
X1155191Y-2283968D01*
X1141475Y-2290826D01*
X1127759Y-2304542D01*
X1121156Y-2324862D01*
X1121156Y-2338578D01*
X1127759Y-2358897D01*
X1141475Y-2372613D01*
X1155191Y-2379471D01*
X1175511Y-2379471D01*
X1189227Y-2372613D01*
X1202943Y-2358897D01*
X1247902Y-2427223D02*
G01*
X1370584Y-2427223D01*
X1490725Y-2283968D02*
G01*
X1415541Y-2379471D01*
X1415541Y-2283968D02*
G01*
X1490725Y-2283968D01*
X1415541Y-2379471D02*
G01*
X1490725Y-2379471D01*
X1535684Y-2236215D02*
G01*
X1535684Y-2379471D01*
X1535684Y-2304542D02*
G01*
X1549145Y-2290826D01*
X1562861Y-2283968D01*
X1583436Y-2283968D01*
X1596897Y-2290826D01*
X1610613Y-2304542D01*
X1617472Y-2324862D01*
X1617472Y-2338578D01*
X1610613Y-2358897D01*
X1596897Y-2372613D01*
X1583436Y-2379471D01*
X1562861Y-2379471D01*
X1549145Y-2372613D01*
X1535684Y-2358897D01*
X1662429Y-2427223D02*
G01*
X1785111Y-2427223D01*
X1911858Y-2283968D02*
G01*
X1911858Y-2392934D01*
X1905254Y-2413507D01*
X1898395Y-2420365D01*
X1884679Y-2427223D01*
X1864359Y-2427223D01*
X1850643Y-2420365D01*
X1911858Y-2304542D02*
G01*
X1898395Y-2290826D01*
X1884679Y-2283968D01*
X1864359Y-2283968D01*
X1850643Y-2290826D01*
X1836927Y-2304542D01*
X1830070Y-2324862D01*
X1830070Y-2338578D01*
X1836927Y-2358897D01*
X1850643Y-2372613D01*
X1864359Y-2379471D01*
X1884679Y-2379471D01*
X1898395Y-2372613D01*
X1911858Y-2358897D01*
X1957070Y-2283968D02*
G01*
X1984247Y-2379471D01*
X2011425Y-2283968D02*
G01*
X1984247Y-2379471D01*
X2011425Y-2283968D02*
G01*
X2038858Y-2379471D01*
X2066036Y-2283968D02*
G01*
X2038858Y-2379471D01*
X2110993Y-2427223D02*
G01*
X2233675Y-2427223D01*
X2278888Y-2324862D02*
G01*
X2360675Y-2324862D01*
X2360675Y-2311145D01*
X2353818Y-2297684D01*
X2346959Y-2290826D01*
X2333243Y-2283968D01*
X2312924Y-2283968D01*
X2299208Y-2290826D01*
X2285491Y-2304542D01*
X2278888Y-2324862D01*
X2278888Y-2338578D01*
X2285491Y-2358897D01*
X2299208Y-2372613D01*
X2312924Y-2379471D01*
X2333243Y-2379471D01*
X2346959Y-2372613D01*
X2360675Y-2358897D01*
X2460243Y-2236215D02*
G01*
X2446527Y-2236215D01*
X2432811Y-2243073D01*
X2425954Y-2263394D01*
X2425954Y-2379471D01*
X2405634Y-2283968D02*
G01*
X2453386Y-2283968D01*
X2505202Y-2283968D02*
G01*
X2505202Y-2379471D01*
X2505202Y-2324862D02*
G01*
X2512059Y-2304542D01*
X2525522Y-2290826D01*
X2539238Y-2283968D01*
X2559811Y-2283968D01*
X2618231Y-2236215D02*
G01*
X2693415Y-2236215D01*
X2652522Y-2290826D01*
X2672841Y-2290826D01*
X2686558Y-2297684D01*
X2693415Y-2304542D01*
X2700274Y-2324862D01*
X2700274Y-2338578D01*
X2693415Y-2358897D01*
X2679700Y-2372613D01*
X2659125Y-2379471D01*
X2638806Y-2379471D01*
X2618231Y-2372613D01*
X2611627Y-2365755D01*
X2604770Y-2352039D01*
X2752090Y-2270252D02*
G01*
X2752090Y-2263394D01*
X2758693Y-2249931D01*
X2765552Y-2243073D01*
X2779268Y-2236215D01*
X2806445Y-2236215D01*
X2820161Y-2243073D01*
X2827020Y-2249931D01*
X2833877Y-2263394D01*
X2833877Y-2277110D01*
X2827020Y-2290826D01*
X2813304Y-2311145D01*
X2745231Y-2379471D01*
X2840481Y-2379471D01*
X2990595Y-2283968D02*
G01*
X3031490Y-2379471D01*
X3072384Y-2283968D02*
G01*
X3031490Y-2379471D01*
X3124200Y-2270252D02*
G01*
X3124200Y-2263394D01*
X3131058Y-2249931D01*
X3137915Y-2243073D01*
X3151631Y-2236215D01*
X3178809Y-2236215D01*
X3192525Y-2243073D01*
X3199129Y-2249931D01*
X3205988Y-2263394D01*
X3205988Y-2277110D01*
X3199129Y-2290826D01*
X3185668Y-2311145D01*
X3117341Y-2379471D01*
X3212845Y-2379471D01*
X3264661Y-2345436D02*
G01*
X3257804Y-2352039D01*
X3264661Y-2358897D01*
X3271520Y-2352039D01*
X3264661Y-2345436D01*
X3316477Y-2263394D02*
G01*
X3330193Y-2256789D01*
X3350513Y-2236215D01*
X3350513Y-2379471D01*
X3500627Y-2236215D02*
G01*
X3500627Y-2379471D01*
X3500627Y-2236215D02*
G01*
X3561841Y-2236215D01*
X3582415Y-2243073D01*
X3589274Y-2249931D01*
X3596131Y-2263394D01*
X3596131Y-2283968D01*
X3589274Y-2297684D01*
X3582415Y-2304542D01*
X3561841Y-2311145D01*
X3500627Y-2311145D01*
X3641090Y-2283968D02*
G01*
X3641090Y-2379471D01*
X3641090Y-2324862D02*
G01*
X3647947Y-2304542D01*
X3661409Y-2290826D01*
X3675125Y-2283968D01*
X3695700Y-2283968D01*
X3774693Y-2283968D02*
G01*
X3760977Y-2290826D01*
X3747515Y-2304542D01*
X3740658Y-2324862D01*
X3740658Y-2338578D01*
X3747515Y-2358897D01*
X3760977Y-2372613D01*
X3774693Y-2379471D01*
X3795268Y-2379471D01*
X3808729Y-2372613D01*
X3822445Y-2358897D01*
X3829304Y-2338578D01*
X3829304Y-2324862D01*
X3822445Y-2304542D01*
X3808729Y-2290826D01*
X3795268Y-2283968D01*
X3774693Y-2283968D01*
X5412231Y1938528D02*
G01*
X5421375Y1942845D01*
X5430265Y1951989D01*
X5434838Y1961134D01*
X5434838Y1979421D01*
X5430265Y1988312D01*
X5421375Y1997455D01*
X5412231Y2002028D01*
X5398515Y2006600D01*
X5375909Y2006600D01*
X5362193Y2002028D01*
X5353050Y1997455D01*
X5343906Y1988312D01*
X5339334Y1979421D01*
X5339334Y1961134D01*
X5343906Y1951989D01*
X5353050Y1942845D01*
X5362193Y1938528D01*
X5434838Y1908302D02*
G01*
X5339334Y1908302D01*
X5339334Y1908302D02*
G01*
X5339334Y1853945D01*
X5434838Y1823973D02*
G01*
X5339334Y1823973D01*
X5434838Y1760220D02*
G01*
X5371338Y1823973D01*
X5393943Y1801113D02*
G01*
X5339334Y1760220D01*
X5155438Y1993900D02*
G01*
X5059934Y1993900D01*
X5155438Y1993900D02*
G01*
X5155438Y1962150D01*
X5150865Y1948434D01*
X5141975Y1939289D01*
X5132831Y1934718D01*
X5119115Y1930145D01*
X5096509Y1930145D01*
X5082793Y1934718D01*
X5073650Y1939289D01*
X5064506Y1948434D01*
X5059934Y1962150D01*
X5059934Y1993900D01*
X5155438Y1900173D02*
G01*
X5059934Y1900173D01*
X5155438Y1843023D02*
G01*
X5150865Y1852168D01*
X5141975Y1861057D01*
X5132831Y1865629D01*
X5119115Y1870202D01*
X5096509Y1870202D01*
X5082793Y1865629D01*
X5073650Y1861057D01*
X5064506Y1852168D01*
X5059934Y1843023D01*
X5059934Y1824736D01*
X5064506Y1815592D01*
X5073650Y1806702D01*
X5082793Y1802129D01*
X5096509Y1797557D01*
X5119115Y1797557D01*
X5132831Y1802129D01*
X5141975Y1806702D01*
X5150865Y1815592D01*
X5155438Y1824736D01*
X5155438Y1843023D01*
X5663438Y2006600D02*
G01*
X5567934Y2006600D01*
X5663438Y2006600D02*
G01*
X5663438Y1965705D01*
X5658865Y1951989D01*
X5654293Y1947418D01*
X5645404Y1942845D01*
X5631688Y1942845D01*
X5622543Y1947418D01*
X5617972Y1951989D01*
X5613400Y1965705D01*
X5613400Y2006600D01*
X5663438Y1876552D02*
G01*
X5567934Y1912873D01*
X5663438Y1876552D02*
G01*
X5567934Y1840229D01*
X5599938Y1899412D02*
G01*
X5599938Y1853945D01*
X5663438Y1783079D02*
G01*
X5658865Y1796542D01*
X5645404Y1805686D01*
X5622543Y1810257D01*
X5609081Y1810257D01*
X5586222Y1805686D01*
X5572506Y1796542D01*
X5567934Y1783079D01*
X5567934Y1773936D01*
X5572506Y1760220D01*
X5586222Y1751076D01*
X5609081Y1746504D01*
X5622543Y1746504D01*
X5645404Y1751076D01*
X5658865Y1760220D01*
X5663438Y1773936D01*
X5663438Y1783079D01*
X5663438Y1689354D02*
G01*
X5658865Y1703070D01*
X5645404Y1711960D01*
X5622543Y1716531D01*
X5609081Y1716531D01*
X5586222Y1711960D01*
X5572506Y1703070D01*
X5567934Y1689354D01*
X5567934Y1680210D01*
X5572506Y1666494D01*
X5586222Y1657604D01*
X5609081Y1653031D01*
X5622543Y1653031D01*
X5645404Y1657604D01*
X5658865Y1666494D01*
X5663438Y1680210D01*
X5663438Y1689354D01*
X5917438Y1993900D02*
G01*
X5821934Y1993900D01*
X5917438Y1993900D02*
G01*
X5917438Y1953005D01*
X5912865Y1939289D01*
X5908293Y1934718D01*
X5899404Y1930145D01*
X5885688Y1930145D01*
X5876543Y1934718D01*
X5871972Y1939289D01*
X5867400Y1953005D01*
X5867400Y1993900D01*
X5917438Y1863852D02*
G01*
X5821934Y1900173D01*
X5917438Y1863852D02*
G01*
X5821934Y1827529D01*
X5853938Y1886712D02*
G01*
X5853938Y1841245D01*
X5917438Y1770379D02*
G01*
X5912865Y1783842D01*
X5899404Y1792986D01*
X5876543Y1797557D01*
X5863081Y1797557D01*
X5840222Y1792986D01*
X5826506Y1783842D01*
X5821934Y1770379D01*
X5821934Y1761236D01*
X5826506Y1747520D01*
X5840222Y1738376D01*
X5863081Y1733804D01*
X5876543Y1733804D01*
X5899404Y1738376D01*
X5912865Y1747520D01*
X5917438Y1761236D01*
X5917438Y1770379D01*
X5917438Y1658365D02*
G01*
X5853938Y1703831D01*
X5853938Y1635760D01*
X5917438Y1658365D02*
G01*
X5821934Y1658365D01*
X6183375Y1930145D02*
G01*
X6192265Y1939289D01*
X6196838Y1953005D01*
X6196838Y1971294D01*
X6192265Y1984755D01*
X6183375Y1993900D01*
X6174231Y1993900D01*
X6165088Y1989328D01*
X6160515Y1984755D01*
X6155943Y1975612D01*
X6146800Y1948434D01*
X6142481Y1939289D01*
X6137909Y1934718D01*
X6128765Y1930145D01*
X6115050Y1930145D01*
X6105906Y1939289D01*
X6101334Y1953005D01*
X6101334Y1971294D01*
X6105906Y1984755D01*
X6115050Y1993900D01*
X6196838Y1900173D02*
G01*
X6101334Y1877568D01*
X6196838Y1854707D02*
G01*
X6101334Y1877568D01*
X6196838Y1854707D02*
G01*
X6101334Y1832102D01*
X6196838Y1809242D02*
G01*
X6101334Y1832102D01*
X6196838Y1752092D02*
G01*
X6192265Y1761236D01*
X6183375Y1770379D01*
X6174231Y1774697D01*
X6160515Y1779270D01*
X6137909Y1779270D01*
X6124193Y1774697D01*
X6115050Y1770379D01*
X6105906Y1761236D01*
X6101334Y1752092D01*
X6101334Y1733804D01*
X6105906Y1724913D01*
X6115050Y1715770D01*
X6124193Y1711197D01*
X6137909Y1706626D01*
X6160515Y1706626D01*
X6174231Y1711197D01*
X6183375Y1715770D01*
X6192265Y1724913D01*
X6196838Y1733804D01*
X6196838Y1752092D01*
X6419088Y1943862D02*
G01*
X6355334Y1993900D01*
X6419088Y1993900D02*
G01*
X6419088Y1943862D01*
X6355334Y1993900D02*
G01*
X6355334Y1943862D01*
X6450838Y1913889D02*
G01*
X6355334Y1913889D01*
X6450838Y1913889D02*
G01*
X6450838Y1872995D01*
X6446265Y1859279D01*
X6441693Y1854707D01*
X6432804Y1850389D01*
X6423659Y1850389D01*
X6414515Y1854707D01*
X6409943Y1859279D01*
X6405372Y1872995D01*
X6405372Y1913889D01*
X6405372Y1882139D02*
G01*
X6355334Y1850389D01*
X6437375Y1756663D02*
G01*
X6446265Y1765807D01*
X6450838Y1779270D01*
X6450838Y1797557D01*
X6446265Y1811273D01*
X6437375Y1820163D01*
X6428231Y1820163D01*
X6419088Y1815592D01*
X6414515Y1811273D01*
X6409943Y1802129D01*
X6400800Y1774697D01*
X6396481Y1765807D01*
X6391909Y1761236D01*
X6382765Y1756663D01*
X6369050Y1756663D01*
X6359906Y1765807D01*
X6355334Y1779270D01*
X6355334Y1797557D01*
X6359906Y1811273D01*
X6369050Y1820163D01*
X6450838Y1694687D02*
G01*
X6355334Y1694687D01*
X6450838Y1726692D02*
G01*
X6450838Y1662937D01*
X3788409Y-1041400D02*
G01*
X3788409Y-1096010D01*
X3797300Y-1096010D01*
X3806443Y-1091437D01*
X3811015Y-1086865D01*
X3815588Y-1077721D01*
X3815588Y-1064005D01*
X3811015Y-1055115D01*
X3801872Y-1045971D01*
X3788409Y-1041400D01*
X3779265Y-1041400D01*
X3765550Y-1045971D01*
X3756406Y-1055115D01*
X3751834Y-1064005D01*
X3751834Y-1077721D01*
X3756406Y-1086865D01*
X3765550Y-1096010D01*
X3815588Y-1176020D02*
G01*
X3751834Y-1125981D01*
X3815588Y-1125981D02*
G01*
X3815588Y-1176020D01*
X3751834Y-1125981D02*
G01*
X3751834Y-1176020D01*
X3847338Y-1205992D02*
G01*
X3751834Y-1205992D01*
X3847338Y-1205992D02*
G01*
X3847338Y-1246886D01*
X3842765Y-1260602D01*
X3838193Y-1264920D01*
X3829304Y-1269492D01*
X3820159Y-1269492D01*
X3811015Y-1264920D01*
X3806443Y-1260602D01*
X3801872Y-1246886D01*
X3801872Y-1205992D01*
X3801872Y-1237742D02*
G01*
X3751834Y-1269492D01*
X3847338Y-1299463D02*
G01*
X3751834Y-1363218D01*
X3847338Y-1363218D02*
G01*
X3751834Y-1299463D01*
X4056888Y-1091437D02*
G01*
X3993134Y-1041400D01*
X4056888Y-1041400D02*
G01*
X4056888Y-1091437D01*
X3993134Y-1041400D02*
G01*
X3993134Y-1091437D01*
X4088638Y-1121410D02*
G01*
X3993134Y-1121410D01*
X4088638Y-1121410D02*
G01*
X4088638Y-1162304D01*
X4084065Y-1176020D01*
X4079493Y-1180592D01*
X4070604Y-1184910D01*
X4061459Y-1184910D01*
X4052315Y-1180592D01*
X4047743Y-1176020D01*
X4043172Y-1162304D01*
X4043172Y-1121410D01*
X4043172Y-1153160D02*
G01*
X3993134Y-1184910D01*
X4088638Y-1215136D02*
G01*
X3993134Y-1278636D01*
X4088638Y-1278636D02*
G01*
X3993134Y-1215136D01*
X4329175Y-1092454D02*
G01*
X4338065Y-1083310D01*
X4342638Y-1069594D01*
X4342638Y-1051305D01*
X4338065Y-1037844D01*
X4329175Y-1028700D01*
X4320031Y-1028700D01*
X4310888Y-1033271D01*
X4306315Y-1037844D01*
X4301743Y-1046987D01*
X4292600Y-1074165D01*
X4288281Y-1083310D01*
X4283709Y-1087881D01*
X4274565Y-1092454D01*
X4260850Y-1092454D01*
X4251706Y-1083310D01*
X4247134Y-1069594D01*
X4247134Y-1051305D01*
X4251706Y-1037844D01*
X4260850Y-1028700D01*
X4342638Y-1122426D02*
G01*
X4247134Y-1122426D01*
X4342638Y-1122426D02*
G01*
X4342638Y-1163320D01*
X4338065Y-1176781D01*
X4333493Y-1181354D01*
X4324604Y-1185926D01*
X4315459Y-1185926D01*
X4306315Y-1181354D01*
X4301743Y-1176781D01*
X4297172Y-1163320D01*
X4297172Y-1122426D01*
X4297172Y-1154176D02*
G01*
X4247134Y-1185926D01*
X4342638Y-1215897D02*
G01*
X4247134Y-1279652D01*
X4342638Y-1279652D02*
G01*
X4247134Y-1215897D01*
X4622038Y-1041400D02*
G01*
X4526534Y-1041400D01*
X4622038Y-1041400D02*
G01*
X4622038Y-1100581D01*
X4576572Y-1041400D02*
G01*
X4576572Y-1077721D01*
X4526534Y-1041400D02*
G01*
X4526534Y-1100581D01*
X4622038Y-1130554D02*
G01*
X4526534Y-1130554D01*
X4622038Y-1130554D02*
G01*
X4622038Y-1171447D01*
X4617465Y-1184910D01*
X4612893Y-1189481D01*
X4604004Y-1194054D01*
X4594859Y-1194054D01*
X4585715Y-1189481D01*
X4581143Y-1184910D01*
X4576572Y-1171447D01*
X4576572Y-1130554D01*
X4576572Y-1162304D02*
G01*
X4526534Y-1194054D01*
X4622038Y-1224026D02*
G01*
X4526534Y-1287779D01*
X4622038Y-1287779D02*
G01*
X4526534Y-1224026D01*
X3788409Y0D02*
G01*
X3788409Y-54610D01*
X3797300Y-54610D01*
X3806443Y-50037D01*
X3811015Y-45465D01*
X3815588Y-36321D01*
X3815588Y-22605D01*
X3811015Y-13715D01*
X3801872Y-4571D01*
X3788409Y0D01*
X3779265Y0D01*
X3765550Y-4571D01*
X3756406Y-13715D01*
X3751834Y-22605D01*
X3751834Y-36321D01*
X3756406Y-45465D01*
X3765550Y-54610D01*
X3815588Y-134620D02*
G01*
X3751834Y-84581D01*
X3815588Y-84581D02*
G01*
X3815588Y-134620D01*
X3751834Y-84581D02*
G01*
X3751834Y-134620D01*
X3847338Y-196342D02*
G01*
X3751834Y-196342D01*
X3847338Y-164592D02*
G01*
X3847338Y-228092D01*
X3847338Y-258063D02*
G01*
X3751834Y-321818D01*
X3847338Y-321818D02*
G01*
X3751834Y-258063D01*
X4056888Y-50037D02*
G01*
X3993134Y0D01*
X4056888Y0D02*
G01*
X4056888Y-50037D01*
X3993134Y0D02*
G01*
X3993134Y-50037D01*
X4088638Y-111760D02*
G01*
X3993134Y-111760D01*
X4088638Y-80010D02*
G01*
X4088638Y-143510D01*
X4088638Y-173736D02*
G01*
X3993134Y-237236D01*
X4088638Y-237236D02*
G01*
X3993134Y-173736D01*
X4329175Y-51054D02*
G01*
X4338065Y-41910D01*
X4342638Y-28194D01*
X4342638Y-9905D01*
X4338065Y3555D01*
X4329175Y12700D01*
X4320031Y12700D01*
X4310888Y8128D01*
X4306315Y3555D01*
X4301743Y-5587D01*
X4292600Y-32765D01*
X4288281Y-41910D01*
X4283709Y-46481D01*
X4274565Y-51054D01*
X4260850Y-51054D01*
X4251706Y-41910D01*
X4247134Y-28194D01*
X4247134Y-9905D01*
X4251706Y3555D01*
X4260850Y12700D01*
X4342638Y-112776D02*
G01*
X4247134Y-112776D01*
X4342638Y-81026D02*
G01*
X4342638Y-144526D01*
X4342638Y-174497D02*
G01*
X4247134Y-238252D01*
X4342638Y-238252D02*
G01*
X4247134Y-174497D01*
X4622038Y0D02*
G01*
X4526534Y0D01*
X4622038Y0D02*
G01*
X4622038Y-59181D01*
X4576572Y0D02*
G01*
X4576572Y-36321D01*
X4526534Y0D02*
G01*
X4526534Y-59181D01*
X4622038Y-120904D02*
G01*
X4526534Y-120904D01*
X4622038Y-89154D02*
G01*
X4622038Y-152654D01*
X4622038Y-182626D02*
G01*
X4526534Y-246379D01*
X4622038Y-246379D02*
G01*
X4526534Y-182626D01*
X228600Y-178562D02*
G01*
X228600Y-297942D01*
X300228Y-178562D02*
G01*
X288797Y-184404D01*
X277368Y-195834D01*
X271779Y-207010D01*
X266192Y-224028D01*
X266192Y-252476D01*
X271779Y-269494D01*
X277368Y-280923D01*
X288797Y-292354D01*
X300228Y-297942D01*
X322834Y-297942D01*
X334263Y-292354D01*
X345694Y-280923D01*
X351281Y-269494D01*
X357123Y-252476D01*
X357123Y-224028D01*
X351281Y-207010D01*
X345694Y-195834D01*
X334263Y-184404D01*
X322834Y-178562D01*
X300228Y-178562D01*
X428497Y-178562D02*
G01*
X411479Y-184404D01*
X400304Y-201421D01*
X394462Y-229870D01*
X394462Y-246887D01*
X400304Y-275336D01*
X411479Y-292354D01*
X428497Y-297942D01*
X439928Y-297942D01*
X456945Y-292354D01*
X468376Y-275336D01*
X473963Y-246887D01*
X473963Y-229870D01*
X468376Y-201421D01*
X456945Y-184404D01*
X439928Y-178562D01*
X428497Y-178562D01*
X263144Y21589D02*
G01*
X257302Y32765D01*
X245871Y44195D01*
X234695Y50037D01*
X211836Y50037D01*
X200405Y44195D01*
X189229Y32765D01*
X183387Y21589D01*
X177800Y4571D01*
X177800Y-23876D01*
X183387Y-40894D01*
X189229Y-52323D01*
X200405Y-63754D01*
X211836Y-69342D01*
X234695Y-69342D01*
X245871Y-63754D01*
X257302Y-52323D01*
X263144Y-40894D01*
X263144Y-23876D01*
X234695Y-23876D02*
G01*
X263144Y-23876D01*
X300481Y50037D02*
G01*
X300481Y-69342D01*
X300481Y50037D02*
G01*
X379984Y-69342D01*
X379984Y50037D02*
G01*
X379984Y-69342D01*
X417576Y50037D02*
G01*
X417576Y-69342D01*
X417576Y50037D02*
G01*
X457454Y50037D01*
X474471Y44195D01*
X485647Y32765D01*
X491489Y21589D01*
X497078Y4571D01*
X497078Y-23876D01*
X491489Y-40894D01*
X485647Y-52323D01*
X474471Y-63754D01*
X457454Y-69342D01*
X417576Y-69342D01*
X190500Y304037D02*
G01*
X235965Y184657D01*
X281431Y304037D02*
G01*
X235965Y184657D01*
X404113Y275589D02*
G01*
X398526Y286765D01*
X387095Y298195D01*
X375665Y304037D01*
X353060Y304037D01*
X341629Y298195D01*
X330200Y286765D01*
X324612Y275589D01*
X319023Y258571D01*
X319023Y230123D01*
X324612Y213105D01*
X330200Y201676D01*
X341629Y190245D01*
X353060Y184657D01*
X375665Y184657D01*
X387095Y190245D01*
X398526Y201676D01*
X404113Y213105D01*
X526795Y275589D02*
G01*
X521207Y286765D01*
X509778Y298195D01*
X498347Y304037D01*
X475742Y304037D01*
X464312Y298195D01*
X452881Y286765D01*
X447294Y275589D01*
X441705Y258571D01*
X441705Y230123D01*
X447294Y213105D01*
X452881Y201676D01*
X464312Y190245D01*
X475742Y184657D01*
X498347Y184657D01*
X509778Y190245D01*
X521207Y201676D01*
X526795Y213105D01*
X5599938Y-1485900D02*
G01*
X5504434Y-1485900D01*
X5599938Y-1485900D02*
G01*
X5599938Y-1526794D01*
X5595365Y-1540510D01*
X5590793Y-1545081D01*
X5581904Y-1549654D01*
X5568188Y-1549654D01*
X5559043Y-1545081D01*
X5554472Y-1540510D01*
X5549900Y-1526794D01*
X5549900Y-1485900D01*
X5577331Y-1647697D02*
G01*
X5586475Y-1643126D01*
X5595365Y-1633981D01*
X5599938Y-1625092D01*
X5599938Y-1606804D01*
X5595365Y-1597660D01*
X5586475Y-1588515D01*
X5577331Y-1584197D01*
X5563615Y-1579626D01*
X5541009Y-1579626D01*
X5527293Y-1584197D01*
X5518150Y-1588515D01*
X5509006Y-1597660D01*
X5504434Y-1606804D01*
X5504434Y-1625092D01*
X5509006Y-1633981D01*
X5518150Y-1643126D01*
X5527293Y-1647697D01*
X5599938Y-1705102D02*
G01*
X5595365Y-1691386D01*
X5581904Y-1682242D01*
X5559043Y-1677670D01*
X5545581Y-1677670D01*
X5522722Y-1682242D01*
X5509006Y-1691386D01*
X5504434Y-1705102D01*
X5504434Y-1713992D01*
X5509006Y-1727707D01*
X5522722Y-1736852D01*
X5545581Y-1741423D01*
X5559043Y-1741423D01*
X5581904Y-1736852D01*
X5595365Y-1727707D01*
X5599938Y-1713992D01*
X5599938Y-1705102D01*
X5599938Y-1816862D02*
G01*
X5536438Y-1771395D01*
X5536438Y-1839468D01*
X5599938Y-1816862D02*
G01*
X5504434Y-1816862D01*
X5841238Y-1447800D02*
G01*
X5745734Y-1447800D01*
X5841238Y-1447800D02*
G01*
X5841238Y-1488694D01*
X5836665Y-1502410D01*
X5832093Y-1506981D01*
X5823204Y-1511554D01*
X5809488Y-1511554D01*
X5800343Y-1506981D01*
X5795772Y-1502410D01*
X5791200Y-1488694D01*
X5791200Y-1447800D01*
X5818631Y-1609597D02*
G01*
X5827775Y-1605026D01*
X5836665Y-1595881D01*
X5841238Y-1586992D01*
X5841238Y-1568704D01*
X5836665Y-1559560D01*
X5827775Y-1550415D01*
X5818631Y-1546097D01*
X5804915Y-1541526D01*
X5782309Y-1541526D01*
X5768593Y-1546097D01*
X5759450Y-1550415D01*
X5750306Y-1559560D01*
X5745734Y-1568704D01*
X5745734Y-1586992D01*
X5750306Y-1595881D01*
X5759450Y-1605026D01*
X5768593Y-1609597D01*
X5841238Y-1667002D02*
G01*
X5836665Y-1653286D01*
X5823204Y-1644142D01*
X5800343Y-1639570D01*
X5786881Y-1639570D01*
X5764022Y-1644142D01*
X5750306Y-1653286D01*
X5745734Y-1667002D01*
X5745734Y-1675892D01*
X5750306Y-1689607D01*
X5764022Y-1698752D01*
X5786881Y-1703323D01*
X5800343Y-1703323D01*
X5823204Y-1698752D01*
X5836665Y-1689607D01*
X5841238Y-1675892D01*
X5841238Y-1667002D01*
X5841238Y-1787905D02*
G01*
X5841238Y-1742439D01*
X5800343Y-1737868D01*
X5804915Y-1742439D01*
X5809488Y-1755902D01*
X5809488Y-1769618D01*
X5804915Y-1783334D01*
X5795772Y-1792223D01*
X5782309Y-1796795D01*
X5773165Y-1796795D01*
X5759450Y-1792223D01*
X5750306Y-1783334D01*
X5745734Y-1769618D01*
X5745734Y-1755902D01*
X5750306Y-1742439D01*
X5754877Y-1737868D01*
X5764022Y-1733295D01*
D37*
X5692978Y3670807D02*
G01*
X5687644Y3681221D01*
X5677230Y3691636D01*
X5667070Y3696715D01*
X5646242Y3696715D01*
X5635828Y3691636D01*
X5625414Y3681221D01*
X5620080Y3670807D01*
X5615000Y3655060D01*
X5615000Y3629152D01*
X5620080Y3613657D01*
X5625414Y3603244D01*
X5635828Y3592829D01*
X5646242Y3587750D01*
X5667070Y3587750D01*
X5677230Y3592829D01*
X5687644Y3603244D01*
X5692978Y3613657D01*
X5727268Y3675887D02*
G01*
X5737682Y3681221D01*
X5753176Y3696715D01*
X5753176Y3587750D01*
X5787466Y3675887D02*
G01*
X5797880Y3681221D01*
X5813374Y3696715D01*
X5813374Y3587750D01*
X4445254Y3164839D02*
G01*
X4523231Y3164839D01*
X4538725Y3169920D01*
X4549140Y3180334D01*
X4554220Y3196081D01*
X4554220Y3206495D01*
X4549140Y3221989D01*
X4538725Y3232404D01*
X4523231Y3237484D01*
X4445254Y3237484D01*
X4445254Y3282187D02*
G01*
X4445254Y3339337D01*
X4486909Y3308350D01*
X4486909Y3323844D01*
X4491990Y3334257D01*
X4497070Y3339337D01*
X4512818Y3344671D01*
X4523231Y3344671D01*
X4538725Y3339337D01*
X4549140Y3328923D01*
X4554220Y3313429D01*
X4554220Y3297936D01*
X4549140Y3282187D01*
X4544059Y3277107D01*
X4533645Y3271773D01*
D32*
X2120986Y2345944D02*
G01*
X2120986Y2193036D01*
X2120986Y2193036D02*
G01*
X2208362Y2193036D01*
X2256368Y2345944D02*
G01*
X2256368Y2193036D01*
X2304374Y2345944D02*
G01*
X2304374Y2193036D01*
X2304374Y2345944D02*
G01*
X2405974Y2193036D01*
X2405974Y2345944D02*
G01*
X2405974Y2193036D01*
X2453980Y2345944D02*
G01*
X2453980Y2193036D01*
X2555834Y2345944D02*
G01*
X2453980Y2244089D01*
X2490556Y2280412D02*
G01*
X2555834Y2193036D01*
X2208362Y2089828D02*
G01*
X2135464Y2089828D01*
X2128352Y2024296D01*
X2135464Y2031662D01*
X2157308Y2038774D01*
X2179152Y2038774D01*
X2200996Y2031662D01*
X2215474Y2016930D01*
X2222840Y1995086D01*
X2222840Y1980608D01*
X2215474Y1958764D01*
X2200996Y1944286D01*
X2179152Y1936920D01*
X2157308Y1936920D01*
X2135464Y1944286D01*
X2128352Y1951652D01*
X2120986Y1966130D01*
X2270846Y2089828D02*
G01*
X2329012Y1936920D01*
X2387178Y2089828D02*
G01*
X2329012Y1936920D01*
X2229952Y1797133D02*
G01*
X2222840Y1811865D01*
X2208362Y1826343D01*
X2193630Y1833709D01*
X2164674Y1833709D01*
X2150196Y1826343D01*
X2135464Y1811865D01*
X2128352Y1797133D01*
X2120986Y1775543D01*
X2120986Y1738967D01*
X2128352Y1717377D01*
X2135464Y1702645D01*
X2150196Y1688167D01*
X2164674Y1680801D01*
X2193630Y1680801D01*
X2208362Y1688167D01*
X2222840Y1702645D01*
X2229952Y1717377D01*
X2229952Y1738967D01*
X2193630Y1738967D02*
G01*
X2229952Y1738967D01*
X2277958Y1833709D02*
G01*
X2277958Y1680801D01*
X2277958Y1833709D02*
G01*
X2379812Y1680801D01*
X2379812Y1833709D02*
G01*
X2379812Y1680801D01*
X2427818Y1833709D02*
G01*
X2427818Y1680801D01*
X2427818Y1833709D02*
G01*
X2478872Y1833709D01*
X2500716Y1826343D01*
X2515194Y1811865D01*
X2522560Y1797133D01*
X2529672Y1775543D01*
X2529672Y1738967D01*
X2522560Y1717377D01*
X2515194Y1702645D01*
X2500716Y1688167D01*
X2478872Y1680801D01*
X2427818Y1680801D01*
X2135464Y1577594D02*
G01*
X2215474Y1577594D01*
X2171786Y1519428D01*
X2193630Y1519428D01*
X2208362Y1512062D01*
X2215474Y1504695D01*
X2222840Y1482852D01*
X2222840Y1468373D01*
X2215474Y1446529D01*
X2200996Y1432052D01*
X2179152Y1424686D01*
X2157308Y1424686D01*
X2135464Y1432052D01*
X2128352Y1439418D01*
X2120986Y1453895D01*
X2277958Y1461262D02*
G01*
X2270846Y1453895D01*
X2277958Y1446529D01*
X2285324Y1453895D01*
X2277958Y1461262D01*
X2347808Y1577594D02*
G01*
X2427818Y1577594D01*
X2384384Y1519428D01*
X2405974Y1519428D01*
X2420706Y1512062D01*
X2427818Y1504695D01*
X2435184Y1482852D01*
X2435184Y1468373D01*
X2427818Y1446529D01*
X2413340Y1432052D01*
X2391496Y1424686D01*
X2369652Y1424686D01*
X2347808Y1432052D01*
X2340696Y1439418D01*
X2333330Y1453895D01*
X2483190Y1577594D02*
G01*
X2541356Y1424686D01*
X2599522Y1577594D02*
G01*
X2541356Y1424686D01*
X2229952Y1284902D02*
G01*
X2222840Y1299634D01*
X2208362Y1314112D01*
X2193630Y1321478D01*
X2164674Y1321478D01*
X2150196Y1314112D01*
X2135464Y1299634D01*
X2128352Y1284902D01*
X2120986Y1263312D01*
X2120986Y1226736D01*
X2128352Y1205146D01*
X2135464Y1190414D01*
X2150196Y1175936D01*
X2164674Y1168570D01*
X2193630Y1168570D01*
X2208362Y1175936D01*
X2222840Y1190414D01*
X2229952Y1205146D01*
X2229952Y1226736D01*
X2193630Y1226736D02*
G01*
X2229952Y1226736D01*
X2277958Y1321478D02*
G01*
X2277958Y1168570D01*
X2277958Y1321478D02*
G01*
X2379812Y1168570D01*
X2379812Y1321478D02*
G01*
X2379812Y1168570D01*
X2427818Y1321478D02*
G01*
X2427818Y1168570D01*
X2427818Y1321478D02*
G01*
X2478872Y1321478D01*
X2500716Y1314112D01*
X2515194Y1299634D01*
X2522560Y1284902D01*
X2529672Y1263312D01*
X2529672Y1226736D01*
X2522560Y1205146D01*
X2515194Y1190414D01*
X2500716Y1175936D01*
X2478872Y1168570D01*
X2427818Y1168570D01*
X2230036Y1028951D02*
G01*
X2222924Y1043429D01*
X2208192Y1057907D01*
X2193714Y1065273D01*
X2164504Y1065273D01*
X2150026Y1057907D01*
X2135548Y1043429D01*
X2128182Y1028951D01*
X2121070Y1007107D01*
X2121070Y970785D01*
X2128182Y948941D01*
X2135548Y934463D01*
X2150026Y919731D01*
X2164504Y912619D01*
X2193714Y912619D01*
X2208192Y919731D01*
X2222924Y934463D01*
X2230036Y948941D01*
X2230036Y970785D01*
X2193714Y970785D02*
G01*
X2230036Y970785D01*
X2278042Y1065273D02*
G01*
X2278042Y912619D01*
X2278042Y1065273D02*
G01*
X2343574Y1065273D01*
X2365418Y1057907D01*
X2372530Y1050795D01*
X2379896Y1036063D01*
X2379896Y1014473D01*
X2372530Y999741D01*
X2365418Y992629D01*
X2343574Y985263D01*
X2278042Y985263D01*
X2427902Y1065273D02*
G01*
X2427902Y912619D01*
X2519596Y1065273D02*
G01*
X2504864Y1057907D01*
X2490386Y1043429D01*
X2483274Y1028951D01*
X2475908Y1007107D01*
X2475908Y970785D01*
X2483274Y948941D01*
X2490386Y934463D01*
X2504864Y919731D01*
X2519596Y912619D01*
X2548552Y912619D01*
X2563284Y919731D01*
X2577762Y934463D01*
X2584874Y948941D01*
X2592240Y970785D01*
X2592240Y1007107D01*
X2584874Y1028951D01*
X2577762Y1043429D01*
X2563284Y1057907D01*
X2548552Y1065273D01*
X2519596Y1065273D01*
X2683934Y1065273D02*
G01*
X2662090Y1057907D01*
X2647612Y1036063D01*
X2640246Y999741D01*
X2640246Y977897D01*
X2647612Y941575D01*
X2662090Y919731D01*
X2683934Y912619D01*
X2698412Y912619D01*
X2720256Y919731D01*
X2734734Y941575D01*
X2742100Y977897D01*
X2742100Y999741D01*
X2734734Y1036063D01*
X2720256Y1057907D01*
X2698412Y1065273D01*
X2683934Y1065273D01*
X2790106Y1036063D02*
G01*
X2804584Y1043429D01*
X2826428Y1065273D01*
X2826428Y912619D01*
X2229952Y772835D02*
G01*
X2222840Y787313D01*
X2208362Y801791D01*
X2193630Y809157D01*
X2164674Y809157D01*
X2150196Y801791D01*
X2135464Y787313D01*
X2128352Y772835D01*
X2120986Y750991D01*
X2120986Y714669D01*
X2128352Y692825D01*
X2135464Y678347D01*
X2150196Y663615D01*
X2164674Y656503D01*
X2193630Y656503D01*
X2208362Y663615D01*
X2222840Y678347D01*
X2229952Y692825D01*
X2229952Y714669D01*
X2193630Y714669D02*
G01*
X2229952Y714669D01*
X2277958Y809157D02*
G01*
X2277958Y656503D01*
X2277958Y809157D02*
G01*
X2343490Y809157D01*
X2365334Y801791D01*
X2372700Y794679D01*
X2379812Y779947D01*
X2379812Y758357D01*
X2372700Y743625D01*
X2365334Y736513D01*
X2343490Y729147D01*
X2277958Y729147D01*
X2427818Y809157D02*
G01*
X2427818Y656503D01*
X2519512Y809157D02*
G01*
X2505034Y801791D01*
X2490556Y787313D01*
X2483190Y772835D01*
X2475824Y750991D01*
X2475824Y714669D01*
X2483190Y692825D01*
X2490556Y678347D01*
X2505034Y663615D01*
X2519512Y656503D01*
X2548722Y656503D01*
X2563200Y663615D01*
X2577678Y678347D01*
X2585044Y692825D01*
X2592156Y714669D01*
X2592156Y750991D01*
X2585044Y772835D01*
X2577678Y787313D01*
X2563200Y801791D01*
X2548722Y809157D01*
X2519512Y809157D01*
X2683850Y809157D02*
G01*
X2662006Y801791D01*
X2647528Y779947D01*
X2640162Y743625D01*
X2640162Y721781D01*
X2647528Y685459D01*
X2662006Y663615D01*
X2683850Y656503D01*
X2698328Y656503D01*
X2720172Y663615D01*
X2734904Y685459D01*
X2742016Y721781D01*
X2742016Y743625D01*
X2734904Y779947D01*
X2720172Y801791D01*
X2698328Y809157D01*
X2683850Y809157D01*
X2804500Y809157D02*
G01*
X2884510Y809157D01*
X2841076Y750991D01*
X2862920Y750991D01*
X2877398Y743625D01*
X2884510Y736513D01*
X2891876Y714669D01*
X2891876Y699937D01*
X2884510Y678347D01*
X2870032Y663615D01*
X2848188Y656503D01*
X2826344Y656503D01*
X2804500Y663615D01*
X2797388Y670981D01*
X2790022Y685459D01*
X2230122Y516719D02*
G01*
X2222756Y531197D01*
X2208278Y545675D01*
X2193800Y553041D01*
X2164590Y553041D01*
X2150112Y545675D01*
X2135634Y531197D01*
X2128268Y516719D01*
X2120902Y494875D01*
X2120902Y458553D01*
X2128268Y436709D01*
X2135634Y422231D01*
X2150112Y407499D01*
X2164590Y400387D01*
X2193800Y400387D01*
X2208278Y407499D01*
X2222756Y422231D01*
X2230122Y436709D01*
X2230122Y458553D01*
X2193800Y458553D02*
G01*
X2230122Y458553D01*
X2278128Y553041D02*
G01*
X2278128Y400387D01*
X2278128Y553041D02*
G01*
X2343406Y553041D01*
X2365250Y545675D01*
X2372616Y538563D01*
X2379982Y523831D01*
X2379982Y502241D01*
X2372616Y487509D01*
X2365250Y480397D01*
X2343406Y473031D01*
X2278128Y473031D01*
X2427988Y553041D02*
G01*
X2427988Y400387D01*
X2519428Y553041D02*
G01*
X2504950Y545675D01*
X2490472Y531197D01*
X2483106Y516719D01*
X2475994Y494875D01*
X2475994Y458553D01*
X2483106Y436709D01*
X2490472Y422231D01*
X2504950Y407499D01*
X2519428Y400387D01*
X2548638Y400387D01*
X2563116Y407499D01*
X2577594Y422231D01*
X2584960Y436709D01*
X2592326Y458553D01*
X2592326Y494875D01*
X2584960Y516719D01*
X2577594Y531197D01*
X2563116Y545675D01*
X2548638Y553041D01*
X2519428Y553041D01*
X2654810Y553041D02*
G01*
X2734820Y553041D01*
X2691132Y494875D01*
X2712976Y494875D01*
X2727454Y487509D01*
X2734820Y480397D01*
X2742186Y458553D01*
X2742186Y443821D01*
X2734820Y422231D01*
X2720342Y407499D01*
X2698498Y400387D01*
X2676654Y400387D01*
X2654810Y407499D01*
X2647444Y414865D01*
X2640332Y429343D01*
X2804670Y553041D02*
G01*
X2884680Y553041D01*
X2840992Y494875D01*
X2862836Y494875D01*
X2877314Y487509D01*
X2884680Y480397D01*
X2891792Y458553D01*
X2891792Y443821D01*
X2884680Y422231D01*
X2870202Y407499D01*
X2848358Y400387D01*
X2826514Y400387D01*
X2804670Y407499D01*
X2797304Y414865D01*
X2790192Y429343D01*
X2229949Y264668D02*
G01*
X2222837Y279400D01*
X2208105Y293878D01*
X2193627Y301244D01*
X2164417Y301244D01*
X2149939Y293878D01*
X2135461Y279400D01*
X2128095Y264668D01*
X2120983Y243078D01*
X2120983Y206502D01*
X2128095Y184912D01*
X2135461Y170179D01*
X2149939Y155702D01*
X2164417Y148336D01*
X2193627Y148336D01*
X2208105Y155702D01*
X2222837Y170179D01*
X2229949Y184912D01*
X2229949Y206502D01*
X2193627Y206502D02*
G01*
X2229949Y206502D01*
X2277955Y301244D02*
G01*
X2277955Y148336D01*
X2277955Y301244D02*
G01*
X2343487Y301244D01*
X2365331Y293878D01*
X2372443Y286512D01*
X2379809Y272034D01*
X2379809Y250189D01*
X2372443Y235712D01*
X2365331Y228345D01*
X2343487Y221234D01*
X2277955Y221234D01*
X2427815Y301244D02*
G01*
X2427815Y148336D01*
X2519509Y301244D02*
G01*
X2504777Y293878D01*
X2490299Y279400D01*
X2483187Y264668D01*
X2475821Y243078D01*
X2475821Y206502D01*
X2483187Y184912D01*
X2490299Y170179D01*
X2504777Y155702D01*
X2519509Y148336D01*
X2548465Y148336D01*
X2563197Y155702D01*
X2577675Y170179D01*
X2584787Y184912D01*
X2592153Y206502D01*
X2592153Y243078D01*
X2584787Y264668D01*
X2577675Y279400D01*
X2563197Y293878D01*
X2548465Y301244D01*
X2519509Y301244D01*
X2654637Y301244D02*
G01*
X2734647Y301244D01*
X2690959Y243078D01*
X2712803Y243078D01*
X2727535Y235712D01*
X2734647Y228345D01*
X2742013Y206502D01*
X2742013Y192023D01*
X2734647Y170179D01*
X2720169Y155702D01*
X2698325Y148336D01*
X2676481Y148336D01*
X2654637Y155702D01*
X2647525Y163068D01*
X2640159Y177545D01*
X2797385Y264668D02*
G01*
X2797385Y272034D01*
X2804497Y286512D01*
X2811863Y293878D01*
X2826341Y301244D01*
X2855551Y301244D01*
X2870029Y293878D01*
X2877141Y286512D01*
X2884507Y272034D01*
X2884507Y257555D01*
X2877141Y243078D01*
X2862663Y221234D01*
X2790019Y148336D01*
X2891873Y148336D01*
X2120986Y40894D02*
G01*
X2120986Y-112013D01*
X2120986Y40894D02*
G01*
X2215474Y40894D01*
X2120986Y-32004D02*
G01*
X2179152Y-32004D01*
X2120986Y-112013D02*
G01*
X2215474Y-112013D01*
X2263480Y40894D02*
G01*
X2263480Y-112013D01*
X2263480Y40894D02*
G01*
X2365334Y-112013D01*
X2365334Y40894D02*
G01*
X2365334Y-112013D01*
X2135464Y-215221D02*
G01*
X2215474Y-215221D01*
X2171786Y-273387D01*
X2193630Y-273387D01*
X2208362Y-280753D01*
X2215474Y-288119D01*
X2222840Y-309963D01*
X2222840Y-324441D01*
X2215474Y-346285D01*
X2200996Y-360763D01*
X2179152Y-368129D01*
X2157308Y-368129D01*
X2135464Y-360763D01*
X2128352Y-353397D01*
X2120986Y-338919D01*
X2277958Y-331553D02*
G01*
X2270846Y-338919D01*
X2277958Y-346285D01*
X2285324Y-338919D01*
X2277958Y-331553D01*
X2347808Y-215221D02*
G01*
X2427818Y-215221D01*
X2384384Y-273387D01*
X2405974Y-273387D01*
X2420706Y-280753D01*
X2427818Y-288119D01*
X2435184Y-309963D01*
X2435184Y-324441D01*
X2427818Y-346285D01*
X2413340Y-360763D01*
X2391496Y-368129D01*
X2369652Y-368129D01*
X2347808Y-360763D01*
X2340696Y-353397D01*
X2333330Y-338919D01*
X2483190Y-215221D02*
G01*
X2541356Y-368129D01*
X2599522Y-215221D02*
G01*
X2541356Y-368129D01*
X2229952Y-507916D02*
G01*
X2222840Y-493184D01*
X2208362Y-478706D01*
X2193630Y-471340D01*
X2164674Y-471340D01*
X2150196Y-478706D01*
X2135464Y-493184D01*
X2128352Y-507916D01*
X2120986Y-529506D01*
X2120986Y-566082D01*
X2128352Y-587672D01*
X2135464Y-602404D01*
X2150196Y-616882D01*
X2164674Y-624248D01*
X2193630Y-624248D01*
X2208362Y-616882D01*
X2222840Y-602404D01*
X2229952Y-587672D01*
X2229952Y-566082D01*
X2193630Y-566082D02*
G01*
X2229952Y-566082D01*
X2277958Y-471340D02*
G01*
X2277958Y-624248D01*
X2277958Y-471340D02*
G01*
X2379812Y-624248D01*
X2379812Y-471340D02*
G01*
X2379812Y-624248D01*
X2427818Y-471340D02*
G01*
X2427818Y-624248D01*
X2427818Y-471340D02*
G01*
X2478872Y-471340D01*
X2500716Y-478706D01*
X2515194Y-493184D01*
X2522560Y-507916D01*
X2529672Y-529506D01*
X2529672Y-566082D01*
X2522560Y-587672D01*
X2515194Y-602404D01*
X2500716Y-616882D01*
X2478872Y-624248D01*
X2427818Y-624248D01*
X2120986Y-727455D02*
G01*
X2120986Y-880363D01*
X2120986Y-727455D02*
G01*
X2215474Y-727455D01*
X2120986Y-800354D02*
G01*
X2179152Y-800354D01*
X2120986Y-880363D02*
G01*
X2215474Y-880363D01*
X2263480Y-727455D02*
G01*
X2263480Y-880363D01*
X2263480Y-727455D02*
G01*
X2365334Y-880363D01*
X2365334Y-727455D02*
G01*
X2365334Y-880363D01*
X1054013Y-689355D02*
G01*
X1054013Y-842263D01*
X1003213Y-689355D02*
G01*
X1105067Y-689355D01*
X1153073Y-689355D02*
G01*
X1254927Y-842263D01*
X1254927Y-689355D02*
G01*
X1153073Y-842263D01*
X1346367Y-689355D02*
G01*
X1324777Y-696721D01*
X1310045Y-718565D01*
X1302933Y-754887D01*
X1302933Y-776731D01*
X1310045Y-813054D01*
X1324777Y-834897D01*
X1346367Y-842263D01*
X1361099Y-842263D01*
X1382943Y-834897D01*
X1397421Y-813054D01*
X1404787Y-776731D01*
X1404787Y-754887D01*
X1397421Y-718565D01*
X1382943Y-696721D01*
X1361099Y-689355D01*
X1346367Y-689355D01*
X1003213Y-435355D02*
G01*
X1003213Y-588263D01*
X1003213Y-435355D02*
G01*
X1068491Y-435355D01*
X1090335Y-442721D01*
X1097701Y-450087D01*
X1105067Y-464565D01*
X1105067Y-479044D01*
X1097701Y-493521D01*
X1090335Y-500887D01*
X1068491Y-508254D01*
X1003213Y-508254D01*
X1054013Y-508254D02*
G01*
X1105067Y-588263D01*
X1152819Y-435355D02*
G01*
X1254673Y-588263D01*
X1254673Y-435355D02*
G01*
X1152819Y-588263D01*
X1346367Y-435355D02*
G01*
X1331889Y-442721D01*
X1317411Y-457200D01*
X1310045Y-471931D01*
X1302679Y-493521D01*
X1302679Y-530097D01*
X1310045Y-551687D01*
X1317411Y-566420D01*
X1331889Y-580897D01*
X1346367Y-588263D01*
X1375577Y-588263D01*
X1390055Y-580897D01*
X1404533Y-566420D01*
X1411899Y-551687D01*
X1419011Y-530097D01*
X1419011Y-493521D01*
X1411899Y-471931D01*
X1404533Y-457200D01*
X1390055Y-442721D01*
X1375577Y-435355D01*
X1346367Y-435355D01*
X1112436Y-217934D02*
G01*
X1105070Y-203202D01*
X1090592Y-188724D01*
X1076114Y-181358D01*
X1046904Y-181358D01*
X1032426Y-188724D01*
X1017948Y-203202D01*
X1010582Y-217934D01*
X1003216Y-239524D01*
X1003216Y-276100D01*
X1010582Y-297690D01*
X1017948Y-312422D01*
X1032426Y-326900D01*
X1046904Y-334266D01*
X1076114Y-334266D01*
X1090592Y-326900D01*
X1105070Y-312422D01*
X1112436Y-297690D01*
X1112436Y-276100D01*
X1076114Y-276100D02*
G01*
X1112436Y-276100D01*
X1160442Y-181358D02*
G01*
X1160442Y-334266D01*
X1160442Y-181358D02*
G01*
X1225720Y-181358D01*
X1247564Y-188724D01*
X1254930Y-196090D01*
X1262296Y-210568D01*
X1262296Y-232412D01*
X1254930Y-246890D01*
X1247564Y-254256D01*
X1225720Y-261368D01*
X1160442Y-261368D01*
X1310302Y-181358D02*
G01*
X1310302Y-334266D01*
X1401742Y-181358D02*
G01*
X1387264Y-188724D01*
X1372786Y-203202D01*
X1365420Y-217934D01*
X1358308Y-239524D01*
X1358308Y-276100D01*
X1365420Y-297690D01*
X1372786Y-312422D01*
X1387264Y-326900D01*
X1401742Y-334266D01*
X1430952Y-334266D01*
X1445430Y-326900D01*
X1459908Y-312422D01*
X1467274Y-297690D01*
X1474640Y-276100D01*
X1474640Y-239524D01*
X1467274Y-217934D01*
X1459908Y-203202D01*
X1445430Y-188724D01*
X1430952Y-181358D01*
X1401742Y-181358D01*
X1566334Y-181358D02*
G01*
X1544490Y-188724D01*
X1529758Y-210568D01*
X1522646Y-246890D01*
X1522646Y-268734D01*
X1529758Y-305056D01*
X1544490Y-326900D01*
X1566334Y-334266D01*
X1580812Y-334266D01*
X1602656Y-326900D01*
X1617134Y-305056D01*
X1624500Y-268734D01*
X1624500Y-246890D01*
X1617134Y-210568D01*
X1602656Y-188724D01*
X1580812Y-181358D01*
X1566334Y-181358D01*
X1715940Y-181358D02*
G01*
X1694096Y-188724D01*
X1679618Y-210568D01*
X1672506Y-246890D01*
X1672506Y-268734D01*
X1679618Y-305056D01*
X1694096Y-326900D01*
X1715940Y-334266D01*
X1730672Y-334266D01*
X1752516Y-326900D01*
X1766994Y-305056D01*
X1774106Y-268734D01*
X1774106Y-246890D01*
X1766994Y-210568D01*
X1752516Y-188724D01*
X1730672Y-181358D01*
X1715940Y-181358D01*
X1112182Y36065D02*
G01*
X1105070Y50797D01*
X1090592Y65275D01*
X1075860Y72641D01*
X1046904Y72641D01*
X1032426Y65275D01*
X1017694Y50797D01*
X1010582Y36065D01*
X1003216Y14475D01*
X1003216Y-22100D01*
X1010582Y-43690D01*
X1017694Y-58422D01*
X1032426Y-72900D01*
X1046904Y-80266D01*
X1075860Y-80266D01*
X1090592Y-72900D01*
X1105070Y-58422D01*
X1112182Y-43690D01*
X1112182Y-22100D01*
X1075860Y-22100D02*
G01*
X1112182Y-22100D01*
X1160188Y72641D02*
G01*
X1160188Y-80266D01*
X1160188Y72641D02*
G01*
X1262042Y-80266D01*
X1262042Y72641D02*
G01*
X1262042Y-80266D01*
X1310048Y72641D02*
G01*
X1310048Y-80266D01*
X1310048Y72641D02*
G01*
X1361102Y72641D01*
X1382946Y65275D01*
X1397424Y50797D01*
X1404790Y36065D01*
X1411902Y14475D01*
X1411902Y-22100D01*
X1404790Y-43690D01*
X1397424Y-58422D01*
X1382946Y-72900D01*
X1361102Y-80266D01*
X1310048Y-80266D01*
X1112342Y290235D02*
G01*
X1104976Y304713D01*
X1090498Y319191D01*
X1075766Y326557D01*
X1046810Y326557D01*
X1032332Y319191D01*
X1017600Y304713D01*
X1010488Y290235D01*
X1003122Y268391D01*
X1003122Y232069D01*
X1010488Y210225D01*
X1017600Y195747D01*
X1032332Y181015D01*
X1046810Y173903D01*
X1075766Y173903D01*
X1090498Y181015D01*
X1104976Y195747D01*
X1112342Y210225D01*
X1112342Y232069D01*
X1075766Y232069D02*
G01*
X1112342Y232069D01*
X1160094Y326557D02*
G01*
X1160094Y173903D01*
X1160094Y326557D02*
G01*
X1225626Y326557D01*
X1247470Y319191D01*
X1254836Y312079D01*
X1261948Y297347D01*
X1261948Y275757D01*
X1254836Y261025D01*
X1247470Y253913D01*
X1225626Y246547D01*
X1160094Y246547D01*
X1309954Y326557D02*
G01*
X1309954Y173903D01*
X1401648Y326557D02*
G01*
X1387170Y319191D01*
X1372692Y304713D01*
X1365326Y290235D01*
X1357960Y268391D01*
X1357960Y232069D01*
X1365326Y210225D01*
X1372692Y195747D01*
X1387170Y181015D01*
X1401648Y173903D01*
X1430858Y173903D01*
X1445336Y181015D01*
X1459814Y195747D01*
X1467180Y210225D01*
X1474292Y232069D01*
X1474292Y268391D01*
X1467180Y290235D01*
X1459814Y304713D01*
X1445336Y319191D01*
X1430858Y326557D01*
X1401648Y326557D01*
X1537030Y326557D02*
G01*
X1617040Y326557D01*
X1573352Y268391D01*
X1595196Y268391D01*
X1609674Y261025D01*
X1617040Y253913D01*
X1624152Y232069D01*
X1624152Y217337D01*
X1617040Y195747D01*
X1602308Y181015D01*
X1580464Y173903D01*
X1558874Y173903D01*
X1537030Y181015D01*
X1529664Y188381D01*
X1522298Y202859D01*
X1766646Y275757D02*
G01*
X1759534Y253913D01*
X1745056Y239181D01*
X1723212Y232069D01*
X1715846Y232069D01*
X1694002Y239181D01*
X1679524Y253913D01*
X1672158Y275757D01*
X1672158Y282869D01*
X1679524Y304713D01*
X1694002Y319191D01*
X1715846Y326557D01*
X1723212Y326557D01*
X1745056Y319191D01*
X1759534Y304713D01*
X1766646Y275757D01*
X1766646Y239181D01*
X1759534Y202859D01*
X1745056Y181015D01*
X1723212Y173903D01*
X1708480Y173903D01*
X1686890Y181015D01*
X1679524Y195747D01*
X1814652Y326557D02*
G01*
X1822018Y319191D01*
X1829384Y326557D01*
X1822018Y333923D01*
X1814652Y326557D01*
X1822018Y275757D02*
G01*
X1822018Y173903D01*
X1112509Y544068D02*
G01*
X1105143Y558800D01*
X1090665Y573278D01*
X1075933Y580644D01*
X1046977Y580644D01*
X1032499Y573278D01*
X1017767Y558800D01*
X1010655Y544068D01*
X1003289Y522478D01*
X1003289Y485902D01*
X1010655Y464312D01*
X1017767Y449579D01*
X1032499Y435102D01*
X1046977Y427736D01*
X1075933Y427736D01*
X1090665Y435102D01*
X1105143Y449579D01*
X1112509Y464312D01*
X1112509Y485902D01*
X1075933Y485902D02*
G01*
X1112509Y485902D01*
X1160261Y580644D02*
G01*
X1160261Y427736D01*
X1160261Y580644D02*
G01*
X1225793Y580644D01*
X1247637Y573278D01*
X1255003Y565912D01*
X1262115Y551434D01*
X1262115Y529589D01*
X1255003Y515112D01*
X1247637Y507745D01*
X1225793Y500634D01*
X1160261Y500634D01*
X1310121Y580644D02*
G01*
X1310121Y427736D01*
X1401815Y580644D02*
G01*
X1387337Y573278D01*
X1372859Y558800D01*
X1365493Y544068D01*
X1358127Y522478D01*
X1358127Y485902D01*
X1365493Y464312D01*
X1372859Y449579D01*
X1387337Y435102D01*
X1401815Y427736D01*
X1431025Y427736D01*
X1445503Y435102D01*
X1459981Y449579D01*
X1467347Y464312D01*
X1474459Y485902D01*
X1474459Y522478D01*
X1467347Y544068D01*
X1459981Y558800D01*
X1445503Y573278D01*
X1431025Y580644D01*
X1401815Y580644D01*
X1537197Y580644D02*
G01*
X1617207Y580644D01*
X1573519Y522478D01*
X1595363Y522478D01*
X1609841Y515112D01*
X1617207Y507745D01*
X1624319Y485902D01*
X1624319Y471423D01*
X1617207Y449579D01*
X1602475Y435102D01*
X1580631Y427736D01*
X1559041Y427736D01*
X1537197Y435102D01*
X1529831Y442468D01*
X1522465Y456945D01*
X1759701Y558800D02*
G01*
X1752335Y573278D01*
X1730491Y580644D01*
X1716013Y580644D01*
X1694169Y573278D01*
X1679691Y551434D01*
X1672325Y515112D01*
X1672325Y478789D01*
X1679691Y449579D01*
X1694169Y435102D01*
X1716013Y427736D01*
X1723379Y427736D01*
X1745223Y435102D01*
X1759701Y449579D01*
X1766813Y471423D01*
X1766813Y478789D01*
X1759701Y500634D01*
X1745223Y515112D01*
X1723379Y522478D01*
X1716013Y522478D01*
X1694169Y515112D01*
X1679691Y500634D01*
X1672325Y478789D01*
X1814819Y580644D02*
G01*
X1822185Y573278D01*
X1829551Y580644D01*
X1822185Y587755D01*
X1814819Y580644D01*
X1822185Y529589D02*
G01*
X1822185Y427736D01*
X1112182Y798060D02*
G01*
X1105070Y812792D01*
X1090592Y827270D01*
X1075860Y834636D01*
X1046904Y834636D01*
X1032426Y827270D01*
X1017694Y812792D01*
X1010582Y798060D01*
X1003216Y776470D01*
X1003216Y739894D01*
X1010582Y718304D01*
X1017694Y703572D01*
X1032426Y689094D01*
X1046904Y681728D01*
X1075860Y681728D01*
X1090592Y689094D01*
X1105070Y703572D01*
X1112182Y718304D01*
X1112182Y739894D01*
X1075860Y739894D02*
G01*
X1112182Y739894D01*
X1160188Y834636D02*
G01*
X1160188Y681728D01*
X1160188Y834636D02*
G01*
X1225720Y834636D01*
X1247564Y827270D01*
X1254930Y819904D01*
X1262042Y805426D01*
X1262042Y783582D01*
X1254930Y769104D01*
X1247564Y761738D01*
X1225720Y754626D01*
X1160188Y754626D01*
X1310048Y834636D02*
G01*
X1310048Y681728D01*
X1401742Y834636D02*
G01*
X1387264Y827270D01*
X1372786Y812792D01*
X1365420Y798060D01*
X1358054Y776470D01*
X1358054Y739894D01*
X1365420Y718304D01*
X1372786Y703572D01*
X1387264Y689094D01*
X1401742Y681728D01*
X1430952Y681728D01*
X1445430Y689094D01*
X1459908Y703572D01*
X1467274Y718304D01*
X1474386Y739894D01*
X1474386Y776470D01*
X1467274Y798060D01*
X1459908Y812792D01*
X1445430Y827270D01*
X1430952Y834636D01*
X1401742Y834636D01*
X1522392Y805426D02*
G01*
X1537124Y812792D01*
X1558968Y834636D01*
X1558968Y681728D01*
X1694096Y834636D02*
G01*
X1621452Y834636D01*
X1614086Y769104D01*
X1621452Y776470D01*
X1643296Y783582D01*
X1665140Y783582D01*
X1686730Y776470D01*
X1701462Y761738D01*
X1708574Y739894D01*
X1708574Y725416D01*
X1701462Y703572D01*
X1686730Y689094D01*
X1665140Y681728D01*
X1643296Y681728D01*
X1621452Y689094D01*
X1614086Y696460D01*
X1606974Y710938D01*
X1112182Y1052060D02*
G01*
X1105070Y1066792D01*
X1090338Y1081270D01*
X1075860Y1088636D01*
X1046650Y1088636D01*
X1032172Y1081270D01*
X1017694Y1066792D01*
X1010328Y1052060D01*
X1003216Y1030470D01*
X1003216Y993894D01*
X1010328Y972304D01*
X1017694Y957572D01*
X1032172Y943094D01*
X1046650Y935728D01*
X1075860Y935728D01*
X1090338Y943094D01*
X1105070Y957572D01*
X1112182Y972304D01*
X1112182Y993894D01*
X1075860Y993894D02*
G01*
X1112182Y993894D01*
X1160188Y1088636D02*
G01*
X1160188Y935728D01*
X1160188Y1088636D02*
G01*
X1225720Y1088636D01*
X1247564Y1081270D01*
X1254676Y1073904D01*
X1262042Y1059426D01*
X1262042Y1037582D01*
X1254676Y1023104D01*
X1247564Y1015738D01*
X1225720Y1008626D01*
X1160188Y1008626D01*
X1310048Y1088636D02*
G01*
X1310048Y935728D01*
X1401742Y1088636D02*
G01*
X1387010Y1081270D01*
X1372532Y1066792D01*
X1365420Y1052060D01*
X1358054Y1030470D01*
X1358054Y993894D01*
X1365420Y972304D01*
X1372532Y957572D01*
X1387010Y943094D01*
X1401742Y935728D01*
X1430698Y935728D01*
X1445430Y943094D01*
X1459908Y957572D01*
X1467020Y972304D01*
X1474386Y993894D01*
X1474386Y1030470D01*
X1467020Y1052060D01*
X1459908Y1066792D01*
X1445430Y1081270D01*
X1430698Y1088636D01*
X1401742Y1088636D01*
X1522392Y1059426D02*
G01*
X1536870Y1066792D01*
X1558714Y1088636D01*
X1558714Y935728D01*
X1679364Y1088636D02*
G01*
X1606720Y986782D01*
X1715940Y986782D01*
X1679364Y1088636D02*
G01*
X1679364Y935728D01*
X1112433Y1306057D02*
G01*
X1105067Y1320789D01*
X1090589Y1335267D01*
X1076111Y1342633D01*
X1046901Y1342633D01*
X1032423Y1335267D01*
X1017945Y1320789D01*
X1010579Y1306057D01*
X1003213Y1284467D01*
X1003213Y1247891D01*
X1010579Y1226301D01*
X1017945Y1211569D01*
X1032423Y1197091D01*
X1046901Y1189725D01*
X1076111Y1189725D01*
X1090589Y1197091D01*
X1105067Y1211569D01*
X1112433Y1226301D01*
X1112433Y1247891D01*
X1076111Y1247891D02*
G01*
X1112433Y1247891D01*
X1160439Y1342633D02*
G01*
X1160439Y1189725D01*
X1160439Y1342633D02*
G01*
X1225717Y1342633D01*
X1247561Y1335267D01*
X1254927Y1327901D01*
X1262293Y1313423D01*
X1262293Y1291579D01*
X1254927Y1277101D01*
X1247561Y1269735D01*
X1225717Y1262623D01*
X1160439Y1262623D01*
X1310299Y1342633D02*
G01*
X1310299Y1189725D01*
X1401739Y1342633D02*
G01*
X1387261Y1335267D01*
X1372783Y1320789D01*
X1365417Y1306057D01*
X1358305Y1284467D01*
X1358305Y1247891D01*
X1365417Y1226301D01*
X1372783Y1211569D01*
X1387261Y1197091D01*
X1401739Y1189725D01*
X1430949Y1189725D01*
X1445427Y1197091D01*
X1459905Y1211569D01*
X1467271Y1226301D01*
X1474637Y1247891D01*
X1474637Y1284467D01*
X1467271Y1306057D01*
X1459905Y1320789D01*
X1445427Y1335267D01*
X1430949Y1342633D01*
X1401739Y1342633D01*
X1522643Y1313423D02*
G01*
X1537121Y1320789D01*
X1558965Y1342633D01*
X1558965Y1189725D01*
X1614083Y1306057D02*
G01*
X1614083Y1313423D01*
X1621449Y1327901D01*
X1628815Y1335267D01*
X1643293Y1342633D01*
X1672503Y1342633D01*
X1686981Y1335267D01*
X1694093Y1327901D01*
X1701459Y1313423D01*
X1701459Y1298945D01*
X1694093Y1284467D01*
X1679615Y1262623D01*
X1606971Y1189725D01*
X1708825Y1189725D01*
X1112418Y1560154D02*
G01*
X1105052Y1574632D01*
X1090574Y1589364D01*
X1075842Y1596476D01*
X1046886Y1596476D01*
X1032408Y1589364D01*
X1017676Y1574632D01*
X1010564Y1560154D01*
X1003198Y1538310D01*
X1003198Y1501988D01*
X1010564Y1480144D01*
X1017676Y1465666D01*
X1032408Y1451188D01*
X1046886Y1443822D01*
X1075842Y1443822D01*
X1090574Y1451188D01*
X1105052Y1465666D01*
X1112418Y1480144D01*
X1112418Y1501988D01*
X1075842Y1501988D02*
G01*
X1112418Y1501988D01*
X1160170Y1596476D02*
G01*
X1160170Y1443822D01*
X1160170Y1596476D02*
G01*
X1225702Y1596476D01*
X1247546Y1589364D01*
X1254912Y1581998D01*
X1262024Y1567520D01*
X1262024Y1545676D01*
X1254912Y1531198D01*
X1247546Y1523832D01*
X1225702Y1516466D01*
X1160170Y1516466D01*
X1310030Y1596476D02*
G01*
X1310030Y1443822D01*
X1401724Y1596476D02*
G01*
X1387246Y1589364D01*
X1372768Y1574632D01*
X1365402Y1560154D01*
X1358036Y1538310D01*
X1358036Y1501988D01*
X1365402Y1480144D01*
X1372768Y1465666D01*
X1387246Y1451188D01*
X1401724Y1443822D01*
X1430934Y1443822D01*
X1445412Y1451188D01*
X1459890Y1465666D01*
X1467256Y1480144D01*
X1474368Y1501988D01*
X1474368Y1538310D01*
X1467256Y1560154D01*
X1459890Y1574632D01*
X1445412Y1589364D01*
X1430934Y1596476D01*
X1401724Y1596476D01*
X1537106Y1596476D02*
G01*
X1617116Y1596476D01*
X1573428Y1538310D01*
X1595272Y1538310D01*
X1609750Y1531198D01*
X1617116Y1523832D01*
X1624228Y1501988D01*
X1624228Y1487510D01*
X1617116Y1465666D01*
X1602384Y1451188D01*
X1580540Y1443822D01*
X1558950Y1443822D01*
X1537106Y1451188D01*
X1529740Y1458300D01*
X1522374Y1473032D01*
X1759610Y1596476D02*
G01*
X1686966Y1596476D01*
X1679600Y1531198D01*
X1686966Y1538310D01*
X1708556Y1545676D01*
X1730400Y1545676D01*
X1752244Y1538310D01*
X1766722Y1523832D01*
X1774088Y1501988D01*
X1774088Y1487510D01*
X1766722Y1465666D01*
X1752244Y1451188D01*
X1730400Y1443822D01*
X1708556Y1443822D01*
X1686966Y1451188D01*
X1679600Y1458300D01*
X1672234Y1473032D01*
X1822094Y1596476D02*
G01*
X1829460Y1589364D01*
X1836572Y1596476D01*
X1829460Y1603842D01*
X1822094Y1596476D01*
X1829460Y1545676D02*
G01*
X1829460Y1443822D01*
X1112177Y1814062D02*
G01*
X1105065Y1828794D01*
X1090333Y1843272D01*
X1075855Y1850638D01*
X1046645Y1850638D01*
X1032167Y1843272D01*
X1017689Y1828794D01*
X1010323Y1814062D01*
X1003211Y1792472D01*
X1003211Y1755896D01*
X1010323Y1734306D01*
X1017689Y1719574D01*
X1032167Y1705096D01*
X1046645Y1697730D01*
X1075855Y1697730D01*
X1090333Y1705096D01*
X1105065Y1719574D01*
X1112177Y1734306D01*
X1112177Y1755896D01*
X1075855Y1755896D02*
G01*
X1112177Y1755896D01*
X1160183Y1850638D02*
G01*
X1160183Y1697730D01*
X1160183Y1850638D02*
G01*
X1225715Y1850638D01*
X1247559Y1843272D01*
X1254671Y1835906D01*
X1262037Y1821428D01*
X1262037Y1799584D01*
X1254671Y1785106D01*
X1247559Y1777740D01*
X1225715Y1770628D01*
X1160183Y1770628D01*
X1310043Y1850638D02*
G01*
X1310043Y1697730D01*
X1401737Y1850638D02*
G01*
X1387005Y1843272D01*
X1372527Y1828794D01*
X1365415Y1814062D01*
X1358049Y1792472D01*
X1358049Y1755896D01*
X1365415Y1734306D01*
X1372527Y1719574D01*
X1387005Y1705096D01*
X1401737Y1697730D01*
X1430693Y1697730D01*
X1445425Y1705096D01*
X1459903Y1719574D01*
X1467015Y1734306D01*
X1474381Y1755896D01*
X1474381Y1792472D01*
X1467015Y1814062D01*
X1459903Y1828794D01*
X1445425Y1843272D01*
X1430693Y1850638D01*
X1401737Y1850638D01*
X1566075Y1850638D02*
G01*
X1544231Y1843272D01*
X1529753Y1821428D01*
X1522387Y1785106D01*
X1522387Y1763262D01*
X1529753Y1726940D01*
X1544231Y1705096D01*
X1566075Y1697730D01*
X1580553Y1697730D01*
X1602397Y1705096D01*
X1616875Y1726940D01*
X1624241Y1763262D01*
X1624241Y1785106D01*
X1616875Y1821428D01*
X1602397Y1843272D01*
X1580553Y1850638D01*
X1566075Y1850638D01*
X1744891Y1850638D02*
G01*
X1672247Y1748784D01*
X1781213Y1748784D01*
X1744891Y1850638D02*
G01*
X1744891Y1697730D01*
X1112433Y2068068D02*
G01*
X1105067Y2082800D01*
X1090589Y2097278D01*
X1076111Y2104644D01*
X1046901Y2104644D01*
X1032423Y2097278D01*
X1017945Y2082800D01*
X1010579Y2068068D01*
X1003213Y2046478D01*
X1003213Y2009902D01*
X1010579Y1988312D01*
X1017945Y1973579D01*
X1032423Y1959102D01*
X1046901Y1951736D01*
X1076111Y1951736D01*
X1090589Y1959102D01*
X1105067Y1973579D01*
X1112433Y1988312D01*
X1112433Y2009902D01*
X1076111Y2009902D02*
G01*
X1112433Y2009902D01*
X1160439Y2104644D02*
G01*
X1160439Y1951736D01*
X1160439Y2104644D02*
G01*
X1225971Y2104644D01*
X1247561Y2097278D01*
X1254927Y2089912D01*
X1262293Y2075434D01*
X1262293Y2053589D01*
X1254927Y2039112D01*
X1247561Y2031745D01*
X1225971Y2024634D01*
X1160439Y2024634D01*
X1310299Y2104644D02*
G01*
X1310299Y1951736D01*
X1401739Y2104644D02*
G01*
X1387261Y2097278D01*
X1372783Y2082800D01*
X1365417Y2068068D01*
X1358305Y2046478D01*
X1358305Y2009902D01*
X1365417Y1988312D01*
X1372783Y1973579D01*
X1387261Y1959102D01*
X1401739Y1951736D01*
X1430949Y1951736D01*
X1445427Y1959102D01*
X1459905Y1973579D01*
X1467271Y1988312D01*
X1474637Y2009902D01*
X1474637Y2046478D01*
X1467271Y2068068D01*
X1459905Y2082800D01*
X1445427Y2097278D01*
X1430949Y2104644D01*
X1401739Y2104644D01*
X1566331Y2104644D02*
G01*
X1544487Y2097278D01*
X1529755Y2075434D01*
X1522643Y2039112D01*
X1522643Y2017268D01*
X1529755Y1980945D01*
X1544487Y1959102D01*
X1566331Y1951736D01*
X1580809Y1951736D01*
X1602653Y1959102D01*
X1617131Y1980945D01*
X1624497Y2017268D01*
X1624497Y2039112D01*
X1617131Y2075434D01*
X1602653Y2097278D01*
X1580809Y2104644D01*
X1566331Y2104644D01*
X1679615Y2068068D02*
G01*
X1679615Y2075434D01*
X1686981Y2089912D01*
X1694093Y2097278D01*
X1708825Y2104644D01*
X1737781Y2104644D01*
X1752513Y2097278D01*
X1759625Y2089912D01*
X1766991Y2075434D01*
X1766991Y2060955D01*
X1759625Y2046478D01*
X1745147Y2024634D01*
X1672503Y1951736D01*
X1774103Y1951736D01*
X1112179Y2322068D02*
G01*
X1105067Y2336800D01*
X1090589Y2351278D01*
X1075857Y2358644D01*
X1046901Y2358644D01*
X1032423Y2351278D01*
X1017691Y2336800D01*
X1010579Y2322068D01*
X1003213Y2300478D01*
X1003213Y2263902D01*
X1010579Y2242312D01*
X1017691Y2227579D01*
X1032423Y2213102D01*
X1046901Y2205736D01*
X1075857Y2205736D01*
X1090589Y2213102D01*
X1105067Y2227579D01*
X1112179Y2242312D01*
X1112179Y2263902D01*
X1075857Y2263902D02*
G01*
X1112179Y2263902D01*
X1160185Y2358644D02*
G01*
X1160185Y2205736D01*
X1160185Y2358644D02*
G01*
X1262039Y2205736D01*
X1262039Y2358644D02*
G01*
X1262039Y2205736D01*
X1310045Y2358644D02*
G01*
X1310045Y2205736D01*
X1310045Y2358644D02*
G01*
X1361099Y2358644D01*
X1382943Y2351278D01*
X1397421Y2336800D01*
X1404787Y2322068D01*
X1411899Y2300478D01*
X1411899Y2263902D01*
X1404787Y2242312D01*
X1397421Y2227579D01*
X1382943Y2213102D01*
X1361099Y2205736D01*
X1310045Y2205736D01*
X1071372Y-1077468D02*
G01*
X1067054Y-1068323D01*
X1057909Y-1059434D01*
X1048765Y-1054862D01*
X1030477Y-1054862D01*
X1021588Y-1059434D01*
X1012443Y-1068323D01*
X1007872Y-1077468D01*
X1003300Y-1091184D01*
X1003300Y-1113789D01*
X1007872Y-1127505D01*
X1012443Y-1136650D01*
X1021588Y-1145794D01*
X1030477Y-1150365D01*
X1048765Y-1150365D01*
X1057909Y-1145794D01*
X1067054Y-1136650D01*
X1071372Y-1127505D01*
X1071372Y-1113789D01*
X1048765Y-1113789D02*
G01*
X1071372Y-1113789D01*
X1101597Y-1054862D02*
G01*
X1101597Y-1150365D01*
X1101597Y-1054862D02*
G01*
X1142491Y-1054862D01*
X1155954Y-1059434D01*
X1160525Y-1064005D01*
X1165097Y-1072895D01*
X1165097Y-1086612D01*
X1160525Y-1095755D01*
X1155954Y-1100328D01*
X1142491Y-1104900D01*
X1101597Y-1104900D01*
X1195070Y-1054862D02*
G01*
X1195070Y-1150365D01*
X1252474Y-1054862D02*
G01*
X1243329Y-1059434D01*
X1234186Y-1068323D01*
X1229613Y-1077468D01*
X1225041Y-1091184D01*
X1225041Y-1113789D01*
X1229613Y-1127505D01*
X1234186Y-1136650D01*
X1243329Y-1145794D01*
X1252474Y-1150365D01*
X1270508Y-1150365D01*
X1279652Y-1145794D01*
X1288795Y-1136650D01*
X1293368Y-1127505D01*
X1297940Y-1113789D01*
X1297940Y-1091184D01*
X1293368Y-1077468D01*
X1288795Y-1068323D01*
X1279652Y-1059434D01*
X1270508Y-1054862D01*
X1252474Y-1054862D01*
X1406906Y-1054862D02*
G01*
X1456943Y-1054862D01*
X1429765Y-1091184D01*
X1443227Y-1091184D01*
X1452372Y-1095755D01*
X1456943Y-1100328D01*
X1461515Y-1113789D01*
X1461515Y-1122934D01*
X1456943Y-1136650D01*
X1447800Y-1145794D01*
X1434084Y-1150365D01*
X1420622Y-1150365D01*
X1406906Y-1145794D01*
X1402334Y-1141221D01*
X1397761Y-1132078D01*
X1550670Y-1086612D02*
G01*
X1546097Y-1100328D01*
X1536954Y-1109218D01*
X1523238Y-1113789D01*
X1518665Y-1113789D01*
X1505204Y-1109218D01*
X1496059Y-1100328D01*
X1491488Y-1086612D01*
X1491488Y-1082039D01*
X1496059Y-1068323D01*
X1505204Y-1059434D01*
X1518665Y-1054862D01*
X1523238Y-1054862D01*
X1536954Y-1059434D01*
X1546097Y-1068323D01*
X1550670Y-1086612D01*
X1550670Y-1109218D01*
X1546097Y-1132078D01*
X1536954Y-1145794D01*
X1523238Y-1150365D01*
X1514093Y-1150365D01*
X1500631Y-1145794D01*
X1496059Y-1136650D01*
X1589786Y-1132078D02*
G01*
X1585213Y-1136650D01*
X1580641Y-1132078D01*
X1585213Y-1127505D01*
X1589786Y-1132078D01*
X1589786Y-1141221D01*
X1580641Y-1150365D01*
X1628647Y-1054862D02*
G01*
X1678686Y-1054862D01*
X1651508Y-1091184D01*
X1665224Y-1091184D01*
X1674113Y-1095755D01*
X1678686Y-1100328D01*
X1683258Y-1113789D01*
X1683258Y-1122934D01*
X1678686Y-1136650D01*
X1669541Y-1145794D01*
X1656079Y-1150365D01*
X1642363Y-1150365D01*
X1628647Y-1145794D01*
X1624329Y-1141221D01*
X1619758Y-1132078D01*
X1767840Y-1068323D02*
G01*
X1763268Y-1059434D01*
X1749552Y-1054862D01*
X1740661Y-1054862D01*
X1726945Y-1059434D01*
X1717802Y-1072895D01*
X1713229Y-1095755D01*
X1713229Y-1118362D01*
X1717802Y-1136650D01*
X1726945Y-1145794D01*
X1740661Y-1150365D01*
X1745234Y-1150365D01*
X1758695Y-1145794D01*
X1767840Y-1136650D01*
X1772411Y-1122934D01*
X1772411Y-1118362D01*
X1767840Y-1104900D01*
X1758695Y-1095755D01*
X1745234Y-1091184D01*
X1740661Y-1091184D01*
X1726945Y-1095755D01*
X1717802Y-1104900D01*
X1713229Y-1118362D01*
X1811527Y-1132078D02*
G01*
X1806956Y-1136650D01*
X1802384Y-1132078D01*
X1806956Y-1127505D01*
X1811527Y-1132078D01*
X1811527Y-1141221D01*
X1802384Y-1150365D01*
X1850643Y-1054862D02*
G01*
X1900681Y-1054862D01*
X1873250Y-1091184D01*
X1886965Y-1091184D01*
X1896109Y-1095755D01*
X1900681Y-1100328D01*
X1905000Y-1113789D01*
X1905000Y-1122934D01*
X1900681Y-1136650D01*
X1891538Y-1145794D01*
X1877822Y-1150365D01*
X1864106Y-1150365D01*
X1850643Y-1145794D01*
X1846072Y-1141221D01*
X1841500Y-1132078D01*
X1989581Y-1054862D02*
G01*
X1944115Y-1054862D01*
X1939543Y-1095755D01*
X1944115Y-1091184D01*
X1957831Y-1086612D01*
X1971547Y-1086612D01*
X1985009Y-1091184D01*
X1994154Y-1100328D01*
X1998725Y-1113789D01*
X1998725Y-1122934D01*
X1994154Y-1136650D01*
X1985009Y-1145794D01*
X1971547Y-1150365D01*
X1957831Y-1150365D01*
X1944115Y-1145794D01*
X1939543Y-1141221D01*
X1935225Y-1132078D01*
X1003300Y-1256284D02*
G01*
X1003300Y-1351787D01*
X1033272Y-1256284D02*
G01*
X1033272Y-1351787D01*
X1033272Y-1256284D02*
G01*
X1097025Y-1351787D01*
X1097025Y-1256284D02*
G01*
X1097025Y-1351787D01*
X1126997Y-1256284D02*
G01*
X1126997Y-1351787D01*
X1126997Y-1256284D02*
G01*
X1167891Y-1256284D01*
X1181608Y-1260855D01*
X1185925Y-1265428D01*
X1190497Y-1274571D01*
X1190497Y-1288287D01*
X1185925Y-1297178D01*
X1181608Y-1301750D01*
X1167891Y-1306321D01*
X1126997Y-1306321D01*
X1220470Y-1256284D02*
G01*
X1220470Y-1324610D01*
X1225041Y-1338326D01*
X1234186Y-1347215D01*
X1247902Y-1351787D01*
X1257045Y-1351787D01*
X1270508Y-1347215D01*
X1279652Y-1338326D01*
X1284224Y-1324610D01*
X1284224Y-1256284D01*
X1345945Y-1256284D02*
G01*
X1345945Y-1351787D01*
X1314195Y-1256284D02*
G01*
X1377950Y-1256284D01*
X1505204Y-1256284D02*
G01*
X1496059Y-1260855D01*
X1486915Y-1270000D01*
X1482343Y-1279144D01*
X1477772Y-1292860D01*
X1477772Y-1315465D01*
X1482343Y-1329181D01*
X1486915Y-1338326D01*
X1496059Y-1347215D01*
X1505204Y-1351787D01*
X1523238Y-1351787D01*
X1532381Y-1347215D01*
X1541525Y-1338326D01*
X1546097Y-1329181D01*
X1550670Y-1315465D01*
X1550670Y-1292860D01*
X1546097Y-1279144D01*
X1541525Y-1270000D01*
X1532381Y-1260855D01*
X1523238Y-1256284D01*
X1505204Y-1256284D01*
X1580641Y-1256284D02*
G01*
X1580641Y-1351787D01*
X1580641Y-1256284D02*
G01*
X1644141Y-1351787D01*
X1644141Y-1256284D02*
G01*
X1644141Y-1351787D01*
X1674113Y-1256284D02*
G01*
X1674113Y-1351787D01*
X1674113Y-1351787D02*
G01*
X1728724Y-1351787D01*
X1758695Y-1256284D02*
G01*
X1795018Y-1301750D01*
X1795018Y-1351787D01*
X1831593Y-1256284D02*
G01*
X1795018Y-1301750D01*
D37*
X7342317Y429099D02*
G01*
X7264339Y429099D01*
X7248845Y424019D01*
X7238431Y413605D01*
X7233351Y397857D01*
X7233351Y387443D01*
X7238431Y371949D01*
X7248845Y361535D01*
X7264339Y356455D01*
X7342317Y356455D01*
X7342317Y270095D02*
G01*
X7269673Y322165D01*
X7269673Y244187D01*
X7342317Y270095D02*
G01*
X7233351Y270095D01*
X4813808Y2473121D02*
G01*
X4824222Y2478455D01*
X4834636Y2488869D01*
X4839715Y2499029D01*
X4839715Y2519857D01*
X4834636Y2530271D01*
X4824222Y2540685D01*
X4813808Y2546019D01*
X4798059Y2551099D01*
X4772152Y2551099D01*
X4756658Y2546019D01*
X4746243Y2540685D01*
X4735829Y2530271D01*
X4730750Y2519857D01*
X4730750Y2499029D01*
X4735829Y2488869D01*
X4746243Y2478455D01*
X4756658Y2473121D01*
X4839715Y2412923D02*
G01*
X4834636Y2428417D01*
X4824222Y2433751D01*
X4813808Y2433751D01*
X4803393Y2428417D01*
X4798059Y2418003D01*
X4792979Y2397429D01*
X4787900Y2381681D01*
X4777486Y2371267D01*
X4767072Y2366187D01*
X4751324Y2366187D01*
X4740909Y2371267D01*
X4735829Y2376601D01*
X4730750Y2392095D01*
X4730750Y2412923D01*
X4735829Y2428417D01*
X4740909Y2433751D01*
X4751324Y2438831D01*
X4767072Y2438831D01*
X4777486Y2433751D01*
X4787900Y2423337D01*
X4792979Y2407589D01*
X4798059Y2387015D01*
X4803393Y2376601D01*
X4813808Y2371267D01*
X4824222Y2371267D01*
X4834636Y2376601D01*
X4839715Y2392095D01*
X4839715Y2412923D01*
X4257878Y3289807D02*
G01*
X4252544Y3300221D01*
X4242130Y3310636D01*
X4231970Y3315715D01*
X4211142Y3315715D01*
X4200728Y3310636D01*
X4190314Y3300221D01*
X4184980Y3289807D01*
X4179900Y3274060D01*
X4179900Y3248152D01*
X4184980Y3232657D01*
X4190314Y3222244D01*
X4200728Y3211829D01*
X4211142Y3206750D01*
X4231970Y3206750D01*
X4242130Y3211829D01*
X4252544Y3222244D01*
X4257878Y3232657D01*
X4343984Y3315715D02*
G01*
X4292168Y3243071D01*
X4370146Y3243071D01*
X4343984Y3315715D02*
G01*
X4343984Y3206750D01*
X4245178Y2705607D02*
G01*
X4239844Y2716021D01*
X4229430Y2726436D01*
X4219270Y2731515D01*
X4198442Y2731515D01*
X4188028Y2726436D01*
X4177614Y2716021D01*
X4172280Y2705607D01*
X4167200Y2689860D01*
X4167200Y2663952D01*
X4172280Y2648457D01*
X4177614Y2638044D01*
X4188028Y2627629D01*
X4198442Y2622550D01*
X4219270Y2622550D01*
X4229430Y2627629D01*
X4239844Y2638044D01*
X4245178Y2648457D01*
X4347032Y2695194D02*
G01*
X4341698Y2679700D01*
X4331284Y2669286D01*
X4315790Y2663952D01*
X4310710Y2663952D01*
X4294962Y2669286D01*
X4284548Y2679700D01*
X4279468Y2695194D01*
X4279468Y2700273D01*
X4284548Y2716021D01*
X4294962Y2726436D01*
X4310710Y2731515D01*
X4315790Y2731515D01*
X4331284Y2726436D01*
X4341698Y2716021D01*
X4347032Y2695194D01*
X4347032Y2669286D01*
X4341698Y2643123D01*
X4331284Y2627629D01*
X4315790Y2622550D01*
X4305376Y2622550D01*
X4289882Y2627629D01*
X4284548Y2638044D01*
X4877308Y1888921D02*
G01*
X4887722Y1894255D01*
X4898136Y1904669D01*
X4903215Y1914829D01*
X4903215Y1935657D01*
X4898136Y1946071D01*
X4887722Y1956485D01*
X4877308Y1961819D01*
X4861559Y1966899D01*
X4835652Y1966899D01*
X4820158Y1961819D01*
X4809743Y1956485D01*
X4799329Y1946071D01*
X4794250Y1935657D01*
X4794250Y1914829D01*
X4799329Y1904669D01*
X4809743Y1894255D01*
X4820158Y1888921D01*
X4882388Y1854631D02*
G01*
X4887722Y1844217D01*
X4903215Y1828723D01*
X4794250Y1828723D01*
X4903215Y1763191D02*
G01*
X4898136Y1778939D01*
X4882388Y1789099D01*
X4856479Y1794433D01*
X4840986Y1794433D01*
X4814824Y1789099D01*
X4799329Y1778939D01*
X4794250Y1763191D01*
X4794250Y1752777D01*
X4799329Y1737283D01*
X4814824Y1726869D01*
X4840986Y1721789D01*
X4856479Y1721789D01*
X4882388Y1726869D01*
X4898136Y1737283D01*
X4903215Y1752777D01*
X4903215Y1763191D01*
X4407408Y1888921D02*
G01*
X4417822Y1894255D01*
X4428236Y1904669D01*
X4433315Y1914829D01*
X4433315Y1935657D01*
X4428236Y1946071D01*
X4417822Y1956485D01*
X4407408Y1961819D01*
X4391659Y1966899D01*
X4365752Y1966899D01*
X4350258Y1961819D01*
X4339843Y1956485D01*
X4329429Y1946071D01*
X4324350Y1935657D01*
X4324350Y1914829D01*
X4329429Y1904669D01*
X4339843Y1894255D01*
X4350258Y1888921D01*
X4433315Y1844217D02*
G01*
X4433315Y1787067D01*
X4391659Y1818309D01*
X4391659Y1802815D01*
X4386579Y1792401D01*
X4381500Y1787067D01*
X4365752Y1781987D01*
X4355338Y1781987D01*
X4339843Y1787067D01*
X4329429Y1797481D01*
X4324350Y1813229D01*
X4324350Y1828723D01*
X4329429Y1844217D01*
X4334509Y1849551D01*
X4344924Y1854631D01*
X5731078Y3175507D02*
G01*
X5725744Y3185921D01*
X5715330Y3196336D01*
X5705170Y3201415D01*
X5684342Y3201415D01*
X5673928Y3196336D01*
X5663514Y3185921D01*
X5658180Y3175507D01*
X5653100Y3159760D01*
X5653100Y3133852D01*
X5658180Y3118357D01*
X5663514Y3107944D01*
X5673928Y3097529D01*
X5684342Y3092450D01*
X5705170Y3092450D01*
X5715330Y3097529D01*
X5725744Y3107944D01*
X5731078Y3118357D01*
X5770448Y3175507D02*
G01*
X5770448Y3180587D01*
X5775782Y3191002D01*
X5780862Y3196336D01*
X5791276Y3201415D01*
X5812104Y3201415D01*
X5822518Y3196336D01*
X5827598Y3191002D01*
X5832932Y3180587D01*
X5832932Y3170173D01*
X5827598Y3159760D01*
X5817184Y3144265D01*
X5765368Y3092450D01*
X5838012Y3092450D01*
D10*
X5918200Y-2159000D02*
G01*
X5410200Y-2159000D01*
X5410200Y-1905000D01*
X5918200Y-1905000D01*
X5918200Y-2159000D01*
D32*
X5168900Y2324100D02*
G01*
X4978400Y2324100D01*
X4978400Y2070100D01*
X6502400Y2070100D01*
X6502400Y2324100D01*
D33*
X6502400Y2324100D02*
G01*
X5168900Y2324100D01*
D32*
X127000Y190500D02*
G01*
X127000Y381000D01*
X-127000Y381000D01*
X-127000Y-381000D01*
X127000Y-381000D01*
D33*
X127000Y-381000D02*
G01*
X127000Y190500D01*
D10*
X6772186Y-370700D02*
G01*
X6695300Y-370700D01*
X6995299Y-370700D02*
G01*
X6918413Y-370700D01*
X6995299Y-670699D02*
G01*
X6695300Y-670699D01*
X4245102Y3957370D02*
G01*
X4245102Y3947388D01*
X4186097Y3888384D01*
X3450107Y3959377D02*
G01*
X3450107Y3947388D01*
X3509111Y3888384D01*
X3509111Y3888384D02*
G01*
X4186097Y3888384D01*
X3448100Y3959377D02*
G01*
X4248099Y3959377D01*
X4248099Y3383381D02*
G01*
X4024756Y3383381D01*
X3673525Y3383381D02*
G01*
X3448100Y3383381D01*
X3448100Y3384397D02*
G01*
X3448100Y3627920D01*
X3448100Y3876814D02*
G01*
X3448100Y3959377D01*
X4248099Y3383381D02*
G01*
X4248099Y3627920D01*
X4248099Y3876814D02*
G01*
X4248099Y3957370D01*
X5801103Y3509002D02*
G01*
X5801103Y3349000D01*
X5451096Y3509002D02*
G01*
X5451099Y3348997D01*
X5676099Y3324999D02*
G01*
X5781098Y3324999D01*
X5676099Y3533000D02*
G01*
X5781098Y3533000D01*
X5576100Y3324999D02*
G01*
X5471101Y3324999D01*
X5576100Y3533000D02*
G01*
X5471101Y3533000D01*
X5451096Y3510993D02*
G01*
X5451096Y3509002D01*
X5451096Y3512995D02*
G01*
X5451096Y3509002D01*
X5451099Y3345002D02*
G01*
X5451099Y3348997D01*
X5801103Y3512995D02*
G01*
X5801103Y3509002D01*
X5801103Y3345004D02*
G01*
X5801103Y3349000D01*
D34*
X4604765Y3337813D02*
G01*
X5274818Y3337813D01*
X5274818Y3012947D01*
X4604765Y3012947D01*
X4604765Y3337813D01*
D32*
X4673600Y-698500D02*
G01*
X4673600Y-952500D01*
X3657600Y-952500D01*
X3657600Y-698500D01*
X3848100Y-698500D01*
D33*
X4673600Y-698500D02*
G01*
X3848100Y-698500D01*
D32*
X4673600Y355600D02*
G01*
X4673600Y101600D01*
X3657600Y101600D01*
X3657600Y355600D01*
X3848100Y355600D01*
D33*
X4673600Y355600D02*
G01*
X3848100Y355600D01*
D10*
X2705100Y2108200D02*
G01*
X1143000Y2108200D01*
X2743100Y4419600D02*
G01*
X2743100Y2119599D01*
X1143101Y4419600D02*
G01*
X1143101Y2119599D01*
X2743100Y4419600D02*
G01*
X1143101Y4419600D01*
X2362200Y-1727200D02*
G01*
X2362200Y-1473200D01*
X2108200Y-1473200D01*
X2108200Y-1714500D01*
X1828800Y-1714500D01*
X1828800Y-1473200D01*
X1562100Y-1473200D01*
X1562100Y-1714500D01*
X3293109Y3879494D02*
G01*
X3293109Y-1720494D01*
X593115Y-1720494D01*
X593115Y3879494D01*
X3293109Y3879494D01*
D35*
X4327519Y1319103D02*
G01*
X4392518Y1319103D01*
X4392518Y1254104D01*
X4327519Y789106D02*
G01*
X4392518Y789106D01*
X4392518Y854105D01*
X3862522Y854105D02*
G01*
X3862522Y789106D01*
X3927520Y789106D01*
X3927520Y1319103D02*
G01*
X3862522Y1319103D01*
X3862522Y1254104D01*
D10*
X7162688Y1061001D02*
G01*
X7162688Y-228988D01*
X5662691Y-228988D01*
X5662691Y1061001D01*
X7162688Y1061001D01*
X4652002Y2364996D02*
G01*
X4492000Y2364996D01*
X4652002Y2715003D02*
G01*
X4491997Y2715000D01*
X4467999Y2490000D02*
G01*
X4467999Y2385001D01*
X4676000Y2490000D02*
G01*
X4676000Y2385001D01*
X4467999Y2589999D02*
G01*
X4467999Y2694998D01*
X4676000Y2589999D02*
G01*
X4676000Y2694998D01*
X4653993Y2715003D02*
G01*
X4652002Y2715003D01*
X4655995Y2715003D02*
G01*
X4652002Y2715003D01*
X4488002Y2715000D02*
G01*
X4491997Y2715000D01*
X4655995Y2364996D02*
G01*
X4652002Y2364996D01*
X4488004Y2364996D02*
G01*
X4492000Y2364996D01*
X4366003Y3128002D02*
G01*
X4366003Y2968000D01*
X4015996Y3128002D02*
G01*
X4015999Y2967997D01*
X4240999Y2943999D02*
G01*
X4345998Y2943999D01*
X4240999Y3152000D02*
G01*
X4345998Y3152000D01*
X4141000Y2943999D02*
G01*
X4036001Y2943999D01*
X4141000Y3152000D02*
G01*
X4036001Y3152000D01*
X4015996Y3129993D02*
G01*
X4015996Y3128002D01*
X4015996Y3131995D02*
G01*
X4015996Y3128002D01*
X4015999Y2964002D02*
G01*
X4015999Y2967997D01*
X4366003Y3131995D02*
G01*
X4366003Y3128002D01*
X4366003Y2964004D02*
G01*
X4366003Y2968000D01*
X4353303Y2543802D02*
G01*
X4353303Y2383800D01*
X4003296Y2543802D02*
G01*
X4003299Y2383797D01*
X4228299Y2359799D02*
G01*
X4333298Y2359799D01*
X4228299Y2567800D02*
G01*
X4333298Y2567800D01*
X4128300Y2359799D02*
G01*
X4023301Y2359799D01*
X4128300Y2567800D02*
G01*
X4023301Y2567800D01*
X4003296Y2545793D02*
G01*
X4003296Y2543802D01*
X4003296Y2547795D02*
G01*
X4003296Y2543802D01*
X4003299Y2379802D02*
G01*
X4003299Y2383797D01*
X4353303Y2547795D02*
G01*
X4353303Y2543802D01*
X4353303Y2379804D02*
G01*
X4353303Y2383800D01*
X4715502Y1780796D02*
G01*
X4555500Y1780796D01*
X4715502Y2130803D02*
G01*
X4555497Y2130800D01*
X4531499Y1905800D02*
G01*
X4531499Y1800801D01*
X4739500Y1905800D02*
G01*
X4739500Y1800801D01*
X4531499Y2005799D02*
G01*
X4531499Y2110798D01*
X4739500Y2005799D02*
G01*
X4739500Y2110798D01*
X4717493Y2130803D02*
G01*
X4715502Y2130803D01*
X4719495Y2130803D02*
G01*
X4715502Y2130803D01*
X4551502Y2130800D02*
G01*
X4555497Y2130800D01*
X4719495Y1780796D02*
G01*
X4715502Y1780796D01*
X4551504Y1780796D02*
G01*
X4555500Y1780796D01*
X4245602Y1780796D02*
G01*
X4085600Y1780796D01*
X4245602Y2130803D02*
G01*
X4085597Y2130800D01*
X4061599Y1905800D02*
G01*
X4061599Y1800801D01*
X4269600Y1905800D02*
G01*
X4269600Y1800801D01*
X4061599Y2005799D02*
G01*
X4061599Y2110798D01*
X4269600Y2005799D02*
G01*
X4269600Y2110798D01*
X4247593Y2130803D02*
G01*
X4245602Y2130803D01*
X4249595Y2130803D02*
G01*
X4245602Y2130803D01*
X4081602Y2130800D02*
G01*
X4085597Y2130800D01*
X4249595Y1780796D02*
G01*
X4245602Y1780796D01*
X4081604Y1780796D02*
G01*
X4085600Y1780796D01*
X5839203Y3013702D02*
G01*
X5839203Y2853700D01*
X5489196Y3013702D02*
G01*
X5489199Y2853697D01*
X5714199Y2829699D02*
G01*
X5819198Y2829699D01*
X5714199Y3037700D02*
G01*
X5819198Y3037700D01*
X5614200Y2829699D02*
G01*
X5509201Y2829699D01*
X5614200Y3037700D02*
G01*
X5509201Y3037700D01*
X5489196Y3015693D02*
G01*
X5489196Y3013702D01*
X5489196Y3017695D02*
G01*
X5489196Y3013702D01*
X5489199Y2849702D02*
G01*
X5489199Y2853697D01*
X5839203Y3017695D02*
G01*
X5839203Y3013702D01*
X5839203Y2849704D02*
G01*
X5839203Y2853700D01*
G75*
G01*
X5471102Y3533000D02*
G03*
X5451097Y3512995I0J-20005D01*
G75*
G01*
X5471102Y3325000D02*
G02*
X5451099Y3345002I0J20002D01*
G75*
G01*
X5781098Y3533000D02*
G02*
X5801103Y3512995I0J-20005D01*
G75*
G01*
X5781098Y3325000D02*
G03*
X5801103Y3345005I0J20005D01*
D36*
G75*
G01*
X4372630Y1354079D02*
G03*
X4372376Y1354079I-127J15001D01*
D10*
G75*
G01*
X4676000Y2694998D02*
G03*
X4655995Y2715003I-20005J0D01*
G75*
G01*
X4468000Y2694998D02*
G02*
X4488002Y2715001I20002J0D01*
G75*
G01*
X4676000Y2385002D02*
G02*
X4655995Y2364997I-20005J0D01*
G75*
G01*
X4468000Y2385002D02*
G03*
X4488005Y2364997I20005J0D01*
G75*
G01*
X4036002Y3152000D02*
G03*
X4015997Y3131995I0J-20005D01*
G75*
G01*
X4036002Y2944000D02*
G02*
X4015999Y2964002I0J20002D01*
G75*
G01*
X4345998Y3152000D02*
G02*
X4366003Y3131995I0J-20005D01*
G75*
G01*
X4345998Y2944000D02*
G03*
X4366003Y2964005I0J20005D01*
G75*
G01*
X4023302Y2567800D02*
G03*
X4003297Y2547795I0J-20005D01*
G75*
G01*
X4023302Y2359800D02*
G02*
X4003299Y2379802I0J20002D01*
G75*
G01*
X4333298Y2567800D02*
G02*
X4353303Y2547795I0J-20005D01*
G75*
G01*
X4333298Y2359800D02*
G03*
X4353303Y2379805I0J20005D01*
G75*
G01*
X4739500Y2110798D02*
G03*
X4719495Y2130803I-20005J0D01*
G75*
G01*
X4531500Y2110798D02*
G02*
X4551502Y2130801I20002J0D01*
G75*
G01*
X4739500Y1800802D02*
G02*
X4719495Y1780797I-20005J0D01*
G75*
G01*
X4531500Y1800802D02*
G03*
X4551505Y1780797I20005J0D01*
G75*
G01*
X4269600Y2110798D02*
G03*
X4249595Y2130803I-20005J0D01*
G75*
G01*
X4061600Y2110798D02*
G02*
X4081602Y2130801I20002J0D01*
G75*
G01*
X4269600Y1800802D02*
G02*
X4249595Y1780797I-20005J0D01*
G75*
G01*
X4061600Y1800802D02*
G03*
X4081605Y1780797I20005J0D01*
G75*
G01*
X5509202Y3037700D02*
G03*
X5489197Y3017695I0J-20005D01*
G75*
G01*
X5509202Y2829700D02*
G02*
X5489199Y2849702I0J20002D01*
G75*
G01*
X5819198Y3037700D02*
G02*
X5839203Y3017695I0J-20005D01*
G75*
G01*
X5819198Y2829700D02*
G03*
X5839203Y2849705I0J20005D01*
G75*
G01
X6925310Y-520700D02*
G03X6925310Y-520700I-80010J0D01*
G75*
G01
X6855308Y-520700D02*
G03X6855308Y-520700I-10008J0D01*
G75*
G01
X7092721Y791007D02*
G03X7092721Y791007I-10008J0D01*
M02*
