G04 Layer: TopSolderMaskLayer*
G04 EasyEDA v6.4.17, 2021-03-16T21:25:48--4:00*
G04 02908657a6854e8f96d385e85a04b694,7db2125e4611476bb2993bf99425ef50,10*
G04 Gerber Generator version 0.2*
G04 Scale: 100 percent, Rotated: No, Reflected: No *
G04 Dimensions in millimeters *
G04 leading zeros omitted , absolute positions ,4 integer and 5 decimal *
%FSLAX45Y45*%
%MOMM*%

%ADD38C,1.5032*%
%ADD39C,0.4832*%
%ADD40C,1.0032*%
%ADD41C,2.0032*%
%ADD48C,1.4032*%
%ADD53C,1.9032*%
%ADD54C,1.7272*%

%LPD*%
D38*
X3486150Y3707366D02*
G01*
X3486150Y3797366D01*
X4210050Y3707366D02*
G01*
X4210050Y3797366D01*
D39*
X4408512Y1204239D02*
G01*
X4346514Y1204239D01*
X4408512Y1154201D02*
G01*
X4346514Y1154201D01*
X4408512Y1104163D02*
G01*
X4346514Y1104163D01*
X4408512Y1054125D02*
G01*
X4346514Y1054125D01*
X4408512Y1004087D02*
G01*
X4346514Y1004087D01*
X4408512Y954049D02*
G01*
X4346514Y954049D01*
X4408512Y904011D02*
G01*
X4346514Y904011D01*
X4277639Y835111D02*
G01*
X4277639Y773112D01*
X4227601Y835111D02*
G01*
X4227601Y773112D01*
X4177563Y835111D02*
G01*
X4177563Y773112D01*
X4127525Y835111D02*
G01*
X4127525Y773112D01*
X4077487Y835111D02*
G01*
X4077487Y773112D01*
X4027449Y835111D02*
G01*
X4027449Y773112D01*
X3977411Y835111D02*
G01*
X3977411Y773112D01*
X3908513Y904011D02*
G01*
X3846515Y904011D01*
X3908513Y954049D02*
G01*
X3846515Y954049D01*
X3908513Y1004087D02*
G01*
X3846515Y1004087D01*
X3908513Y1054125D02*
G01*
X3846515Y1054125D01*
X3908513Y1104163D02*
G01*
X3846515Y1104163D01*
X3908513Y1154201D02*
G01*
X3846515Y1154201D01*
X3908513Y1204239D02*
G01*
X3846515Y1204239D01*
X3977411Y1335110D02*
G01*
X3977411Y1273111D01*
X4027449Y1335110D02*
G01*
X4027449Y1273111D01*
X4077487Y1335110D02*
G01*
X4077487Y1273111D01*
X4127525Y1335110D02*
G01*
X4127525Y1273111D01*
X4177563Y1335110D02*
G01*
X4177563Y1273111D01*
X4227601Y1335110D02*
G01*
X4227601Y1273111D01*
X4277639Y1335110D02*
G01*
X4277639Y1273111D01*
D40*
X7082713Y-68996D02*
G01*
X7082713Y-228996D01*
X6962698Y-68996D02*
G01*
X6962698Y-228996D01*
X6842709Y-68996D02*
G01*
X6842709Y-228996D01*
X6722719Y-68996D02*
G01*
X6722719Y-228996D01*
X6602704Y-68996D02*
G01*
X6602704Y-228996D01*
X6482715Y-68996D02*
G01*
X6482715Y-228996D01*
X6362700Y-68996D02*
G01*
X6362700Y-228996D01*
X6242710Y-68996D02*
G01*
X6242710Y-228996D01*
X6122720Y-68996D02*
G01*
X6122720Y-228996D01*
X6002705Y-68996D02*
G01*
X6002705Y-228996D01*
X5882716Y-68996D02*
G01*
X5882716Y-228996D01*
X5762701Y-68996D02*
G01*
X5762701Y-228996D01*
X5682701Y56006D02*
G01*
X5842701Y56006D01*
X5682701Y175996D02*
G01*
X5842701Y175996D01*
X5682701Y296011D02*
G01*
X5842701Y296011D01*
X5682701Y416001D02*
G01*
X5842701Y416001D01*
X5682701Y535990D02*
G01*
X5842701Y535990D01*
X5682701Y656005D02*
G01*
X5842701Y656005D01*
X5682701Y775995D02*
G01*
X5842701Y775995D01*
X5762701Y1060998D02*
G01*
X5762701Y900998D01*
X5882716Y1060998D02*
G01*
X5882716Y900998D01*
X6002705Y1060998D02*
G01*
X6002705Y900998D01*
X6122720Y1060998D02*
G01*
X6122720Y900998D01*
X6242710Y1060998D02*
G01*
X6242710Y900998D01*
X6362700Y1060998D02*
G01*
X6362700Y900998D01*
X6482715Y1060998D02*
G01*
X6482715Y900998D01*
X6602704Y1060998D02*
G01*
X6602704Y900998D01*
X6722719Y1060998D02*
G01*
X6722719Y900998D01*
X6842709Y1060998D02*
G01*
X6842709Y900998D01*
X6962698Y1060998D02*
G01*
X6962698Y900998D01*
X7082713Y1060998D02*
G01*
X7082713Y900998D01*
D41*
G01*
X5537200Y-2032000D03*
G36*
X5691124Y-2132076D02*
G01*
X5691124Y-1931923D01*
X5891275Y-1931923D01*
X5891275Y-2132076D01*
G37*
G01*
X6375400Y2197100D03*
G01*
X6121400Y2197100D03*
G01*
X5867400Y2197100D03*
G01*
X5613400Y2197100D03*
G01*
X5359400Y2197100D03*
G36*
X5005324Y2097023D02*
G01*
X5005324Y2297176D01*
X5205475Y2297176D01*
X5205475Y2097023D01*
G37*
G01*
X0Y-254000D03*
G01*
X0Y0D03*
G36*
X-100076Y165100D02*
G01*
X-100076Y342900D01*
X100076Y342900D01*
X100076Y165100D01*
G37*
G36*
X6785102Y-430784D02*
G01*
X6785102Y-305562D01*
X6905497Y-305562D01*
X6905497Y-430784D01*
G37*
G36*
X6930136Y-640842D02*
G01*
X6930136Y-400557D01*
X7055358Y-400557D01*
X7055358Y-640842D01*
G37*
G36*
X6635241Y-640842D02*
G01*
X6635241Y-400557D01*
X6760463Y-400557D01*
X6760463Y-640842D01*
G37*
G36*
X3691127Y3295904D02*
G01*
X3691127Y3511804D01*
X3747261Y3511804D01*
X3747261Y3295904D01*
G37*
G36*
X3756152Y3295904D02*
G01*
X3756152Y3511804D01*
X3812031Y3511804D01*
X3812031Y3295904D01*
G37*
G36*
X3821175Y3295904D02*
G01*
X3821175Y3511804D01*
X3877056Y3511804D01*
X3877056Y3295904D01*
G37*
G36*
X3886200Y3295904D02*
G01*
X3886200Y3511804D01*
X3942079Y3511804D01*
X3942079Y3295904D01*
G37*
G36*
X3951224Y3295904D02*
G01*
X3951224Y3511804D01*
X4007104Y3511804D01*
X4007104Y3295904D01*
G37*
G36*
X3598418Y3765042D02*
G01*
X3598418Y3905250D01*
X3778758Y3905250D01*
X3778758Y3765042D01*
G37*
G36*
X3926331Y3763263D02*
G01*
X3926331Y3903726D01*
X4106672Y3903726D01*
X4106672Y3763263D01*
G37*
D48*
G01*
X4090593Y3482365D03*
G01*
X3605606Y3482365D03*
G36*
X5465825Y3341370D02*
G01*
X5465825Y3516629D01*
X5586222Y3516629D01*
X5586222Y3341370D01*
G37*
G36*
X5665977Y3341370D02*
G01*
X5665977Y3516629D01*
X5786374Y3516629D01*
X5786374Y3341370D01*
G37*
G36*
X5105400Y3366770D02*
G01*
X5105400Y3602989D01*
X5234940Y3602989D01*
X5234940Y3366770D01*
G37*
G36*
X4874259Y3366770D02*
G01*
X4874259Y3602989D01*
X5003800Y3602989D01*
X5003800Y3366770D01*
G37*
G36*
X4645659Y3366770D02*
G01*
X4645659Y3602989D01*
X4775200Y3602989D01*
X4775200Y3366770D01*
G37*
G36*
X4753609Y2747010D02*
G01*
X4753609Y2983229D01*
X5124450Y2983229D01*
X5124450Y2747010D01*
G37*
G36*
X3689350Y-920750D02*
G01*
X3689350Y-730250D01*
X3879850Y-730250D01*
X3879850Y-920750D01*
G37*
D53*
G01*
X4038600Y-825500D03*
G01*
X4292600Y-825500D03*
G01*
X4546600Y-825500D03*
G36*
X3689350Y133350D02*
G01*
X3689350Y323850D01*
X3879850Y323850D01*
X3879850Y133350D01*
G37*
G01*
X4038600Y228600D03*
G01*
X4292600Y228600D03*
G01*
X4546600Y228600D03*
D54*
G01*
X3098800Y2260600D03*
G01*
X3098800Y2006600D03*
G01*
X3098800Y1752600D03*
G01*
X3098800Y1498600D03*
G01*
X3098800Y1244600D03*
G01*
X3098800Y990600D03*
G01*
X3098800Y736600D03*
G01*
X3098800Y482600D03*
G01*
X3098800Y228600D03*
G01*
X3098800Y-25400D03*
G01*
X3098800Y-279400D03*
G01*
X3098800Y-533400D03*
G01*
X3098800Y-787400D03*
G01*
X812800Y2260600D03*
G01*
X812800Y2006600D03*
G01*
X812800Y1752600D03*
G01*
X812800Y1498600D03*
G01*
X812800Y1244600D03*
G01*
X812800Y990600D03*
G01*
X812800Y736600D03*
G01*
X812800Y482600D03*
G01*
X812800Y228600D03*
G01*
X812800Y-25400D03*
G01*
X812800Y-279400D03*
G01*
X812800Y-533400D03*
G01*
X812800Y-787400D03*
G01*
X2590800Y3784600D03*
G01*
X2336800Y3784600D03*
G01*
X1574800Y3784600D03*
G01*
X1320800Y3784600D03*
G36*
X3942334Y868934D02*
G01*
X3942334Y1239265D01*
X4312665Y1239265D01*
X4312665Y868934D01*
G37*
G36*
X4484370Y2579878D02*
G01*
X4484370Y2700273D01*
X4659629Y2700273D01*
X4659629Y2579878D01*
G37*
G36*
X4484370Y2379726D02*
G01*
X4484370Y2500121D01*
X4659629Y2500121D01*
X4659629Y2379726D01*
G37*
G36*
X4030725Y2960370D02*
G01*
X4030725Y3135629D01*
X4151122Y3135629D01*
X4151122Y2960370D01*
G37*
G36*
X4230877Y2960370D02*
G01*
X4230877Y3135629D01*
X4351274Y3135629D01*
X4351274Y2960370D01*
G37*
G36*
X4018025Y2376170D02*
G01*
X4018025Y2551429D01*
X4138422Y2551429D01*
X4138422Y2376170D01*
G37*
G36*
X4218177Y2376170D02*
G01*
X4218177Y2551429D01*
X4338574Y2551429D01*
X4338574Y2376170D01*
G37*
G36*
X4547870Y1995678D02*
G01*
X4547870Y2116073D01*
X4723129Y2116073D01*
X4723129Y1995678D01*
G37*
G36*
X4547870Y1795526D02*
G01*
X4547870Y1915921D01*
X4723129Y1915921D01*
X4723129Y1795526D01*
G37*
G36*
X4077970Y1995678D02*
G01*
X4077970Y2116073D01*
X4253229Y2116073D01*
X4253229Y1995678D01*
G37*
G36*
X4077970Y1795526D02*
G01*
X4077970Y1915921D01*
X4253229Y1915921D01*
X4253229Y1795526D01*
G37*
G36*
X5503925Y2846070D02*
G01*
X5503925Y3021329D01*
X5624322Y3021329D01*
X5624322Y2846070D01*
G37*
G36*
X5704077Y2846070D02*
G01*
X5704077Y3021329D01*
X5824474Y3021329D01*
X5824474Y2846070D01*
G37*
M02*
