M48
METRIC,LZ,000.000
;FILE_FORMAT=3:3
;TYPE=PLATED
;Layer: Drill PTH
;EasyEDA v6.4.17, 2021-03-16T21:25:48--4:00
;02908657a6854e8f96d385e85a04b694,7db2125e4611476bb2993bf99425ef50,10
;Gerber Generator version 0.2
;Holesize 1 = 0.305 mm
T01C0.305
;Holesize 2 = 0.310 mm
T02C0.310
;Holesize 3 = 0.701 mm
T03C0.701
;Holesize 4 = 0.915 mm
T04C0.915
;Holesize 5 = 1.101 mm
T05C1.101
;Holesize 6 = 1.200 mm
T06C1.200
%
G05
G90
T01
X040775Y016129
X039370Y027940
T02
X053668Y-003551
X053668Y003965
X063754Y000213
X016203Y000396
X052642Y003500
X055936Y006795
X044910Y010561
X059339Y007828
X058674Y013056
X061214Y008143
X056162Y012007
X045535Y011158
X038491Y032563
X041910Y015240
X039149Y013040
T03
X034862Y037924G85X034862Y037124
X042101Y037924G85X042101Y037124
X040906Y034824
X036056Y034824
T04
X030988Y022606
X030988Y020066
X030988Y017526
X030988Y014986
X030988Y012446
X030988Y009906
X030988Y007366
X030988Y004826
X030988Y002286
X030988Y-000254
X030988Y-002794
X030988Y-005334
X030988Y-007874
X008128Y022606
X008128Y020066
X008128Y017526
X008128Y014986
X008128Y012446
X008128Y009906
X008128Y007366
X008128Y004826
X008128Y002286
X008128Y-000254
X008128Y-002794
X008128Y-005334
X008128Y-007874
X025908Y037846
X023368Y037846
X015748Y037846
X013208Y037846
T05
X037846Y-008255
X040386Y-008255
X042926Y-008255
X045466Y-008255
X037846Y002286
X040386Y002286
X042926Y002286
X045466Y002286
T06
X055372Y-020320
X057912Y-020320
X063754Y021971
X061214Y021971
X058674Y021971
X056134Y021971
X053594Y021971
X051054Y021971
X000000Y-002540
X000000Y000000
X000000Y002540
M30
